<svg width="400" height="374" viewBox="0 0 400 374" fill="none" xmlns="http://www.w3.org/2000/svg">
<path d="M200 373.465C310.457 373.465 400 321.767 400 257.993C400 194.22 310.457 142.521 200 142.521C89.5431 142.521 0 194.22 0 257.993C0 321.767 89.5431 373.465 200 373.465Z" fill="#F0F0F0"/>
<path d="M158.614 345.493C196.703 345.493 227.581 327.667 227.581 305.678C227.581 283.689 196.703 265.863 158.614 265.863C120.524 265.863 89.6465 283.689 89.6465 305.678C89.6465 327.667 120.524 345.493 158.614 345.493Z" fill="#E0E0E0"/>
<path d="M243.432 230.683L240.214 228.824C239.678 228.476 239.232 228.006 238.912 227.453C238.592 226.9 238.407 226.279 238.372 225.641V91.9167C238.407 91.2796 238.591 90.6596 238.91 90.1066C239.228 89.5537 239.672 89.0832 240.206 88.7332L329.641 37.1012C330.21 36.8125 330.84 36.6621 331.479 36.6621C332.117 36.6621 332.747 36.8125 333.317 37.1012L336.534 38.9603C337.07 39.3084 337.516 39.7782 337.837 40.3314C338.157 40.8846 338.342 41.5056 338.376 42.1438V175.868C338.341 176.505 338.157 177.125 337.839 177.678C337.52 178.231 337.076 178.701 336.543 179.051L247.108 230.692C246.538 230.981 245.908 231.131 245.269 231.13C244.63 231.128 244 230.975 243.432 230.683V230.683Z" fill="#455A64"/>
<path d="M338.376 41.8467C338.248 40.8959 337.476 40.5478 336.55 41.0827L247.107 92.7232C246.566 93.0626 246.119 93.5326 245.808 94.09L238.906 90.1085C239.215 89.5469 239.662 89.0735 240.205 88.7332L329.64 37.1012C330.21 36.8125 330.839 36.6621 331.478 36.6621C332.117 36.6621 332.746 36.8125 333.316 37.1012L336.533 38.9603C337.03 39.2803 337.452 39.7038 337.77 40.202C338.088 40.7002 338.295 41.2613 338.376 41.8467V41.8467Z" fill="#455A64"/>
<path d="M246.793 230.836C246.25 231.056 245.666 231.157 245.08 231.132C244.494 231.107 243.92 230.957 243.398 230.692L240.172 228.824C239.638 228.474 239.194 228.004 238.876 227.451C238.557 226.898 238.373 226.278 238.338 225.64V91.9166C238.36 91.2782 238.544 90.6559 238.873 90.1084L245.775 94.0899C245.439 94.6382 245.252 95.2642 245.231 95.9066V229.63C245.265 230.683 245.927 231.167 246.793 230.836Z" fill="#263238"/>
<path d="M245.266 95.9239V229.631C245.266 230.802 246.115 231.278 247.108 230.692L336.543 179.051C337.076 178.701 337.52 178.231 337.839 177.678C338.157 177.125 338.341 176.505 338.377 175.868V42.144C338.377 40.9725 337.528 40.4971 336.543 41.0828L247.108 92.7234C246.569 93.0731 246.122 93.5456 245.802 94.1019C245.481 94.6583 245.298 95.2827 245.266 95.9239V95.9239Z" fill="#37474F"/>
<path d="M224.381 146.86C223.227 146.172 217.87 143.124 217.59 142.963C217.371 142.833 217.185 142.655 217.045 142.443C216.904 142.231 216.813 141.991 216.778 141.739C216.743 141.487 216.765 141.231 216.842 140.988C216.919 140.746 217.05 140.525 217.225 140.34L238.372 117.656L245.265 121.612L224.126 144.313C223.96 144.489 223.834 144.7 223.756 144.929C223.678 145.159 223.65 145.403 223.675 145.644C223.699 145.885 223.774 146.119 223.896 146.328C224.018 146.538 224.183 146.719 224.381 146.86V146.86Z" fill="#455A64"/>
<path d="M245.265 121.638L224.127 144.313C223.892 144.563 223.739 144.879 223.687 145.219C223.636 145.558 223.688 145.905 223.838 146.214C223.988 146.523 224.228 146.78 224.527 146.949C224.825 147.119 225.168 147.194 225.51 147.165L245.265 145.535V121.638Z" fill="#37474F"/>
<path d="M291.821 80.8125C302.246 74.7936 310.693 79.6749 310.693 91.7128C310.693 103.751 302.246 118.378 291.821 124.397C281.396 130.416 272.949 125.534 272.949 113.505C272.949 101.476 281.396 86.8314 291.821 80.8125Z" fill="black"/>
<path d="M291.685 90.2868C295.081 88.3343 297.806 89.9133 297.806 93.8184C297.69 95.9411 297.076 98.0067 296.012 99.8475C294.949 101.688 293.466 103.252 291.685 104.413C288.289 106.366 285.556 104.787 285.556 100.881C285.672 98.758 286.288 96.6919 287.353 94.851C288.418 93.0102 289.902 91.4464 291.685 90.2868V90.2868Z" fill="white"/>
<path d="M303.757 111.103C303.757 104.693 299.249 102.087 293.697 105.296L290.225 107.3C284.673 110.509 280.165 118.336 280.165 124.728V126.485C281.213 126.82 282.307 126.989 283.408 126.986C286.386 126.885 289.286 126.007 291.821 124.439C296.647 121.467 300.729 117.431 303.757 112.639V111.103Z" fill="white"/>
<path d="M279.868 183.984L303.774 170.18C304.792 169.594 305.616 170.07 305.616 171.241V178.941C305.581 179.579 305.396 180.2 305.076 180.753C304.756 181.307 304.31 181.776 303.774 182.124L279.868 195.928C278.849 196.514 278.025 196.038 278.025 194.867V187.167C278.06 186.529 278.245 185.908 278.565 185.355C278.885 184.801 279.331 184.332 279.868 183.984V183.984Z" fill="black"/>
<path d="M268.161 166.784L315.455 139.465C316.669 138.761 317.662 139.33 317.662 140.739V143.6C317.621 144.365 317.399 145.11 317.015 145.774C316.632 146.438 316.097 147.002 315.455 147.42L268.135 174.739C266.921 175.443 265.937 174.874 265.937 173.465V170.63C265.975 169.858 266.197 169.107 266.584 168.438C266.971 167.769 267.511 167.202 268.161 166.784V166.784Z" fill="#FAFAFA"/>
<path d="M273.697 147.013C274.342 146.639 274.843 146.58 275.199 146.843C275.556 147.106 275.734 147.692 275.734 148.592C275.752 149.413 275.569 150.226 275.199 150.96C274.866 151.624 274.343 152.173 273.697 152.539L272.423 153.278V156.02C272.421 156.114 272.398 156.207 272.356 156.291C272.326 156.368 272.272 156.434 272.203 156.478L271.558 156.852C271.535 156.868 271.509 156.877 271.481 156.877C271.454 156.877 271.427 156.868 271.405 156.852C271.359 156.794 271.338 156.721 271.345 156.648V148.71C271.345 148.617 271.365 148.524 271.405 148.439C271.437 148.363 271.49 148.298 271.558 148.252L273.697 147.013ZM272.423 151.741L273.654 151.028C273.952 150.86 274.203 150.621 274.384 150.332C274.578 149.991 274.672 149.603 274.656 149.211C274.656 148.753 274.563 148.49 274.384 148.413C274.259 148.383 274.127 148.381 274.001 148.409C273.874 148.437 273.756 148.494 273.654 148.575L272.423 149.288V151.741Z" fill="#FAFAFA"/>
<path d="M279.291 143.778C279.376 143.727 279.444 143.727 279.486 143.778C279.54 143.854 279.578 143.941 279.596 144.033L281.557 150.671C281.557 150.671 281.557 150.722 281.557 150.748C281.556 150.842 281.533 150.935 281.49 151.019C281.46 151.096 281.406 151.162 281.337 151.206L280.759 151.537C280.658 151.597 280.581 151.605 280.539 151.537C280.498 151.495 280.468 151.442 280.454 151.384L280.106 150.221L277.559 151.682L277.219 153.244C277.195 153.328 277.164 153.41 277.126 153.49C277.084 153.593 277.005 153.678 276.905 153.727L276.328 154.059C276.307 154.076 276.28 154.086 276.252 154.086C276.224 154.086 276.197 154.076 276.175 154.059C276.131 154.004 276.109 153.934 276.116 153.863C276.111 153.832 276.111 153.801 276.116 153.77L278.068 144.873C278.092 144.742 278.129 144.614 278.179 144.491C278.22 144.402 278.288 144.328 278.374 144.279L279.291 143.778ZM279.732 148.922L278.883 145.926L278.034 149.933L279.732 148.922Z" fill="#FAFAFA"/>
<path d="M284.529 140.629C284.813 140.449 285.136 140.342 285.471 140.315C285.708 140.293 285.945 140.347 286.15 140.467C286.336 140.588 286.481 140.763 286.566 140.968C286.659 141.177 286.711 141.402 286.719 141.63C286.725 141.725 286.704 141.819 286.659 141.902C286.629 141.979 286.576 142.044 286.507 142.089L285.946 142.411C285.853 142.462 285.785 142.471 285.743 142.411C285.69 142.377 285.646 142.33 285.615 142.276C285.581 142.199 285.532 142.131 285.471 142.074C285.41 142.017 285.337 141.973 285.259 141.945C285 141.908 284.738 141.975 284.529 142.131C284.391 142.22 284.26 142.319 284.138 142.428C284.012 142.544 283.901 142.676 283.807 142.819C283.717 142.957 283.643 143.105 283.586 143.26C283.536 143.408 283.51 143.563 283.51 143.719C283.5 143.862 283.526 144.005 283.586 144.135C283.612 144.18 283.649 144.219 283.694 144.247C283.738 144.275 283.789 144.292 283.841 144.296C283.998 144.323 284.159 144.323 284.316 144.296L285.055 144.135C285.33 144.053 285.617 144.019 285.904 144.033C286.109 144.032 286.308 144.098 286.473 144.22C286.628 144.35 286.741 144.525 286.795 144.721C286.878 144.996 286.916 145.282 286.906 145.57C286.905 145.949 286.851 146.326 286.744 146.69C286.641 147.064 286.489 147.424 286.294 147.76C286.089 148.104 285.844 148.423 285.564 148.711C285.279 149.007 284.953 149.261 284.597 149.466C284.335 149.625 284.048 149.737 283.748 149.797C283.503 149.844 283.251 149.824 283.018 149.738C282.805 149.639 282.63 149.476 282.517 149.271C282.378 149.009 282.302 148.718 282.296 148.422C282.295 148.325 282.315 148.23 282.355 148.142C282.393 148.07 282.449 148.008 282.517 147.964L283.077 147.641C283.162 147.59 283.23 147.573 283.281 147.598C283.332 147.624 283.366 147.666 283.4 147.743C283.435 147.83 283.48 147.913 283.535 147.989C283.588 148.063 283.662 148.119 283.748 148.15C283.859 148.176 283.975 148.176 284.087 148.15C284.267 148.108 284.439 148.036 284.597 147.938C284.761 147.844 284.917 147.736 285.063 147.615C285.349 147.39 285.576 147.098 285.726 146.767C285.794 146.596 285.828 146.415 285.827 146.232C285.835 146.165 285.83 146.098 285.811 146.034C285.792 145.969 285.76 145.91 285.717 145.858C285.671 145.818 285.617 145.788 285.558 145.77C285.5 145.752 285.438 145.748 285.378 145.756C285.185 145.764 284.994 145.796 284.809 145.85C284.588 145.901 284.333 145.96 284.036 146.011C283.809 146.068 283.573 146.085 283.34 146.062C283.156 146.05 282.982 145.975 282.848 145.85C282.701 145.706 282.598 145.523 282.551 145.323C282.482 145.028 282.451 144.726 282.457 144.423C282.457 144.05 282.511 143.678 282.619 143.32C282.72 142.951 282.868 142.598 283.06 142.267C283.244 141.939 283.466 141.634 283.722 141.359C283.955 141.078 284.227 140.833 284.529 140.629V140.629Z" fill="#FAFAFA"/>
<path d="M290.106 137.42C290.388 137.235 290.712 137.124 291.048 137.097C291.285 137.077 291.522 137.13 291.727 137.25C291.908 137.374 292.05 137.548 292.135 137.751C292.227 137.96 292.279 138.184 292.287 138.413C292.297 138.507 292.276 138.603 292.228 138.684C292.198 138.761 292.144 138.827 292.075 138.871L291.515 139.194C291.43 139.245 291.362 139.262 291.311 139.194C291.257 139.16 291.215 139.109 291.192 139.049C291.115 138.901 290.985 138.786 290.827 138.727C290.7 138.708 290.571 138.715 290.447 138.747C290.324 138.779 290.207 138.836 290.106 138.914C289.964 139 289.83 139.1 289.707 139.211C289.583 139.327 289.475 139.458 289.384 139.601C289.29 139.738 289.216 139.886 289.163 140.043C289.11 140.19 289.082 140.345 289.078 140.501C289.068 140.644 289.095 140.787 289.155 140.917C289.181 140.963 289.218 141.001 289.262 141.029C289.306 141.057 289.357 141.074 289.409 141.078C289.567 141.106 289.728 141.106 289.885 141.078L290.623 140.917C290.9 140.84 291.186 140.806 291.472 140.815C291.677 140.813 291.877 140.879 292.041 141.002C292.196 141.135 292.311 141.308 292.372 141.503C292.447 141.779 292.481 142.065 292.474 142.352C292.473 142.731 292.419 143.108 292.313 143.472C292.209 143.847 292.058 144.206 291.863 144.542C291.658 144.89 291.413 145.212 291.133 145.501C290.846 145.79 290.524 146.041 290.173 146.248C289.912 146.407 289.625 146.519 289.325 146.58C289.083 146.626 288.834 146.605 288.603 146.52C288.387 146.425 288.208 146.26 288.094 146.053C287.954 145.792 287.881 145.5 287.881 145.204C287.871 145.11 287.892 145.014 287.941 144.933C287.971 144.856 288.024 144.79 288.094 144.746L288.654 144.423C288.739 144.372 288.815 144.355 288.858 144.381C288.887 144.394 288.913 144.414 288.934 144.439C288.954 144.464 288.969 144.494 288.976 144.525C289.015 144.611 289.06 144.693 289.112 144.771C289.168 144.846 289.245 144.902 289.333 144.933C289.445 144.958 289.561 144.958 289.673 144.933C289.853 144.89 290.025 144.818 290.182 144.72C290.343 144.624 290.496 144.516 290.64 144.398C290.789 144.281 290.921 144.144 291.031 143.99C291.141 143.844 291.232 143.684 291.303 143.515C291.371 143.345 291.405 143.163 291.404 142.98C291.412 142.914 291.407 142.846 291.388 142.782C291.369 142.718 291.337 142.658 291.294 142.607C291.248 142.566 291.194 142.536 291.135 142.518C291.077 142.501 291.015 142.496 290.954 142.505C290.765 142.516 290.577 142.548 290.394 142.598C290.173 142.649 289.91 142.708 289.622 142.759C289.391 142.816 289.153 142.833 288.917 142.81C288.733 142.801 288.558 142.725 288.425 142.598C288.281 142.453 288.18 142.271 288.136 142.072C288.061 141.781 288.026 141.481 288.034 141.18C288.037 140.804 288.091 140.43 288.195 140.068C288.3 139.701 288.449 139.348 288.637 139.016C288.821 138.685 289.046 138.38 289.308 138.107C289.536 137.838 289.805 137.606 290.106 137.42V137.42Z" fill="#FAFAFA"/>
<path d="M296.295 138.481L295.607 142.547C295.587 142.669 295.552 142.789 295.505 142.904C295.472 142.995 295.409 143.073 295.327 143.124L294.682 143.498C294.597 143.549 294.537 143.549 294.495 143.498C294.438 143.428 294.405 143.342 294.402 143.252L293.383 136.078C293.383 136.078 293.383 136.01 293.383 135.985C293.385 135.89 293.408 135.798 293.451 135.713C293.483 135.638 293.536 135.573 293.604 135.526L294.189 135.187C294.238 135.167 294.293 135.167 294.342 135.187C294.393 135.187 294.427 135.255 294.444 135.391L295.115 140.221L295.7 136.596C295.716 136.506 295.741 136.417 295.777 136.333C295.81 136.226 295.883 136.135 295.981 136.078L296.634 135.696C296.728 135.645 296.796 135.654 296.838 135.696C296.875 135.75 296.901 135.811 296.914 135.875L297.509 138.82L298.179 133.217C298.187 133.107 298.219 133 298.273 132.903C298.312 132.84 298.364 132.785 298.425 132.742L299.011 132.402C299.033 132.386 299.06 132.377 299.088 132.377C299.115 132.377 299.142 132.386 299.164 132.402C299.188 132.43 299.207 132.463 299.218 132.498C299.23 132.532 299.235 132.569 299.232 132.606C299.235 132.64 299.235 132.674 299.232 132.708L298.213 141.053C298.196 141.175 298.165 141.295 298.12 141.41C298.081 141.5 298.016 141.577 297.933 141.63L297.279 142.004C297.203 142.046 297.144 142.046 297.101 142.004C297.058 141.926 297.024 141.843 296.999 141.758L296.295 138.481Z" fill="#FAFAFA"/>
<path d="M300.267 134.881C300.286 134.411 300.343 133.942 300.437 133.481C300.534 133.03 300.682 132.591 300.879 132.173C301.066 131.767 301.306 131.388 301.592 131.044C301.882 130.704 302.23 130.416 302.619 130.195C302.918 129.992 303.268 129.878 303.629 129.864C303.899 129.867 304.157 129.974 304.351 130.161C304.556 130.392 304.705 130.669 304.784 130.968C304.893 131.358 304.953 131.76 304.962 132.165C304.962 132.318 304.962 132.487 304.962 132.674C304.962 132.861 304.962 133.056 304.962 133.26C304.962 133.464 304.962 133.659 304.962 133.846C304.962 134.033 304.962 134.211 304.962 134.372C304.944 134.84 304.887 135.306 304.792 135.764C304.694 136.214 304.549 136.652 304.359 137.072C304.166 137.476 303.924 137.856 303.638 138.201C303.348 138.538 303.003 138.825 302.619 139.05C302.313 139.251 301.958 139.366 301.592 139.381C301.46 139.383 301.328 139.359 301.206 139.31C301.083 139.26 300.972 139.186 300.879 139.092C300.657 138.854 300.505 138.561 300.437 138.243C300.336 137.852 300.279 137.45 300.267 137.046C300.267 136.893 300.267 136.724 300.267 136.537C300.267 136.35 300.267 136.155 300.267 135.951C300.267 135.747 300.267 135.561 300.267 135.365C300.267 135.17 300.259 135.034 300.267 134.881ZM303.884 132.853C303.903 132.645 303.879 132.435 303.815 132.237C303.751 132.039 303.647 131.855 303.51 131.698C303.29 131.503 302.984 131.511 302.619 131.698C302.223 131.931 301.908 132.281 301.719 132.7C301.478 133.195 301.351 133.737 301.346 134.287C301.346 134.601 301.346 134.949 301.346 135.331C301.346 135.713 301.346 136.053 301.346 136.359C301.327 136.566 301.35 136.776 301.414 136.974C301.478 137.173 301.582 137.356 301.719 137.513C301.94 137.7 302.245 137.683 302.619 137.471C303.009 137.236 303.319 136.89 303.51 136.477C303.751 135.986 303.879 135.446 303.884 134.898C303.884 134.576 303.884 134.228 303.884 133.846C303.884 133.464 303.892 133.158 303.884 132.853Z" fill="#FAFAFA"/>
<path d="M308.663 126.808C309.334 126.426 309.835 126.367 310.183 126.647C310.389 126.874 310.542 127.144 310.632 127.438C310.721 127.731 310.745 128.041 310.701 128.345C310.708 128.921 310.619 129.495 310.437 130.042C310.265 130.552 309.997 131.025 309.648 131.435L310.751 133.837C310.755 133.877 310.755 133.916 310.751 133.956C310.752 134.033 310.734 134.108 310.701 134.177C310.677 134.238 310.636 134.292 310.582 134.33L309.903 134.72C309.792 134.779 309.716 134.788 309.665 134.72C309.62 134.676 309.583 134.624 309.554 134.567L308.51 132.301L307.449 132.912V135.781C307.45 135.875 307.43 135.968 307.39 136.053C307.355 136.127 307.302 136.191 307.237 136.24L306.592 136.613C306.57 136.631 306.543 136.641 306.515 136.641C306.487 136.641 306.46 136.631 306.439 136.613C306.415 136.587 306.396 136.556 306.384 136.523C306.373 136.489 306.368 136.453 306.371 136.418V128.48C306.373 128.386 306.397 128.293 306.439 128.209C306.469 128.132 306.522 128.067 306.592 128.022L308.663 126.808ZM307.466 131.375L308.663 130.73C308.956 130.567 309.206 130.337 309.393 130.059C309.59 129.732 309.684 129.354 309.665 128.973C309.665 128.514 309.571 128.26 309.393 128.209C309.135 128.174 308.873 128.241 308.663 128.396L307.509 129.058L307.466 131.375Z" fill="#FAFAFA"/>
<path d="M314.352 123.539C314.66 123.338 315.012 123.216 315.379 123.183C315.644 123.173 315.903 123.267 316.1 123.446C316.325 123.682 316.481 123.976 316.55 124.295C316.664 124.716 316.727 125.149 316.737 125.585C316.737 126.18 316.737 126.791 316.737 127.411C316.72 127.916 316.657 128.419 316.55 128.913C316.453 129.372 316.305 129.819 316.109 130.246C315.919 130.638 315.68 131.003 315.396 131.333C315.112 131.67 314.773 131.957 314.394 132.182L312.382 133.277C312.361 133.295 312.334 133.304 312.306 133.304C312.278 133.304 312.251 133.295 312.229 133.277C312.204 133.251 312.186 133.22 312.174 133.186C312.162 133.153 312.158 133.117 312.161 133.081V125.144C312.164 125.049 312.187 124.957 312.229 124.872C312.259 124.795 312.313 124.73 312.382 124.685L314.352 123.539ZM315.659 126.18C315.655 125.95 315.621 125.721 315.557 125.5C315.518 125.333 315.432 125.18 315.311 125.059C315.258 125.006 315.194 124.964 315.124 124.936C315.054 124.908 314.979 124.895 314.903 124.898C314.691 124.912 314.486 124.982 314.309 125.101L313.24 125.713V131.248L314.352 130.611C314.567 130.486 314.759 130.325 314.92 130.136C315.078 129.949 315.213 129.744 315.319 129.524C315.425 129.29 315.505 129.046 315.557 128.794C315.616 128.532 315.65 128.265 315.659 127.996C315.684 127.377 315.684 126.774 315.659 126.18V126.18Z" fill="#FAFAFA"/>
<path d="M197.776 0.325382C199.241 0.65144 200.653 1.18304 201.969 1.9044C203.23 2.58208 204.36 3.47899 205.306 4.55307C206.211 5.58627 206.882 6.80238 207.275 8.11858C207.676 9.52749 207.705 11.0161 207.36 12.4396C207.132 13.5683 206.685 14.6413 206.044 15.5977C205.459 16.4155 204.762 17.1471 203.973 17.7709C203.198 18.3724 202.371 18.9037 201.502 19.3584L199.057 20.6573C198.321 21.0414 197.622 21.4933 196.969 22.0071C196.379 22.4601 195.926 23.0686 195.662 23.7644C195.532 24.0823 195.318 24.3584 195.042 24.5624C194.911 24.6638 194.759 24.7342 194.598 24.768C194.436 24.8018 194.268 24.7983 194.108 24.7577L190.509 23.9597C190.335 23.9233 190.171 23.8528 190.025 23.7522C189.88 23.6516 189.755 23.523 189.66 23.3739C189.558 23.2352 189.491 23.0746 189.463 22.905C189.435 22.7354 189.447 22.5616 189.498 22.3976C189.788 21.2829 190.299 20.2378 191.001 19.3245C191.641 18.5166 192.383 17.7947 193.208 17.1767C194.012 16.5883 194.864 16.0686 195.755 15.6231C196.604 15.1902 197.453 14.7742 198.192 14.3582C198.879 13.989 199.525 13.5479 200.119 13.0424C200.64 12.606 201.001 12.0087 201.146 11.3445C201.281 10.7677 201.274 10.1668 201.126 9.59322C200.978 9.0196 200.694 8.49032 200.297 8.05067C199.304 6.96684 197.977 6.24658 196.528 6.00474C193.845 5.41049 191.581 6.31319 189.736 8.71284C189.558 8.97477 189.334 9.20204 189.074 9.38349C188.781 9.52875 188.443 9.55314 188.132 9.45141L184.303 8.60247C184.03 8.54971 183.789 8.391 183.632 8.16103C183.549 8.03816 183.493 7.89875 183.468 7.75227C183.443 7.60579 183.45 7.45567 183.488 7.3121C183.813 6.13246 184.419 5.049 185.254 4.15407C186.195 3.11621 187.313 2.25387 188.556 1.60727C189.915 0.896204 191.38 0.408889 192.894 0.164086C194.516 -0.0997709 196.174 -0.0449853 197.776 0.325382V0.325382ZM193.709 27.644C194.046 27.7231 194.338 27.9308 194.524 28.2227C194.71 28.5146 194.774 28.8676 194.702 29.2061L193.786 33.3658C193.755 33.54 193.687 33.7057 193.588 33.852C193.488 33.9982 193.359 34.1219 193.208 34.2148C193.066 34.3127 192.905 34.38 192.736 34.4121C192.566 34.4443 192.392 34.4407 192.224 34.4015L188.115 33.4592C187.94 33.4298 187.774 33.3629 187.627 33.2633C187.481 33.1637 187.357 33.0336 187.266 32.8819C187.171 32.7386 187.106 32.5773 187.075 32.4079C187.044 32.2386 187.049 32.0648 187.087 31.8972L188.013 27.7374C188.092 27.4002 188.299 27.107 188.591 26.9201C188.882 26.7331 189.235 26.6669 189.575 26.7357L193.709 27.644Z" fill="black"/>
<path d="M202.309 40.1488C203.331 39.9848 204.371 39.9648 205.399 40.0893C206.381 40.206 207.334 40.4933 208.217 40.9383C209.058 41.3745 209.798 41.9817 210.391 42.721C210.923 43.4446 211.298 44.2717 211.491 45.149C211.684 46.0264 211.691 46.9344 211.511 47.8146C211.349 48.4913 211.089 49.1406 210.739 49.7417C210.401 50.3263 210.009 50.8778 209.567 51.3886C209.134 51.898 208.718 52.3819 208.336 52.8488C207.962 53.2838 207.63 53.7527 207.343 54.2495C207.074 54.685 206.938 55.1896 206.952 55.7012C206.945 55.9403 206.878 56.1738 206.757 56.3803C206.696 56.4755 206.615 56.5566 206.52 56.618C206.424 56.6795 206.317 56.72 206.205 56.7369L203.658 57.1444C203.539 57.166 203.417 57.1636 203.299 57.1373C203.181 57.1111 203.07 57.0615 202.971 56.9916C202.871 56.9285 202.787 56.8425 202.726 56.7407C202.666 56.6388 202.63 56.5241 202.623 56.4058C202.516 55.6158 202.574 54.8123 202.793 54.0458C202.992 53.3672 203.277 52.7167 203.642 52.1102C203.998 51.5281 204.408 50.9797 204.864 50.4718C205.314 49.9624 205.713 49.487 206.103 49.0286C206.452 48.6192 206.754 48.1721 207.003 47.6958C207.224 47.2857 207.305 46.8146 207.232 46.3545C207.169 45.9495 207.008 45.5659 206.764 45.2363C206.52 44.9067 206.2 44.6408 205.832 44.4613C204.919 44.0205 203.886 43.895 202.894 44.1048C201.997 44.2361 201.161 44.6419 200.503 45.2665C199.845 45.8912 199.396 46.7041 199.219 47.5939C199.169 47.8079 199.083 48.0118 198.964 48.1966C198.812 48.3578 198.607 48.4575 198.387 48.4768L195.704 48.9097C195.515 48.9458 195.32 48.9062 195.161 48.7994C195.079 48.7432 195.01 48.6702 194.959 48.5853C194.908 48.5004 194.875 48.4055 194.864 48.307C194.784 47.4646 194.915 46.6156 195.246 45.8366C195.581 44.9302 196.076 44.0908 196.706 43.3577C197.396 42.555 198.21 41.8673 199.117 41.3203C200.095 40.727 201.179 40.3292 202.309 40.1488V40.1488ZM206.689 58.6979C206.806 58.6794 206.925 58.6841 207.041 58.7118C207.156 58.7394 207.264 58.7896 207.36 58.8592C207.46 58.925 207.545 59.0112 207.609 59.1122C207.674 59.2131 207.716 59.3265 207.733 59.445L208.209 62.3568C208.246 62.593 208.188 62.8342 208.048 63.0281C207.908 63.222 207.697 63.3529 207.462 63.3925L204.618 63.8594C204.382 63.8959 204.141 63.838 203.947 63.6981C203.849 63.6315 203.765 63.5449 203.702 63.444C203.64 63.3431 203.599 63.2301 203.582 63.1124L203.107 60.2005C203.085 60.0837 203.088 59.9636 203.116 59.8481C203.144 59.7326 203.196 59.6242 203.268 59.5299C203.335 59.4314 203.421 59.348 203.522 59.2851C203.623 59.2223 203.736 59.1813 203.854 59.1648L206.689 58.6979Z" fill="black"/>
<g opacity="0.2">
<path d="M202.31 40.1488C203.332 39.9848 204.372 39.9648 205.4 40.0893C206.382 40.206 207.335 40.4933 208.218 40.9383C209.059 41.3745 209.799 41.9817 210.391 42.721C210.924 43.4446 211.299 44.2717 211.492 45.149C211.685 46.0264 211.692 46.9344 211.512 47.8146C211.35 48.4913 211.09 49.1406 210.74 49.7417C210.402 50.3263 210.01 50.8778 209.568 51.3886C209.135 51.898 208.719 52.3819 208.337 52.8488C207.963 53.2838 207.631 53.7527 207.344 54.2495C207.075 54.685 206.939 55.1896 206.953 55.7012C206.946 55.9403 206.879 56.1738 206.758 56.3803C206.697 56.4755 206.616 56.5566 206.521 56.618C206.425 56.6795 206.318 56.72 206.206 56.7369L203.659 57.1444C203.54 57.166 203.418 57.1636 203.3 57.1373C203.182 57.1111 203.07 57.0615 202.972 56.9916C202.872 56.9285 202.788 56.8425 202.727 56.7407C202.667 56.6388 202.631 56.5241 202.624 56.4058C202.517 55.6158 202.575 54.8123 202.794 54.0458C202.993 53.3672 203.278 52.7167 203.642 52.1102C203.999 51.5281 204.409 50.9797 204.865 50.4718C205.315 49.9624 205.714 49.487 206.104 49.0286C206.453 48.6192 206.755 48.1721 207.004 47.6958C207.225 47.2857 207.306 46.8146 207.233 46.3545C207.17 45.9495 207.009 45.5659 206.765 45.2363C206.521 44.9067 206.201 44.6408 205.833 44.4613C204.92 44.0205 203.887 43.895 202.895 44.1048C201.998 44.2361 201.162 44.6419 200.504 45.2665C199.846 45.8912 199.397 46.7041 199.22 47.5939C199.17 47.8079 199.084 48.0118 198.965 48.1966C198.813 48.3578 198.608 48.4575 198.388 48.4768L195.705 48.9097C195.516 48.9458 195.321 48.9062 195.162 48.7994C195.08 48.7432 195.011 48.6702 194.96 48.5853C194.909 48.5004 194.876 48.4055 194.865 48.307C194.785 47.4646 194.916 46.6156 195.247 45.8366C195.582 44.9302 196.077 44.0908 196.707 43.3577C197.397 42.555 198.211 41.8673 199.118 41.3203C200.096 40.727 201.18 40.3292 202.31 40.1488V40.1488ZM206.69 58.6979C206.807 58.6794 206.926 58.6841 207.042 58.7118C207.157 58.7394 207.265 58.7896 207.361 58.8592C207.461 58.925 207.546 59.0112 207.61 59.1122C207.675 59.2131 207.717 59.3265 207.734 59.445L208.21 62.3568C208.247 62.593 208.189 62.8342 208.049 63.0281C207.909 63.222 207.698 63.3529 207.463 63.3925L204.619 63.8594C204.383 63.8959 204.142 63.838 203.948 63.6981C203.85 63.6315 203.766 63.5449 203.703 63.444C203.64 63.3431 203.599 63.2301 203.583 63.1124L203.108 60.2005C203.086 60.0837 203.089 59.9636 203.117 59.8481C203.145 59.7326 203.197 59.6242 203.269 59.5299C203.336 59.4314 203.422 59.348 203.523 59.2851C203.624 59.2223 203.737 59.1813 203.855 59.1648L206.69 58.6979Z" fill="black"/>
</g>
<path d="M226.317 44.7247C226.433 44.8051 226.531 44.9084 226.605 45.0281C226.68 45.1478 226.729 45.2814 226.75 45.4208C226.777 45.5589 226.775 45.7011 226.744 45.8385C226.714 45.9758 226.655 46.1053 226.572 46.2188L224.551 49.0627C224.471 49.1785 224.367 49.2766 224.248 49.351C224.128 49.4255 223.994 49.4747 223.855 49.4957C223.717 49.5227 223.575 49.5208 223.437 49.4901C223.3 49.4594 223.17 49.4006 223.057 49.3174L220.273 47.3394C220.157 47.26 220.059 47.1569 219.986 47.0369C219.912 46.9169 219.866 46.7827 219.848 46.6433C219.821 46.5052 219.823 46.3629 219.854 46.2256C219.884 46.0883 219.943 45.9588 220.026 45.8453L222.072 43.0014C222.238 42.7708 222.487 42.6148 222.767 42.5672C223.047 42.5195 223.334 42.584 223.566 42.7467L226.317 44.7247ZM238.066 25.4624C239.081 26.1739 239.985 27.0322 240.749 28.0092C241.493 28.918 242.068 29.9531 242.447 31.0654C242.799 32.1312 242.918 33.2604 242.795 34.3762C242.651 35.5661 242.2 36.6982 241.487 37.6616C240.958 38.4405 240.276 39.1046 239.484 39.6141C238.787 40.0513 238.028 40.3831 237.234 40.5989C236.46 40.8011 235.671 40.9374 234.874 41.0064L232.616 41.2101C231.939 41.2642 231.268 41.3807 230.613 41.5582C230.008 41.6955 229.454 42.0016 229.017 42.4411C228.819 42.6418 228.569 42.783 228.295 42.8485C228.165 42.8859 228.027 42.8916 227.894 42.865C227.761 42.8384 227.637 42.7804 227.531 42.6957L225.069 40.9469C224.834 40.7789 224.673 40.5264 224.619 40.2423C224.587 40.1046 224.588 39.9614 224.622 39.8242C224.656 39.6871 224.722 39.5598 224.814 39.4528C225.389 38.7066 226.108 38.0831 226.928 37.6191C227.666 37.216 228.454 36.9106 229.271 36.7108C230.06 36.5194 230.864 36.3973 231.674 36.3457C232.472 36.2948 233.219 36.2354 233.915 36.1674C234.552 36.1112 235.181 35.9859 235.791 35.7939C236.324 35.6162 236.784 35.267 237.098 34.8007C237.382 34.4069 237.567 33.9504 237.636 33.4701C237.706 32.9897 237.658 32.4997 237.497 32.0416C237.096 30.9102 236.328 29.9451 235.316 29.2996C233.482 27.9922 231.481 27.9498 229.314 29.1722C229.096 29.3111 228.854 29.4089 228.601 29.4609C228.469 29.4701 228.336 29.453 228.211 29.4108C228.086 29.3685 227.97 29.3019 227.87 29.2147L225.256 27.3555C225.161 27.2927 225.08 27.2114 225.017 27.1166C224.955 27.0219 224.912 26.9154 224.891 26.8037C224.87 26.6882 224.874 26.5697 224.902 26.4557C224.93 26.3418 224.981 26.2348 225.052 26.1416C225.669 25.3511 226.471 24.7243 227.387 24.3163C228.427 23.8449 229.542 23.5577 230.68 23.4674C231.933 23.3627 233.195 23.4631 234.416 23.7645C235.733 24.082 236.974 24.6593 238.066 25.4624V25.4624Z" fill="black"/>
<g opacity="0.6">
<path d="M226.317 44.7247C226.433 44.8051 226.531 44.9084 226.605 45.0281C226.68 45.1478 226.729 45.2814 226.75 45.4208C226.777 45.5589 226.775 45.7011 226.744 45.8385C226.714 45.9758 226.655 46.1053 226.572 46.2188L224.551 49.0627C224.471 49.1785 224.367 49.2766 224.248 49.351C224.128 49.4255 223.994 49.4747 223.855 49.4957C223.717 49.5227 223.575 49.5208 223.437 49.4901C223.3 49.4594 223.17 49.4006 223.057 49.3174L220.273 47.3394C220.157 47.26 220.059 47.1569 219.986 47.0369C219.912 46.9169 219.866 46.7827 219.848 46.6433C219.821 46.5052 219.823 46.3629 219.854 46.2256C219.884 46.0883 219.943 45.9588 220.026 45.8453L222.072 43.0014C222.238 42.7708 222.487 42.6148 222.767 42.5672C223.047 42.5195 223.334 42.584 223.566 42.7467L226.317 44.7247ZM238.066 25.4624C239.081 26.1739 239.985 27.0322 240.749 28.0092C241.493 28.918 242.068 29.9531 242.447 31.0654C242.799 32.1312 242.918 33.2604 242.795 34.3762C242.651 35.5661 242.2 36.6982 241.487 37.6616C240.958 38.4405 240.276 39.1046 239.484 39.6141C238.787 40.0513 238.028 40.3831 237.234 40.5989C236.46 40.8011 235.671 40.9374 234.874 41.0064L232.616 41.2101C231.939 41.2642 231.268 41.3807 230.613 41.5582C230.008 41.6955 229.454 42.0016 229.017 42.4411C228.819 42.6418 228.569 42.783 228.295 42.8485C228.165 42.8859 228.027 42.8916 227.894 42.865C227.761 42.8384 227.637 42.7804 227.531 42.6957L225.069 40.9469C224.834 40.7789 224.673 40.5264 224.619 40.2423C224.587 40.1046 224.588 39.9614 224.622 39.8242C224.656 39.6871 224.722 39.5598 224.814 39.4528C225.389 38.7066 226.108 38.0831 226.928 37.6191C227.666 37.216 228.454 36.9106 229.271 36.7108C230.06 36.5194 230.864 36.3973 231.674 36.3457C232.472 36.2948 233.219 36.2354 233.915 36.1674C234.552 36.1112 235.181 35.9859 235.791 35.7939C236.324 35.6162 236.784 35.267 237.098 34.8007C237.382 34.4069 237.567 33.9504 237.636 33.4701C237.706 32.9897 237.658 32.4997 237.497 32.0416C237.096 30.9102 236.328 29.9451 235.316 29.2996C233.482 27.9922 231.481 27.9498 229.314 29.1722C229.096 29.3111 228.854 29.4089 228.601 29.4609C228.469 29.4701 228.336 29.453 228.211 29.4108C228.086 29.3685 227.97 29.3019 227.87 29.2147L225.256 27.3555C225.161 27.2927 225.08 27.2114 225.017 27.1166C224.955 27.0219 224.912 26.9154 224.891 26.8037C224.87 26.6882 224.874 26.5697 224.902 26.4557C224.93 26.3418 224.981 26.2348 225.052 26.1416C225.669 25.3511 226.471 24.7243 227.387 24.3163C228.427 23.8449 229.542 23.5577 230.68 23.4674C231.933 23.3627 233.195 23.4631 234.416 23.7645C235.733 24.082 236.974 24.6593 238.066 25.4624V25.4624Z" fill="white"/>
</g>
<path d="M163.098 119.872H132.936V46.7957C132.936 40.4487 135.457 34.3616 139.945 29.8736C144.433 25.3856 150.52 22.8643 156.867 22.8643H159.651C165.998 22.8643 172.085 25.3856 176.574 29.8736C181.062 34.3616 183.583 40.4487 183.583 46.7957V99.4295C183.572 104.855 181.408 110.054 177.568 113.887C173.728 117.719 168.524 119.872 163.098 119.872Z" fill="#263238"/>
<path d="M129.999 295.796C129.466 298.824 129.182 301.89 129.15 304.964C129.04 310.533 128.021 312.511 127.885 317.079C127.724 322.3 128.632 324.252 130.746 327.189C132.86 330.127 138.387 332.784 140.781 327.826C143.175 322.868 142.827 319.617 142.071 314.498C141.298 309.201 141.222 306.272 140.747 302.239C140.356 298.682 139.898 295.974 139.898 295.974L129.999 295.796Z" fill="#263238"/>
<path d="M145.806 258.808L127.469 258.477C127.74 270.719 129.684 284.31 130.016 295.83C130.083 297.995 129.965 312.63 130.78 317.053C132.011 323.743 139.94 322.835 140.364 318.836C140.789 314.838 139.855 297.749 139.88 295.983C139.804 288.614 143.276 276.177 145.067 262.951C145.144 262.314 145.721 259.445 145.806 258.808Z" fill="#FFA8A7"/>
<path d="M169.364 286.271C169.364 286.271 168.642 285.881 168.515 286.653C168.337 287.57 168.065 289.463 167.666 290.974C167.14 293.071 166.698 296.526 167.012 298.241C167.326 299.956 171.316 302.146 173.906 302.944C177.097 303.929 180.007 305.661 182.395 307.995C184.942 310.406 190.485 312.681 194.28 312.656C198.737 312.656 201.844 311.17 203.313 308.785C204.781 306.399 201.971 306.111 196.878 302.842L192.93 300.295C184.857 295.024 181.894 292.205 179.627 286.933L169.364 286.271Z" fill="#263238"/>
<path d="M179.695 283.002C179.56 279.216 182.174 247.033 182.174 247.033L164.763 254.971C168.49 277.23 169.288 282.485 169.347 286.127C169.271 286.432 169.239 286.746 169.254 287.06C169.254 291.381 174.152 293.716 177.955 296.602C181.188 299.135 184.633 301.385 188.253 303.326C191.02 304.71 196.64 304.837 197.336 303.063C192.701 299.523 185.961 294.225 182.276 290.184C180.476 288.283 179.831 286.797 179.695 283.002Z" fill="#FFA8A7"/>
<path d="M134.981 139.354C128.292 154.033 128.292 165.391 129.404 184.127C130.389 201.318 132.027 216.472 132.027 216.472C131.772 219.519 127.536 225.47 126.984 238.951C126.475 251.549 127.833 267.569 127.833 267.569C127.833 267.569 137.35 272.841 144.388 267.518C144.388 267.518 151.179 235.097 153.165 219.324C154.863 205.563 157.919 187.981 157.919 187.981L164.346 219.231C162.959 223.664 161.953 228.208 161.341 232.813C160.441 242.092 165.636 260.31 165.636 260.31C165.636 260.31 175.467 263.239 181.469 257.916C181.469 257.916 183.71 228.297 184.551 217.125C185.671 202.159 183.311 161.647 181.469 140.195L134.981 139.354Z" fill="#455A64"/>
<path d="M157.937 187.956L160.577 164.407C160.577 164.407 172.411 162.828 177.776 157.785C176.24 160.188 174.195 162.223 171.784 163.746C169.374 165.269 166.657 166.242 163.828 166.597L160.008 188.508L164.346 219.231L157.937 187.956Z" fill="#263238"/>
<path d="M205.859 133.565C206.348 129.268 206.564 124.944 206.504 120.619C206.241 116.884 205.571 116.272 200.35 109.659C193.304 100.72 187.285 92.6805 180.918 84.692C176.367 78.9872 171.579 78.1128 166.927 78.3675C163.667 78.5458 170.034 94.2255 173.235 103.504L191.512 123.183C192.078 123.959 192.338 124.917 192.242 125.874L191.139 142.615L196.614 149.949C196.614 149.949 204.908 142.801 205.859 133.565Z" fill="#FFA8A7"/>
<path d="M149.303 78.8766C145.763 79.1228 139.328 79.7256 139.328 79.7256C135.619 81.797 134.676 83.5033 133.989 88.4271C133.691 90.5325 135.406 96.127 136.875 104.081L139.659 118.827L139.354 126.145C137.911 130.611 134.642 136.154 131.756 144.329C145.933 152.241 157.818 152.539 168.6 151.121C176.817 150.06 181.172 148.073 182.624 146.104C182.318 138.03 181.775 133.039 181.605 124.6C181.546 121.06 181.758 117.478 181.902 113.403C187.412 108.869 187.48 101.331 184.449 96.4241C177.462 85.1078 170.662 77.9853 166.163 78.3503L149.303 78.8766Z" fill="black"/>
<path opacity="0.6" d="M149.303 78.8766C145.763 79.1228 139.328 79.7256 139.328 79.7256C135.619 81.797 134.676 83.5033 133.989 88.4271C133.691 90.5325 135.406 96.127 136.875 104.081L139.659 118.827L139.354 126.145C137.911 130.611 134.642 136.154 131.756 144.329C145.933 152.241 157.818 152.539 168.6 151.121C176.817 150.06 181.172 148.073 182.624 146.104C182.318 138.03 181.775 133.039 181.605 124.6C181.546 121.06 181.758 117.478 181.902 113.403C187.412 108.869 187.48 101.331 184.449 96.4241C177.462 85.1078 170.662 77.9853 166.163 78.3503L149.303 78.8766Z" fill="white"/>
<path opacity="0.1" d="M170.925 113.513C170.925 113.513 164.456 118.539 157.062 115.915C154.986 115.261 153.113 114.082 151.626 112.492C150.139 110.902 149.087 108.956 148.573 106.84C148.573 106.84 147.792 115.287 157.105 118.165C166.129 120.941 170.925 113.513 170.925 113.513Z" fill="black"/>
<path d="M179.703 55.6925C179.423 67.9511 175.459 70.9733 173.455 71.8222C171.452 72.6711 167.615 72.1618 163.879 71.542V78.9447C163.879 78.9447 168.192 83.461 167.869 86.8313C167.547 90.2016 161.078 90.5836 156.256 87.2813C153.595 85.4537 151.189 83.2813 149.099 80.8209C148.698 80.3462 148.479 79.7445 148.48 79.123V61.8048C148.48 61.8048 146.434 63.9696 142.817 61.4907C142.037 60.9927 141.369 60.3378 140.855 59.5676C140.342 58.7974 139.994 57.9288 139.834 57.017C139.675 56.1052 139.707 55.1701 139.928 54.2713C140.149 53.3724 140.555 52.5294 141.119 51.7959C142.698 49.9367 146.705 49.8094 148.624 52.6448C149.711 54.7586 149.855 56.8895 151.069 56.0405C154.295 53.7145 152.563 48.4001 156.46 45.8533C157.738 45.186 159.067 44.6183 160.433 44.1555C167.385 41.753 173.413 39.7325 174.864 34.9785C177.598 36.5406 180.043 41.2351 179.703 55.6925Z" fill="#FFA8A7"/>
<path d="M165.993 66.6434C166.884 66.6434 167.606 65.9213 167.606 65.0305C167.606 64.1396 166.884 63.4175 165.993 63.4175C165.102 63.4175 164.38 64.1396 164.38 65.0305C164.38 65.9213 165.102 66.6434 165.993 66.6434Z" fill="#B16668"/>
<path d="M164.924 53.8333C164.924 54.1654 164.826 54.4901 164.643 54.7672C164.46 55.0442 164.199 55.2615 163.894 55.3922C163.589 55.5228 163.252 55.561 162.925 55.5021C162.598 55.4432 162.296 55.2897 162.055 55.0607C161.815 54.8316 161.647 54.5371 161.572 54.2135C161.497 53.8899 161.519 53.5516 161.634 53.2402C161.75 52.9289 161.954 52.6583 162.222 52.4619C162.49 52.2655 162.81 52.152 163.141 52.1354C163.371 52.1239 163.601 52.1593 163.817 52.2395C164.033 52.3196 164.23 52.4429 164.397 52.6017C164.564 52.7605 164.697 52.9516 164.787 53.1633C164.878 53.375 164.924 53.603 164.924 53.8333V53.8333Z" fill="#263238"/>
<path d="M177.785 54.003C177.803 54.2107 177.779 54.4198 177.714 54.618C177.65 54.8163 177.547 54.9998 177.411 55.1579C177.275 55.3159 177.109 55.4453 176.923 55.5385C176.736 55.6317 176.533 55.6869 176.325 55.7008C176.115 55.7202 175.904 55.6947 175.705 55.6261C175.505 55.5574 175.323 55.4472 175.17 55.3027C175.016 55.1581 174.895 54.9827 174.815 54.7878C174.735 54.593 174.697 54.3834 174.704 54.1728C174.682 53.9635 174.703 53.752 174.766 53.5512C174.828 53.3504 174.931 53.1645 175.069 53.0049C175.206 52.8454 175.374 52.7155 175.563 52.6232C175.752 52.531 175.958 52.4783 176.168 52.4685C176.378 52.4586 176.588 52.4918 176.785 52.566C176.982 52.6402 177.162 52.7538 177.313 52.8998C177.464 53.0459 177.584 53.2213 177.666 53.4154C177.747 53.6094 177.788 53.8181 177.785 54.0284V54.003Z" fill="#263238"/>
<path d="M162.742 58.1966C161.278 58.1966 159.874 57.6155 158.838 56.5809C157.801 55.5463 157.218 54.1428 157.216 52.6785C157.216 48.9263 161.087 48.9263 162.742 48.9263C164.398 48.9263 168.26 48.9263 168.26 52.6785C168.258 54.1413 167.676 55.5436 166.642 56.5779C165.607 57.6123 164.205 58.1944 162.742 58.1966V58.1966ZM162.742 49.7922C159.347 49.7922 158.09 50.6411 158.09 52.6785C158.09 53.9169 158.582 55.1045 159.458 55.9801C160.333 56.8558 161.521 57.3477 162.759 57.3477C163.998 57.3477 165.185 56.8558 166.061 55.9801C166.937 55.1045 167.428 53.9169 167.428 52.6785C167.395 50.5987 166.087 49.7922 162.742 49.7922Z" fill="#455A64"/>
<path d="M176.758 58.1966C175.294 58.1966 173.889 57.6155 172.853 56.5809C171.817 55.5463 171.234 54.1428 171.231 52.6785C171.231 48.9263 175.103 48.9263 176.758 48.9263C178.413 48.9263 182.276 48.9263 182.276 52.6785C182.274 54.1413 181.692 55.5436 180.657 56.5779C179.623 57.6123 178.221 58.1944 176.758 58.1966V58.1966ZM176.758 49.7922C173.413 49.7922 172.106 50.6411 172.106 52.6785C172.106 53.9169 172.598 55.1045 173.473 55.9801C174.349 56.8558 175.537 57.3477 176.775 57.3477C178.013 57.3477 179.201 56.8558 180.077 55.9801C180.952 55.1045 181.444 53.9169 181.444 52.6785C181.41 50.5987 180.103 49.7922 176.758 49.7922Z" fill="#455A64"/>
<path d="M169.117 50.896L169.389 61.2105L174.814 59.5296L169.117 50.896Z" fill="#F28F8F"/>
<path d="M163.871 71.5675C159.932 71.0497 151.824 68.7236 150.56 65.5146C151.069 67.1364 152.061 68.564 153.403 69.6065C155.823 71.6864 163.871 74.0209 163.871 74.0209V71.5675Z" fill="#F28F8F"/>
<path d="M164.066 45.887L160.467 48.0858C160.183 47.5916 160.101 47.0072 160.237 46.4539C160.373 45.9006 160.717 45.4209 161.197 45.1145C161.435 44.9704 161.699 44.876 161.974 44.8369C162.249 44.7978 162.529 44.8148 162.797 44.887C163.065 44.9593 163.316 45.0851 163.534 45.257C163.752 45.4289 163.933 45.6432 164.066 45.887Z" fill="#263238"/>
<path d="M178.71 48.3321L174.703 46.9313C174.781 46.6658 174.912 46.4189 175.088 46.2058C175.265 45.9928 175.483 45.8181 175.729 45.6924C175.976 45.5668 176.245 45.4929 176.522 45.4753C176.798 45.4577 177.074 45.4967 177.335 45.59C177.872 45.7831 178.315 46.1755 178.571 46.686C178.827 47.1965 178.877 47.7858 178.71 48.3321V48.3321Z" fill="#263238"/>
<path d="M167.827 53.1201C167.769 53.1201 167.712 53.1086 167.659 53.0864C167.606 53.0641 167.558 53.0314 167.517 52.9903C167.477 52.9492 167.445 52.9005 167.424 52.847C167.403 52.7934 167.393 52.7362 167.394 52.6787C167.394 51.974 168.786 51.5156 170.042 51.5156C171.299 51.5156 172.105 51.974 172.105 52.6787C172.079 52.7709 172.023 52.8521 171.947 52.9098C171.87 52.9676 171.777 52.9989 171.681 52.9989C171.585 52.9989 171.491 52.9676 171.415 52.9098C171.338 52.8521 171.283 52.7709 171.256 52.6787C171.256 52.5938 170.823 52.3815 170.068 52.3815C169.459 52.3686 168.854 52.4723 168.285 52.6871C168.285 52.7462 168.273 52.8047 168.25 52.8589C168.226 52.9132 168.192 52.9621 168.149 53.0027C168.106 53.0432 168.056 53.0746 168 53.0948C167.945 53.115 167.886 53.1236 167.827 53.1201V53.1201Z" fill="#455A64"/>
<path d="M157.665 52.7464H157.614L147.911 51.8975C147.457 51.4481 146.917 51.0957 146.323 50.8618L157.716 51.9145C157.83 51.9294 157.934 51.9883 158.005 52.0787C158.077 52.1691 158.11 52.2838 158.098 52.3984C158.078 52.498 158.024 52.5874 157.945 52.651C157.865 52.7146 157.767 52.7484 157.665 52.7464Z" fill="#455A64"/>
<path d="M117.825 62.8658C121 58.6212 123.165 55.4207 126.059 51.8297C127.706 49.7668 128.759 48.2897 130.304 46.1758C131.391 44.7156 132.002 43.4847 133.241 43.0348C134.58 42.4861 135.787 41.6584 136.781 40.6068C137.393 39.9307 137.96 39.2162 138.479 38.4675C140.299 36.0184 142.46 33.8428 144.897 32.0071C147.444 30.0885 150.288 28.6114 152.911 26.7862C154.473 25.6911 156.146 23.8743 154.244 22.1765C153.661 21.6853 152.963 21.3495 152.215 21.2002C147.588 20.1985 143.564 21.786 139.04 22.9405C137.074 23.4311 135.152 24.0813 133.292 24.8846C132.378 25.2463 131.52 25.7381 130.746 26.3447C129.663 27.4363 128.776 28.7054 128.122 30.097C126.144 33.6286 121.9 36.7866 118.928 39.5796C115.456 42.848 112.349 45.8447 108.385 49.4442C104.819 52.6956 101.33 55.6839 98.0616 59.2324C95.3535 62.1612 96.3638 64.4533 96.7203 65.2513C98.9275 69.7846 101.398 71.4146 104.361 74.2245C109.454 79.0889 127.07 93.0878 132.902 97.7145C134.155 98.6987 135.139 99.9836 135.763 101.45L136.883 104.039C143.539 105.262 147.979 95.2696 142.469 83.2402C141.557 81.295 140.163 79.6148 138.42 78.3588C131.459 73.2907 117.825 62.8658 117.825 62.8658Z" fill="#FFA8A7"/>
<path d="M117.824 62.8657C115.706 65.4718 112.883 67.4137 109.691 68.4602C109.691 68.4602 113.936 69.5468 119.751 64.3259L117.824 62.8657Z" fill="#F28F8F"/>
<path d="M204.128 124.711L203.041 123.777C202.879 123.67 202.693 123.602 202.5 123.58C202.307 123.558 202.111 123.582 201.929 123.649L190.137 126.858C189.543 127.056 188.999 127.38 188.542 127.808C188.085 128.236 187.726 128.758 187.489 129.337L178.999 153.812C178.897 154.011 178.857 154.237 178.884 154.459C178.912 154.682 179.005 154.891 179.152 155.06V155.06L180.273 156.028C180.436 156.14 180.624 156.211 180.821 156.235C181.017 156.258 181.217 156.234 181.402 156.163L193.211 152.954C193.804 152.756 194.349 152.432 194.806 152.005C195.263 151.577 195.622 151.055 195.859 150.476C197.557 145.662 202.651 130.814 204.349 126.001C204.552 125.398 204.45 124.94 204.128 124.711Z" fill="#455A64"/>
<path d="M180.11 154.754L188.6 130.279C188.836 129.7 189.195 129.179 189.652 128.753C190.11 128.326 190.654 128.004 191.248 127.809L203.032 124.6C204.127 124.303 204.73 124.931 204.339 126.001C202.641 130.814 197.548 145.662 195.85 150.476C195.613 151.055 195.253 151.577 194.796 152.005C194.339 152.432 193.795 152.756 193.201 152.954L181.418 156.197C180.331 156.452 179.745 155.824 180.11 154.754Z" fill="black"/>
<path d="M189.967 128.488C189.354 128.952 188.879 129.575 188.592 130.288L180.103 154.754C180.005 154.948 179.965 155.166 179.986 155.383C180.007 155.599 180.089 155.805 180.221 155.977L179.169 155.077C179.018 154.91 178.922 154.701 178.893 154.478C178.864 154.255 178.904 154.029 179.008 153.829L187.497 129.354C187.765 128.689 188.201 128.104 188.762 127.656L189.967 128.488Z" fill="#37474F"/>
<path d="M200.893 135.866C200.044 138.353 197.098 140.017 192.225 141.171C187.352 142.326 184.661 147.496 185.434 149.066C186.206 150.637 194.084 152.106 197.234 151.656C200.384 151.206 203.542 146.655 204.501 145.246C205.46 143.837 206.564 134.006 205.554 132.657C204.543 131.307 202.412 131.519 202.412 131.519L200.893 135.866Z" fill="#F28F8F"/>
</svg>
