<svg width="24" height="27" viewBox="0 0 24 27" fill="none" xmlns="http://www.w3.org/2000/svg">
<path d="M4 26.6667H21.3333C22.0406 26.6667 22.7189 26.3857 23.219 25.8856C23.719 25.3855 24 24.7072 24 24V2.66667C24 1.95942 23.719 1.28115 23.219 0.781048C22.7189 0.280951 22.0406 0 21.3333 0H2.66667C1.95942 0 1.28115 0.280951 0.781048 0.781048C0.280951 1.28115 0 1.95942 0 2.66667V24C0 24.7072 0.280951 25.3855 0.781048 25.8856C1.28115 26.3857 1.95942 26.6667 2.66667 26.6667H4ZM12 3.99867C14.196 3.99867 16 5.8 16 7.99867C16 10.196 14.196 12 12 12C9.804 12 8 10.196 8 7.99867C8 5.8 9.804 3.99867 12 3.99867ZM4 20.3333C4 17.3747 7.60667 14.3333 12 14.3333C16.3933 14.3333 20 17.3747 20 20.3333V21.3333H4V20.3333Z" fill="#F0F0F0"/>
</svg>
