<svg width="24" height="25" viewBox="0 0 24 25" fill="none" xmlns="http://www.w3.org/2000/svg">
<path fill-rule="evenodd" clip-rule="evenodd" d="M10 0.318359C4.47715 0.318359 0 4.79551 0 10.3184V14.3184C0 19.8412 4.47715 24.3184 10 24.3184H14C19.5228 24.3184 24 19.8412 24 14.3184V10.3184C24 4.79551 19.5228 0.318359 14 0.318359H10ZM10.6853 8.9653C11.4926 9.42285 12.1073 10.1593 12.4151 11.0379H17.7428C18.4447 11.0379 19.0189 11.6149 19.0189 12.3203C19.0189 13.0256 18.4447 13.6026 17.7428 13.6026V14.885C17.7428 15.5903 17.1686 16.1674 16.4667 16.1674C15.7649 16.1674 15.1906 15.5903 15.1906 14.885V13.6026H12.4151C12.1523 14.3525 11.6644 15.002 11.0187 15.4614C10.373 15.9207 9.60131 16.1674 8.81016 16.1674C8.23707 16.1669 7.67138 16.0373 7.15475 15.788C6.63811 15.5388 6.18369 15.1762 5.82494 14.7271C5.46618 14.278 5.21223 13.7538 5.08179 13.193C4.95135 12.6322 4.94773 12.0491 5.0712 11.4867C5.37746 10.0184 6.56423 8.84499 8.02536 8.55004C8.93279 8.3602 9.87794 8.50775 10.6853 8.9653ZM7.53407 12.3203C7.53407 13.0256 8.10831 13.6026 8.81016 13.6026C9.51202 13.6026 10.0863 13.0256 10.0863 12.3203C10.0863 11.6149 9.51202 11.0379 8.81016 11.0379C8.10831 11.0379 7.53407 11.6149 7.53407 12.3203Z" fill="#F0F0F0"/>
</svg>
