<svg width="500" height="373" viewBox="0 0 500 373" fill="none" xmlns="http://www.w3.org/2000/svg">
<path d="M449.9 343.49H416.78V343.74H449.9V343.49Z" fill="#EBEBEB"/>
<path d="M331.22 346.21H322.53V346.46H331.22V346.21Z" fill="#EBEBEB"/>
<path d="M415.78 334.21H396.59V334.46H415.78V334.21Z" fill="#EBEBEB"/>
<path d="M95.65 335.89H52.46V336.14H95.65V335.89Z" fill="#EBEBEB"/>
<path d="M110.89 335.89H104.56V336.14H110.89V335.89Z" fill="#EBEBEB"/>
<path d="M225.15 340.11H131.47V340.36H225.15V340.11Z" fill="#EBEBEB"/>
<path d="M500 327.4H0V327.65H500V327.4Z" fill="#EBEBEB"/>
<path d="M237 282.8H43.91C42.3973 282.797 40.9475 282.195 39.8788 281.124C38.8102 280.053 38.21 278.603 38.21 277.09V5.66C38.2231 4.15602 38.8292 2.71798 39.8964 1.65822C40.9637 0.598458 42.4059 0.00257639 43.91 0H237C238.514 0 239.967 0.601588 241.038 1.67242C242.108 2.74325 242.71 4.19561 242.71 5.71V277.09C242.71 278.604 242.108 280.057 241.038 281.128C239.967 282.198 238.514 282.8 237 282.8ZM43.91 0.200001C42.4636 0.20265 41.0774 0.779065 40.0556 1.80273C39.0338 2.82639 38.46 4.21365 38.46 5.66V277.09C38.46 278.536 39.0338 279.924 40.0556 280.947C41.0774 281.971 42.4636 282.547 43.91 282.55H240C243 282.55 242.45 280.1 242.45 277.09V5.66C242.447 4.21446 241.873 2.82873 240.851 1.80564C239.83 0.782546 238.445 0.205284 237 0.200001H43.91Z" fill="#EBEBEB"/>
<path d="M453.31 282.8H260.21C258.696 282.797 257.246 282.195 256.175 281.125C255.105 280.054 254.503 278.604 254.5 277.09V5.66C254.516 4.15511 255.124 2.71708 256.193 1.65759C257.262 0.598109 258.705 0.00254829 260.21 0H453.31C454.812 0.0052045 456.252 0.602249 457.317 1.66173C458.382 2.72121 458.987 4.15775 459 5.66V277.09C459 278.601 458.401 280.05 457.335 281.121C456.268 282.191 454.821 282.795 453.31 282.8ZM260.21 0.200001C258.763 0.202644 257.375 0.77874 256.352 1.80212C255.329 2.82549 254.753 4.21273 254.75 5.66V277.09C254.753 278.537 255.329 279.924 256.352 280.948C257.375 281.971 258.763 282.547 260.21 282.55H453.31C454.757 282.547 456.145 281.971 457.168 280.948C458.191 279.924 458.767 278.537 458.77 277.09V5.66C458.767 4.21273 458.191 2.82549 457.168 1.80212C456.145 0.77874 454.757 0.202644 453.31 0.200001H260.21Z" fill="#EBEBEB"/>
<path opacity="0.2" d="M57.47 282.69H250.81L263.53 19.3899H77.03L57.47 282.69Z" fill="black"/>
<path d="M51.53 282.69H249.01L261.74 19.3899H77.03L51.53 282.69Z" fill="#E6E6E6"/>
<path opacity="0.1" d="M59.9102 277.8H240.73L252.9 28.2399L82.1102 28.2299L59.9102 277.8Z" fill="black"/>
<path d="M252.9 28.2299C250.81 110.477 243.59 192.513 231.28 273.86H100.93C86.53 273.43 59.7 272.81 59.7 272.81C59.7 272.81 80.25 100.87 82.11 28.2299H252.9Z" fill="#FAFAFA"/>
<path d="M202.92 47.6199C202.54 58.3799 202.073 69.1365 201.52 79.8899H233.8C234.36 69.1299 234.827 58.3732 235.2 47.6199H202.92ZM231.13 77.0799H204.48C204.933 68.1865 205.32 59.3032 205.64 50.4299H232.29C231.963 59.3099 231.577 68.1932 231.13 77.0799Z" fill="#E0E0E0"/>
<path d="M197.53 99.8499C197.157 110.61 196.69 121.37 196.13 132.13H228.4C228.96 121.363 229.43 110.603 229.81 99.8499H197.53ZM225.74 129.32H199.09C199.53 120.433 199.917 111.547 200.25 102.66H226.9C226.567 111.553 226.18 120.44 225.74 129.32Z" fill="#E0E0E0"/>
<path d="M192.87 150.34C192.497 161.093 192.03 171.85 191.47 182.61H223.76C224.313 171.85 224.78 161.093 225.16 150.34H192.87ZM221.08 179.8H194.43C194.87 170.907 195.257 162.023 195.59 153.15H222.24C221.913 162.023 221.527 170.907 221.08 179.8Z" fill="#E0E0E0"/>
<path d="M185.72 204.11C185.347 214.87 184.88 225.63 184.32 236.39H216.6C217.153 225.623 217.62 214.863 218 204.11H185.72ZM213.93 233.58H187.28C187.72 224.693 188.107 215.807 188.44 206.92H215.09C214.757 215.8 214.37 224.687 213.93 233.58Z" fill="#E0E0E0"/>
<path d="M94.73 66.5898H186C185.927 68.5898 185.85 70.5898 185.77 72.5898H94.49L94.73 66.5898Z" fill="#E6E6E6"/>
<path d="M115.49 56.9999H186.9C186.82 58.9999 186.72 60.9999 186.63 62.9999H115.2C115.3 60.9999 115.39 58.9999 115.49 56.9999Z" fill="#E6E6E6"/>
<path d="M86.3601 120.55H177.62C177.55 122.55 177.47 124.55 177.39 126.55H86.1201C86.2001 124.57 86.2901 122.55 86.3601 120.55Z" fill="#E6E6E6"/>
<path d="M107.12 110.93H178.54C178.45 112.93 178.35 114.93 178.26 116.93H106.84C106.93 114.94 107 112.93 107.12 110.93Z" fill="#E6E6E6"/>
<path d="M80 221.22H171.26C171.18 223.22 171.11 225.22 171.02 227.22H79.75C79.8433 225.233 79.9267 223.233 80 221.22Z" fill="#E6E6E6"/>
<path d="M100.76 211.6H172.17C172.09 213.6 171.99 215.6 171.9 217.6H100.47C100.57 215.61 100.66 213.61 100.76 211.6Z" fill="#E6E6E6"/>
<path d="M85.9102 168.27H177.17C177.09 170.27 177.02 172.27 176.93 174.27H85.6602C85.7535 172.283 85.8368 170.283 85.9102 168.27Z" fill="#E6E6E6"/>
<path d="M106.66 158.65H178.08C178 160.65 177.9 162.65 177.8 164.65H106.38C106.47 162.66 106.57 160.66 106.66 158.65Z" fill="#E6E6E6"/>
<path d="M121.34 32.9199H217L216.16 29.9199C214 22.3999 213 17.4199 206 17.4199C206 17.4199 182.54 16.0899 181.89 14.0599C181.104 11.6547 179.573 9.56231 177.517 8.08613C175.462 6.60995 172.99 5.82668 170.46 5.84987C167.845 5.8812 165.297 6.67463 163.126 8.1329C160.955 9.59118 159.257 11.651 158.24 14.0599C157.4 16.0599 131.85 17.4199 131.85 17.4199C124.8 17.4199 125.3 22.4199 122.46 29.9199L121.34 32.9199Z" fill="#E0E0E0"/>
<path d="M206.7 66.1499C206.662 66.6773 206.731 67.2069 206.903 67.7069C207.075 68.2069 207.346 68.6671 207.7 69.0599C208.515 69.637 209.525 69.8672 210.51 69.6999C214.51 69.3699 218.08 67.0899 221.29 64.6999C227.457 60.0472 233.002 54.623 237.79 48.5599C231.703 52.6666 225.463 56.5399 219.07 60.1799C217.125 61.3746 215.043 62.3315 212.87 63.0299C211.99 63.2799 210.79 63.2999 210.44 62.4599C210.01 61.4599 211.3 59.9499 210.44 59.2699C209.58 58.5899 207.76 60.1299 207.35 60.8199C206.55 62.1199 206.65 64.6599 206.7 66.1499Z" fill="#E0E0E0"/>
<path d="M199.55 118C199.512 118.528 199.582 119.057 199.753 119.557C199.925 120.057 200.196 120.517 200.55 120.91C201.365 121.487 202.376 121.717 203.36 121.55C207.36 121.21 210.93 118.94 214.14 116.55C220.305 111.895 225.85 106.471 230.64 100.41C224.547 104.517 218.307 108.387 211.92 112.02C209.977 113.222 207.895 114.182 205.72 114.88C204.84 115.13 203.64 115.15 203.29 114.3C202.86 113.3 204.15 111.8 203.29 111.12C202.43 110.44 200.61 111.98 200.2 112.66C199.4 113.92 199.5 116.45 199.55 118Z" fill="#E0E0E0"/>
<path d="M196.23 169.74C196.195 170.269 196.265 170.799 196.437 171.3C196.609 171.802 196.878 172.264 197.23 172.66C197.631 172.946 198.086 173.15 198.566 173.26C199.047 173.369 199.544 173.383 200.03 173.3C204.03 172.96 207.6 170.69 210.81 168.3C216.975 163.645 222.52 158.221 227.31 152.16C221.23 156.273 214.99 160.143 208.59 163.77C206.65 164.97 204.571 165.93 202.4 166.63C201.52 166.88 200.31 166.9 199.96 166.05C199.53 165.05 200.82 163.54 199.96 162.87C199.1 162.2 197.28 163.72 196.87 164.41C196.08 165.71 196.18 168.25 196.23 169.74Z" fill="#E0E0E0"/>
<path d="M365.06 262.37C366.06 263.6 367.06 265.06 366.74 266.61C366.513 267.457 365.976 268.188 365.235 268.657C364.493 269.125 363.603 269.298 362.74 269.14C361.888 268.95 361.097 268.547 360.443 267.968C359.789 267.389 359.292 266.653 359 265.83C358.6 264.83 358.46 263.73 358.07 262.72C356.94 259.8 354.07 258.01 351.35 256.43C351.18 259.43 352.9 262.3 354.93 264.56C356.96 266.82 359.39 268.75 361.15 271.24C362.91 273.73 363.93 277.03 362.72 279.83C362.635 280.069 362.486 280.28 362.29 280.44C361.986 280.611 361.629 280.661 361.29 280.58C358.11 280.15 355.94 277.17 354.54 274.27C353.14 271.37 351.98 268.16 349.41 266.27C350.54 270.09 353.61 273.03 355.23 276.67C356.247 279.029 356.646 281.609 356.389 284.166C356.132 286.722 355.227 289.171 353.76 291.28C353.655 291.469 353.512 291.634 353.34 291.765C353.168 291.896 352.97 291.99 352.76 292.04C352.14 292.11 351.69 291.48 351.43 290.91C348.83 285.24 350.74 277.57 346.24 273.25C345.54 274.77 344.85 276.25 344.15 277.79C343.792 278.745 343.237 279.614 342.52 280.34C342.149 280.69 341.68 280.917 341.175 280.99C340.67 281.064 340.155 280.98 339.7 280.75C338.36 279.89 338.7 277.87 339.3 276.39C340.784 272.547 342.619 268.848 344.78 265.34C343.27 264.63 341.78 266.18 340.65 267.44C339.52 268.7 337.44 269.81 336.42 268.44C336.121 267.988 335.977 267.451 336.01 266.91C336.01 264.27 337.82 261.99 339.74 260.17C341.66 258.35 343.84 256.73 345.12 254.43C343.68 254.865 342.15 254.903 340.69 254.54C339.28 254.05 338.15 252.44 338.69 251.06C340.392 249.132 342.274 247.371 344.31 245.8C346.6 245.08 348.84 247.19 350.57 248.46C356.011 252.415 360.886 257.095 365.06 262.37Z" fill="#EBEBEB"/>
<path d="M352.42 284.71C352.42 283.94 352.42 283.19 352.42 282.44C352.17 260.9 348.42 252.86 347.42 252.63L347.32 251.63C347.485 251.614 347.652 251.635 347.808 251.692C347.964 251.749 348.105 251.841 348.22 251.96C350.22 253.68 353.22 263.21 353.47 282.42C353.47 283.17 353.47 283.92 353.47 284.68L352.42 284.71Z" fill="#E0E0E0"/>
<path d="M352.4 295.82C352.4 295.19 352.4 286.02 352.4 282.56V281.21C352.4 260.59 355.54 250.35 357.65 248.5C357.768 248.378 357.912 248.283 358.071 248.223C358.23 248.162 358.4 248.137 358.57 248.15L358.44 249.15C357.39 249.39 353.44 258.03 353.44 281.21V282.56C353.44 286.01 353.44 295.18 353.44 295.81L352.4 295.82Z" fill="#E0E0E0"/>
<path d="M366.54 329.13H339.52L336.88 296.65H369.18L366.54 329.13Z" fill="#F0F0F0"/>
<path d="M371.27 298.32H334.52L333.86 294H371.94L371.27 298.32Z" fill="#FAFAFA"/>
<path d="M316.86 244.34C315 244.34 312.86 244.4 311.64 245.77C311.005 246.587 310.697 247.611 310.776 248.643C310.856 249.675 311.317 250.64 312.07 251.35C312.861 252.02 313.808 252.479 314.824 252.685C315.839 252.891 316.891 252.838 317.88 252.53C319.12 252.18 320.26 251.53 321.49 251.19C325.07 250.19 328.83 251.63 332.26 253.07C329.5 255.4 325.58 255.79 321.98 255.48C318.38 255.17 314.83 254.24 311.22 254.34C307.61 254.44 303.74 255.85 301.95 258.99C301.788 259.241 301.695 259.531 301.68 259.83C301.732 260.242 301.935 260.62 302.25 260.89C304.94 263.6 309.32 263.52 313.06 262.79C316.8 262.06 320.68 260.79 324.34 261.91C319.91 263.56 314.93 262.75 310.34 263.82C307.377 264.537 304.647 265.999 302.409 268.068C300.17 270.136 298.498 272.743 297.55 275.64C297.446 275.873 297.393 276.125 297.393 276.38C297.393 276.635 297.446 276.887 297.55 277.12C297.93 277.75 298.85 277.73 299.55 277.57C306.78 275.99 312.68 268.71 319.99 269.89L317.17 275.11C316.523 276.133 316.1 277.282 315.93 278.48C315.85 279.087 315.964 279.703 316.255 280.242C316.546 280.781 316.999 281.214 317.55 281.48C319.31 282.14 320.98 280.35 321.97 278.75C324.552 274.6 326.748 270.221 328.53 265.67C330.28 266.59 329.9 269.15 329.53 271.09C329.16 273.03 329.53 275.82 331.53 275.84C332.173 275.805 332.786 275.555 333.27 275.13C335.75 273.23 336.64 269.91 336.99 266.8C337.34 263.69 337.33 260.46 338.61 257.6C339.208 259.267 340.245 260.742 341.61 261.87C343.09 262.87 345.42 262.79 346.32 261.26C346.947 258.273 347.282 255.232 347.32 252.18C346.37 249.49 342.77 248.88 340.32 248.13C332.707 245.812 324.815 244.537 316.86 244.34Z" fill="#F5F5F5"/>
<path d="M364.17 279C365.01 280.66 366.08 282.46 367.89 282.94C368.909 283.118 369.958 282.909 370.831 282.354C371.705 281.8 372.339 280.938 372.61 279.94C372.834 278.928 372.797 277.877 372.503 276.883C372.209 275.89 371.668 274.987 370.93 274.26C370.04 273.33 368.93 272.62 368.05 271.69C365.47 269 365 265 364.66 261.3C368.02 262.65 370.2 265.92 371.61 269.25C373.02 272.58 373.87 276.15 375.66 279.25C377.45 282.35 380.49 285.15 384.1 285.25C384.399 285.274 384.699 285.219 384.97 285.09C385.309 284.851 385.548 284.495 385.64 284.09C386.77 280.45 384.64 276.62 382.25 273.66C379.86 270.7 376.96 267.84 376.19 264.1C379.73 267.24 381.34 272.02 384.45 275.6C386.475 277.878 389.047 279.603 391.924 280.611C394.8 281.619 397.886 281.876 400.89 281.36C401.143 281.341 401.39 281.272 401.615 281.155C401.84 281.038 402.039 280.876 402.2 280.68C402.59 280.04 402.14 279.24 401.66 278.68C396.87 273.04 387.66 271.24 385.28 264.23H391.22C392.424 264.324 393.634 264.16 394.77 263.75C395.335 263.532 395.818 263.143 396.151 262.638C396.485 262.132 396.652 261.535 396.63 260.93C396.38 259.06 394.03 258.43 392.14 258.3C387.267 257.968 382.373 258.082 377.52 258.64C377.52 256.64 379.95 255.8 381.85 255.26C383.75 254.72 386 253 385.1 251.26C384.767 250.711 384.26 250.289 383.66 250.06C380.81 248.76 377.46 249.53 374.55 250.68C371.64 251.83 368.79 253.36 365.67 253.57C366.859 252.242 367.667 250.619 368.01 248.87C368.19 247.11 367.01 245.08 365.26 245C362.331 245.86 359.492 246.999 356.78 248.4C354.85 250.49 356 253.96 356.49 256.47C358.021 264.292 360.605 271.871 364.17 279Z" fill="#F0F0F0"/>
<path opacity="0.2" d="M371.89 45C371.89 45.34 371.89 45.6733 371.89 46V72H336.33L334.44 70.2L336.33 45C336.33 40.2844 338.203 35.762 341.538 32.4276C344.872 29.0932 349.394 27.22 354.11 27.22C358.825 27.22 363.348 29.0932 366.682 32.4276C370.017 35.762 371.89 40.2844 371.89 45Z" fill="black"/>
<path d="M370 43.2401C370 43.5901 370 43.9301 370 44.2401V70.1201H334.44V43.2401C334.44 38.5245 336.313 34.0021 339.648 30.6677C342.982 27.3333 347.504 25.4601 352.22 25.4601C356.935 25.4601 361.458 27.3333 364.792 30.6677C368.127 34.0021 370 38.5245 370 43.2401Z" fill="#F5F5F5"/>
<path d="M365.147 45.6512C366.25 38.8586 361.637 32.4583 354.844 31.3558C348.052 30.2532 341.651 34.8658 340.549 41.6584C339.446 48.4509 344.059 54.8512 350.852 55.9538C357.644 57.0564 364.044 52.4438 365.147 45.6512Z" fill="#E0E0E0"/>
<path d="M351.39 55.89C358.271 55.89 363.85 50.3114 363.85 43.43C363.85 36.5485 358.271 30.97 351.39 30.97C344.508 30.97 338.93 36.5485 338.93 43.43C338.93 50.3114 344.508 55.89 351.39 55.89Z" fill="white"/>
<path d="M352.22 44.26C352.22 44.4578 352.161 44.6511 352.051 44.8156C351.942 44.98 351.785 45.1082 351.603 45.1839C351.42 45.2596 351.219 45.2794 351.025 45.2408C350.831 45.2022 350.653 45.107 350.513 44.9671C350.373 44.8273 350.278 44.6491 350.239 44.4551C350.201 44.2611 350.22 44.0601 350.296 43.8773C350.372 43.6946 350.5 43.5384 350.664 43.4285C350.829 43.3187 351.022 43.26 351.22 43.26C351.485 43.26 351.74 43.3654 351.927 43.5529C352.115 43.7404 352.22 43.9948 352.22 44.26Z" fill="#E0E0E0"/>
<path d="M351.09 44.6301L346.79 40.5801L347.21 40.1301L351.11 43.8001L358.1 37.6301L358.5 38.0901L351.09 44.6301Z" fill="#E0E0E0"/>
<path d="M250 372.01C357.082 372.01 443.89 366.942 443.89 360.69C443.89 354.438 357.082 349.37 250 349.37C142.917 349.37 56.1099 354.438 56.1099 360.69C56.1099 366.942 142.917 372.01 250 372.01Z" fill="#F5F5F5"/>
<path d="M246.43 210.88V333.22H249.61L253.61 210.88H246.43Z" fill="black"/>
<path d="M283.97 214.88V328.22H287.15L291.15 214.88H283.97Z" fill="black"/>
<path opacity="0.5" d="M283.97 214.88V328.22H287.15L291.15 214.88H283.97Z" fill="black"/>
<path d="M437.12 210.88V328.22H433.94L429.94 210.88H437.12Z" fill="black"/>
<path opacity="0.5" d="M437.12 210.88V328.22H433.94L429.94 210.88H437.12Z" fill="black"/>
<path d="M399.58 214.88V332.47H396.4L392.4 214.88H399.58Z" fill="black"/>
<path d="M459.09 207.2H222.15V212.33H459.09V207.2Z" fill="black"/>
<path d="M443.51 217.81H238.93L230.63 212.33H451.81L443.51 217.81Z" fill="black"/>
<path opacity="0.5" d="M443.51 217.81H238.93L230.63 212.33H451.81L443.51 217.81Z" fill="black"/>
<path d="M262.68 194.51H312.64V182.09H262.68V194.51Z" fill="black"/>
<path opacity="0.6" d="M262.84 194.56H312.8V182.14H262.84V194.56Z" fill="white"/>
<path opacity="0.6" d="M262.69 194.56H301.03V182.14H262.69V194.56Z" fill="white"/>
<path d="M262.93 192.93L312.64 194.48L312.59 193.22L262.9 192.57L262.93 192.93Z" fill="black"/>
<path d="M312.64 187.19L263.01 184.4V184.81L312.64 188.13V187.19Z" fill="black"/>
<path d="M312.64 183.44L263.01 184.57V184.98L312.64 184.38V183.44Z" fill="black"/>
<path d="M312.78 189.63L263.14 192.05V191.68L312.78 188.8V189.63Z" fill="black"/>
<path d="M266.16 207.42H316.12V195H266.16V207.42Z" fill="black"/>
<path opacity="0.6" d="M266.33 207.48H316.29V195.06H266.33V207.48Z" fill="white"/>
<path opacity="0.6" d="M304.62 195.05H266.28V207.47H304.62V195.05Z" fill="white"/>
<path d="M315.91 205.48L266.23 206.12L266.17 207.38L315.88 205.84L315.91 205.48Z" fill="black"/>
<path d="M266.49 195.16L316.13 195.2V195.61H266.49V195.16Z" fill="black"/>
<path d="M266.17 201.04L315.81 197.72V197.3L266.17 200.09V201.04Z" fill="black"/>
<path d="M316.13 196.34L266.49 197.48V197.89L316.13 197.29V196.34Z" fill="black"/>
<path d="M316.27 202.54L266.62 204.95V204.59L316.27 201.71V202.54Z" fill="black"/>
<path d="M308.45 133.94L258.52 134.19L258.44 146.36H308.45V133.94Z" fill="black"/>
<path opacity="0.6" d="M258.49 146.36H308.45V133.94H258.49V146.36Z" fill="white"/>
<path opacity="0.6" d="M296.78 133.94H258.44V146.36H296.78V133.94Z" fill="white"/>
<path d="M298.29 134.19H258.52V135.45H297.44L298.29 134.19Z" fill="black"/>
<path d="M308.16 139.28L258.52 139.74V140.11H308.16V139.28Z" fill="black"/>
<path d="M258.52 145.03L308.16 142.61V142.97L258.52 145.85V145.03Z" fill="black"/>
<path d="M258.52 140.36L308.16 141.35V141.7L258.52 141.18V140.36Z" fill="black"/>
<path d="M308.24 179.35H258.6V182.36H308.24V179.35Z" fill="black"/>
<path opacity="0.6" d="M308.24 179.38H258.6V182.37H308.24V179.38Z" fill="white"/>
<path opacity="0.6" d="M298.16 179.19H258.6V182.37H298.16V179.19Z" fill="white"/>
<path d="M258.63 180.71L308.28 181.32L308.27 181.51L258.62 181.14L258.63 180.71Z" fill="black"/>
<path d="M258.63 180.13L308.27 180.64V180.83L258.63 180.56V180.13Z" fill="black"/>
<path d="M308.74 147V154.9C308.941 154.9 309.135 154.98 309.277 155.123C309.42 155.265 309.5 155.458 309.5 155.66C309.5 155.861 309.42 156.055 309.277 156.197C309.135 156.34 308.941 156.42 308.74 156.42C305.74 156.42 302.74 156.42 299.74 156.42V145.42H308.74C308.949 145.42 309.15 145.503 309.298 145.651C309.447 145.799 309.53 146 309.53 146.21C309.53 146.419 309.447 146.62 309.298 146.769C309.15 146.917 308.949 147 308.74 147Z" fill="black"/>
<path opacity="0.3" d="M308.74 147V154.9C308.941 154.9 309.135 154.98 309.277 155.123C309.42 155.265 309.5 155.458 309.5 155.66C309.5 155.861 309.42 156.055 309.277 156.197C309.135 156.34 308.941 156.42 308.74 156.42C305.74 156.42 302.74 156.42 299.74 156.42V145.42H308.74C308.949 145.42 309.15 145.503 309.298 145.651C309.447 145.799 309.53 146 309.53 146.21C309.53 146.419 309.447 146.62 309.298 146.769C309.15 146.917 308.949 147 308.74 147Z" fill="white"/>
<path d="M308.74 147.03H301.72V154.92H308.74V147.03Z" fill="black"/>
<path opacity="0.6" d="M308.74 147.03H301.72V154.92H308.74V147.03Z" fill="white"/>
<path d="M303.19 146.26H264.42C262.74 146.26 261.42 148.37 261.42 150.97C261.42 153.57 262.77 155.68 264.42 155.68H303.19V146.26Z" fill="black"/>
<path opacity="0.9" d="M303.19 146.26H264.42C262.74 146.26 261.42 148.37 261.42 150.97C261.42 153.57 262.77 155.68 264.42 155.68H303.19V146.26Z" fill="white"/>
<path d="M303.19 156.44C295.19 156.44 272.81 156.58 264.84 156.44C259.38 156.34 259.09 145.87 264.44 145.51C268.18 145.25 272.02 145.51 275.76 145.51H303.19C303.375 145.531 303.546 145.62 303.67 145.759C303.794 145.898 303.863 146.078 303.863 146.265C303.863 146.451 303.794 146.631 303.67 146.771C303.546 146.91 303.375 146.998 303.19 147.02H266.1C264.35 147.02 263.1 147.02 262.43 149.1C261.84 150.89 262.03 154.53 264.43 154.92C264.703 154.945 264.977 154.945 265.25 154.92H303.2C303.401 154.92 303.595 155 303.737 155.142C303.88 155.285 303.96 155.478 303.96 155.68C303.96 155.881 303.88 156.075 303.737 156.217C303.595 156.36 303.401 156.44 303.2 156.44H303.19Z" fill="black"/>
<g opacity="0.2">
<path d="M303.19 156.44C295.19 156.44 272.81 156.58 264.84 156.44C259.38 156.34 259.09 145.87 264.44 145.51C268.18 145.25 272.02 145.51 275.76 145.51H303.19C303.375 145.531 303.546 145.62 303.67 145.759C303.794 145.898 303.863 146.078 303.863 146.265C303.863 146.451 303.794 146.631 303.67 146.771C303.546 146.91 303.375 146.998 303.19 147.02H266.1C264.35 147.02 263.1 147.02 262.43 149.1C261.84 150.89 262.03 154.53 264.43 154.92C264.703 154.945 264.977 154.945 265.25 154.92H303.2C303.401 154.92 303.595 155 303.737 155.142C303.88 155.285 303.96 155.478 303.96 155.68C303.96 155.881 303.88 156.075 303.737 156.217C303.595 156.36 303.401 156.44 303.2 156.44H303.19Z" fill="white"/>
</g>
<path d="M300.39 157.69V165C300.575 165 300.753 165.074 300.885 165.205C301.016 165.336 301.09 165.514 301.09 165.7C301.09 165.886 301.016 166.064 300.885 166.195C300.753 166.326 300.575 166.4 300.39 166.4C297.6 166.4 294.81 166.4 292.02 166.4V156.29H300.39C300.575 156.29 300.753 156.364 300.885 156.495C301.016 156.626 301.09 156.804 301.09 156.99C301.09 157.176 301.016 157.354 300.885 157.485C300.753 157.616 300.575 157.69 300.39 157.69Z" fill="black"/>
<path opacity="0.3" d="M300.39 157.69V165C300.575 165 300.753 165.074 300.885 165.205C301.016 165.336 301.09 165.514 301.09 165.7C301.09 165.886 301.016 166.064 300.885 166.195C300.753 166.326 300.575 166.4 300.39 166.4C297.6 166.4 294.81 166.4 292.02 166.4V156.29H300.39C300.575 156.29 300.753 156.364 300.885 156.495C301.016 156.626 301.09 156.804 301.09 156.99C301.09 157.176 301.016 157.354 300.885 157.485C300.753 157.616 300.575 157.69 300.39 157.69Z" fill="white"/>
<path d="M300.39 157.7H293.89V165.01H300.39V157.7Z" fill="black"/>
<path opacity="0.6" d="M300.39 157.7H293.89V165.01H300.39V157.7Z" fill="white"/>
<path d="M295.25 157H259.35C257.8 157 256.54 158.95 256.54 161.36C256.54 163.77 257.8 165.72 259.35 165.72H295.25V157Z" fill="black"/>
<path opacity="0.9" d="M295.25 157H259.35C257.8 157 256.54 158.95 256.54 161.36C256.54 163.77 257.8 165.72 259.35 165.72H295.25V157Z" fill="white"/>
<path d="M295.25 166.41C287.87 166.41 267.12 166.54 259.74 166.41C254.68 166.32 254.41 156.63 259.37 156.29C262.83 156.05 266.37 156.29 269.85 156.29H295.25C295.436 156.29 295.614 156.364 295.745 156.495C295.876 156.626 295.95 156.804 295.95 156.99C295.95 157.176 295.876 157.354 295.745 157.485C295.614 157.616 295.436 157.69 295.25 157.69H260.9C259.28 157.69 258.13 157.69 257.5 159.62C256.96 161.27 257.13 164.62 259.35 165.01C259.6 165.03 259.85 165.03 260.1 165.01H295.25C295.436 165.01 295.614 165.084 295.745 165.215C295.876 165.346 295.95 165.524 295.95 165.71C295.95 165.896 295.876 166.074 295.745 166.205C295.614 166.336 295.436 166.41 295.25 166.41Z" fill="black"/>
<path d="M311.57 168V176.71C311.776 176.733 311.966 176.83 312.104 176.984C312.242 177.138 312.318 177.338 312.318 177.545C312.318 177.752 312.242 177.952 312.104 178.106C311.966 178.26 311.776 178.357 311.57 178.38C308.25 178.38 304.93 178.38 301.57 178.38V166.28H311.57C311.798 166.28 312.017 166.371 312.178 166.532C312.339 166.693 312.43 166.912 312.43 167.14C312.43 167.368 312.339 167.587 312.178 167.748C312.017 167.909 311.798 168 311.57 168Z" fill="black"/>
<path opacity="0.3" d="M311.57 168V176.71C311.776 176.733 311.966 176.83 312.104 176.984C312.242 177.138 312.318 177.338 312.318 177.545C312.318 177.752 312.242 177.952 312.104 178.106C311.966 178.26 311.776 178.357 311.57 178.38C308.25 178.38 304.93 178.38 301.57 178.38V166.28H311.57C311.798 166.28 312.017 166.371 312.178 166.532C312.339 166.693 312.43 166.912 312.43 167.14C312.43 167.368 312.339 167.587 312.178 167.748C312.017 167.909 311.798 168 311.57 168Z" fill="white"/>
<path d="M311.57 167.96H303.83V176.66H311.57V167.96Z" fill="black"/>
<path opacity="0.6" d="M311.57 167.96H303.83V176.66H311.57V167.96Z" fill="white"/>
<path d="M305.45 167.12H262.72C260.87 167.12 259.38 169.44 259.38 172.31C259.38 175.18 260.87 177.5 262.72 177.5H305.45V167.12Z" fill="black"/>
<path opacity="0.9" d="M305.45 167.12H262.72C260.87 167.12 259.38 169.44 259.38 172.31C259.38 175.18 260.87 177.5 262.72 177.5H305.45V167.12Z" fill="white"/>
<path d="M305.45 178.33C296.66 178.33 271.97 178.49 263.18 178.33C257.18 178.22 256.84 166.69 262.74 166.28C266.86 166 271.09 166.28 275.21 166.28H305.45C305.656 166.302 305.846 166.4 305.984 166.554C306.122 166.708 306.198 166.908 306.198 167.115C306.198 167.322 306.122 167.521 305.984 167.676C305.846 167.83 305.656 167.927 305.45 167.95H264.57C262.64 167.95 261.27 167.95 260.52 170.25C259.88 172.25 260.08 176.25 262.72 176.66C263.019 176.685 263.32 176.685 263.62 176.66H305.45C305.656 176.682 305.846 176.78 305.984 176.934C306.122 177.088 306.198 177.288 306.198 177.495C306.198 177.702 306.122 177.901 305.984 178.056C305.846 178.21 305.656 178.307 305.45 178.33Z" fill="black"/>
<g opacity="0.2">
<path d="M305.45 178.33C296.66 178.33 271.97 178.49 263.18 178.33C257.18 178.22 256.84 166.69 262.74 166.28C266.86 166 271.09 166.28 275.21 166.28H305.45C305.656 166.302 305.846 166.4 305.984 166.554C306.122 166.708 306.198 166.908 306.198 167.115C306.198 167.322 306.122 167.521 305.984 167.676C305.846 167.83 305.656 167.927 305.45 167.95H264.57C262.64 167.95 261.27 167.95 260.52 170.25C259.88 172.25 260.08 176.25 262.72 176.66C263.019 176.685 263.32 176.685 263.62 176.66H305.45C305.656 176.682 305.846 176.78 305.984 176.934C306.122 177.088 306.198 177.288 306.198 177.495C306.198 177.702 306.122 177.901 305.984 178.056C305.846 178.21 305.656 178.307 305.45 178.33Z" fill="black"/>
</g>
<path d="M378.24 204.46L320.16 204.72C319.776 204.728 319.394 204.654 319.041 204.502C318.688 204.351 318.371 204.125 318.112 203.841C317.854 203.557 317.659 203.22 317.541 202.854C317.423 202.489 317.385 202.102 317.43 201.72L320.51 164.58C320.588 163.771 320.96 163.019 321.555 162.467C322.15 161.914 322.928 161.598 323.74 161.58L381.82 161.32C382.204 161.312 382.586 161.386 382.939 161.537C383.292 161.689 383.609 161.915 383.867 162.199C384.126 162.483 384.321 162.82 384.439 163.185C384.556 163.551 384.594 163.938 384.55 164.32L381.47 201.46C381.392 202.269 381.02 203.021 380.425 203.573C379.829 204.126 379.052 204.442 378.24 204.46Z" fill="#263238"/>
<path d="M378.09 201.53L319.15 201.8L322.25 164.42L381.19 164.16L378.09 201.53Z" fill="black"/>
<path d="M377.29 204.46L319.21 204.72C318.825 204.73 318.443 204.657 318.089 204.506C317.735 204.355 317.418 204.129 317.159 203.844C316.9 203.56 316.705 203.223 316.588 202.856C316.471 202.489 316.434 202.102 316.48 201.72L319.56 164.58C319.638 163.771 320.01 163.019 320.605 162.466C321.2 161.913 321.978 161.598 322.79 161.58L380.87 161.32C381.254 161.311 381.636 161.386 381.989 161.537C382.342 161.689 382.659 161.914 382.918 162.199C383.176 162.483 383.371 162.819 383.489 163.185C383.606 163.551 383.644 163.938 383.6 164.32L380.52 201.46C380.442 202.268 380.07 203.02 379.475 203.573C378.879 204.126 378.102 204.441 377.29 204.46Z" fill="black"/>
<g opacity="0.7">
<path d="M377.65 201.1L318.72 201.36L321.82 163.99L380.76 163.73L377.65 201.1Z" fill="black"/>
<path opacity="0.9" d="M375 201.11L321.88 201.35C321.478 201.351 321.08 201.269 320.712 201.109C320.343 200.948 320.012 200.713 319.74 200.417C319.467 200.122 319.259 199.773 319.128 199.393C318.997 199.013 318.947 198.61 318.98 198.21L321.6 166.64C321.66 165.916 321.989 165.242 322.522 164.749C323.056 164.257 323.754 163.982 324.48 163.98L377.59 163.74C377.992 163.737 378.391 163.818 378.76 163.978C379.129 164.138 379.461 164.373 379.734 164.669C380.007 164.965 380.215 165.314 380.345 165.695C380.475 166.075 380.525 166.479 380.49 166.88L377.87 198.46C377.81 199.181 377.482 199.853 376.95 200.343C376.419 200.834 375.723 201.107 375 201.11Z" fill="white"/>
</g>
<path opacity="0.1" d="M368.27 161.35L356.95 204.45L360.82 204.43L372.02 161.33L368.27 161.35Z" fill="white"/>
<path opacity="0.1" d="M374.25 161.32L362.93 204.42L370.61 204.39L381.8 161.28L374.25 161.32Z" fill="white"/>
<path d="M358.86 204.25L378.46 204.42C378.72 206.7 377.71 207.52 376.46 207.51L304.71 207.4C303.953 207.397 303.228 207.095 302.694 206.559C302.16 206.023 301.86 205.297 301.86 204.54L358.86 204.25Z" fill="black"/>
<path opacity="0.2" d="M358.86 204.25L378.46 204.42C378.72 206.7 377.71 207.52 376.46 207.51L304.71 207.4C303.953 207.397 303.228 207.095 302.694 206.559C302.16 206.023 301.86 205.297 301.86 204.54L358.86 204.25Z" fill="white"/>
<path opacity="0.2" d="M378.46 204.42C378.72 206.7 377.71 207.52 376.46 207.51H356.56C358.19 207.51 360.27 205.93 360.27 204.29L378.46 204.42Z" fill="white"/>
<path d="M382.4 169.13C383.861 167.956 385.697 167.348 387.57 167.42C389.432 167.492 391.252 167.992 392.89 168.88C393.043 166.48 393.187 164.08 393.32 161.68C393.43 159.93 385.2 159.75 384.19 160.15C381.53 161.18 382.84 166.65 382.4 169.13Z" fill="black"/>
<path opacity="0.9" d="M382.4 169.13C383.861 167.956 385.697 167.348 387.57 167.42C389.432 167.492 391.252 167.992 392.89 168.88C393.043 166.48 393.187 164.08 393.32 161.68C393.43 159.93 385.2 159.75 384.19 160.15C381.53 161.18 382.84 166.65 382.4 169.13Z" fill="white"/>
<path d="M381.4 174.55C383.047 173.914 384.805 173.611 386.57 173.66C388.368 173.692 390.155 173.947 391.89 174.42C392.04 173.18 392.18 171.93 392.32 170.68C392.43 169.77 384.2 169.68 383.19 169.88C380.53 170.42 381.84 173.26 381.4 174.55Z" fill="black"/>
<path opacity="0.9" d="M381.4 174.55C383.047 173.914 384.805 173.611 386.57 173.66C388.368 173.692 390.155 173.947 391.89 174.42C392.04 173.18 392.18 171.93 392.32 170.68C392.43 169.77 384.2 169.68 383.19 169.88C380.53 170.42 381.84 173.26 381.4 174.55Z" fill="white"/>
<path d="M381 181.05C382.649 180.408 384.411 180.105 386.18 180.16C387.978 180.192 389.765 180.448 391.5 180.92C391.64 179.67 391.78 178.43 391.93 177.18C392.03 176.27 383.81 176.18 382.79 176.38C380.14 176.92 381.45 179.76 381 181.05Z" fill="black"/>
<path opacity="0.9" d="M381 181.05C382.649 180.408 384.411 180.105 386.18 180.16C387.978 180.192 389.765 180.448 391.5 180.92C391.64 179.67 391.78 178.43 391.93 177.18C392.03 176.27 383.81 176.18 382.79 176.38C380.14 176.92 381.45 179.76 381 181.05Z" fill="white"/>
<path d="M371.7 154.2C371.739 154.1 371.796 154.008 371.87 153.93C372.014 153.825 372.193 153.779 372.37 153.8L378.92 153.7C377.538 156.702 376.812 159.965 376.79 163.27C375.18 163.2 369.59 163.27 369.59 163.27C368.51 161.55 371 155.88 371.7 154.2Z" fill="black"/>
<path opacity="0.9" d="M371.7 154.2C371.739 154.1 371.796 154.008 371.87 153.93C372.014 153.825 372.193 153.779 372.37 153.8L378.92 153.7C377.538 156.702 376.812 159.965 376.79 163.27C375.18 163.2 369.59 163.27 369.59 163.27C368.51 161.55 371 155.88 371.7 154.2Z" fill="white"/>
<path d="M360.51 153.4C360.545 153.295 360.603 153.199 360.68 153.12C360.824 153.022 360.997 152.976 361.17 152.99L367.73 152.89C366.349 155.893 365.622 159.155 365.6 162.46C363.99 162.39 358.4 162.46 358.4 162.46C357.32 160.75 359.81 155.08 360.51 153.4Z" fill="black"/>
<path opacity="0.9" d="M360.51 153.4C360.545 153.295 360.603 153.199 360.68 153.12C360.824 153.022 360.997 152.976 361.17 152.99L367.73 152.89C366.349 155.893 365.622 159.155 365.6 162.46C363.99 162.39 358.4 162.46 358.4 162.46C357.32 160.75 359.81 155.08 360.51 153.4Z" fill="white"/>
<path d="M351.31 153.37C351.333 153.275 351.37 153.184 351.42 153.1C351.459 153.055 351.509 153.019 351.564 152.997C351.62 152.974 351.68 152.965 351.74 152.97H355.87C354.93 156.065 354.421 159.276 354.36 162.51C353.36 162.42 349.82 162.51 349.82 162.51C349.17 160.68 350.84 155 351.31 153.37Z" fill="black"/>
<path opacity="0.9" d="M351.31 153.37C351.333 153.275 351.37 153.184 351.42 153.1C351.459 153.055 351.509 153.019 351.564 152.997C351.62 152.974 351.68 152.965 351.74 152.97H355.87C354.93 156.065 354.421 159.276 354.36 162.51C353.36 162.42 349.82 162.51 349.82 162.51C349.17 160.68 350.84 155 351.31 153.37Z" fill="white"/>
<g opacity="0.2">
<path d="M322.48 161.82C322.359 163.172 321.971 164.488 321.34 165.69C320.625 167.2 319.775 168.643 318.8 170C323.72 170.1 327.44 170.33 329.29 170.06C331.217 167.37 332.007 164.029 331.49 160.76C328.58 161.62 325.04 160.94 322.03 161.67L322.48 161.82Z" fill="black"/>
</g>
<path d="M322.54 160.7C322.217 162.049 321.647 163.327 320.86 164.47C319.935 165.922 318.884 167.291 317.72 168.56C321.223 168.898 324.749 168.942 328.26 168.69C330.6 166.17 331.63 163.69 331.49 160.76C328 160.76 322.54 160.7 322.54 160.7Z" fill="black"/>
<g opacity="0.9">
<path d="M322.54 160.7C322.217 162.049 321.647 163.327 320.86 164.47C319.935 165.922 318.884 167.291 317.72 168.56C321.223 168.898 324.749 168.942 328.26 168.69C330.6 166.17 331.63 163.69 331.49 160.76C328 160.76 322.54 160.7 322.54 160.7Z" fill="white"/>
</g>
<g opacity="0.2">
<path d="M336 160.92C335.88 162.42 335.494 163.886 334.86 165.25C334.151 166.929 333.301 168.544 332.32 170.08C337.25 170.18 340.96 170.44 342.81 170.14C344.755 167.041 345.535 163.351 345.01 159.73C342.1 160.73 338.56 159.93 335.56 160.73L336 160.92Z" fill="black"/>
</g>
<path d="M336 159.67C335.688 161.16 335.12 162.585 334.32 163.88C333.404 165.493 332.357 167.028 331.19 168.47C334.688 168.841 338.213 168.888 341.72 168.61C343.926 166.192 345.087 163 344.95 159.73C341.48 159.73 336 159.67 336 159.67Z" fill="black"/>
<g opacity="0.9">
<path d="M336 159.67C335.688 161.16 335.12 162.585 334.32 163.88C333.404 165.493 332.357 167.028 331.19 168.47C334.688 168.841 338.213 168.888 341.72 168.61C343.926 166.192 345.087 163 344.95 159.73C341.48 159.73 336 159.67 336 159.67Z" fill="white"/>
</g>
<path d="M430.78 207.39H414.49L419.6 190.95L420.34 188.54H424.03L430.78 207.39Z" fill="black"/>
<path opacity="0.2" d="M430.78 207.39H414.49L419.6 190.95L420.34 188.54H424.03L430.78 207.39Z" fill="black"/>
<path d="M420.34 188.54L419.6 190.95L414.49 207.39L399.43 207.17L394.59 190.95L393.84 188.54H420.34Z" fill="#E0E0E0"/>
<path d="M420.34 188.54L419.6 190.95L414.49 207.39L383.56 206.94L390.15 188.54H420.34Z" fill="black"/>
<path opacity="0.8" d="M420.34 188.54L419.6 190.95L414.49 207.39L383.56 206.94L390.15 188.54H420.34Z" fill="white"/>
<path d="M420.34 188.54L419.6 190.95H389.3L390.15 188.54H420.34Z" fill="black"/>
<path d="M394 198.76H387.21L389.58 192.07L396.08 192.14L394 198.76ZM388 198.21H393.6L395.33 192.69L389.97 192.63L388 198.21Z" fill="black"/>
<path d="M401.55 198.76H394.76L397.13 192.07L403.63 192.14L401.55 198.76ZM395.55 198.21H401.15L402.87 192.69L397.52 192.63L395.55 198.21Z" fill="black"/>
<path d="M409.15 198.76H402.36L404.73 192.07L411.22 192.14L409.15 198.76ZM403.15 198.21H408.75L410.48 192.69L405.13 192.63L403.15 198.21Z" fill="black"/>
<path d="M416.75 198.76H410L412.37 192.07L418.86 192.14L416.75 198.76ZM410.75 198.21H416.35L418.08 192.69L412.73 192.63L410.75 198.21Z" fill="black"/>
<path d="M391.59 205.86H384.79L387.16 199.17L393.66 199.24L391.59 205.86ZM385.59 205.31H391.19L392.92 199.79L387.56 199.73L385.59 205.31Z" fill="black"/>
<path d="M399.18 205.86H392.39L394.76 199.17L401.26 199.24L399.18 205.86ZM393.18 205.31H398.78L400.5 199.79L395.15 199.73L393.18 205.31Z" fill="black"/>
<path d="M406.78 205.86H400L402.37 199.17L408.86 199.24L406.78 205.86ZM400.78 205.31H406.38L408.11 199.79L402.76 199.73L400.78 205.31Z" fill="black"/>
<path d="M414.38 205.86H407.59L409.96 199.17L416.45 199.24L414.38 205.86ZM408.38 205.31H414L415.73 199.79L410.38 199.73L408.38 205.31Z" fill="black"/>
<path d="M393.49 198.43C393.313 197.269 393.029 196.128 392.64 195.02C392.42 194.45 390.18 190.95 389.74 193.09C389.61 193.72 390.94 195.25 391.3 195.76C391.963 196.703 392.695 197.595 393.49 198.43Z" fill="black"/>
<path d="M388.61 197C388.54 197.21 388.56 197.53 388.78 197.54C388.86 197.538 388.937 197.51 389 197.46C390.37 196.56 391.4 195.18 392.86 194.46C393.568 194.235 394.201 193.82 394.69 193.26C394.287 193.213 393.878 193.279 393.51 193.45C391.63 194.15 389.34 194.92 388.61 197Z" fill="black"/>
<path d="M408.65 198.59C408.478 197.428 408.193 196.286 407.8 195.18C407.58 194.61 405.35 191.11 404.9 193.25C404.77 193.88 406.1 195.41 406.46 195.92C407.123 196.863 407.855 197.755 408.65 198.59Z" fill="black"/>
<path d="M403.77 197.2C403.7 197.41 403.77 197.73 403.94 197.74C404.02 197.738 404.097 197.71 404.16 197.66C405.53 196.76 406.56 195.38 408.02 194.66C408.726 194.43 409.358 194.016 409.85 193.46C409.446 193.408 409.037 193.474 408.67 193.65C406.79 194.31 404.5 195.08 403.77 197.2Z" fill="black"/>
<path d="M398.15 195.1C399.516 195.807 400.638 196.908 401.37 198.26C401.029 196.481 400.35 194.783 399.37 193.26C397.87 191 396.19 194 398.15 195.1Z" fill="black"/>
<path d="M412.49 195.1C413.856 195.807 414.978 196.908 415.71 198.26C415.369 196.481 414.69 194.783 413.71 193.26C412.21 191 410.53 194 412.49 195.1Z" fill="black"/>
<path d="M399.15 194.33C398.182 194.727 397.371 195.429 396.84 196.33C396.66 196.64 396.56 197.09 396.84 197.33C397.12 197.57 397.63 197.27 397.93 196.97C398.61 196.29 401.53 194.61 401.51 193.76C400.686 193.729 399.869 193.926 399.15 194.33Z" fill="black"/>
<path d="M414.55 194.33C413.582 194.726 412.771 195.429 412.24 196.33C412.07 196.64 411.96 197.09 412.24 197.33C412.52 197.57 413.02 197.27 413.32 196.97C414 196.29 416.92 194.61 416.9 193.76C416.079 193.732 415.267 193.929 414.55 194.33Z" fill="black"/>
<path d="M392.49 201.82C391.96 198.48 387.98 198.3 386.32 200.9C385.925 201.556 385.688 202.296 385.63 203.06C385.565 203.546 385.606 204.041 385.75 204.51C385.981 205.049 386.379 205.499 386.884 205.796C387.39 206.093 387.977 206.22 388.56 206.16C389.729 206.013 390.8 205.431 391.56 204.53C392.019 204.081 392.336 203.508 392.47 202.88C392.542 202.531 392.548 202.171 392.49 201.82ZM391.28 204.14C391.024 204.524 390.682 204.843 390.28 205.07C389.938 205.315 389.55 205.49 389.14 205.585C388.73 205.679 388.305 205.691 387.89 205.62C387.43 205.518 387.007 205.291 386.67 204.962C386.333 204.633 386.094 204.217 385.98 203.76C385.77 202.26 387.1 199.9 389.07 199.9C391.85 199.9 392.34 202.38 391.28 204.14Z" fill="#263238"/>
<path d="M257.46 180L282.46 256.23H227.79L218.34 175.91H251.82C253.071 175.909 254.291 176.305 255.304 177.039C256.317 177.774 257.072 178.81 257.46 180Z" fill="#263238"/>
<path d="M266 246.75H320.15C322.65 246.75 324.67 249.34 324.67 252.54V256.54C324.67 259.74 322.67 262.33 320.15 262.33H237L232.65 247.23L266 246.75Z" fill="#263238"/>
<g opacity="0.2">
<path d="M266 246.75H320.15C322.65 246.75 324.67 249.34 324.67 252.54V256.54C324.67 259.74 322.67 262.33 320.15 262.33H237L232.65 247.23L266 246.75Z" fill="white"/>
</g>
<path d="M222.9 180.39L229.9 241.63C230.172 243.974 231.297 246.136 233.059 247.705C234.822 249.274 237.1 250.141 239.46 250.14H277.18C278.381 250.14 279.534 250.617 280.383 251.467C281.233 252.316 281.71 253.468 281.71 254.67V257.83C281.71 259.031 281.233 260.183 280.383 261.033C279.534 261.883 278.381 262.36 277.18 262.36H231.55C229.164 262.359 226.863 261.471 225.094 259.869C223.326 258.267 222.216 256.065 221.98 253.69L214.65 179.52C214.604 179.066 214.654 178.607 214.796 178.173C214.938 177.739 215.17 177.34 215.477 177.002C215.783 176.663 216.157 176.393 216.574 176.208C216.992 176.024 217.444 175.929 217.9 175.93C219.138 175.923 220.334 176.375 221.258 177.198C222.181 178.022 222.766 179.159 222.9 180.39Z" fill="#263238"/>
<path opacity="0.3" d="M222.9 180.39L229.9 241.63C230.172 243.974 231.297 246.136 233.059 247.705C234.822 249.274 237.1 250.141 239.46 250.14H277.18C278.381 250.14 279.534 250.617 280.383 251.467C281.233 252.316 281.71 253.468 281.71 254.67V257.83C281.71 259.031 281.233 260.183 280.383 261.033C279.534 261.883 278.381 262.36 277.18 262.36H231.55C229.164 262.359 226.863 261.471 225.094 259.869C223.326 258.267 222.216 256.065 221.98 253.69L214.65 179.52C214.604 179.066 214.654 178.607 214.796 178.173C214.938 177.739 215.17 177.34 215.477 177.002C215.783 176.663 216.157 176.393 216.574 176.208C216.992 176.024 217.444 175.929 217.9 175.93C219.138 175.923 220.334 176.375 221.258 177.198C222.181 178.022 222.766 179.159 222.9 180.39Z" fill="white"/>
<path d="M237 335.12C237 335.98 236.745 336.821 236.267 337.537C235.789 338.252 235.11 338.809 234.315 339.139C233.52 339.468 232.645 339.554 231.801 339.386C230.958 339.218 230.182 338.804 229.574 338.196C228.966 337.587 228.551 336.812 228.384 335.968C228.216 335.125 228.302 334.25 228.631 333.455C228.96 332.66 229.518 331.981 230.233 331.503C230.949 331.025 231.79 330.77 232.65 330.77C233.804 330.77 234.91 331.228 235.726 332.044C236.542 332.86 237 333.966 237 335.12Z" fill="black"/>
<path d="M301.89 335.12C301.89 335.98 302.145 336.821 302.623 337.537C303.101 338.252 303.781 338.809 304.575 339.139C305.37 339.468 306.245 339.554 307.089 339.386C307.933 339.218 308.708 338.804 309.316 338.196C309.924 337.587 310.339 336.812 310.507 335.968C310.674 335.125 310.588 334.25 310.259 333.455C309.93 332.66 309.372 331.981 308.657 331.503C307.942 331.025 307.1 330.77 306.24 330.77C305.086 330.77 303.98 331.228 303.164 332.044C302.348 332.86 301.89 333.966 301.89 335.12Z" fill="black"/>
<path d="M265.21 333.73C265.21 334.59 265.465 335.431 265.943 336.147C266.421 336.862 267.1 337.42 267.895 337.749C268.69 338.078 269.565 338.164 270.409 337.996C271.252 337.828 272.028 337.414 272.636 336.806C273.244 336.197 273.659 335.422 273.826 334.579C273.994 333.735 273.908 332.86 273.579 332.065C273.25 331.27 272.692 330.591 271.977 330.113C271.261 329.635 270.42 329.38 269.56 329.38C268.406 329.38 267.3 329.838 266.484 330.654C265.668 331.47 265.21 332.576 265.21 333.73Z" fill="black"/>
<path d="M311.39 327.67C311.33 328.146 311.101 328.584 310.745 328.905C310.389 329.227 309.93 329.409 309.45 329.42L268.25 328.78L229.68 329.78C229.201 329.769 228.741 329.587 228.385 329.265C228.029 328.944 227.8 328.506 227.74 328.03C227.622 327.493 227.712 326.93 227.992 326.457C228.272 325.984 228.722 325.634 229.25 325.48L250.32 320.83C252.497 320.368 254.715 320.133 256.94 320.13H279.58C281.805 320.134 284.024 320.368 286.2 320.83L309.87 325.13C310.397 325.284 310.846 325.632 311.127 326.102C311.409 326.573 311.503 327.133 311.39 327.67Z" fill="#263238"/>
<g opacity="0.3">
<path d="M311.39 327.67C311.33 328.146 311.101 328.584 310.745 328.905C310.389 329.227 309.93 329.409 309.45 329.42L268.25 328.78L229.68 329.78C229.201 329.769 228.741 329.587 228.385 329.265C228.029 328.944 227.8 328.506 227.74 328.03C227.622 327.493 227.712 326.93 227.992 326.457C228.272 325.984 228.722 325.634 229.25 325.48L250.32 320.83C252.497 320.368 254.715 320.133 256.94 320.13H279.58C281.805 320.134 284.024 320.368 286.2 320.83L309.87 325.13C310.397 325.284 310.846 325.632 311.127 326.102C311.409 326.573 311.503 327.133 311.39 327.67Z" fill="white"/>
</g>
<path d="M275.25 280.47H261.24V320.13H275.25V280.47Z" fill="#263238"/>
<path d="M273.25 262.01H263.26V280.46H273.25V262.01Z" fill="#263238"/>
<path opacity="0.3" d="M263.26 267.43L273.25 270.28V262.01H263.26V267.43Z" fill="black"/>
<path d="M237 335.12C237 335.98 236.745 336.821 236.267 337.537C235.789 338.252 235.11 338.809 234.315 339.139C233.52 339.468 232.645 339.554 231.801 339.386C230.958 339.218 230.182 338.804 229.574 338.196C228.966 337.587 228.551 336.812 228.384 335.968C228.216 335.125 228.302 334.25 228.631 333.455C228.96 332.66 229.518 331.981 230.233 331.503C230.949 331.025 231.79 330.77 232.65 330.77C233.804 330.77 234.91 331.228 235.726 332.044C236.542 332.86 237 333.966 237 335.12Z" fill="#263238"/>
<path d="M301.89 335.12C301.89 335.98 302.145 336.821 302.623 337.537C303.101 338.252 303.781 338.809 304.575 339.139C305.37 339.468 306.245 339.554 307.089 339.386C307.933 339.218 308.708 338.804 309.316 338.196C309.924 337.587 310.339 336.812 310.507 335.968C310.674 335.125 310.588 334.25 310.259 333.455C309.93 332.66 309.372 331.981 308.657 331.503C307.942 331.025 307.1 330.77 306.24 330.77C305.086 330.77 303.98 331.228 303.164 332.044C302.348 332.86 301.89 333.966 301.89 335.12Z" fill="#263238"/>
<path d="M265.21 333.73C265.21 334.59 265.465 335.431 265.943 336.147C266.421 336.862 267.1 337.42 267.895 337.749C268.69 338.078 269.565 338.164 270.409 337.996C271.252 337.828 272.028 337.414 272.636 336.806C273.244 336.197 273.659 335.422 273.826 334.579C273.994 333.735 273.908 332.86 273.579 332.065C273.25 331.27 272.692 330.591 271.977 330.113C271.261 329.635 270.42 329.38 269.56 329.38C268.406 329.38 267.3 329.838 266.484 330.654C265.668 331.47 265.21 332.576 265.21 333.73Z" fill="#263238"/>
<path d="M94 190.35C94 190.35 86.12 200.35 87.39 217.44C88.66 234.53 122.57 224.85 122.57 224.85C122.57 224.85 137.31 203.46 146.46 201.1L138.33 192.66C132.66 193 128.45 186.89 94 190.35Z" fill="black"/>
<path d="M126.17 126.32C128.44 131.68 130.81 136.86 133.34 142.07C135.87 147.28 138.45 152.42 141.34 157.59L142.5 159.59C143.23 160.848 144.202 161.95 145.36 162.83C147.211 164.196 149.366 165.092 151.64 165.44C155.024 165.942 158.467 165.878 161.83 165.25C167.814 164.181 173.635 162.346 179.15 159.79L177.15 153.79L173.06 154.44C171.68 154.65 170.3 154.77 168.94 154.97C166.269 155.303 163.582 155.497 160.89 155.55C158.552 155.653 156.211 155.417 153.94 154.85C153.376 154.73 152.854 154.46 152.43 154.07C152.43 154 152.52 154.07 152.52 154.07L151.68 152.3C149.38 147.24 147.08 141.97 144.8 136.8C142.52 131.63 140.17 126.36 137.8 121.2L126.17 126.32Z" fill="#FFB573"/>
<path d="M186.3 158.94C187.02 158.78 187.7 158.478 188.3 158.05C190.45 156.05 189.18 152.67 187.16 150.53C187.08 150.44 184.82 148.36 184.73 148.27C182.56 146.27 181.36 148.42 179.37 150.59L175.37 154.92L177.82 160.11C180.063 160.102 182.299 159.858 184.49 159.38C185 159.28 185.63 159.13 186.3 158.94Z" fill="#FFB573"/>
<path d="M142.76 124.23C147.38 131.36 146.58 140.8 146.58 140.8L135.46 143.21C135.46 143.21 123.08 130.29 125.34 124C127.85 117.06 137.87 116.67 142.76 124.23Z" fill="#263238"/>
<path opacity="0.2" d="M135.46 143.21L142.53 141.68C140.857 136.789 138.604 132.116 135.82 127.76C131.63 121.55 128.63 119.76 125.3 121.52C124.25 130.14 135.46 143.21 135.46 143.21Z" fill="black"/>
<path d="M104.61 117.57C103.47 117.68 91.99 120.47 94.88 131.33C106.88 173.91 99.19 170.33 94.01 190.33L138.34 192.64C138.34 192.64 135.34 162.07 137.28 156.64C140.6 147.51 140.23 140.85 136.85 131.69C133.12 121.58 131.68 118.84 131.68 118.84C127.46 117.91 113.27 114.32 104.61 117.57Z" fill="#263238"/>
<path opacity="0.2" d="M106.51 150.49C105.89 145.11 96.9401 124.72 98.7101 122.23C100.09 121.5 106.35 122.32 109.84 126.23C117.79 144.85 106.51 150.49 106.51 150.49Z" fill="black"/>
<path d="M84.69 324.38L61.92 341.48C60.99 341.04 54.26 333.65 54.26 333.65L74 316.91L84.69 324.38Z" fill="#E29471"/>
<path d="M63.4 343.62C63.3708 343.572 63.3555 343.517 63.3555 343.46C63.3555 343.404 63.3708 343.348 63.4 343.3C63.4385 343.255 63.4894 343.223 63.5463 343.207C63.6033 343.191 63.6637 343.192 63.72 343.21C63.91 343.27 68.4699 344.79 69.3899 346.64C69.4853 346.809 69.5451 346.995 69.5658 347.188C69.5864 347.38 69.5674 347.575 69.51 347.76C69.4641 347.977 69.3519 348.175 69.1888 348.325C69.0258 348.476 68.82 348.572 68.5999 348.6C67.7799 348.72 66.5999 347.76 65.5999 346.6C64.7779 345.675 64.0415 344.678 63.4 343.62ZM68.6399 346.46C67.3951 345.369 65.9476 344.533 64.3799 344C65.6199 345.85 67.66 348.1 68.61 348C68.74 348 68.91 347.92 69.04 347.53C69.0734 347.419 69.0844 347.303 69.0724 347.188C69.0604 347.073 69.0256 346.962 68.97 346.86C68.8782 346.7 68.771 346.549 68.65 346.41L68.6399 346.46Z" fill="black"/>
<path d="M63.4001 343.43C63.4045 343.38 63.4214 343.331 63.4494 343.29C63.4774 343.248 63.5155 343.213 63.5601 343.19C63.6801 343.12 66.2801 341.19 68.2401 341.5C68.5158 341.554 68.778 341.662 69.0115 341.818C69.245 341.975 69.4451 342.176 69.6001 342.41C69.7775 342.581 69.8858 342.811 69.9043 343.056C69.9227 343.301 69.85 343.545 69.7001 343.74C68.8501 344.81 65.0201 344.41 63.5701 343.74L63.4701 343.67L63.4001 343.43ZM68.1201 342.1C66.7514 342.122 65.4234 342.57 64.3201 343.38C65.9801 343.88 68.8501 344.01 69.3201 343.38C69.3201 343.32 69.4901 343.17 69.2001 342.76L69.0501 342.66C68.8251 342.359 68.4913 342.158 68.1201 342.1Z" fill="black"/>
<path d="M63.8201 340.77L61.8201 339.83C60.7313 339.313 59.7656 338.569 58.9878 337.648C58.21 336.727 57.638 335.65 57.3101 334.49L56.5301 331.75C56.3819 331.562 56.1713 331.434 55.9364 331.388C55.7016 331.342 55.458 331.382 55.2501 331.5L46.3501 335.75C45.4901 336.23 45.7801 338.38 45.8501 338.46C49.7601 344.4 59.0701 356.46 62.3101 360.31C65.5501 364.16 69.7701 361.47 68.7901 359.6C64.4101 351.24 64.3101 346.78 64.4501 342.83C64.5023 342.089 64.2779 341.355 63.8201 340.77Z" fill="#263238"/>
<path d="M87.3999 217.44C87.1035 219.524 87.0565 221.635 87.2599 223.73C88.1199 234.81 95.1399 271.22 97.0399 285.28C97.1835 286.69 96.965 288.113 96.405 289.415C95.845 290.717 94.9622 291.855 93.8399 292.72C87.4199 298.25 76.0599 305.72 63.1899 324.01C63.3499 332.01 64.1299 333.01 71.3899 335.9C71.3899 335.9 107.88 308.37 113.55 300.3C121.9 288.4 122.09 237.99 122.55 224.85C122.82 217.39 123.05 208.5 117.41 203.7C114.27 201 89.5199 197 87.3999 217.44Z" fill="black"/>
<path d="M224.74 299.34L234.92 326C234.24 326.75 226.29 333.54 225.21 331C221.89 323.33 207.13 298.24 207.13 298.24L224.74 299.34Z" fill="#E29471"/>
<path d="M236.34 324.78C236.29 324.809 236.233 324.824 236.175 324.824C236.117 324.824 236.06 324.809 236.01 324.78C235.97 324.736 235.943 324.683 235.929 324.625C235.915 324.567 235.915 324.507 235.93 324.45C236.01 324.26 237.66 319.75 239.54 318.89C239.711 318.801 239.899 318.747 240.092 318.734C240.284 318.72 240.478 318.746 240.66 318.81C240.876 318.86 241.07 318.976 241.216 319.144C241.361 319.311 241.45 319.519 241.47 319.74C241.57 320.56 240.57 321.68 239.38 322.66C238.436 323.461 237.418 324.171 236.34 324.78ZM239.34 319.64C238.222 320.851 237.356 322.272 236.79 323.82C238.67 322.63 240.99 320.66 240.92 319.71C240.92 319.59 240.84 319.41 240.46 319.27C240.351 319.233 240.235 319.219 240.12 319.228C240.005 319.236 239.893 319.268 239.79 319.32C239.624 319.408 239.466 319.512 239.32 319.63L239.34 319.64Z" fill="black"/>
<path d="M236.15 324.78C236.099 324.776 236.049 324.758 236.007 324.728C235.965 324.698 235.931 324.657 235.91 324.61C235.84 324.49 234.01 321.83 234.37 319.88C234.432 319.606 234.548 319.348 234.711 319.119C234.874 318.891 235.081 318.697 235.32 318.55C235.496 318.378 235.728 318.278 235.974 318.267C236.219 318.255 236.46 318.335 236.65 318.49C237.65 319.37 237.17 323.19 236.48 324.62L236.41 324.72L236.15 324.78ZM235 320C234.976 321.367 235.382 322.706 236.16 323.83C236.71 322.2 236.93 319.33 236.28 318.83C236.22 318.83 236.07 318.66 235.65 318.93L235.55 319.08C235.253 319.302 235.055 319.633 235 320Z" fill="black"/>
<path d="M234.8 324L224.05 328.31C223.828 328.397 223.644 328.561 223.532 328.772C223.42 328.983 223.388 329.227 223.44 329.46L224.9 339.21C225.11 340.21 227.25 340.52 227.35 340.48C234.18 338.48 248.43 333.09 253.06 331.13C257.69 329.17 256.34 324.33 254.27 324.72C244.99 326.46 240.7 325.26 236.96 323.97C236.263 323.699 235.489 323.71 234.8 324Z" fill="#263238"/>
<path d="M165 255.07C167.6 256.88 170.06 258.62 172.29 260.25C192.43 275.01 203.9 301.69 212.07 316.25C219.5 319.88 229.83 312.67 232.97 310.45C232.97 310.45 210.97 263.78 203.6 253.63C185.74 229.17 167.99 213.13 140.6 197.78C137.031 195.772 132.991 194.753 128.897 194.829C124.802 194.904 120.802 196.071 117.31 198.21C114.502 199.835 111.9 201.792 109.56 204.04C108.56 205.12 106.74 211.31 115.16 219.73C122.71 227.29 147.27 242.81 164.96 255.1" fill="black"/>
<path opacity="0.1" d="M122.58 224.85C120.82 221.72 123.39 211.14 123.39 211.14C123.39 211.14 157.73 244.36 159.39 251.14L129.89 231.14L122.58 224.85Z" fill="black"/>
<path d="M191.64 288.47C191.558 288.469 191.477 288.449 191.404 288.411C191.33 288.372 191.268 288.317 191.22 288.25C190.22 286.67 189.16 285.14 188.14 283.7C188.102 283.646 188.075 283.585 188.06 283.521C188.046 283.457 188.044 283.39 188.055 283.325C188.066 283.26 188.09 283.198 188.125 283.142C188.16 283.086 188.206 283.038 188.26 283C188.314 282.962 188.375 282.935 188.439 282.92C188.503 282.906 188.57 282.904 188.635 282.915C188.7 282.926 188.762 282.95 188.818 282.985C188.874 283.02 188.922 283.066 188.96 283.12C189.96 284.58 191.03 286.12 192.06 287.7C192.097 287.755 192.122 287.816 192.134 287.881C192.147 287.946 192.146 288.013 192.132 288.077C192.118 288.141 192.091 288.202 192.053 288.256C192.015 288.31 191.966 288.355 191.91 288.39C191.832 288.446 191.736 288.474 191.64 288.47Z" fill="black"/>
<path d="M185.27 279.48C185.193 279.481 185.117 279.465 185.048 279.432C184.979 279.399 184.918 279.35 184.87 279.29C180.31 273.235 174.925 267.85 168.87 263.29C166.78 261.76 164.4 260.07 161.59 258.12C161.489 258.042 161.422 257.927 161.402 257.801C161.383 257.674 161.413 257.545 161.486 257.439C161.559 257.334 161.67 257.261 161.795 257.235C161.921 257.209 162.051 257.232 162.16 257.3C164.98 259.3 167.36 260.95 169.46 262.49C175.581 267.088 181.027 272.521 185.64 278.63C185.703 278.702 185.743 278.791 185.755 278.886C185.768 278.981 185.752 279.077 185.711 279.163C185.669 279.249 185.604 279.321 185.522 279.37C185.44 279.42 185.346 279.444 185.25 279.44L185.27 279.48Z" fill="black"/>
<path d="M120.67 297.76H120.52C120.394 297.719 120.289 297.63 120.227 297.512C120.166 297.394 120.152 297.257 120.19 297.13C120.48 296.24 120.75 295.25 121.02 294.2C121.036 294.136 121.065 294.076 121.105 294.024C121.144 293.971 121.194 293.927 121.25 293.893C121.307 293.86 121.37 293.838 121.435 293.829C121.5 293.82 121.566 293.823 121.63 293.84C121.693 293.855 121.753 293.883 121.806 293.921C121.858 293.96 121.903 294.009 121.936 294.064C121.97 294.12 121.992 294.182 122.001 294.247C122.01 294.311 122.007 294.377 121.99 294.44C121.72 295.51 121.44 296.52 121.15 297.44C121.112 297.536 121.045 297.617 120.96 297.674C120.874 297.732 120.773 297.761 120.67 297.76Z" fill="black"/>
<path d="M102.29 318.57C102.216 318.571 102.142 318.555 102.075 318.524C102.007 318.493 101.948 318.447 101.9 318.39C101.817 318.286 101.777 318.154 101.79 318.021C101.803 317.888 101.868 317.766 101.97 317.68C110.45 310.63 115.66 305.74 117.48 303.16C117.85 302.647 118.184 302.109 118.48 301.55C118.544 301.433 118.65 301.346 118.777 301.307C118.904 301.268 119.042 301.28 119.16 301.34C119.276 301.402 119.363 301.507 119.403 301.632C119.442 301.757 119.43 301.893 119.37 302.01C119.077 302.609 118.743 303.187 118.37 303.74C116.51 306.39 111.23 311.34 102.69 318.45C102.636 318.497 102.572 318.532 102.503 318.553C102.434 318.574 102.361 318.579 102.29 318.57Z" fill="black"/>
<path d="M117.18 107.74C117.96 110.95 120.88 113.15 123.69 114.88C125.88 116.22 128.29 117.5 130.85 117.41C131.862 117.326 132.845 117.036 133.742 116.56C134.638 116.083 135.428 115.43 136.064 114.639C136.7 113.847 137.169 112.935 137.441 111.957C137.714 110.979 137.785 109.956 137.65 108.95C138.025 109.495 138.51 109.954 139.074 110.298C139.638 110.643 140.269 110.865 140.924 110.95C141.58 111.035 142.246 110.981 142.879 110.791C143.512 110.602 144.099 110.281 144.6 109.85C146.5 108.01 146.45 104.97 145.97 102.37C144.393 94.086 140.096 86.5653 133.76 81.0001C132.3 82.9101 129.4 82.5501 128.08 82.2001C127.611 82.0895 127.158 81.9215 126.73 81.7001C125.432 81.4514 124.088 81.6303 122.9 82.2101C121.05 84.6201 120.38 87.7601 119.77 90.7701C119.023 94.4501 118.277 98.1335 117.53 101.82C116.997 103.747 116.878 105.764 117.18 107.74Z" fill="#263238"/>
<path d="M115 101.86C115.2 107.18 115 114.86 110.88 117.8C110.88 117.8 110.25 123.12 124.01 131.1C130.46 124.35 127.01 120.32 127.01 120.32C121.43 118.04 122.01 115.71 123.58 111.84L115 101.86Z" fill="#FFB573"/>
<path opacity="0.2" d="M118.52 105.88L123.52 111.88C123.124 112.776 122.809 113.707 122.58 114.66C120.41 114 117.23 111.58 117.13 109.11C117.311 107.933 117.79 106.821 118.52 105.88Z" fill="black"/>
<path d="M109.65 91.93C110.65 100.77 110.89 104.53 115.65 108.84C122.75 115.34 133.39 112.16 135.05 103.2C136.53 95.13 134.63 81.98 125.76 78.96C123.805 78.2694 121.706 78.0912 119.663 78.4425C117.62 78.7938 115.702 79.6627 114.09 80.9665C112.478 82.2703 111.228 83.9653 110.457 85.8899C109.687 87.8145 109.423 89.9043 109.69 91.96L109.65 91.93Z" fill="#FFB573"/>
<path d="M128.43 102.88C128.43 103.62 128.79 104.22 129.27 104.24C129.75 104.26 130.15 103.65 130.17 102.92C130.19 102.19 129.81 101.57 129.33 101.56C128.85 101.55 128.43 102.14 128.43 102.88Z" fill="#263238"/>
<path d="M123.9 93.51C123.9 94.23 124.36 94.8001 124.83 94.7801C125.3 94.7601 125.65 94.1401 125.62 93.4201C125.59 92.7001 125.16 92.13 124.7 92.15C124.24 92.17 123.91 92.82 123.9 93.51Z" fill="#263238"/>
<path d="M132.06 93.1002C132.06 93.8302 132.52 94.3902 132.98 94.3702C133.44 94.3502 133.81 93.7302 133.78 93.0102C133.75 92.2902 133.32 91.7202 132.85 91.7502C132.38 91.7802 132 92.3802 132.06 93.1002Z" fill="#263238"/>
<path d="M132.65 91.8L134.35 91.21C134.35 91.21 133.54 92.62 132.65 91.8Z" fill="#263238"/>
<path d="M129.61 94.54C130.35 96.1527 131.302 97.6593 132.44 99.0201C132.082 99.2991 131.668 99.498 131.226 99.6033C130.785 99.7085 130.326 99.7176 129.88 99.6301L129.61 94.54Z" fill="#ED893E"/>
<path d="M121.25 90.1601C121.324 90.2109 121.411 90.238 121.5 90.238C121.589 90.238 121.677 90.2109 121.75 90.1601C122.316 89.7631 122.959 89.4879 123.637 89.3519C124.315 89.2159 125.014 89.2221 125.69 89.3701C125.8 89.3941 125.915 89.3741 126.01 89.3143C126.106 89.2544 126.174 89.1596 126.2 89.0501C126.214 88.9963 126.216 88.9403 126.208 88.8854C126.199 88.8306 126.18 88.7779 126.151 88.7305C126.123 88.6831 126.085 88.6418 126.04 88.6091C125.995 88.5765 125.944 88.553 125.89 88.5401C125.079 88.3558 124.238 88.3497 123.425 88.5224C122.612 88.695 121.846 89.0423 121.18 89.5401C121.103 89.6187 121.059 89.7247 121.059 89.8351C121.059 89.9455 121.103 90.0515 121.18 90.1301L121.25 90.1601Z" fill="#263238"/>
<path d="M134.31 89.2101C134.387 89.2177 134.464 89.2051 134.534 89.1735C134.604 89.1419 134.665 89.0925 134.71 89.0301C134.743 88.9855 134.767 88.9349 134.781 88.881C134.794 88.8272 134.796 88.7712 134.788 88.7163C134.78 88.6615 134.761 88.6088 134.732 88.5614C134.703 88.514 134.665 88.4728 134.62 88.4401C134.085 88.0126 133.452 87.7247 132.779 87.6025C132.105 87.4803 131.411 87.5276 130.76 87.7401C130.709 87.7558 130.662 87.7817 130.622 87.8163C130.581 87.8508 130.548 87.8933 130.525 87.9411C130.502 87.9889 130.488 88.0409 130.486 88.0941C130.483 88.1472 130.491 88.2003 130.51 88.2501C130.528 88.3017 130.556 88.3491 130.592 88.3897C130.629 88.4303 130.673 88.4632 130.723 88.4865C130.772 88.5098 130.825 88.523 130.88 88.5253C130.934 88.5277 130.989 88.5191 131.04 88.5001C131.552 88.358 132.091 88.3382 132.612 88.4424C133.133 88.5466 133.622 88.7719 134.04 89.1001C134.118 89.1608 134.212 89.1989 134.31 89.2101Z" fill="#263238"/>
<path d="M124.48 92.2799L126.19 91.6799C126.19 91.6799 125.38 92.9999 124.48 92.2799Z" fill="#263238"/>
<path d="M135.74 83.0001C135.66 83.1101 132.28 84.6101 128.08 82.1501C127.65 81.9001 127.15 81.8601 126.74 81.6401C125.438 81.3905 124.091 81.5695 122.9 82.1501C122.6 82.3201 119.01 83.7801 118.56 90.1501C117.83 100.39 113.2 97.8501 112.56 97.6301C111 97.0601 110.17 95.8301 108.56 96.0401C108.269 96.0901 107.971 96.0901 107.68 96.0401C108.68 98.9801 109.75 101.78 111.03 102.41C120.36 106.92 117.6 114.91 115.13 116.18C113.36 117.1 105.93 117.83 100.45 111.76C98.7699 113.29 96.0399 112.93 93.9899 111.87C92.4267 111.039 91.2191 109.667 90.5917 108.012C89.9644 106.356 89.9602 104.529 90.5799 102.87C91.7635 99.5746 93.9314 96.7225 96.7899 94.7001C98.7899 93.3301 101.1 92.3301 102.54 90.3901C102.956 89.8216 103.292 89.1992 103.54 88.5401C103.93 87.5401 104.4 86.4901 104.86 85.4801C104.922 85.3251 104.969 85.1643 105 85.0001C105.731 82.7417 107.017 80.7028 108.74 79.0701C111.3 76.5701 116.86 74.6301 121.45 74.5201C126.73 74.3401 133.66 78.1201 135.74 83.0001Z" fill="#263238"/>
<path d="M104.41 89.9301C104.48 89.2001 104.51 88.5701 104.52 88.3101C104.449 88.8472 104.413 89.3883 104.41 89.9301Z" fill="#263238"/>
<path d="M107.59 98.8801C108.23 100.439 109.459 101.682 111.01 102.34C113.09 103.18 114.39 101.34 114.01 99.28C113.67 97.39 112.2 94.6701 110.01 94.6901C109.631 94.7042 109.259 94.7932 108.915 94.9519C108.571 95.1106 108.262 95.336 108.005 95.6149C107.748 95.8938 107.55 96.2208 107.42 96.577C107.29 96.9331 107.233 97.3115 107.25 97.6901C107.271 98.1075 107.387 98.5146 107.59 98.8801Z" fill="#FFB573"/>
<path d="M134.59 116C137.14 115.54 139.69 114.48 141.08 112.31C145.08 106.07 138.41 89.9301 130.33 81.5801L130 82.0001C138 90.2201 144.59 106 140.69 112.11C138 116.3 130.43 116.11 127.99 115.65L127.9 116.14C130.123 116.451 132.382 116.404 134.59 116Z" fill="#263238"/>
<path d="M104.73 90.8801L105.22 90.7901C104.61 87.4801 105.76 83.8501 108.44 80.5601C111.34 77.0101 115.55 74.5601 118.91 74.5601C122.77 74.4901 128.31 75.8801 131.37 79.1001L131.73 78.7601C128.57 75.4201 122.87 73.9901 118.9 74.0601C115.4 74.1201 111.04 76.6201 108.06 80.2701C105.27 83.6401 104.09 87.4201 104.73 90.8801Z" fill="#263238"/>
<path d="M90.26 107C92.7715 109.124 95.4464 111.046 98.26 112.75C100.827 114.491 103.807 115.526 106.9 115.75C107.62 115.773 108.341 115.719 109.05 115.59C110.243 115.413 111.384 114.982 112.397 114.327C113.41 113.671 114.27 112.806 114.92 111.79C115.345 111.038 115.617 110.208 115.718 109.349C115.819 108.491 115.749 107.621 115.51 106.79C115.336 106.099 115.022 105.451 114.586 104.887C114.151 104.322 113.604 103.854 112.98 103.51L112.76 103.94C113.326 104.258 113.821 104.688 114.214 105.204C114.608 105.72 114.892 106.31 115.05 106.94C115.271 107.708 115.336 108.512 115.241 109.305C115.147 110.099 114.895 110.865 114.5 111.56C113.682 112.78 112.56 113.767 111.245 114.423C109.93 115.078 108.467 115.381 107 115.3C103.993 115.078 101.096 114.071 98.6 112.38C95.717 110.646 92.9782 108.683 90.41 106.51L90.26 107Z" fill="#263238"/>
<path d="M96.4001 124.81C97.2801 131.42 104.6 159.73 106.09 162.96C106.3 163.4 106.51 163.85 106.76 164.3C107.01 164.75 107.25 165.21 107.56 165.69L108.02 166.43C108.24 166.74 108.46 167.07 108.69 167.34C109.125 167.882 109.592 168.396 110.09 168.88C111.766 170.409 113.686 171.646 115.77 172.54C119.142 173.993 122.683 175.018 126.31 175.59C132.977 176.692 139.747 177.028 146.49 176.59L146.84 169.59L142.27 168.59C140.74 168.25 139.22 167.86 137.71 167.51C134.71 166.76 131.71 165.97 128.89 165.02C126.21 164.21 121.94 163.02 119.49 161.7C118.648 161.229 117.891 160.621 117.25 159.9C117.181 159.813 117.121 159.719 117.07 159.62C117.066 159.594 117.066 159.567 117.07 159.54L116.92 159.25C116.8 159.01 116.69 158.76 116.59 158.51C116.49 158.26 109.1 128.22 108.09 122.11L96.4001 124.81Z" fill="#FFB573"/>
<path d="M145.62 170.2C147.045 168.408 148.677 166.79 150.48 165.38C151.291 164.716 152.265 164.281 153.3 164.12C156.54 163.62 159.96 163.12 160.08 169.07C160.08 169.22 160.84 171.74 160.85 171.88C161.13 175.15 157.99 175.65 154.72 175.93L145.99 176.53L145.62 170.2Z" fill="#FFB573"/>
<path d="M113.12 124.75C116.2 134.8 112.49 134.68 112.86 140.81L100.57 143.87C100.57 143.87 93.8199 138.19 92.7999 131C92.578 129.213 92.7806 127.398 93.3913 125.703C94.0019 124.009 95.0034 122.482 96.3145 121.247C97.6256 120.012 99.2094 119.103 100.937 118.595C102.665 118.086 104.489 117.992 106.26 118.32C107.904 118.611 109.427 119.374 110.645 120.516C111.863 121.658 112.723 123.129 113.12 124.75Z" fill="#263238"/>
<path d="M111.052 138.181L107.297 139.03L107.542 140.113L111.297 139.263L111.052 138.181Z" fill="black"/>
<path d="M105.186 139.651L101.241 140.97L101.593 142.023L105.538 140.704L105.186 139.651Z" fill="black"/>
<path d="M147.322 139.27L143.944 140.016L144.159 140.993L147.538 140.246L147.322 139.27Z" fill="black"/>
<path d="M185.27 155.65C183.966 157.16 183.227 159.076 183.182 161.07C183.136 163.065 183.786 165.013 185.02 166.58L185.27 166.9V168.64H129.41V153.64H185.27V155.65Z" fill="black"/>
<path opacity="0.1" d="M185.27 155.65C183.966 157.16 183.227 159.076 183.182 161.07C183.136 163.065 183.786 165.013 185.02 166.58L185.27 166.9V168.64H160.78V153.64H185.27V155.65Z" fill="black"/>
<path d="M185 166.58L185.25 166.9H163.43V155.65H185.27C183.966 157.16 183.227 159.076 183.182 161.07C183.136 163.065 183.786 165.013 185.02 166.58H185Z" fill="#263238"/>
<path opacity="0.9" d="M185 166.58L185.25 166.9H163.43V155.65H185.27C183.966 157.16 183.227 159.076 183.182 161.07C183.136 163.065 183.786 165.013 185.02 166.58H185Z" fill="white"/>
<path d="M158.81 161.53C158.81 162.123 158.634 162.703 158.304 163.197C157.975 163.69 157.506 164.075 156.958 164.302C156.41 164.529 155.807 164.588 155.225 164.472C154.643 164.357 154.108 164.071 153.689 163.651C153.269 163.232 152.983 162.697 152.868 162.115C152.752 161.533 152.811 160.93 153.038 160.382C153.265 159.834 153.65 159.365 154.143 159.036C154.637 158.706 155.217 158.53 155.81 158.53C156.606 158.53 157.369 158.846 157.931 159.409C158.494 159.971 158.81 160.734 158.81 161.53Z" fill="white"/>
<path d="M158.13 161.53C158.13 161.995 157.992 162.449 157.734 162.836C157.476 163.222 157.109 163.523 156.679 163.701C156.25 163.879 155.778 163.926 155.322 163.835C154.866 163.744 154.447 163.52 154.118 163.192C153.79 162.863 153.566 162.444 153.475 161.989C153.385 161.533 153.431 161.06 153.609 160.631C153.787 160.201 154.088 159.834 154.475 159.576C154.861 159.318 155.315 159.18 155.78 159.18C156.403 159.18 157.001 159.428 157.442 159.868C157.883 160.309 158.13 160.907 158.13 161.53Z" fill="#263238"/>
<path d="M143.95 156.95H130.92V165.26H143.95V156.95Z" fill="white"/>
<path d="M150.17 156.95H144.56V165.26H150.17V156.95Z" fill="white"/>
<path d="M163.43 165.5V164.5C163.855 164.561 164.289 164.529 164.701 164.408C165.113 164.286 165.495 164.078 165.819 163.796C166.144 163.514 166.404 163.166 166.582 162.775C166.761 162.384 166.853 161.96 166.853 161.53C166.853 161.1 166.761 160.676 166.582 160.285C166.404 159.894 166.144 159.546 165.819 159.264C165.495 158.982 165.113 158.774 164.701 158.652C164.289 158.531 163.855 158.499 163.43 158.56V157.56C163.992 157.491 164.563 157.542 165.104 157.71C165.645 157.877 166.144 158.158 166.569 158.534C166.993 158.909 167.333 159.37 167.566 159.887C167.799 160.403 167.919 160.963 167.919 161.53C167.919 162.097 167.799 162.657 167.566 163.173C167.333 163.69 166.993 164.151 166.569 164.526C166.144 164.902 165.645 165.183 165.104 165.35C164.563 165.518 163.992 165.569 163.43 165.5Z" fill="#263238"/>
<path d="M183.44 158.93H163.43V159.43H183.44V158.93Z" fill="white"/>
<path d="M183.44 159.52H163.43V160.02H183.44V159.52Z" fill="white"/>
<path d="M183.44 160.1H163.43V160.6H183.44V160.1Z" fill="white"/>
<path d="M183.44 160.69H163.43V161.19H183.44V160.69Z" fill="white"/>
<path d="M183.44 161.28H163.43V161.78H183.44V161.28Z" fill="white"/>
<path d="M183.44 161.87H163.43V162.37H183.44V161.87Z" fill="white"/>
<path d="M183.44 162.46H163.43V162.96H183.44V162.46Z" fill="white"/>
<path d="M183.44 163.05H163.43V163.55H183.44V163.05Z" fill="white"/>
<path d="M183.44 163.63H163.43V164.13H183.44V163.63Z" fill="white"/>
<path d="M191.36 140.38C190.056 141.889 189.317 143.806 189.272 145.8C189.226 147.795 189.876 149.743 191.11 151.31L191.36 151.63V153.37H135.5V138.32H191.36V140.38Z" fill="black"/>
<path opacity="0.1" d="M191.36 140.38C190.056 141.889 189.317 143.806 189.272 145.8C189.226 147.795 189.876 149.743 191.11 151.31L191.36 151.63V153.37H166.87V138.32H191.36V140.38Z" fill="black"/>
<path d="M191.11 151.31L191.36 151.63H169.52V140.38H191.36C190.056 141.889 189.317 143.806 189.272 145.8C189.226 147.794 189.876 149.743 191.11 151.31Z" fill="#263238"/>
<path opacity="0.9" d="M191.11 151.31L191.36 151.63H169.52V140.38H191.36C190.056 141.889 189.317 143.806 189.272 145.8C189.226 147.794 189.876 149.743 191.11 151.31Z" fill="white"/>
<path d="M164.9 146.26C164.9 146.853 164.724 147.433 164.395 147.927C164.065 148.42 163.596 148.805 163.048 149.032C162.5 149.259 161.897 149.318 161.315 149.202C160.733 149.087 160.198 148.801 159.779 148.381C159.359 147.962 159.074 147.427 158.958 146.845C158.842 146.263 158.901 145.66 159.129 145.112C159.356 144.564 159.74 144.095 160.233 143.766C160.727 143.436 161.307 143.26 161.9 143.26C162.696 143.26 163.459 143.576 164.021 144.139C164.584 144.701 164.9 145.464 164.9 146.26Z" fill="white"/>
<path d="M164.22 146.26C164.22 146.725 164.082 147.179 163.824 147.566C163.566 147.952 163.199 148.253 162.769 148.431C162.34 148.609 161.867 148.656 161.412 148.565C160.956 148.474 160.537 148.25 160.208 147.922C159.88 147.593 159.656 147.174 159.565 146.718C159.475 146.263 159.521 145.79 159.699 145.361C159.877 144.931 160.178 144.564 160.564 144.306C160.951 144.048 161.405 143.91 161.87 143.91C162.493 143.91 163.091 144.158 163.532 144.598C163.972 145.039 164.22 145.637 164.22 146.26Z" fill="#263238"/>
<path d="M150.04 141.67H137.01V149.98H150.04V141.67Z" fill="white"/>
<path d="M156.26 141.67H150.65V149.98H156.26V141.67Z" fill="white"/>
<path d="M169.52 150.23V149.23C170.235 149.128 170.889 148.772 171.363 148.226C171.836 147.68 172.097 146.982 172.097 146.26C172.097 145.538 171.836 144.84 171.363 144.294C170.889 143.748 170.235 143.392 169.52 143.29V142.29C170.489 142.409 171.381 142.879 172.027 143.61C172.674 144.341 173.031 145.284 173.031 146.26C173.031 147.236 172.674 148.179 172.027 148.91C171.381 149.641 170.489 150.111 169.52 150.23Z" fill="#263238"/>
<path d="M189.53 143.66H169.52V144.16H189.53V143.66Z" fill="white"/>
<path d="M189.53 144.25H169.52V144.75H189.53V144.25Z" fill="white"/>
<path d="M189.53 144.83H169.52V145.33H189.53V144.83Z" fill="white"/>
<path d="M189.53 145.42H169.52V145.92H189.53V145.42Z" fill="white"/>
<path d="M189.53 146.01H169.52V146.51H189.53V146.01Z" fill="white"/>
<path d="M189.53 146.6H169.52V147.1H189.53V146.6Z" fill="white"/>
<path d="M189.53 147.19H169.52V147.69H189.53V147.19Z" fill="white"/>
<path d="M189.53 147.77H169.52V148.27H189.53V147.77Z" fill="white"/>
<path d="M189.53 148.36H169.52V148.86H189.53V148.36Z" fill="white"/>
<path d="M163.49 68.6801C174.941 70.248 186.558 70.1807 197.99 68.4801C198.327 68.4749 198.658 68.3971 198.962 68.2521C199.265 68.1072 199.534 67.8984 199.75 67.6401C200.27 66.7801 199.54 65.7401 198.94 64.9401C197.85 63.4672 197.079 61.7839 196.674 59.997C196.27 58.2101 196.241 56.3586 196.59 54.5601C188.061 62.3287 177.309 67.2254 165.85 68.5601L163.49 68.6801Z" fill="black"/>
<path opacity="0.4" d="M163.49 68.6801C174.941 70.248 186.558 70.1807 197.99 68.4801C198.327 68.4749 198.658 68.3971 198.962 68.2521C199.265 68.1072 199.534 67.8984 199.75 67.6401C200.27 66.7801 199.54 65.7401 198.94 64.9401C197.85 63.4672 197.079 61.7839 196.674 59.997C196.27 58.2101 196.241 56.3586 196.59 54.5601C188.061 62.3287 177.309 67.2254 165.85 68.5601L163.49 68.6801Z" fill="white"/>
<path d="M137.61 138.37H187.57V125.95H137.61V138.37Z" fill="black"/>
<path opacity="0.6" d="M137.78 138.42H187.74V126H137.78V138.42Z" fill="white"/>
<path opacity="0.6" d="M137.62 138.42H175.96V126H137.62V138.42Z" fill="white"/>
<path d="M137.86 136.78L187.58 138.33L187.52 137.07L137.84 136.42L137.86 136.78Z" fill="black"/>
<path d="M187.58 131.04L137.94 128.25V128.67L187.58 131.99V131.04Z" fill="black"/>
<path d="M187.58 127.29L137.94 128.43V128.83L187.58 128.23V127.29Z" fill="black"/>
<path d="M187.72 133.48L138.07 135.9V135.53L187.72 132.65V133.48Z" fill="black"/>
<path d="M137.74 126.11L187.38 126.15V126.56H137.74V126.11Z" fill="black"/>
<path d="M141.2 101.37H191.16V88.95H141.2V101.37Z" fill="black"/>
<path opacity="0.6" d="M141.36 101.43H191.32V89.0101H141.36V101.43Z" fill="white"/>
<path opacity="0.6" d="M141.21 101.43H179.55V89.0101H141.21V101.43Z" fill="white"/>
<path d="M141.44 99.7901L191.16 101.33L191.1 100.07L141.42 99.4301L141.44 99.7901Z" fill="black"/>
<path d="M191.16 94.05L141.52 91.25V91.67L191.16 94.99V94.05Z" fill="black"/>
<path d="M191.16 90.29L141.52 91.43V91.84L191.16 91.2401V90.29Z" fill="black"/>
<path d="M191.3 96.49L141.65 98.9V98.54L191.3 95.66V96.49Z" fill="black"/>
<path d="M140.58 125.77H190.54V113.35H140.58V125.77Z" fill="black"/>
<path opacity="0.6" d="M140.74 125.82H190.7V113.4H140.74V125.82Z" fill="white"/>
<path opacity="0.6" d="M179.03 113.41H140.69V125.83H179.03V113.41Z" fill="white"/>
<path d="M190.32 123.83L140.64 124.48L140.58 125.74L190.29 124.19L190.32 123.83Z" fill="black"/>
<path d="M140.9 113.51L190.54 113.55V113.96H140.9V113.51Z" fill="black"/>
<path d="M140.58 119.39L190.22 116.07V115.66L140.58 118.45V119.39Z" fill="black"/>
<path d="M190.54 114.7L140.9 115.83V116.24L190.54 115.64V114.7Z" fill="black"/>
<path d="M190.68 120.89L141.03 123.31V122.94L190.68 120.06V120.89Z" fill="black"/>
<path d="M188.81 101.64L138.87 101.89L138.8 114.06H188.81V101.64Z" fill="black"/>
<path opacity="0.6" d="M138.85 114.06H188.81V101.64H138.85V114.06Z" fill="white"/>
<path opacity="0.6" d="M177.14 101.64H138.8V114.06H177.14V101.64Z" fill="white"/>
<path d="M178.65 101.89H138.87V103.16H177.79L178.65 101.89Z" fill="black"/>
<path d="M188.52 106.98L138.87 107.44V107.81H188.52V106.98Z" fill="black"/>
<path d="M138.87 112.73L188.52 110.31V110.67L138.87 113.56V112.73Z" fill="black"/>
<path d="M138.87 108.06L188.52 109.05V109.4L138.87 108.88V108.06Z" fill="black"/>
<path d="M201.56 74.62H151.92V80.87H201.56V74.62Z" fill="black"/>
<path opacity="0.6" d="M201.56 74.62H151.92V80.87H201.56V74.62Z" fill="white"/>
<path opacity="0.6" d="M191.47 74.62H151.92V80.87H191.47V74.62Z" fill="white"/>
<path d="M201.59 79.0602L151.95 79.3002V79.4902H201.59V79.0602Z" fill="black"/>
<path d="M151.95 76.72L201.59 75.46V75.6499L151.95 77.1499V76.72Z" fill="black"/>
<path d="M151.79 76.3801L201.43 76.8901V77.0801L151.79 76.8001V76.3801Z" fill="black"/>
<path d="M194.62 71.87H144.98V74.88H194.62V71.87Z" fill="black"/>
<path opacity="0.6" d="M194.62 71.89H144.98V74.88H194.62V71.89Z" fill="white"/>
<path opacity="0.6" d="M184.54 71.71H144.98V74.89H184.54V71.71Z" fill="white"/>
<path d="M145 74.16L194.64 72.9V73.09L145 74.59V74.16Z" fill="black"/>
<path d="M145 72.6501L194.64 73.1601V73.3502L145 73.0801V72.6501Z" fill="black"/>
<path d="M199.24 68.79H149.6V71.8H199.24V68.79Z" fill="black"/>
<path opacity="0.6" d="M199.24 68.8101H149.6V71.8001H199.24V68.8101Z" fill="white"/>
<path opacity="0.6" d="M189.15 68.63H149.6V71.81H189.15V68.63Z" fill="white"/>
<path d="M149.63 70.1499L199.28 70.7499L199.27 70.9499L149.61 70.5799L149.63 70.1499Z" fill="black"/>
<path d="M149.63 69.5701L199.26 70.0801V70.2701L149.63 70.0001V69.5701Z" fill="black"/>
<path d="M198.21 80.8801H148.57V88.9301H198.21V80.8801Z" fill="black"/>
<path opacity="0.6" d="M198.21 80.8801H148.57V88.9301H198.21V80.8801Z" fill="white"/>
<path opacity="0.6" d="M186.87 80.8801H148.57V88.9301H186.87V80.8801Z" fill="white"/>
<path d="M197.89 83.38L148.25 83.1V82.88H197.89V83.38Z" fill="black"/>
<path d="M148.59 84.5501L198.23 86.0001V85.7801L148.59 84.0601V84.5501Z" fill="black"/>
<path d="M198.23 80.8801H151.41L152.45 81.8801H198.23V80.8801Z" fill="black"/>
<path d="M148.76 87.6901L198.4 87.0901V86.8801L148.76 87.1901V87.6901Z" fill="black"/>
</svg>
