<svg width="400" height="372" viewBox="0 0 400 372" fill="none" xmlns="http://www.w3.org/2000/svg">
<path d="M58.5765 343.567C136.684 380.79 263.316 380.802 341.424 343.567C419.531 306.332 419.52 245.986 341.424 208.763C263.327 171.54 136.684 171.54 58.5765 208.763C-19.5312 245.986 -19.5198 306.344 58.5765 343.567Z" fill="#F5F5F5"/>
<path d="M341.151 316.058C355.536 316.058 367.198 310.501 367.198 303.646C367.198 296.791 355.536 291.235 341.151 291.235C326.765 291.235 315.104 296.791 315.104 303.646C315.104 310.501 326.765 316.058 341.151 316.058Z" fill="#EBEBEB"/>
<path d="M52.6475 305.426L61.8626 300.11C67.0077 295.911 70.9237 290.401 73.1973 284.162C76.0424 276.318 75.6456 270.356 73.6054 267.364C71.1004 263.68 64.6056 264.326 64.3449 272.079C63.8008 287.358 59.3463 297.956 52.6475 305.426Z" fill="black"/>
<path opacity="0.2" d="M52.6475 305.426L61.8626 300.11C67.0077 295.911 70.9237 290.401 73.1973 284.162C76.0424 276.318 75.6456 270.356 73.6054 267.364C71.1004 263.68 64.6056 264.326 64.3449 272.079C63.8008 287.358 59.3463 297.956 52.6475 305.426Z" fill="black"/>
<path d="M52.6477 305.993C52.5277 305.991 52.4112 305.952 52.3151 305.88C52.219 305.808 52.1482 305.707 52.113 305.593C52.0777 305.478 52.0797 305.355 52.1188 305.241C52.1578 305.128 52.2319 305.03 52.3303 304.961C73.6396 290.226 69.5138 269.676 69.4684 269.472C69.4528 269.398 69.452 269.321 69.466 269.246C69.4801 269.171 69.5087 269.1 69.5503 269.036C69.5918 268.973 69.6456 268.918 69.7083 268.875C69.7711 268.832 69.8417 268.802 69.9162 268.786C69.9906 268.771 70.0674 268.77 70.1421 268.784C70.2168 268.798 70.2881 268.827 70.3518 268.868C70.4154 268.91 70.4703 268.963 70.5132 269.026C70.5561 269.089 70.5863 269.16 70.6019 269.234C70.6019 269.449 74.9544 290.702 53.0104 305.891C52.9039 305.963 52.7765 305.999 52.6477 305.993V305.993Z" fill="white"/>
<path d="M34.1838 316.092C34.1838 316.092 30.9761 313.485 31.7468 309.948C32.5176 306.412 34.5918 303.873 31.0441 299.316C27.4963 294.76 26.5102 288.684 30.7494 285.397C33.9798 282.847 39.0237 286.452 40.8373 279.73C42.1748 274.811 41.7214 263.918 47.9895 260.291C54.2576 256.664 58.1908 262.127 57.2046 269.517C56.3432 276.126 55.119 282.484 56.0712 284.253C57.9074 287.653 61.0471 287.188 60.8998 293.4C60.7751 299.18 55.3004 303.964 55.3004 303.964L34.1838 316.092Z" fill="black"/>
<path d="M44.7128 310.549C44.5743 310.548 44.4409 310.496 44.3368 310.405C44.2328 310.313 44.1651 310.187 44.1461 310.05C42.5252 296.619 46.4131 273.428 49.5868 266.536C49.6135 266.46 49.6563 266.39 49.7123 266.331C49.7683 266.273 49.8361 266.227 49.9113 266.197C49.9865 266.167 50.0672 266.153 50.1481 266.157C50.229 266.161 50.3082 266.182 50.3802 266.219C50.4479 266.249 50.5087 266.293 50.5592 266.347C50.6097 266.402 50.6488 266.466 50.6741 266.535C50.6995 266.605 50.7106 266.679 50.7069 266.753C50.7031 266.827 50.6845 266.9 50.6522 266.967C47.5125 273.768 43.7607 297.027 45.3136 309.869C45.3295 310.018 45.286 310.166 45.1926 310.283C45.0992 310.4 44.9634 310.475 44.8149 310.492L44.7128 310.549Z" fill="white"/>
<path d="M44.4065 300.087C44.3198 300.091 44.2335 300.072 44.1571 300.03C40.224 298.115 37.7303 291.28 37.6283 290.962C37.6005 290.892 37.5872 290.817 37.589 290.741C37.5909 290.665 37.6079 290.591 37.6391 290.521C37.6703 290.452 37.715 290.39 37.7706 290.339C37.8262 290.287 37.8916 290.248 37.9628 290.222C38.0341 290.196 38.1098 290.185 38.1855 290.189C38.2611 290.193 38.3352 290.212 38.4034 290.245C38.4715 290.278 38.5323 290.325 38.5822 290.382C38.6321 290.439 38.67 290.505 38.6938 290.577C38.6938 290.645 41.1308 297.265 44.6559 298.976C44.7715 299.032 44.8647 299.126 44.9201 299.242C44.9755 299.358 44.9899 299.489 44.961 299.614C44.932 299.739 44.8613 299.851 44.7606 299.931C44.6598 300.01 44.535 300.053 44.4065 300.053V300.087Z" fill="white"/>
<path d="M44.3387 304.621C44.2252 304.621 44.1143 304.587 44.0211 304.522C43.9278 304.457 43.8567 304.365 43.8173 304.258C43.7609 304.12 43.7614 303.965 43.8187 303.827C43.8761 303.689 43.9855 303.579 44.1234 303.522C50.7429 300.869 54.8687 292.992 54.914 292.901C54.9832 292.767 55.1026 292.666 55.2461 292.621C55.3896 292.575 55.5454 292.588 55.6791 292.657C55.8129 292.727 55.9137 292.846 55.9594 292.989C56.0051 293.133 55.992 293.289 55.9228 293.422C55.7415 293.763 51.5589 301.765 44.5881 304.576C44.5104 304.613 44.4244 304.628 44.3387 304.621V304.621Z" fill="white"/>
<path d="M275.716 243.64C275.716 243.64 270.763 235.615 270.275 226.899C269.788 218.182 271.703 214.555 274.333 213.512C276.963 212.47 277.167 215.677 278.516 217.57C279.864 219.463 282.619 218.386 283.639 212.481C284.659 206.576 288.377 196.612 296.107 194.674C304.608 192.566 300.052 202.54 297.909 206.428C295.767 210.316 294.112 215.621 295.518 217.06C296.923 218.5 299.111 215.836 301.185 218.307C303.713 221.288 295.858 232.022 291.346 234.618L275.716 243.64Z" fill="black"/>
<path d="M282.505 240.274C282.431 240.271 282.358 240.253 282.29 240.222C282.223 240.191 282.162 240.147 282.111 240.092C282.061 240.037 282.021 239.973 281.996 239.903C281.97 239.833 281.958 239.759 281.961 239.684C282.729 225.663 287.102 212.077 294.656 200.24C294.699 200.178 294.754 200.126 294.818 200.086C294.881 200.046 294.952 200.019 295.026 200.008C295.101 199.996 295.176 199.999 295.249 200.018C295.322 200.036 295.39 200.069 295.45 200.115C295.569 200.203 295.648 200.334 295.671 200.481C295.695 200.627 295.66 200.776 295.574 200.897C288.155 212.561 283.861 225.938 283.106 239.741C283.102 239.816 283.083 239.888 283.05 239.956C283.018 240.023 282.972 240.083 282.916 240.132C282.861 240.182 282.796 240.22 282.725 240.244C282.655 240.268 282.58 240.278 282.505 240.274Z" fill="white"/>
<path d="M283.151 233.575C283.056 233.574 282.963 233.551 282.879 233.507C279.705 231.75 277.948 226.536 277.88 226.32C277.855 226.25 277.844 226.175 277.849 226.1C277.853 226.025 277.872 225.952 277.904 225.884C277.937 225.817 277.983 225.757 278.039 225.707C278.095 225.657 278.161 225.619 278.231 225.595C278.374 225.549 278.53 225.561 278.664 225.629C278.797 225.697 278.899 225.815 278.946 225.958C278.946 225.958 280.646 230.979 283.479 232.509C283.608 232.585 283.702 232.708 283.742 232.851C283.782 232.995 283.765 233.149 283.695 233.28C283.644 233.378 283.565 233.458 283.468 233.51C283.371 233.563 283.26 233.585 283.151 233.575Z" fill="white"/>
<path d="M283.707 230.14C283.581 230.139 283.459 230.096 283.361 230.018C283.262 229.94 283.193 229.832 283.162 229.71C283.144 229.638 283.14 229.564 283.15 229.491C283.161 229.418 283.186 229.347 283.224 229.284C283.262 229.221 283.312 229.166 283.371 229.122C283.431 229.078 283.499 229.047 283.571 229.03C291.754 226.955 294.588 222.671 294.611 222.626C294.651 222.562 294.703 222.508 294.764 222.464C294.826 222.421 294.895 222.391 294.968 222.375C295.041 222.358 295.117 222.356 295.191 222.369C295.265 222.382 295.335 222.41 295.398 222.45C295.462 222.49 295.516 222.542 295.559 222.604C295.602 222.665 295.633 222.734 295.649 222.807C295.666 222.88 295.667 222.956 295.654 223.03C295.642 223.104 295.614 223.174 295.574 223.238C295.449 223.43 292.502 227.93 283.854 230.129L283.707 230.14Z" fill="white"/>
<path d="M152.394 226.026C152.394 226.026 141.524 223.374 140.957 203.017C140.356 181.05 143.621 155.411 130.756 153.336C117.891 151.262 110.75 166.938 110.909 185.244C111.056 201.271 117.517 236.069 152.349 242.892L152.394 226.026Z" fill="black"/>
<path opacity="0.2" d="M152.394 226.026C152.394 226.026 141.524 223.374 140.957 203.017C140.356 181.05 143.621 155.411 130.756 153.336C117.891 151.262 110.75 166.938 110.909 185.244C111.056 201.271 117.517 236.069 152.349 242.892L152.394 226.026Z" fill="black"/>
<path d="M152.393 240.806H152.291C144.459 239.378 138.077 235.06 133.328 227.987C119.25 206.983 123.682 167.765 125.144 160.919C125.177 160.773 125.265 160.646 125.39 160.563C125.514 160.481 125.666 160.45 125.813 160.477C125.96 160.512 126.087 160.602 126.17 160.729C126.252 160.856 126.283 161.009 126.255 161.157C124.816 167.958 120.406 206.677 134.269 227.352C136.287 230.558 138.949 233.31 142.086 235.433C145.224 237.556 148.768 239.004 152.495 239.684C152.569 239.698 152.64 239.726 152.703 239.767C152.765 239.808 152.82 239.861 152.862 239.924C152.904 239.986 152.933 240.056 152.948 240.13C152.963 240.203 152.963 240.279 152.948 240.353C152.924 240.482 152.855 240.598 152.754 240.681C152.652 240.764 152.524 240.809 152.393 240.806V240.806Z" fill="white"/>
<path d="M152.393 293.048C141.161 294.567 122.923 294.545 112.393 286.248C101.863 277.951 104.062 270.81 108.109 267.829C112.155 264.848 115.669 261.447 108.709 254.828C101.75 248.208 90.5737 237.576 86.9466 221.628C83.3195 205.68 85.1104 195.706 92.2286 192.385C99.1315 189.166 100.956 194.289 105.184 204.853C109.412 215.417 118.922 206.36 127.06 209.659C135.199 212.957 134.87 219.486 135.38 225.097C135.89 230.707 138.576 232.26 143.19 232.26C147.803 232.26 152.393 234.913 152.393 240.195V293.048Z" fill="black"/>
<path d="M152.393 274.527C152.344 274.538 152.294 274.538 152.245 274.527C151.758 274.391 140.14 271.014 123.217 255.474C105.195 238.925 96.6938 214.102 96.6032 213.853C96.5597 213.71 96.5732 213.556 96.6408 213.423C96.7084 213.289 96.8249 213.188 96.9659 213.139C97.1072 213.092 97.2613 213.102 97.395 213.168C97.5286 213.233 97.631 213.349 97.6799 213.49C97.7593 213.739 106.181 238.29 123.988 254.635C140.673 269.971 152.427 273.405 152.551 273.439C152.623 273.46 152.69 273.495 152.748 273.541C152.806 273.588 152.854 273.646 152.89 273.711C152.925 273.776 152.948 273.848 152.956 273.922C152.964 273.996 152.958 274.071 152.937 274.142C152.9 274.256 152.827 274.356 152.729 274.425C152.631 274.495 152.513 274.531 152.393 274.527Z" fill="white"/>
<path d="M127.944 259.418C127.83 259.42 127.719 259.386 127.625 259.321C127.531 259.256 127.461 259.163 127.423 259.056C123.784 249.716 122.957 229.733 122.889 228.882C122.886 228.733 122.941 228.588 123.042 228.478C123.143 228.368 123.284 228.302 123.433 228.293C123.581 228.295 123.723 228.352 123.832 228.452C123.94 228.553 124.008 228.69 124.022 228.837C124.022 229.041 124.872 249.478 128.443 258.647C128.47 258.717 128.483 258.792 128.482 258.867C128.48 258.942 128.463 259.016 128.432 259.085C128.402 259.153 128.358 259.215 128.303 259.266C128.249 259.318 128.184 259.358 128.114 259.384C128.059 259.404 128.002 259.415 127.944 259.418V259.418Z" fill="white"/>
<path d="M127.855 272.85C126.81 272.858 125.765 272.805 124.726 272.691C124.652 272.682 124.58 272.659 124.515 272.622C124.449 272.585 124.392 272.536 124.346 272.477C124.299 272.418 124.265 272.351 124.245 272.278C124.225 272.206 124.219 272.131 124.228 272.056C124.237 271.982 124.26 271.91 124.297 271.845C124.334 271.779 124.383 271.722 124.442 271.675C124.501 271.629 124.568 271.595 124.64 271.575C124.713 271.554 124.788 271.549 124.862 271.558C124.964 271.558 135.517 272.759 140.357 267.828C140.407 267.769 140.47 267.72 140.54 267.686C140.61 267.651 140.686 267.632 140.764 267.628C140.842 267.624 140.92 267.637 140.993 267.665C141.066 267.693 141.132 267.736 141.188 267.791C141.243 267.845 141.287 267.911 141.316 267.984C141.345 268.056 141.359 268.134 141.356 268.212C141.354 268.29 141.335 268.367 141.302 268.437C141.268 268.508 141.221 268.571 141.162 268.622C137.659 272.238 131.55 272.85 127.855 272.85Z" fill="white"/>
<path d="M119.694 58.2152L118.47 51.1536L112.168 55.3022C111.592 54.1688 110.776 53.1746 109.776 52.3891L112.791 44.2281L107.124 42.97L102.976 50.9043C101.475 51.1575 100.019 51.6311 98.6571 52.3098L96.8548 46.3251L90.122 51.6184L90.5641 58.6459C89.193 60.1817 87.9496 61.827 86.8463 63.5652L81.2923 63.2818L77.3931 72.0209L82.165 74.0612C81.6668 75.8687 81.3517 77.7219 81.2242 79.5925L75.1602 85.1692L76.373 92.2421L82.6864 88.0936C83.259 89.2259 84.0758 90.217 85.0781 90.9953L82.1197 99.1676L87.7871 100.414L93.7265 94.6337C95.098 94.4183 94.7579 91.834 96.2541 91.0973L98.0563 97.0593L104.778 91.7774L104.608 89.0117C105.968 87.4928 111.114 84.1491 112.225 82.4035L113.619 80.1366L117.518 71.3975L115.705 68.1104L113.687 63.8259L119.694 58.2152ZM99.1218 81.4627C93.9531 85.5206 92.3209 86.416 91.4482 80.9867C90.5754 75.5573 93.5338 67.3056 98.7024 63.2365C103.871 59.1673 105.843 58.8839 106.773 64.3019C107.702 69.7199 104.302 77.4502 99.1218 81.4627Z" fill="#E0E0E0"/>
<path d="M107.168 42.97L114.524 47.2092L110.376 55.1208L103.02 50.8816L107.168 42.97Z" fill="#F5F5F5"/>
<path d="M125.825 55.3928L119.523 59.5413L112.167 55.3021L118.469 51.1536L125.825 55.3928Z" fill="#F5F5F5"/>
<path d="M124.818 75.6028L120.046 73.5739L112.689 69.3347L117.461 71.3636L124.818 75.6028Z" fill="#E0E0E0"/>
<path d="M82.1084 99.1676L89.4646 103.395L92.4797 95.2345L85.1234 90.9953L82.1084 99.1676Z" fill="#E0E0E0"/>
<path d="M105.344 101.299L97.9995 97.0595L96.1973 91.0974L103.554 95.3366L105.344 101.299Z" fill="#E0E0E0"/>
<path d="M127.038 62.4543L125.825 55.3927L119.523 59.5413C118.943 58.4073 118.123 57.4133 117.12 56.6282L120.135 48.4672L114.524 47.2091L110.365 55.1434C108.864 55.3966 107.409 55.8702 106.046 56.5489L104.255 50.5868L97.5224 55.8801L97.9644 62.9077C96.5919 64.4544 95.3484 66.111 94.2467 67.8609L88.6813 67.5776L84.7822 76.3167L89.5541 78.3569C89.0604 80.1694 88.7453 82.0258 88.6133 83.8996L82.5605 89.3969L83.7734 96.4698L90.0755 92.3213C90.6557 93.452 91.4758 94.4422 92.4784 95.223L89.4634 103.384L95.1308 104.642L99.2793 96.7078C100.786 96.4575 102.246 95.9797 103.609 95.291L105.4 101.253L112.133 95.9711L111.691 88.9436C113.062 87.4077 114.305 85.7625 115.409 84.0243L120.974 84.2963L124.873 75.5572L120.033 73.5283C120.535 71.7172 120.854 69.8604 120.985 67.9856L127.038 62.4543ZM106.488 85.7472C101.331 89.805 96.3889 88.7055 95.4481 83.2875C94.5074 77.8695 97.9418 70.1732 103.11 66.1154C108.279 62.0576 113.21 63.1684 114.15 68.5864C115.091 74.0044 111.657 81.6893 106.488 85.7472Z" fill="#EBEBEB"/>
<path d="M104.255 50.5641L96.8988 46.3249L90.166 51.6182L97.5222 55.8574L104.255 50.5641Z" fill="#F5F5F5"/>
<path d="M90.166 51.6182L90.6081 58.6458L97.9643 62.885L97.5222 55.8574L90.166 51.6182Z" fill="#E0E0E0"/>
<path d="M94.2472 67.8043L86.8909 63.5651L81.3369 63.2931L88.6818 67.5322L94.2472 67.8043Z" fill="#F5F5F5"/>
<path d="M81.3376 63.2931L77.4385 72.0208L84.7834 76.26L88.6825 67.5323L81.3376 63.2931Z" fill="#E0E0E0"/>
<path d="M88.6141 83.8319L81.2692 79.5927L75.2051 85.1694L82.55 89.4086L88.6141 83.8319Z" fill="#F5F5F5"/>
<path d="M83.7742 96.4813L76.4179 92.2421L75.2051 85.1693L82.55 89.4084L83.7742 96.4813Z" fill="#E0E0E0"/>
<path d="M114.524 47.2092L107.168 42.97L112.79 44.2281L120.135 48.4673L114.524 47.2092Z" fill="#F5F5F5"/>
<path d="M86.7546 26.1606V15.6079L78.3555 19.3937C77.9107 17.6034 77.1424 15.9093 76.0886 14.3951L81.3819 3.72913L74.9211 0L68.3243 9.91789C66.4859 9.75729 64.6337 9.9379 62.861 10.4506L61.9315 1.28083L52.7957 6.56281L51.8776 16.7641C49.8894 18.5259 48.0611 20.4603 46.4143 22.5448L39.8175 20.2778L33.3567 31.4766L38.6386 36.0105C37.6627 38.4786 36.9041 41.0273 36.3717 43.6274L27.9727 49.5328V60.0968L36.3717 56.311C36.8166 58.1014 37.5848 59.7954 38.6386 61.3096L33.3793 71.9869L39.8401 75.716L46.4369 65.7981C48.2753 65.9582 50.1275 65.7776 51.9003 65.2654L52.8184 74.4352L61.9542 69.1532L62.8836 58.952C65.7351 57.9116 68.2611 56.1364 70.2059 53.806L74.9438 55.4722L81.4046 44.2848L77.4374 40.8844C78.2986 38.0488 78.6178 35.0764 78.3782 32.1226L86.7546 26.1606ZM57.3636 52.5252C50.3588 56.5717 46.0289 53.6586 46.0289 45.5996C46.0289 37.5407 51.8209 27.5774 58.8371 23.5309C65.8533 19.4844 70.0925 22.3974 70.0925 30.5244C70.0925 38.6515 64.3798 48.4673 57.3636 52.5252Z" fill="#E0E0E0"/>
<path d="M82.2659 4.22786L74.921 0L68.3242 9.91789L75.6691 14.1571L82.2659 4.22786Z" fill="#F5F5F5"/>
<path d="M94.1117 19.8471L86.7555 15.6079L78.3564 19.3937L85.7127 23.6329L94.1117 19.8471Z" fill="#F5F5F5"/>
<path d="M60.1419 78.6743L52.797 74.4351L51.8789 65.2653L59.2238 69.5045L60.1419 78.6743Z" fill="#E0E0E0"/>
<path d="M33.3457 71.9868L40.7019 76.226L45.9953 65.56L38.639 61.3208L33.3457 71.9868Z" fill="#E0E0E0"/>
<path d="M94.111 30.4564V19.9038L85.712 23.6556C85.2718 21.8636 84.5032 20.1687 83.4451 18.6569L88.7384 7.99095L82.2776 4.25049L75.6808 14.1797C73.8424 14.0135 71.9891 14.1942 70.2174 14.7125L69.288 5.51998L60.1522 10.802L59.2227 21.0032C57.2373 22.768 55.4093 24.7022 53.7594 26.7839L47.1626 24.517L40.7018 35.7157L45.9951 40.2496C45.014 42.716 44.2553 45.2651 43.7281 47.8666L35.3291 53.772V64.3359L43.7281 60.5501C44.1681 62.3422 44.9368 64.0371 45.9951 65.5488L40.7018 76.2147L47.1626 79.9439L53.7594 70.026C55.5978 70.1866 57.45 70.006 59.2227 69.4932L60.1522 78.663L69.288 73.381L70.2061 63.1798C72.1943 61.418 74.0226 59.4835 75.6694 57.3991L82.2662 59.666L88.727 48.4786L83.4337 43.9447C84.4146 41.4783 85.1732 38.9292 85.7007 36.3278L94.111 30.4564ZM64.7201 56.821C57.7039 60.8675 52.0138 57.5804 52.0138 49.4874C52.0138 41.3944 57.6812 31.5445 64.7201 27.4867C71.7589 23.4289 77.415 26.7273 77.415 34.8203C77.415 42.9133 71.7249 52.7065 64.7201 56.7643V56.821Z" fill="#EBEBEB"/>
<path d="M46.4152 22.5674L53.7601 26.8066L47.1633 24.5057L39.8184 20.2551L46.4152 22.5674Z" fill="#F0F0F0"/>
<path d="M39.818 20.2668L33.3555 31.4693L40.7093 35.7116L47.1718 24.5091L39.818 20.2668Z" fill="#F5F5F5"/>
<path d="M33.3457 31.4539L40.7019 35.6931L45.9953 40.2496L38.639 36.0218L33.3457 31.4539Z" fill="#E0E0E0"/>
<path d="M36.3717 43.6389L43.7279 47.8781L35.3289 53.7835L27.9727 49.5443L36.3717 43.6389Z" fill="#F5F5F5"/>
<path d="M27.9727 49.5443L35.3289 53.7835V64.3474L27.9727 60.1082V49.5443Z" fill="#E0E0E0"/>
<path d="M69.2889 5.52013L61.9327 1.28094L52.7969 6.56292L60.1418 10.8021L69.2889 5.52013Z" fill="#F5F5F5"/>
<path d="M163.593 308.214L270.139 246.689C270.374 246.607 270.577 246.453 270.721 246.25C270.865 246.047 270.942 245.805 270.942 245.556C270.942 245.307 270.865 245.064 270.721 244.861C270.577 244.658 270.374 244.505 270.139 244.422L260.289 238.755C259.679 238.448 259.006 238.288 258.323 238.288C257.64 238.288 256.966 238.448 256.356 238.755L149.776 300.223C149.541 300.306 149.338 300.459 149.194 300.662C149.05 300.865 148.973 301.108 148.973 301.357C148.973 301.606 149.05 301.848 149.194 302.051C149.338 302.254 149.541 302.408 149.776 302.49L159.66 308.158C160.265 308.473 160.936 308.643 161.619 308.653C162.302 308.663 162.978 308.513 163.593 308.214V308.214Z" fill="#E0E0E0"/>
<path d="M267.216 9.14705L171.142 64.6193C169.714 65.5513 168.526 66.8066 167.673 68.2835C166.82 69.7605 166.327 71.4175 166.234 73.1203V301.028C166.234 304.156 168.433 305.426 171.142 303.862L267.216 248.389C268.646 247.459 269.836 246.204 270.689 244.727C271.541 243.25 272.033 241.592 272.123 239.888V11.9807C272.123 8.85234 269.936 7.58285 267.216 9.14705Z" fill="#455A64"/>
<path d="M171.141 64.6194L267.214 9.1472C269.64 7.74169 271.646 8.61447 272.054 11.0514C271.828 9.51926 271.279 8.05243 270.445 6.74742C269.611 5.44241 268.51 4.32879 267.214 3.47983L263.224 1.21289C261.703 0.441219 260.022 0.0390625 258.316 0.0390625C256.611 0.0390625 254.929 0.441219 253.408 1.21289L157.324 56.6398C155.877 57.5472 154.683 58.8068 153.855 60.3009L167.673 68.2352C168.5 66.7529 169.694 65.5079 171.141 64.6194V64.6194Z" fill="#37474F"/>
<path d="M152.394 293.048C152.487 294.751 152.979 296.408 153.832 297.885C154.685 299.362 155.873 300.617 157.301 301.549L161.303 303.816C162.687 304.509 164.203 304.902 165.75 304.968C167.297 305.034 168.841 304.773 170.28 304.202C168.013 305.086 166.211 303.782 166.211 300.983V73.1205C166.267 71.4105 166.763 69.7437 167.65 68.2806L153.833 60.3463C152.958 61.7983 152.463 63.4472 152.394 65.1409V293.048Z" fill="#263238"/>
<path d="M173.782 94.9849L264.607 42.5617C266.24 41.6323 267.554 42.3917 267.554 44.2619V212.945C267.5 213.968 267.205 214.963 266.692 215.849C266.18 216.736 265.466 217.488 264.607 218.046L173.816 270.469C172.184 271.41 170.869 270.651 170.869 268.769V100.086C170.921 99.0664 171.211 98.0738 171.717 97.1877C172.223 96.3017 172.931 95.5471 173.782 94.9849V94.9849Z" fill="white"/>
<path d="M219.179 45.5202C218.678 45.8493 218.261 46.2916 217.961 46.8113C217.662 47.331 217.489 47.9138 217.456 48.5126C217.456 49.6461 218.227 50.0654 219.179 49.51C219.682 49.1829 220.101 48.7412 220.4 48.221C220.7 47.7009 220.872 47.1171 220.902 46.5177C220.902 45.4182 220.131 44.9762 219.179 45.5202Z" fill="#37474F"/>
<path d="M219.179 252.322C217.197 253.619 215.549 255.363 214.367 257.415C213.186 259.467 212.504 261.769 212.378 264.133C212.378 268.474 215.427 270.243 219.179 268.066C221.16 266.769 222.807 265.024 223.989 262.973C225.17 260.921 225.852 258.62 225.98 256.256C226.002 251.914 222.942 250.146 219.179 252.322Z" fill="#37474F"/>
<path d="M202.868 63.0665C201.872 63.7278 201.045 64.614 200.455 65.6535C199.864 66.6931 199.526 67.857 199.468 69.0513C199.468 71.2502 201.009 72.1456 202.868 71.0462C203.875 70.3912 204.713 69.5077 205.313 68.4678C205.914 67.4278 206.261 66.2607 206.325 65.0614C206.325 62.8625 204.784 61.9671 202.868 63.0665Z" fill="#37474F"/>
<path d="M211.334 62.3183C211.334 63.7919 212.467 64.3473 213.794 63.5652L236.463 50.4509C237.165 50.0123 237.754 49.4142 238.181 48.7051C238.609 47.9961 238.863 47.1961 238.923 46.3704C238.923 44.9082 237.789 44.3528 236.463 45.1349L213.794 58.2492C213.093 58.6866 212.505 59.283 212.078 59.9899C211.65 60.6969 211.396 61.4946 211.334 62.3183V62.3183Z" fill="#37474F"/>
<path d="M160.055 102.285C160.859 102.809 161.529 103.515 162.01 104.346C162.49 105.177 162.768 106.109 162.821 107.068C162.821 108.836 161.585 109.55 160.055 108.666C159.253 108.14 158.587 107.433 158.108 106.603C157.63 105.772 157.353 104.84 157.301 103.883C157.301 102.126 158.536 101.412 160.055 102.285Z" fill="#37474F"/>
<path d="M160.055 123.571C160.859 124.095 161.529 124.801 162.01 125.632C162.49 126.464 162.768 127.396 162.821 128.355C162.821 130.112 161.585 130.826 160.055 129.953C159.253 129.427 158.587 128.72 158.108 127.889C157.63 127.058 157.353 126.127 157.301 125.17C157.301 123.401 158.536 122.687 160.055 123.571Z" fill="#37474F"/>
<path d="M159.195 102.715C160 103.239 160.669 103.945 161.15 104.776C161.63 105.608 161.908 106.54 161.961 107.499C161.961 109.256 160.726 109.97 159.195 109.097C158.391 108.573 157.721 107.867 157.241 107.036C156.76 106.205 156.482 105.272 156.43 104.314C156.441 102.545 157.677 101.865 159.195 102.715Z" fill="#455A64"/>
<path d="M159.195 123.991C160.001 124.516 160.672 125.224 161.152 126.057C161.633 126.89 161.91 127.825 161.961 128.785C161.961 130.542 160.726 131.256 159.195 130.372C158.389 129.85 157.718 129.145 157.237 128.313C156.757 127.482 156.48 126.548 156.43 125.589C156.441 123.832 157.677 123.118 159.195 123.991Z" fill="#455A64"/>
<path d="M285.939 49.601C285.939 47.7194 284.624 46.96 282.992 47.9008L272.122 54.1689L192.201 100.324C191.342 100.882 190.628 101.634 190.116 102.521C189.604 103.407 189.308 104.402 189.254 105.425V274.063C189.254 275.944 190.569 276.704 192.201 275.763L272.156 229.597L282.992 223.34C283.851 222.782 284.565 222.029 285.077 221.143C285.589 220.256 285.885 219.261 285.939 218.239V49.601Z" fill="white"/>
<path d="M287.073 49.6007C287.144 49.0322 287.046 48.4554 286.791 47.9423C286.537 47.4292 286.136 47.0026 285.64 46.7159C285.144 46.4292 284.575 46.2951 284.003 46.3304C283.431 46.3657 282.882 46.5688 282.425 46.9143L272.054 52.9104L191.634 99.3828C190.599 100.036 189.738 100.932 189.126 101.992C188.514 103.053 188.169 104.246 188.12 105.47V274.062C188.075 274.628 188.184 275.196 188.435 275.705C188.687 276.214 189.071 276.645 189.549 276.953C189.954 277.189 190.417 277.31 190.886 277.304C191.551 277.283 192.198 277.092 192.768 276.749L273.244 230.276L283.593 224.303C284.622 223.643 285.479 222.746 286.09 221.687C286.701 220.628 287.05 219.438 287.107 218.216L287.073 49.6007ZM272.077 228.338L271.147 228.882L191.68 274.765C191.546 274.868 191.391 274.939 191.227 274.975C191.062 275.01 190.891 275.008 190.727 274.969C190.58 274.879 190.433 274.561 190.433 274.04V105.424C190.491 104.601 190.736 103.802 191.148 103.088C191.561 102.373 192.13 101.761 192.813 101.298L272.202 55.3927L283.536 48.8299C283.67 48.7273 283.825 48.6557 283.989 48.6204C284.154 48.5851 284.325 48.587 284.488 48.6259C284.636 48.7165 284.783 49.0339 284.783 49.5553V218.239C284.724 219.062 284.48 219.861 284.067 220.575C283.655 221.29 283.086 221.902 282.403 222.365L272.054 228.338H272.077Z" fill="black"/>
<path d="M237.597 88.7852C247.798 82.9138 256.016 87.6517 256.016 99.4285C256.016 111.205 247.764 125.498 237.597 131.324C227.429 137.15 219.178 132.458 219.178 120.692C219.178 108.927 227.429 94.6679 237.597 88.7852Z" fill="black"/>
<path d="M237.598 98.034C240.897 96.1298 243.572 97.6713 243.572 101.434C243.46 103.507 242.86 105.525 241.823 107.323C240.785 109.121 239.338 110.649 237.598 111.783C234.3 113.687 231.625 112.146 231.625 108.383C231.737 106.31 232.336 104.292 233.374 102.494C234.412 100.696 235.859 99.1679 237.598 98.034V98.034Z" fill="black"/>
<path d="M249.238 118.346C249.238 112.089 244.852 109.55 239.422 112.678L236.022 114.639C230.604 117.768 226.206 125.385 226.206 131.642V133.33C229.346 134.362 233.29 133.806 237.541 131.324C242.249 128.42 246.231 124.477 249.182 119.797L249.238 118.346Z" fill="black"/>
<path opacity="0.7" d="M237.598 98.034C240.897 96.1298 243.572 97.6713 243.572 101.434C243.46 103.507 242.86 105.525 241.823 107.323C240.785 109.121 239.338 110.649 237.598 111.783C234.3 113.687 231.625 112.146 231.625 108.383C231.737 106.31 232.336 104.292 233.374 102.494C234.412 100.696 235.859 99.1679 237.598 98.034V98.034Z" fill="white"/>
<path opacity="0.7" d="M249.238 118.346C249.238 112.089 244.852 109.55 239.422 112.678L236.022 114.639C230.604 117.768 226.206 125.385 226.206 131.642V133.33C229.346 134.362 233.29 133.806 237.541 131.324C242.249 128.42 246.231 124.477 249.182 119.797L249.238 118.346Z" fill="white"/>
<path d="M201.961 157.224L225.662 143.543C226.795 142.92 227.623 143.419 227.623 144.677V145.459C227.587 146.14 227.391 146.803 227.05 147.394C226.709 147.985 226.233 148.487 225.662 148.859L201.961 162.54C200.884 163.164 200 162.654 200 161.407V160.625C200.037 159.944 200.233 159.281 200.574 158.69C200.915 158.099 201.39 157.597 201.961 157.224V157.224Z" fill="black"/>
<path opacity="0.1" d="M201.961 157.224L225.662 143.543C226.795 142.92 227.623 143.419 227.623 144.677V145.459C227.587 146.14 227.391 146.803 227.05 147.394C226.709 147.985 226.233 148.487 225.662 148.859L201.961 162.54C200.884 163.164 200 162.654 200 161.407V160.625C200.037 159.944 200.233 159.281 200.574 158.69C200.915 158.099 201.39 157.597 201.961 157.224V157.224Z" fill="black"/>
<path d="M200.986 173.739L272.69 132.344C273.222 132.027 273.664 132.276 273.664 132.911V141.276C273.644 141.615 273.546 141.946 273.377 142.241C273.208 142.536 272.973 142.787 272.69 142.976L200.986 184.371C200.442 184.688 200 184.427 200 183.804V175.439C200.019 175.098 200.119 174.766 200.29 174.471C200.461 174.176 200.7 173.925 200.986 173.739V173.739Z" fill="black"/>
<path opacity="0.2" d="M200.986 173.739L272.69 132.344C273.222 132.027 273.664 132.276 273.664 132.911V141.276C273.644 141.615 273.546 141.946 273.377 142.241C273.208 142.536 272.973 142.787 272.69 142.976L200.986 184.371C200.442 184.688 200 184.427 200 183.804V175.439C200.019 175.098 200.119 174.766 200.29 174.471C200.461 174.176 200.7 173.925 200.986 173.739V173.739Z" fill="white"/>
<path d="M201.961 194.436L225.662 180.755C226.795 180.132 227.623 180.642 227.623 181.889V182.671C227.588 183.352 227.392 184.016 227.051 184.607C226.71 185.198 226.234 185.7 225.662 186.071L201.961 199.752C200.884 200.387 200 199.877 200 198.619V197.837C200.039 197.156 200.236 196.494 200.577 195.903C200.917 195.313 201.391 194.81 201.961 194.436V194.436Z" fill="black"/>
<path opacity="0.1" d="M201.961 194.436L225.662 180.755C226.795 180.132 227.623 180.642 227.623 181.889V182.671C227.588 183.352 227.392 184.016 227.051 184.607C226.71 185.198 226.234 185.7 225.662 186.071L201.961 199.752C200.884 200.387 200 199.877 200 198.619V197.837C200.039 197.156 200.236 196.494 200.577 195.903C200.917 195.313 201.391 194.81 201.961 194.436V194.436Z" fill="black"/>
<path d="M200.986 210.951L272.69 169.557C273.222 169.239 273.664 169.5 273.664 170.123V178.488C273.644 178.828 273.546 179.158 273.377 179.453C273.208 179.748 272.973 180 272.69 180.188L200.986 221.583C200.442 221.9 200 221.651 200 221.016V212.651C200.019 212.31 200.119 211.979 200.29 211.683C200.461 211.388 200.7 211.137 200.986 210.951V210.951Z" fill="black"/>
<path opacity="0.2" d="M200.986 210.951L272.69 169.557C273.222 169.239 273.664 169.5 273.664 170.123V178.488C273.644 178.828 273.546 179.158 273.377 179.453C273.208 179.748 272.973 180 272.69 180.188L200.986 221.583C200.442 221.9 200 221.651 200 221.016V212.651C200.019 212.31 200.119 211.979 200.29 211.683C200.461 211.388 200.7 211.137 200.986 210.951V210.951Z" fill="white"/>
<path d="M229.583 215.7L257.92 199.366C259.053 198.732 259.892 199.242 259.892 200.5V209.25C259.855 209.933 259.657 210.596 259.314 211.187C258.971 211.778 258.494 212.28 257.92 212.651L229.583 228.996C228.45 229.619 227.622 229.109 227.622 227.862V219.1C227.662 218.42 227.859 217.758 228.2 217.168C228.54 216.577 229.014 216.075 229.583 215.7Z" fill="black"/>
<path opacity="0.1" d="M229.583 215.7L257.92 199.366C259.053 198.732 259.892 199.242 259.892 200.5V209.25C259.855 209.933 259.657 210.596 259.314 211.187C258.971 211.778 258.494 212.28 257.92 212.651L229.583 228.996C228.45 229.619 227.622 229.109 227.622 227.862V219.1C227.662 218.42 227.859 217.758 228.2 217.168C228.54 216.577 229.014 216.075 229.583 215.7Z" fill="black"/>
<path d="M296.686 178.771C296.686 178.771 282.767 159.57 281.951 157.235C281.305 155.513 281.951 152.951 282.155 151.761C282.359 150.571 282.541 147.918 282.745 147.227C283.085 145.935 281.418 146.195 280.478 147.374C279.537 148.553 279.219 150.911 278.732 151.296C278.245 151.681 274.538 146.275 272.6 143.781C270.662 141.287 269.449 139.769 268.259 140.698C267.409 141.367 268.043 142.818 269.449 144.949C270.27 146.096 271.027 147.288 271.716 148.519C271.931 148.984 270.775 149.018 270.152 149.981C269.664 150.729 270.152 151.942 269.472 152.52C269.053 152.839 268.766 153.3 268.666 153.816C268.566 154.333 268.659 154.868 268.928 155.32C270.189 157.301 271.816 159.025 273.722 160.398C275.808 161.837 276.646 162.347 277.882 164.308C279.117 166.269 290.203 186.298 290.951 187.499C291.699 188.701 293.139 191.149 295.326 191.217C297.514 191.285 315.423 175.87 316.341 175.099C319.288 172.639 320.229 172.288 320.727 174.498C320.9 175.284 321.028 176.079 321.113 176.879C321.464 179.69 323.38 189.732 323.38 189.732C323.38 189.732 332.447 194.119 339.894 191.999C347.341 189.879 349.858 186.717 349.858 186.717L346.128 180.642C347.137 178.137 351.796 167.981 353.303 160.874L329.954 157.099C329.478 156.997 328.707 156.805 327.687 156.544C326.406 156.204 323.153 155.082 320.693 157.235C312.668 164.229 296.709 178.771 296.709 178.771" fill="#FFA8A7"/>
<path d="M342.977 296.585L338.795 302.399C340.696 303.287 342.773 303.733 344.87 303.703C348.622 303.839 349.654 302.57 349.79 302.32C350.424 300.96 349.438 298.512 349.166 296.403L342.977 296.585Z" fill="#37474F"/>
<path d="M339.031 299.611C339.031 299.611 333.953 299.283 330.451 298.852C326.948 298.421 324.171 300.121 324.987 301.561C325.803 303 327.742 304.202 330.757 305.211C333.33 306.083 336.424 306.707 339.099 307.478C341.774 308.248 343.633 309.257 345.186 308.713C346.92 308.112 347.668 307.421 347.521 306.151C347.142 304.346 346.673 302.56 346.115 300.801L339.031 299.611Z" fill="#37474F"/>
<path d="M349.789 290.747C349.789 290.747 349.154 296.029 349.109 297.163C349.064 298.296 343.952 298.659 342.977 296.585L342.818 290.124L349.789 290.747Z" fill="#F28F8F"/>
<path d="M344.643 293.989L346.468 302.014C346.468 302.014 346.638 302.989 342.467 303.612C338.295 304.235 331.744 301.424 330.622 300.858C329.5 300.291 329.375 299.146 333.478 299.373C337.581 299.6 339.032 299.611 339.032 299.611L337.695 296.063L344.643 293.989Z" fill="#FFA8A7"/>
<path d="M353.235 160.806L356.126 160.001C356.126 160.001 362.167 179.123 362.836 180.97C363.505 182.818 364.264 184.768 362.96 187.046C361.408 189.755 353.235 200.648 353.235 200.648L348.044 195.57L353.938 184.779L348.724 174.238L353.235 160.806Z" fill="#F28F8F"/>
<path d="M323.549 135.971C322.871 134.699 322.527 133.276 322.549 131.835C322.571 130.394 322.957 128.982 323.673 127.731C326.552 122.392 332.968 119.797 340.607 120.783C344.144 121.248 348.315 124.183 350.593 128.57C353.11 133.432 353.348 143.226 353.994 146.932L323.549 135.971Z" fill="#37474F"/>
<path d="M323.346 138.068C323.346 138.068 321.532 141.526 321.85 141.843C322.32 142.117 322.834 142.309 323.369 142.41L323.346 138.068Z" fill="#FFA8A7"/>
<path d="M328.854 127.142C326.882 128.422 323.482 130.78 323.334 138.544C323.176 146.479 324.309 149.097 325.488 150.015C326.281 150.638 330.94 150.321 332.935 149.856C334.93 149.392 340.676 146.547 342.751 142.228C345.188 137.15 344.689 129.76 341.073 127.493C339.233 126.405 337.146 125.802 335.009 125.74C332.872 125.679 330.754 126.161 328.854 127.142V127.142Z" fill="#FFA8A7"/>
<path d="M349.789 186.672C353.28 192.113 356.59 196.873 357.315 203.017C358.811 215.927 353.915 230.685 352.861 240.24C354.843 242.958 355.986 246.197 356.148 249.557C356.148 253.513 349.789 290.748 349.789 290.748C349.789 290.748 345.164 292.153 342.818 290.124L338.454 221.628L340.721 213.286L349.789 186.672Z" fill="black"/>
<path opacity="0.2" d="M349.789 186.672C353.28 192.113 356.59 196.873 357.315 203.017C358.811 215.927 353.915 230.685 352.861 240.24C354.843 242.958 355.986 246.197 356.148 249.557C356.148 253.513 349.789 290.748 349.789 290.748C349.789 290.748 345.164 292.153 342.818 290.124L338.454 221.628L340.721 213.286L349.789 186.672Z" fill="black"/>
<path d="M338.454 221.628L340.721 213.286C345.062 212.143 349.248 210.48 353.189 208.333C353.189 208.333 350.832 212.628 344.053 214.986L340.551 225.697L340.256 250.237L338.454 221.628Z" fill="black"/>
<path opacity="0.3" d="M338.454 221.628L340.721 213.286C345.062 212.143 349.248 210.48 353.189 208.333C353.189 208.333 350.832 212.628 344.053 214.986L340.551 225.697L340.256 250.237L338.454 221.628Z" fill="black"/>
<path d="M349.789 186.672C351.659 189.732 356.125 194.946 355.173 199.968C354.039 206.043 350.752 210.316 340.755 213.286L331.37 247.29C331.37 247.29 336.255 251.824 337.751 256.211C339.248 260.597 344.643 294.012 344.643 294.012C344.643 294.012 342.965 296.744 337.695 296.086C337.695 296.086 319.321 254.148 318.029 251.416C316.461 248.65 315.911 245.421 316.476 242.292C317.054 237.894 323.277 189.755 323.277 189.755L349.789 186.672Z" fill="black"/>
<path opacity="0.2" d="M349.789 186.672C351.659 189.732 356.125 194.946 355.173 199.968C354.039 206.043 350.752 210.316 340.755 213.286L331.37 247.29C331.37 247.29 336.255 251.824 337.751 256.211C339.248 260.597 344.643 294.012 344.643 294.012C344.643 294.012 342.965 296.744 337.695 296.086C337.695 296.086 319.321 254.148 318.029 251.416C316.461 248.65 315.911 245.421 316.476 242.292C317.054 237.894 323.277 189.755 323.277 189.755L349.789 186.672Z" fill="black"/>
<path d="M353.234 160.806L329.884 157.031C329.408 156.929 328.638 156.737 327.618 156.476C327.618 156.476 326.62 171.12 320.624 174.475C320.771 175.178 320.896 175.96 321.009 176.856C321.361 179.667 323.276 189.709 323.276 189.709C323.276 189.709 332.344 194.096 339.791 191.976C347.238 189.857 349.754 186.694 349.754 186.694L346.025 180.619C347.068 178.091 351.761 167.935 353.234 160.806Z" fill="black"/>
<path opacity="0.7" d="M353.234 160.806L329.884 157.031C329.408 156.929 328.638 156.737 327.618 156.476C327.618 156.476 326.62 171.12 320.624 174.475C320.771 175.178 320.896 175.96 321.009 176.856C321.361 179.667 323.276 189.709 323.276 189.709C323.276 189.709 332.344 194.096 339.791 191.976C347.238 189.857 349.754 186.694 349.754 186.694L346.025 180.619C347.068 178.091 351.761 167.935 353.234 160.806Z" fill="white"/>
<path d="M347.079 178.205C343.978 180.067 340.729 181.67 337.365 182.999C340.419 182.938 343.408 182.112 346.059 180.596L347.079 178.205Z" fill="black"/>
<path d="M328.276 127.527C328.276 127.527 327.142 134.895 329.817 139.225C329.817 139.225 330.815 136.289 333.297 136.844C335.779 137.4 335.915 140.676 334.17 142.512C333.726 143.027 333.146 143.406 332.497 143.607C331.847 143.807 331.154 143.821 330.497 143.645C330.497 143.645 330.1 148.973 329.885 153.438C329.67 157.904 328.491 167.641 333.512 171.574C338.534 175.507 351.138 176.89 357.043 168.638C360.33 164.048 355.966 155.932 353.937 146.83C352.067 138.465 351.013 126.065 342.138 124.07C333.263 122.075 328.276 127.527 328.276 127.527Z" fill="#37474F"/>
<path d="M360.841 26.8635L358.97 27.997C359.127 27.3316 359.215 26.6516 359.231 25.9681C359.231 22.171 356.567 20.6408 353.28 22.5677C352.28 23.1711 351.387 23.9373 350.639 24.8346V24.8346C350.639 19.734 347.058 17.6597 342.637 20.21C340.308 21.7292 338.369 23.7761 336.979 26.1846C335.588 28.5931 334.785 31.2955 334.635 34.0724C334.635 34.3331 334.635 34.5825 334.635 34.8319C333.496 34.6886 332.343 34.9536 331.382 35.5799C329.65 36.7086 328.208 38.2298 327.174 40.02C326.14 41.8102 325.543 43.8189 325.431 45.8832C325.43 46.3631 325.48 46.8417 325.578 47.3114L324.581 47.8895C321.872 49.4537 319.673 52.5027 319.673 54.6903C319.673 56.8779 321.872 57.3993 324.581 55.8238L360.852 34.9112C363.561 33.347 365.76 30.298 365.76 28.1104C365.76 25.9228 363.55 25.288 360.841 26.8635Z" fill="#EBEBEB"/>
</svg>
