<svg width="500" height="463" viewBox="0 0 500 463" fill="none" xmlns="http://www.w3.org/2000/svg">
<path d="M366.544 22.327C366.544 22.327 293.938 -18.2865 210.635 12.5775C127.333 43.4416 74.2401 123.722 29.5735 187.664C-15.0931 251.607 -8.29629 325.55 44.1002 367.668C96.4967 409.785 143.991 368.921 225.622 380.426C307.253 391.93 327.128 407.251 402.352 372.835C477.576 338.419 508.204 232.164 468.732 143.026C429.261 53.8875 366.544 22.327 366.544 22.327Z" fill="black"/>
<path opacity="0.8" d="M366.544 22.327C366.544 22.327 293.938 -18.2865 210.635 12.5775C127.333 43.4416 74.2401 123.722 29.5735 187.664C-15.0931 251.607 -8.29629 325.55 44.1002 367.668C96.4967 409.785 143.991 368.921 225.622 380.426C307.253 391.93 327.128 407.251 402.352 372.835C477.576 338.419 508.204 232.164 468.732 143.026C429.261 53.8875 366.544 22.327 366.544 22.327Z" fill="white"/>
<path d="M490.627 452.836C490.627 458.296 382.115 462.725 248.282 462.725C114.45 462.725 5.93799 458.296 5.93799 452.836C5.93799 447.377 114.436 442.934 248.282 442.934C382.129 442.934 490.627 447.363 490.627 452.836Z" fill="black"/>
<path opacity="0.5" d="M490.627 452.836C490.627 458.296 382.115 462.725 248.282 462.725C114.45 462.725 5.93799 458.296 5.93799 452.836C5.93799 447.377 114.436 442.934 248.282 442.934C382.129 442.934 490.627 447.363 490.627 452.836Z" fill="white"/>
<path d="M457.534 353.043C454.163 356.95 451.886 361.678 450.932 366.748L437.701 374.172V339.088L437.951 339.45L459.052 324.004C461.712 324.422 471.949 325.592 481.337 320.564C492.089 314.728 500 294.686 500 294.686C500 294.686 474.192 291.775 465.445 302.597C460.648 308.215 458.094 315.407 458.272 322.792L437.701 337.862V311.956C441.551 310.162 444.955 307.535 447.665 304.264C450.375 300.992 452.323 297.159 453.37 293.042C457.116 278.46 437.13 249.727 437.13 249.727C437.13 249.727 416.308 279.296 420.416 294.296C423.94 306.998 433.425 311.009 436.252 311.956V368.155L421.447 355.801C421.781 352.848 422.046 343.586 413.801 334.297C403.8 323.057 377.156 323.893 377.156 323.893C377.156 323.893 388.396 346.372 398.048 353.879C406.405 360.425 417.965 357.751 420.737 356.971L436.364 369.994V387.069H413.09L422.561 446.262H450.974L460.445 387.069H437.701V375.774L452.241 367.626C455.779 368.601 465.668 370.634 475.027 365.955C486.685 360.147 496.253 347.612 496.253 347.612C496.253 347.612 468.356 340.55 457.534 353.043Z" fill="black"/>
<path opacity="0.5" d="M457.534 353.043C454.163 356.95 451.886 361.678 450.932 366.748L437.701 374.172V339.088L437.951 339.45L459.052 324.004C461.712 324.422 471.949 325.592 481.337 320.564C492.089 314.728 500 294.686 500 294.686C500 294.686 474.192 291.775 465.445 302.597C460.648 308.215 458.094 315.407 458.272 322.792L437.701 337.862V311.956C441.551 310.162 444.955 307.535 447.665 304.264C450.375 300.992 452.323 297.159 453.37 293.042C457.116 278.46 437.13 249.727 437.13 249.727C437.13 249.727 416.308 279.296 420.416 294.296C423.94 306.998 433.425 311.009 436.252 311.956V368.155L421.447 355.801C421.781 352.848 422.046 343.586 413.801 334.297C403.8 323.057 377.156 323.893 377.156 323.893C377.156 323.893 388.396 346.372 398.048 353.879C406.405 360.425 417.965 357.751 420.737 356.971L436.364 369.994V387.069H413.09L422.561 446.262H450.974L460.445 387.069H437.701V375.774L452.241 367.626C455.779 368.601 465.668 370.634 475.027 365.955C486.685 360.147 496.253 347.612 496.253 347.612C496.253 347.612 468.356 340.55 457.534 353.043Z" fill="white"/>
<path d="M399.831 17.5359H81.1205C72.1514 17.5359 64.8806 24.8067 64.8806 33.7757V234.629C64.8806 243.598 72.1514 250.869 81.1205 250.869H399.831C408.8 250.869 416.071 243.598 416.071 234.629V33.7757C416.071 24.8067 408.8 17.5359 399.831 17.5359Z" fill="black" stroke="#263238" stroke-miterlimit="10" stroke-linecap="round"/>
<path opacity="0.7" d="M399.831 17.5359H81.1205C72.1514 17.5359 64.8806 24.8067 64.8806 33.7757V234.629C64.8806 243.598 72.1514 250.869 81.1205 250.869H399.831C408.8 250.869 416.071 243.598 416.071 234.629V33.7757C416.071 24.8067 408.8 17.5359 399.831 17.5359Z" fill="black" stroke="#263238" stroke-miterlimit="10" stroke-linecap="round"/>
<path d="M213.003 147.984H171.916V171.035H213.003V147.984Z" fill="white"/>
<path d="M213.003 175.199H171.916V198.25H213.003V175.199Z" fill="white"/>
<path d="M258.269 147.984H217.182V171.035H258.269V147.984Z" fill="white"/>
<path d="M303.548 120.755H262.461V143.806H303.548V120.755Z" fill="white"/>
<path d="M303.548 93.5262H262.461V116.577H303.548V93.5262Z" fill="white"/>
<path d="M303.548 43.2049H262.461V62.1189H303.548V43.2049Z" fill="#263238"/>
<path d="M258.269 43.2049H217.182V62.1189H258.269V43.2049Z" fill="#263238"/>
<path d="M258.269 175.199H217.182V198.25H258.269V175.199Z" fill="white"/>
<path d="M258.269 66.2972H217.182V89.3478H258.269V66.2972Z" fill="white"/>
<path d="M258.269 93.5262H217.182V116.577H258.269V93.5262Z" fill="white"/>
<path d="M258.269 120.755H217.182V143.806H258.269V120.755Z" fill="white"/>
<path d="M303.548 175.199H262.461V198.25H303.548V175.199Z" fill="white"/>
<path d="M122.458 66.2972H78.6553V89.3478H122.458V66.2972Z" fill="white"/>
<path d="M122.458 120.755H78.6553V143.806H122.458V120.755Z" fill="white"/>
<path d="M122.458 147.984H78.6553V171.035H122.458V147.984Z" fill="white"/>
<path d="M122.458 93.5262H78.6553V116.577H122.458V93.5262Z" fill="white"/>
<path d="M396.809 43.2049H353.006V62.1189H396.809V43.2049Z" fill="#263238"/>
<path d="M122.458 175.199H78.6553V198.25H122.458V175.199Z" fill="white"/>
<path d="M348.813 66.2972H307.726V89.3478H348.813V66.2972Z" fill="white"/>
<path d="M303.548 147.984H262.461V171.035H303.548V147.984Z" fill="white"/>
<path d="M348.813 147.984H307.726V171.035H348.813V147.984Z" fill="white"/>
<path d="M348.813 93.5262H307.726V116.577H348.813V93.5262Z" fill="white"/>
<path d="M348.813 120.755H307.726V143.806H348.813V120.755Z" fill="white"/>
<path d="M348.813 175.199H307.726V198.25H348.813V175.199Z" fill="white"/>
<path d="M303.548 66.2972H262.461V89.3478H303.548V66.2972Z" fill="white"/>
<path d="M396.809 175.199H353.006V198.25H396.809V175.199Z" fill="white"/>
<path d="M348.813 43.2049H307.726V62.1189H348.813V43.2049Z" fill="#263238"/>
<path d="M396.809 147.984H353.006V171.035H396.809V147.984Z" fill="white"/>
<path d="M348.813 202.428H307.726V226.788H348.813V202.428Z" fill="white"/>
<path d="M396.809 120.755H353.006V143.806H396.809V120.755Z" fill="white"/>
<path d="M258.269 202.428H217.182V226.788H258.269V202.428Z" fill="white"/>
<path d="M303.548 202.428H262.461V226.788H303.548V202.428Z" fill="white"/>
<path d="M396.809 93.5262H353.006V116.577H396.809V93.5262Z" fill="white"/>
<path d="M396.809 202.428H353.006V226.788H396.809V202.428Z" fill="white"/>
<path d="M122.458 202.428H78.6553V226.788H122.458V202.428Z" fill="white"/>
<path d="M396.809 66.2972H353.006V89.3478H396.809V66.2972Z" fill="white"/>
<path d="M122.458 43.2049H78.6553V62.1189H122.458V43.2049Z" fill="#263238"/>
<path d="M167.724 43.2049H126.637V62.1189H167.724V43.2049Z" fill="#263238"/>
<path d="M167.724 147.984H126.637V171.035H167.724V147.984Z" fill="white"/>
<path d="M213.003 43.2049H171.916V62.1189H213.003V43.2049Z" fill="#263238"/>
<path d="M213.003 93.5262H171.916V116.577H213.003V93.5262Z" fill="white"/>
<path d="M167.724 175.199H126.637V198.25H167.724V175.199Z" fill="white"/>
<path d="M213.003 66.2972H171.916V89.3478H213.003V66.2972Z" fill="white"/>
<path d="M167.724 66.2972H126.637V89.3478H167.724V66.2972Z" fill="white"/>
<path d="M213.003 120.755H171.916V143.806H213.003V120.755Z" fill="white"/>
<path d="M167.724 120.755H126.637V143.806H167.724V120.755Z" fill="white"/>
<path d="M167.724 202.428H126.637V226.788H167.724V202.428Z" fill="white"/>
<path d="M167.724 93.5262H126.637V116.577H167.724V93.5262Z" fill="white"/>
<path d="M213.003 202.428H171.916V226.788H213.003V202.428Z" fill="white"/>
<path d="M97.9872 30.4888C101.256 30.4888 103.907 27.8386 103.907 24.5694C103.907 21.3003 101.256 18.6501 97.9872 18.6501C94.718 18.6501 92.0679 21.3003 92.0679 24.5694C92.0679 27.8386 94.718 30.4888 97.9872 30.4888Z" fill="white" stroke="#263238" stroke-miterlimit="10" stroke-linecap="round"/>
<path d="M123.949 24.5694C123.951 23.3948 123.605 22.2457 122.954 21.2679C122.304 20.29 121.377 19.5274 120.292 19.0766C119.208 18.6258 118.013 18.5071 116.861 18.7356C115.709 18.9641 114.65 19.5295 113.82 20.3601C112.989 21.1907 112.424 22.2492 112.195 23.4014C111.967 24.5536 112.086 25.7478 112.536 26.8325C112.987 27.9172 113.75 28.8437 114.728 29.4946C115.705 30.1455 116.855 30.4915 118.029 30.4888C119.599 30.4888 121.105 29.8651 122.215 28.755C123.325 27.6449 123.949 26.1393 123.949 24.5694Z" fill="white" stroke="#263238" stroke-miterlimit="10" stroke-linecap="round"/>
<path d="M98.0986 28.4274C97.2749 28.4274 96.4849 28.1002 95.9024 27.5177C95.3199 26.9353 94.9927 26.1453 94.9927 25.3215V4.31836C94.9909 3.90931 95.0699 3.50394 95.2251 3.1255C95.3804 2.74707 95.6089 2.40303 95.8975 2.11314C96.1861 1.82326 96.5291 1.59323 96.9068 1.43627C97.2845 1.27932 97.6896 1.19852 98.0986 1.19852C98.926 1.19852 99.7196 1.52722 100.305 2.1123C100.89 2.69739 101.218 3.49092 101.218 4.31836V25.3215C101.218 25.7306 101.138 26.1356 100.981 26.5133C100.824 26.8911 100.594 27.2341 100.304 27.5227C100.014 27.8113 99.6699 28.0398 99.2915 28.195C98.913 28.3503 98.5077 28.4293 98.0986 28.4274Z" fill="white" stroke="#263238" stroke-miterlimit="10" stroke-linecap="round"/>
<path d="M118.322 28.4274C117.498 28.4274 116.708 28.1002 116.126 27.5177C115.543 26.9353 115.216 26.1453 115.216 25.3215V4.31836C115.214 3.90931 115.293 3.50394 115.448 3.1255C115.604 2.74707 115.832 2.40303 116.121 2.11314C116.409 1.82326 116.752 1.59323 117.13 1.43627C117.508 1.27932 117.913 1.19852 118.322 1.19852C119.149 1.19852 119.943 1.52722 120.528 2.1123C121.113 2.69739 121.442 3.49092 121.442 4.31836V25.3215C121.442 25.7306 121.361 26.1356 121.204 26.5133C121.047 26.8911 120.817 27.2341 120.527 27.5227C120.237 27.8113 119.893 28.0398 119.515 28.195C119.136 28.3503 118.731 28.4293 118.322 28.4274Z" fill="white" stroke="#263238" stroke-miterlimit="10" stroke-linecap="round"/>
<path d="M371.196 24.5694C371.198 23.3948 370.852 22.2457 370.201 21.2679C369.551 20.29 368.624 19.5274 367.539 19.0766C366.455 18.6258 365.261 18.5071 364.108 18.7356C362.956 18.9641 361.898 19.5295 361.067 20.3601C360.236 21.1907 359.671 22.2492 359.442 23.4014C359.214 24.5536 359.333 25.7478 359.783 26.8325C360.234 27.9172 360.997 28.8437 361.975 29.4946C362.953 30.1455 364.102 30.4915 365.276 30.4888C366.846 30.4888 368.352 29.8651 369.462 28.755C370.572 27.6449 371.196 26.1393 371.196 24.5694Z" fill="white" stroke="#263238" stroke-miterlimit="10" stroke-linecap="round"/>
<path d="M385.304 30.4888C388.573 30.4888 391.224 27.8386 391.224 24.5694C391.224 21.3003 388.573 18.6501 385.304 18.6501C382.035 18.6501 379.385 21.3003 379.385 24.5694C379.385 27.8386 382.035 30.4888 385.304 30.4888Z" fill="white" stroke="#263238" stroke-miterlimit="10" stroke-linecap="round"/>
<path d="M365.374 28.4274C364.55 28.4274 363.76 28.1002 363.178 27.5177C362.595 26.9353 362.268 26.1453 362.268 25.3215V4.31836C362.266 3.90931 362.345 3.50394 362.5 3.1255C362.656 2.74707 362.884 2.40303 363.173 2.11314C363.461 1.82326 363.804 1.59323 364.182 1.43627C364.56 1.27932 364.965 1.19852 365.374 1.19852C366.201 1.19852 366.995 1.52722 367.58 2.1123C368.165 2.69739 368.494 3.49092 368.494 4.31836V25.3215C368.494 25.7306 368.413 26.1356 368.256 26.5133C368.099 26.8911 367.869 27.2341 367.579 27.5227C367.289 27.8113 366.945 28.0398 366.567 28.195C366.188 28.3503 365.783 28.4293 365.374 28.4274Z" fill="white" stroke="#263238" stroke-miterlimit="10" stroke-linecap="round"/>
<path d="M385.611 28.4274C385.198 28.4348 384.788 28.36 384.405 28.2072C384.022 28.0544 383.673 27.8268 383.379 27.5377C383.084 27.2485 382.85 26.9036 382.691 26.5231C382.531 26.1426 382.449 25.7341 382.449 25.3215V4.31836C382.449 3.49092 382.778 2.69739 383.363 2.1123C383.948 1.52722 384.742 1.19852 385.569 1.19852C385.978 1.19852 386.383 1.27932 386.761 1.43627C387.139 1.59323 387.482 1.82326 387.77 2.11314C388.059 2.40303 388.287 2.74707 388.443 3.1255C388.598 3.50394 388.677 3.90931 388.675 4.31836V25.3215C388.675 26.1381 388.354 26.9218 387.78 27.5031C387.207 28.0844 386.427 28.4165 385.611 28.4274Z" fill="white" stroke="#263238" stroke-miterlimit="10" stroke-linecap="round"/>
<path d="M231.639 30.4888C234.908 30.4888 237.558 27.8386 237.558 24.5694C237.558 21.3003 234.908 18.6501 231.639 18.6501C228.369 18.6501 225.719 21.3003 225.719 24.5694C225.719 27.8386 228.369 30.4888 231.639 30.4888Z" fill="white" stroke="#263238" stroke-miterlimit="10" stroke-linecap="round"/>
<path d="M251.667 30.4888C254.936 30.4888 257.586 27.8386 257.586 24.5694C257.586 21.3003 254.936 18.6501 251.667 18.6501C248.398 18.6501 245.748 21.3003 245.748 24.5694C245.748 27.8386 248.398 30.4888 251.667 30.4888Z" fill="white" stroke="#263238" stroke-miterlimit="10" stroke-linecap="round"/>
<path d="M231.736 28.4274C230.912 28.4274 230.122 28.1002 229.54 27.5177C228.957 26.9353 228.63 26.1453 228.63 25.3215V4.31836C228.628 3.90931 228.707 3.50394 228.863 3.1255C229.018 2.74707 229.246 2.40303 229.535 2.11314C229.824 1.82326 230.167 1.59323 230.544 1.43627C230.922 1.27932 231.327 1.19852 231.736 1.19852C232.563 1.19852 233.357 1.52722 233.942 2.1123C234.527 2.69739 234.856 3.49092 234.856 4.31836V25.3215C234.856 25.7306 234.775 26.1356 234.618 26.5133C234.461 26.8911 234.231 27.2341 233.941 27.5227C233.651 27.8113 233.307 28.0398 232.929 28.195C232.55 28.3503 232.145 28.4293 231.736 28.4274Z" fill="white" stroke="#263238" stroke-miterlimit="10" stroke-linecap="round"/>
<path d="M251.959 28.4274C251.136 28.4274 250.346 28.1002 249.763 27.5177C249.181 26.9353 248.854 26.1453 248.854 25.3215V4.31836C248.852 3.90931 248.931 3.50394 249.086 3.1255C249.241 2.74707 249.47 2.40303 249.758 2.11314C250.047 1.82326 250.39 1.59323 250.768 1.43627C251.145 1.27932 251.55 1.19852 251.959 1.19852C252.369 1.19852 252.775 1.27922 253.153 1.43601C253.532 1.59279 253.876 1.8226 254.166 2.1123C254.455 2.40201 254.685 2.74594 254.842 3.12445C254.999 3.50297 255.079 3.90865 255.079 4.31836V25.3215C255.079 25.7306 254.998 26.1356 254.842 26.5133C254.685 26.8911 254.455 27.2341 254.165 27.5227C253.875 27.8113 253.531 28.0398 253.152 28.195C252.774 28.3503 252.368 28.4293 251.959 28.4274Z" fill="white" stroke="#263238" stroke-miterlimit="10" stroke-linecap="round"/>
<path d="M107.096 95.5318L86.3713 113.805" stroke="#263238" stroke-width="2" stroke-linecap="round" stroke-linejoin="round"/>
<path d="M92.7502 95.5318L107.096 112.579" stroke="#263238" stroke-width="2" stroke-linecap="round" stroke-linejoin="round"/>
<path d="M336.473 69.5424L315.749 87.8018" stroke="#263238" stroke-width="2" stroke-linecap="round" stroke-linejoin="round"/>
<path d="M322.128 69.5424L336.473 86.5901" stroke="#263238" stroke-width="2" stroke-linecap="round" stroke-linejoin="round"/>
<path d="M200.663 69.5424L179.925 87.8018" stroke="#263238" stroke-width="2" stroke-linecap="round" stroke-linejoin="round"/>
<path d="M186.303 69.5424L200.663 86.5901" stroke="#263238" stroke-width="2" stroke-linecap="round" stroke-linejoin="round"/>
<path d="M383.884 69.0271L363.145 87.3004" stroke="#263238" stroke-width="2" stroke-linecap="round" stroke-linejoin="round"/>
<path d="M369.524 69.0271L383.884 86.0748" stroke="#263238" stroke-width="2" stroke-linecap="round" stroke-linejoin="round"/>
<path d="M306.946 285.187C306.946 285.187 302.643 309.338 301.988 323.238C301.333 337.138 304.634 347.055 305.957 360.954C307.281 374.854 315.874 428.115 315.874 432.418C316.114 436.439 314.947 440.418 312.573 443.672C309.927 447.307 301.32 450.636 301.988 451.931C302.657 453.226 306.612 455.246 313.562 452.934C320.512 450.622 320.846 448.296 323.493 448.296C326.139 448.296 331.766 446.639 330.763 442.725C329.76 438.811 324.858 430.496 325.192 415.928C325.846 382.181 324.189 324.004 324.189 324.004L334.774 291.58L306.946 285.187Z" fill="white" stroke="#263238" stroke-linecap="round" stroke-linejoin="round"/>
<path d="M312.935 443.129L312.573 443.672C309.927 447.307 301.32 450.636 301.988 451.931C302.657 453.226 306.612 455.246 313.562 452.934C320.512 450.622 320.846 448.296 323.493 448.296C326.139 448.296 331.766 446.639 330.763 442.725C330.457 441.471 329.746 439.786 328.938 437.613C325.762 440.034 322.389 442.187 318.855 444.048C317.281 444.633 314.941 443.978 312.935 443.129Z" fill="#263238" stroke="#263238" stroke-linecap="round" stroke-linejoin="round"/>
<path d="M336.292 142.566C336.292 142.566 334.732 137.246 333.66 132.51C332.588 127.775 340.624 125.727 349.44 124.85C358.256 123.972 370.722 130.546 374.399 140.992C378.076 151.438 374.984 190.102 375.36 198.542C375.736 206.982 376.572 230.367 368.006 231.83C359.44 233.292 350.429 233.863 342.936 219.183C335.443 204.503 343.66 165.895 344.552 158.137C345.443 150.38 336.738 143.694 336.738 143.694L336.292 142.566Z" fill="#263238" stroke="#263238" stroke-linecap="round" stroke-linejoin="round"/>
<path d="M355.123 131.591C355.123 131.591 354.538 140.449 360.443 145.171C366.349 149.892 374.009 161.104 374.009 169.962" stroke="white" stroke-width="0.5" stroke-linecap="round" stroke-linejoin="round"/>
<path d="M366.349 155.797C366.349 155.797 370.527 171.118 366.934 184.127" stroke="white" stroke-width="0.5" stroke-linecap="round" stroke-linejoin="round"/>
<path d="M320.902 289.338C320.902 289.338 313.938 320.815 320.359 348.016C322.114 355.453 349.176 422.167 351.307 432.836C353.438 443.505 353.438 453.115 357.713 456.848C361.989 460.58 364.677 458.979 362.505 446.708C361.046 439.856 358.706 433.222 355.541 426.972C355.541 426.972 347.532 375.76 346.46 364.562C345.387 353.364 338.994 340.021 338.994 340.021L349.134 296.274L320.902 289.338Z" fill="white" stroke="#263238" stroke-linecap="round" stroke-linejoin="round"/>
<path d="M361.126 440.928C360.61 443.714 359.496 446.123 357.17 445.664C356.081 445.455 355.077 444.931 354.285 444.156C353.492 443.38 352.945 442.388 352.713 441.304C353.758 448.352 354.607 454.16 357.713 456.862C361.975 460.594 364.677 458.993 362.504 446.722C362.155 444.766 361.695 442.832 361.126 440.928Z" fill="#263238" stroke="#263238" stroke-linecap="round" stroke-linejoin="round"/>
<path d="M352.379 438.143H352.254C352.254 438.393 352.323 438.644 352.365 438.881C352.357 438.635 352.362 438.388 352.379 438.143Z" fill="#263238" stroke="#263238" stroke-linecap="round" stroke-linejoin="round"/>
<path d="M330.554 181.439C327.216 182.239 324.301 184.268 322.392 187.121C319.607 191.731 293.659 211.244 291.18 213.361C288.701 215.478 289.049 226.133 295.358 226.133C301.668 226.133 323.033 209.824 323.033 209.824C323.033 209.824 329.412 202.01 331.543 194.921C333.674 187.832 335.164 182.149 330.554 181.439Z" fill="white" stroke="#263238" stroke-linecap="round" stroke-linejoin="round"/>
<path d="M337.643 163.36C335.164 163.36 332.713 169.182 332.713 169.182L330.373 169.53C332.476 167.037 335.164 163.36 335.164 163.36C337.281 159.809 336.557 154.488 335.164 154.85C333.771 155.213 324.523 158.75 323.103 160.519C321.682 162.288 317.42 176.48 316.013 177.901C314.607 179.322 291.18 209.113 288.701 215.506C286.222 221.899 292.949 229.699 298.631 225.799C304.314 221.899 309.272 209.824 311.417 201.369C313.562 192.915 322.42 176.884 322.42 176.884C322.42 176.884 324.482 175.213 326.599 173.347C328.911 172.764 331.19 172.052 333.423 171.216C334.816 170.505 338.744 165.533 338.744 165.533C338.744 165.533 340.122 163.36 337.643 163.36Z" fill="white" stroke="#263238" stroke-linecap="round" stroke-linejoin="round"/>
<path d="M331.682 151.884L324.495 163.277C324.112 163.886 323.964 164.614 324.079 165.324C324.194 166.035 324.565 166.679 325.122 167.135L328.395 169.823C328.713 170.083 329.082 170.273 329.478 170.382C329.875 170.491 330.289 170.516 330.695 170.456C331.102 170.396 331.491 170.251 331.838 170.032C332.186 169.813 332.484 169.523 332.713 169.182L340.331 157.887C340.754 157.256 340.92 156.487 340.793 155.738C340.666 154.989 340.256 154.318 339.649 153.862L335.944 151.076C335.617 150.833 335.243 150.661 334.845 150.57C334.448 150.479 334.037 150.471 333.636 150.547C333.236 150.623 332.856 150.781 332.519 151.011C332.183 151.241 331.898 151.538 331.682 151.884Z" fill="#263238" stroke="#263238" stroke-linecap="round" stroke-linejoin="round"/>
<path d="M356.293 157.065C356.293 157.065 354.217 170.366 353.632 175.45C353.047 180.533 353.201 181.634 357.477 182.121C361.752 182.609 368.814 184.781 371.585 191.327C374.357 197.873 358.257 217.693 353.479 221.969C348.702 226.244 346.571 232.011 347.63 236.523C348.688 241.036 361.181 255.632 360.638 270.437C360.095 285.243 342.198 328.405 342.198 328.405C342.198 328.405 318.339 318.739 301.111 321.97C301.111 321.97 309.244 264.783 314.077 249.713C318.91 234.643 323.827 226.481 323.437 223.25C323.047 220.019 317.03 210.59 318.493 202.623C319.955 194.656 325.094 187.678 327.49 183.347C329.886 179.015 335.025 179.071 336.891 179.28C338.758 179.489 341.404 180.074 342.727 178.054C344.05 176.035 345.234 165.617 345.234 165.617L356.293 157.065Z" fill="black" stroke="#263238" stroke-linecap="round" stroke-linejoin="round"/>
<path d="M328.576 214.81L339.189 222.484" stroke="#263238" stroke-linecap="round" stroke-linejoin="round"/>
<path d="M338.395 247.986C338.395 247.986 327.754 268.293 325.345 282.805" stroke="#263238" stroke-linecap="round" stroke-linejoin="round"/>
<path d="M325.833 268.78C325.833 268.78 322.922 281.315 321.473 292.457" stroke="#263238" stroke-linecap="round" stroke-linejoin="round"/>
<path d="M367.797 187.442C367.797 187.442 364.245 189.224 360.346 195.255C356.446 201.286 352.894 211.565 353.605 214.044C354.315 216.523 361.056 212.275 361.056 212.275C361.056 212.275 368.173 244.184 374.524 241.718C387.296 236.746 370.276 189.935 370.276 189.935C370.276 189.935 370.276 188.18 367.797 187.442Z" fill="white" stroke="#263238" stroke-linecap="round" stroke-linejoin="round"/>
<path d="M340.373 191.801C333.159 190.018 335.081 183.138 336.877 179.266H336.947C338.827 179.489 341.46 180.06 342.783 178.04C344.106 176.021 345.29 165.603 345.29 165.603L356.293 157.121C356.293 157.121 354.218 170.422 353.633 175.505C353.048 180.589 353.201 181.689 357.477 182.177C357.477 182.121 350.652 194.405 340.373 191.801Z" fill="white" stroke="#263238" stroke-linecap="round" stroke-linejoin="round"/>
<path d="M346.557 131.02C345.88 134.801 346.28 138.696 347.713 142.26C350.095 147.413 360.248 153.402 360.248 153.402C360.248 153.402 364.245 149.224 364.83 153.667C365.415 158.11 363.535 162.455 360.568 162.385C357.602 162.316 357.17 159.015 357.17 159.015C354.539 162.841 350.675 165.648 346.223 166.968C338.34 169.572 334.328 169.113 333.395 163.054C332.462 156.995 333.548 150.059 336.306 142.524C339.064 134.989 345.457 131.159 346.557 131.02Z" fill="white" stroke="#263238" stroke-linecap="round" stroke-linejoin="round"/>
<path d="M375.945 182.859L376.307 177.191C378.06 175.636 379.715 173.975 381.265 172.218C383.396 169.739 384.817 166.188 386.586 167.608C388.355 169.029 384.107 173.291 384.107 173.291L383.744 176.076L390.848 173.959C390.848 173.959 397.589 167.218 397.937 168.987C398.285 170.756 394.385 176.787 391.558 179.99C388.731 183.194 380.207 184.168 380.207 184.168C380.207 184.168 379.845 212.54 379.845 221.063C379.845 229.587 378.786 239.17 376.307 240.924C373.828 242.679 366.014 241.273 367.797 227.442C369.58 213.612 375.945 182.859 375.945 182.859Z" fill="white" stroke="#263238" stroke-linecap="round" stroke-linejoin="round"/>
<path d="M361.056 212.303L358.925 205.562" stroke="#263238" stroke-linecap="round" stroke-linejoin="round"/>
<path d="M167.125 128.29C167.125 128.29 173.517 136.396 174.172 138.179C174.634 139.477 175.015 140.803 175.314 142.148L179.492 145.24C179.624 145.335 179.735 145.455 179.818 145.594C179.901 145.733 179.954 145.888 179.975 146.048C179.996 146.209 179.984 146.372 179.939 146.528C179.894 146.683 179.818 146.828 179.715 146.953L176.554 150.839C176.554 150.839 179.492 160.589 179.339 161.981C179.186 163.374 168.977 166.842 168.977 166.842L168.03 174.308L148.67 174.057L148.601 160.227L140.871 142.12C140.871 142.12 147.793 129.056 167.125 128.29Z" fill="white" stroke="#263238" stroke-linecap="round" stroke-linejoin="round"/>
<path d="M163.782 155.575L166.386 155.296C166.652 156.455 167.153 157.547 167.857 158.506C168.561 159.464 169.454 160.268 170.481 160.867" fill="white"/>
<path d="M163.782 155.575L166.386 155.296C166.652 156.455 167.153 157.547 167.857 158.506C168.561 159.464 169.454 160.268 170.481 160.867" stroke="#263238" stroke-linecap="round" stroke-linejoin="round"/>
<path d="M144.979 128.75C144.979 128.75 137.667 129.098 137.709 139.223C137.751 149.349 148.002 158.722 148.559 160.213C149.116 161.703 154.604 161.007 158.462 159.572C160.619 158.869 162.478 157.461 163.74 155.575C163.74 155.575 160.049 150.199 160.802 148.611C161.554 147.023 165.509 148.541 165.509 148.541C166.385 148.044 167.175 147.409 167.849 146.661C168.518 145.728 172.097 141.703 169.618 139.586C167.139 137.468 163.281 136.187 164.994 133.513C166.707 130.839 172.835 128.234 171.038 122.482C169.242 116.73 165.231 116.911 161.888 118.791C158.545 120.672 157.626 114.613 151.122 118.053C144.617 121.493 142.793 126.521 144.979 128.75Z" fill="#263238" stroke="#263238" stroke-linecap="round" stroke-linejoin="round"/>
<path d="M153.531 148.583C153.393 149.656 153.393 150.741 153.531 151.814" stroke="white" stroke-width="0.5" stroke-linecap="round" stroke-linejoin="round"/>
<path d="M164.813 132.315C164.813 132.315 163.42 134.892 157.849 139.892C155.896 141.643 154.509 143.937 153.865 146.48" stroke="white" stroke-width="0.5" stroke-linecap="round" stroke-linejoin="round"/>
<path d="M166.122 137.427C166.122 137.427 160.453 145.115 157.473 147.399" stroke="white" stroke-width="0.5" stroke-linecap="round" stroke-linejoin="round"/>
<path d="M223.24 129.14C228.999 131.909 235.082 133.949 241.346 135.212C241.346 135.212 232.418 129.167 223.783 127.663C222.989 127.552 222.558 128.791 223.24 129.14Z" fill="#263238" stroke="#263238" stroke-linecap="round" stroke-linejoin="round"/>
<path d="M221.582 174.906L232.223 147.664C232.223 147.664 228.045 140.797 228.045 138.722C228.045 136.647 234.702 129.181 234.702 129.181C234.702 129.181 235.246 125.128 238.143 127.064C238.979 127.64 239.652 128.422 240.096 129.335C240.541 130.248 240.741 131.26 240.677 132.273C242.014 134.157 243.229 136.125 244.313 138.165C244.981 139.78 238.658 148.764 238.658 148.764C238.658 148.764 237.599 173.514 234.814 182.024C232.028 190.533 231.332 192.302 229.479 194.795C227.627 197.288 218.825 192.901 218.825 192.901L221.582 174.906Z" fill="white" stroke="#263238" stroke-linecap="round" stroke-linejoin="round"/>
<path d="M172.933 437.753L190.245 444.048C190.651 444.187 191.023 444.408 191.338 444.699C191.653 444.99 191.904 445.343 192.074 445.737C192.244 446.13 192.331 446.555 192.328 446.984C192.324 447.412 192.232 447.836 192.056 448.226C191.817 448.703 191.402 449.067 190.899 449.243C188.699 450.037 165.829 457.878 159.158 455.051C158.477 454.708 157.903 454.186 157.498 453.54C157.093 452.894 156.872 452.15 156.86 451.388C157.081 446.249 157.644 441.131 158.545 436.067C158.545 436.067 167.041 440.092 172.933 437.753Z" fill="#263238" stroke="#263238" stroke-linecap="round" stroke-linejoin="round"/>
<path d="M192.083 448.24C192.266 447.877 192.367 447.478 192.379 447.071C192.391 446.664 192.314 446.26 192.153 445.886C187.362 448.212 177.181 452.572 167.905 452.739C164.22 452.966 160.523 452.651 156.929 451.806C157.018 452.49 157.269 453.143 157.661 453.71C158.054 454.277 158.577 454.741 159.186 455.065C165.899 457.85 188.727 450.051 190.927 449.257C191.43 449.081 191.845 448.717 192.083 448.24Z" fill="white" stroke="#263238" stroke-linecap="round" stroke-linejoin="round"/>
<path d="M124.937 432.488C124.937 432.488 123.377 446.847 124.213 448.268C125.049 449.689 127.542 450.65 131.831 450.371C133.147 450.342 134.419 449.9 135.469 449.108C136.519 448.315 137.293 447.213 137.681 445.956C138.071 444.925 137.068 435.538 137.041 433.895C137.013 432.251 124.937 432.488 124.937 432.488Z" fill="#263238" stroke="#263238" stroke-linecap="round" stroke-linejoin="round"/>
<path d="M137.723 443.268C136.4 445.817 134.715 447.446 130.341 447.53C128.092 447.621 125.868 447.028 123.962 445.831C123.898 446.652 123.983 447.477 124.213 448.268C125.063 449.661 127.542 450.65 131.832 450.371C133.147 450.342 134.419 449.9 135.469 449.108C136.519 448.315 137.293 447.213 137.681 445.956C137.803 445.065 137.817 444.162 137.723 443.268Z" fill="white" stroke="#263238" stroke-linecap="round" stroke-linejoin="round"/>
<path d="M182.195 267.262C178.129 269.273 173.843 270.801 169.423 271.816L131.024 262.944C131.024 262.944 128.475 284.477 128.545 288.182C128.614 291.886 129.937 358.559 129.937 358.559L124.7 433.491C125.244 434.608 126.101 435.543 127.167 436.181C128.233 436.82 129.462 437.133 130.703 437.084C133.252 437.072 135.768 436.516 138.085 435.455L154.548 357.459L158.211 440.26C158.211 440.26 160.481 442.446 165.662 442.335C167.179 442.285 168.655 441.834 169.942 441.03C171.228 440.225 172.279 439.094 172.988 437.753C172.988 437.753 175.537 405.719 179.339 382.793C183.142 359.868 183.601 296.761 183.601 296.761L182.195 267.262Z" fill="white" stroke="#263238" stroke-linecap="round" stroke-linejoin="round"/>
<path d="M145.676 278.557C150.712 279.649 155.844 280.242 160.996 280.326" stroke="#263238" stroke-linecap="round" stroke-linejoin="round"/>
<path d="M131.442 274.421C131.442 274.421 133.224 276.789 137.946 276.789" stroke="#263238" stroke-linecap="round" stroke-linejoin="round"/>
<path d="M170.398 417.836C170.398 417.836 173.935 375.342 176.303 344.659C177.732 326.587 177.927 308.439 176.888 290.34C176.888 290.34 182.793 283.85 178.657 272.638" stroke="#263238" stroke-linecap="round" stroke-linejoin="round"/>
<path d="M170.398 422.557L168.629 436.137" stroke="#263238" stroke-linecap="round" stroke-linejoin="round"/>
<path d="M154.506 357.473L150.3 301.845L140.481 292.402" stroke="#263238" stroke-linecap="round" stroke-linejoin="round"/>
<path d="M133.935 236.732C134.138 236.099 134.13 235.417 133.911 234.789C133.692 234.16 133.275 233.62 132.723 233.25C128.461 230.367 118.127 224.434 114.826 232.247C113.861 235.296 113.189 238.43 112.82 241.607C111.901 247.861 112.235 290.201 112.277 294.533C112.277 294.767 112.249 295.001 112.193 295.229C111.831 296.887 110.313 304.129 111.372 308.447C112.555 313.363 114.826 317.151 118.684 318.196C122.542 319.241 124.645 314.784 124.046 312.054C123.447 309.324 124.882 307.207 124.283 304.477C123.795 302.277 121.706 296.524 120.912 294.393C120.72 293.868 120.672 293.3 120.773 292.75C121.859 287.179 127.946 255.939 128.405 254.434C128.865 252.93 132.43 241.593 133.935 236.732Z" fill="white" stroke="#263238" stroke-linecap="round" stroke-linejoin="round"/>
<path d="M117.528 309.38C117.528 309.38 122.444 312.82 123.015 315.995" stroke="#263238" stroke-linecap="round" stroke-linejoin="round"/>
<path d="M119.088 306.525C119.088 306.525 122.987 309.073 124.032 311.079" stroke="#263238" stroke-linecap="round" stroke-linejoin="round"/>
<path d="M119.798 303.641L121.191 305.564C121.191 305.564 121.887 313.224 124.06 312.082C126.233 310.94 124.951 301.65 124.951 301.65C124.951 301.65 123.851 299.38 120.452 293.962" fill="white"/>
<path d="M119.798 303.641L121.191 305.564C121.191 305.564 121.887 313.224 124.06 312.082C126.233 310.94 124.951 301.65 124.951 301.65C124.951 301.65 123.851 299.38 120.452 293.962" stroke="#263238" stroke-linecap="round" stroke-linejoin="round"/>
<path d="M119.547 295.633C120.298 298.378 120.23 301.283 119.352 303.99C118.098 306.347 116.703 308.626 115.174 310.814C117.216 312.767 119.128 314.851 120.898 317.054" stroke="#263238" stroke-linecap="round" stroke-linejoin="round"/>
<path d="M121.999 186.48L109.366 232.902C109.366 232.902 119.937 241.468 133.043 241.259L141.497 197.191C141.497 197.191 132.054 175.979 121.999 186.48Z" fill="#263238" stroke="#263238" stroke-linecap="round" stroke-linejoin="round"/>
<path d="M142.89 171.257C142.89 171.257 124.338 180.478 122.597 184.656C121.205 188.138 125.466 212.79 125.55 217.122C125.634 221.453 129.338 258.668 130.341 265.869C131.344 273.07 155.411 276.134 164.576 273.362C173.74 270.591 182.25 269.532 182.195 267.22C182.139 264.908 180.913 245.326 181.415 241.579C181.916 237.832 185.802 209.726 185.802 209.726L220.775 202.484C220.775 202.484 222.39 201.509 222.432 195.185C222.438 189.217 222.131 183.252 221.513 177.316C216.983 178.403 212.298 178.695 207.669 178.18C199.228 177.427 189.228 175.157 187.445 175.659C185.663 176.16 173.517 173.625 169.52 173.124C163.963 172.372 149.854 167.664 142.89 171.257Z" fill="#263238" stroke="#263238" stroke-linecap="round" stroke-linejoin="round"/>
<path d="M127.319 239.016L122.458 198.25" stroke="white" stroke-width="0.5" stroke-linecap="round" stroke-linejoin="round"/>
<path d="M123.781 215.994L121.414 210.687" stroke="white" stroke-width="0.5" stroke-linecap="round" stroke-linejoin="round"/>
<path d="M185.802 209.656L172.167 211.857" stroke="white" stroke-width="0.5" stroke-linecap="round" stroke-linejoin="round"/>
<path d="M182.793 210.687L172.765 220.13" stroke="white" stroke-width="0.5" stroke-linecap="round" stroke-linejoin="round"/>
<path d="M213.476 179.405C213.476 179.405 204.033 193.57 181.025 198.904" stroke="white" stroke-width="0.5" stroke-linecap="round" stroke-linejoin="round"/>
</svg>
