<svg width="500" height="531" viewBox="0 0 500 531" fill="none" xmlns="http://www.w3.org/2000/svg">
<path d="M426.196 282.951C328.243 226.402 169.95 226.402 72.6378 282.951C-24.674 339.499 -24.1227 431.197 73.763 487.723C171.649 544.249 330.021 544.271 427.344 487.723C524.667 431.174 524.149 339.51 426.196 282.951Z" fill="#F5F5F5"/>
<path d="M279.976 262.372L269.309 256.217C268.175 255.565 266.889 255.221 265.58 255.221C264.271 255.221 262.985 255.565 261.85 256.217L189.595 297.937C174.855 295.754 158.609 297.937 147.121 304.688C135.634 311.438 131.853 320.631 135.577 329.114L88.0635 356.556C87.5775 356.836 87.1738 357.24 86.8932 357.725C86.6126 358.211 86.4648 358.762 86.4648 359.324C86.4648 359.885 86.6126 360.436 86.8932 360.922C87.1738 361.408 87.5775 361.811 88.0635 362.091L98.7296 368.246C99.8625 368.904 101.149 369.25 102.459 369.25C103.77 369.25 105.056 368.904 106.189 368.246L150.463 342.728C167.97 351.11 193.881 350.604 210.184 341.097C226.487 331.589 227.331 316.726 213.008 306.623L279.976 267.964C280.472 267.685 280.885 267.279 281.173 266.788C281.461 266.296 281.612 265.737 281.612 265.168C281.612 264.598 281.461 264.039 281.173 263.548C280.885 263.056 280.472 262.651 279.976 262.372Z" fill="#E6E6E6"/>
<path d="M44.1501 409.009C41.2473 410.685 41.236 413.397 44.1501 415.073L49.0894 418.021C50.7094 418.848 52.5024 419.279 54.3212 419.279C56.14 419.279 57.9329 418.848 59.553 418.021L189.437 343.032C192.329 341.355 192.351 338.644 189.437 336.967L184.498 334.02C182.876 333.198 181.084 332.77 179.266 332.77C177.448 332.77 175.656 333.198 174.034 334.02L44.1501 409.009Z" fill="#E6E6E6"/>
<path d="M224.113 311.089C222.189 312.214 222.178 313.992 224.113 315.106L227.376 317.053C228.45 317.596 229.637 317.88 230.841 317.88C232.045 317.88 233.233 317.596 234.307 317.053L320.277 267.412C322.19 266.287 322.201 264.509 320.277 263.407L317.003 261.46C315.933 260.911 314.747 260.625 313.544 260.625C312.34 260.625 311.154 260.911 310.084 261.46L224.113 311.089Z" fill="#E6E6E6"/>
<path d="M361.581 433.93C340.89 421.993 307.451 421.993 286.895 433.93C266.339 445.868 266.44 465.254 287.131 477.203C307.822 489.151 341.272 489.151 361.828 477.203C382.384 465.254 382.283 445.879 361.581 433.93Z" fill="#E6E6E6"/>
<path d="M424.745 335.223C404.054 323.275 370.616 323.275 350.049 335.223C329.481 347.172 329.605 366.535 350.296 378.484C370.987 390.433 404.426 390.433 424.993 378.484C445.56 366.535 445.436 347.228 424.745 335.223Z" fill="#E6E6E6"/>
<path d="M228.614 441.525C207.923 429.576 174.484 429.576 153.928 441.525C133.372 453.474 133.474 472.837 154.165 484.786C174.856 496.735 208.306 496.735 228.861 484.786C249.417 472.837 249.361 453.474 228.614 441.525Z" fill="#E6E6E6"/>
<path d="M347.325 82.9937L351.736 80.4397L398.361 107.251V112.348L347.325 82.9937Z" fill="#F5F5F5"/>
<path d="M347.325 82.9937L398.361 112.348V118.176L347.314 88.8555L347.325 82.9937Z" fill="#E0E0E0"/>
<path d="M425.015 127.695L429.426 125.129L476.051 151.941V157.049L425.015 127.695Z" fill="#F5F5F5"/>
<path d="M425.015 127.695L476.05 157.049V162.877L425.004 133.545L425.015 127.695Z" fill="#E0E0E0"/>
<path d="M347.573 33.9945L351.983 31.4292L351.724 163.451L347.314 166.016L347.573 33.9945Z" fill="#F0F0F0"/>
<path d="M347.314 166.016L351.724 163.451L402.512 192.603L398.102 195.168L347.314 166.016Z" fill="#F5F5F5"/>
<path d="M342.51 25.2297L403.446 60.2435L403.165 203.933L342.251 168.919L342.51 25.2297ZM398.102 195.123L398.361 63.1014L347.573 33.9944L347.314 166.016L398.102 195.168" fill="#E0E0E0"/>
<path d="M342.51 25.2298L346.92 22.6646L407.868 57.6784L403.446 60.2436L342.51 25.2298Z" fill="#F5F5F5"/>
<path d="M403.446 60.2436L407.868 57.6783L407.576 201.368L403.154 203.933L403.446 60.2436Z" fill="#F0F0F0"/>
<path d="M425.262 78.6956L429.673 76.1304L429.414 208.152L425.004 210.706L425.262 78.6956Z" fill="#F0F0F0"/>
<path d="M425.004 210.706L429.414 208.152L480.202 237.304L475.792 239.858L425.004 210.706Z" fill="#F5F5F5"/>
<path d="M420.2 69.9309L481.136 104.945L480.844 248.623L419.885 213.609L420.2 69.9309ZM475.792 239.824L476.051 107.814L425.263 78.6844L425.004 210.706L475.792 239.858" fill="#E0E0E0"/>
<path d="M420.199 69.931L424.61 67.3657L485.558 102.38L481.136 104.945L420.199 69.931Z" fill="#F5F5F5"/>
<path d="M481.136 104.945L485.558 102.38L485.265 246.058L480.855 248.623L481.136 104.945Z" fill="#F0F0F0"/>
<path d="M177.049 334.661V343.763C177.083 344.165 177.266 344.54 177.563 344.813C177.86 345.086 178.249 345.238 178.652 345.238C179.056 345.238 179.444 345.086 179.741 344.813C180.038 344.54 180.222 344.165 180.255 343.763V334.661H177.049Z" fill="black"/>
<path d="M180.233 291.411C180.251 291.19 180.224 290.966 180.152 290.756C180.079 290.545 179.964 290.352 179.814 290.188C179.663 290.024 179.48 289.893 179.276 289.804C179.072 289.714 178.852 289.668 178.629 289.668C178.407 289.668 178.187 289.714 177.983 289.804C177.779 289.893 177.596 290.024 177.445 290.188C177.294 290.352 177.179 290.545 177.107 290.756C177.035 290.966 177.008 291.19 177.026 291.411V334.661H180.233V291.411Z" fill="#263238"/>
<path d="M184.126 288.34C183.97 288.199 183.788 288.09 183.59 288.019C183.392 287.948 183.182 287.917 182.972 287.928C182.548 287.949 182.149 288.138 181.864 288.452C181.579 288.767 181.431 289.182 181.452 289.606C181.473 290.031 181.662 290.429 181.977 290.714L210.735 316.682L212.985 314.431L184.126 288.34Z" fill="#263238"/>
<path d="M218.104 319.033L212.996 314.42L210.746 316.67L215.978 321.384C216.129 321.524 216.306 321.633 216.499 321.705C216.692 321.776 216.897 321.809 217.103 321.801C217.425 321.799 217.739 321.701 218.004 321.518C218.268 321.335 218.472 321.077 218.588 320.777C218.703 320.476 218.725 320.148 218.651 319.835C218.577 319.522 218.41 319.238 218.172 319.022L218.104 319.033Z" fill="black"/>
<path d="M139.2 319.033C138.962 319.25 138.795 319.533 138.721 319.846C138.647 320.159 138.669 320.488 138.784 320.788C138.9 321.088 139.103 321.347 139.368 321.53C139.633 321.712 139.947 321.811 140.269 321.812C140.474 321.82 140.68 321.788 140.873 321.716C141.066 321.645 141.243 321.536 141.394 321.396L146.626 316.682L144.375 314.431L139.2 319.033Z" fill="black"/>
<path d="M175.44 288.452C175.156 288.14 174.76 287.953 174.338 287.932C173.917 287.911 173.504 288.057 173.19 288.34L144.319 314.42L146.57 316.67L175.328 290.703C175.64 290.418 175.827 290.022 175.848 289.601C175.869 289.179 175.723 288.766 175.44 288.452Z" fill="#263238"/>
<path d="M188.109 287.395H169.229V292.84C169.229 294.247 170.175 295.642 172.02 296.7C174.08 297.752 176.361 298.301 178.675 298.301C180.989 298.301 183.27 297.752 185.33 296.7C187.164 295.642 188.075 294.247 188.064 292.84L188.109 287.395Z" fill="#37474F"/>
<path d="M185.285 283.536C188.975 285.662 188.998 289.161 185.285 291.243C183.224 292.295 180.943 292.844 178.63 292.844C176.316 292.844 174.035 292.295 171.974 291.243C168.284 289.116 168.262 285.617 171.974 283.536C174.035 282.483 176.316 281.934 178.63 281.934C180.943 281.934 183.224 282.483 185.285 283.536Z" fill="#455A64"/>
<path d="M175.991 88.0229V286.81C176.006 287.05 176.087 287.282 176.223 287.48C176.36 287.678 176.548 287.835 176.768 287.935C177.351 288.234 177.997 288.39 178.652 288.39C179.308 288.39 179.954 288.234 180.537 287.935C180.759 287.839 180.95 287.683 181.087 287.484C181.225 287.285 181.303 287.051 181.313 286.81V88.0229H175.991Z" fill="#263238"/>
<path d="M91.5283 103.55V274.636L264.246 174.916V3.0874L91.5283 103.55Z" fill="#455A64"/>
<path d="M97.9189 107.229L257.844 14.2148V171.214L97.9189 263.553V107.229Z" fill="#FAFAFA"/>
<path d="M96.4001 100.827C97.8088 101.744 98.9806 102.982 99.8195 104.439C100.658 105.895 101.141 107.53 101.227 109.209C101.227 112.281 99.0441 113.529 96.3663 111.977C94.9551 111.064 93.7807 109.829 92.9396 108.374C92.0985 106.919 91.6149 105.284 91.5283 103.606C91.5396 100.467 93.7111 99.2292 96.4001 100.827Z" fill="#263238"/>
<path d="M274.923 8.22928C274.929 8.15062 274.929 8.07166 274.923 7.993V7.75673V7.52045C274.929 7.43806 274.929 7.35531 274.923 7.27292V7.03665C274.923 6.95789 274.923 6.86788 274.867 6.78912C274.811 6.71036 274.867 6.72161 274.867 6.69911C274.867 6.69911 274.867 6.62035 274.867 6.5866L274.799 6.32782C274.799 6.27156 274.799 6.20406 274.743 6.1478V6.06904C274.743 5.99028 274.687 5.91152 274.664 5.82151C274.642 5.7315 274.608 5.664 274.574 5.57399V5.49523L274.507 5.33771C274.482 5.25715 274.452 5.17824 274.417 5.10144C274.395 5.0431 274.369 4.98665 274.338 4.93267V4.87641L274.237 4.64014C274.191 4.55613 274.15 4.46975 274.113 4.38136V4.3251L274.001 4.12258L273.866 3.87505L273.798 3.75129V3.69503L273.663 3.48126L273.472 3.17748V3.12122L273.168 2.69367C273.091 2.60478 273.019 2.51082 272.954 2.41239C272.887 2.34489 272.831 2.26613 272.774 2.19862L272.583 1.97359L272.403 1.77107L272.268 1.62481L272.065 1.42228L271.998 1.36603L271.897 1.27602L271.683 1.08475L271.582 1.00599H271.503C271.436 0.947253 271.365 0.89454 271.289 0.848473L271.143 0.73596L270.929 0.600946L270.727 0.477183L270.569 0.387172L270.366 0.285912L270.243 0.218404H270.175L269.984 0.128394L269.781 0.0608866H269.646L269.444 0.00463134H269.354H269.253H269.039H268.341C268.248 -0.00154378 268.154 -0.00154378 268.06 0.00463134H267.992L267.722 0.0721381C267.592 0.116075 267.467 0.176572 267.351 0.252158L93.6548 100.951C93.772 100.881 93.8965 100.824 94.0261 100.782L94.3186 100.692C94.4384 100.681 94.5589 100.681 94.6786 100.692H95.1737C95.3087 100.692 95.4437 100.692 95.5787 100.759L96.0063 100.872C96.1526 100.872 96.3101 100.984 96.4676 101.063C96.6251 101.131 96.7826 101.221 96.9514 101.311L97.4352 101.626C97.5815 101.738 97.7277 101.839 97.874 101.963L98.279 102.323H98.3353L98.7291 102.728L99.1454 103.19L99.5392 103.696C99.6629 103.853 99.7754 104.022 99.8767 104.18L100.079 104.495C100.079 104.585 100.192 104.664 100.237 104.754L100.304 104.877L100.552 105.339C100.653 105.53 100.743 105.71 100.822 105.901C100.901 106.081 100.979 106.272 101.047 106.452C101.126 106.644 101.182 106.835 101.249 107.026C101.249 107.218 101.362 107.398 101.407 107.589C101.407 107.78 101.486 107.971 101.519 108.163C101.553 108.352 101.576 108.544 101.587 108.736C101.598 108.924 101.598 109.112 101.587 109.299C101.587 109.479 101.587 109.659 101.587 109.828L101.519 110.278C101.49 110.415 101.452 110.55 101.407 110.683C101.411 110.709 101.411 110.736 101.407 110.762C101.374 110.879 101.328 110.992 101.272 111.099C101.215 111.219 101.151 111.336 101.081 111.448C101.023 111.535 100.959 111.618 100.889 111.696L100.822 111.774L100.631 111.954L100.552 112.022C100.466 112.092 100.376 112.156 100.282 112.213L273.978 11.5146C274.079 11.4574 274.173 11.3895 274.259 11.3121L274.338 11.2446L274.518 11.0758L274.597 10.9858C274.663 10.9081 274.723 10.8253 274.777 10.7383C274.777 10.637 274.901 10.5245 274.957 10.4008C274.992 10.3278 275.022 10.2526 275.047 10.1757C275.047 10.1757 275.047 10.097 275.047 10.052V9.98447C275.042 9.96223 275.042 9.9392 275.047 9.91696C275.072 9.83607 275.091 9.7533 275.103 9.66943C275.108 9.63964 275.108 9.60921 275.103 9.57942V9.52317C275.103 9.52317 275.103 9.52317 275.103 9.43316V9.19688C275.103 9.19688 275.103 9.10687 275.103 9.07312V8.97186C275.103 8.8931 275.103 8.81434 275.103 8.73558C275.103 8.65682 275.103 8.57806 275.103 8.49931C275.054 8.40244 274.994 8.31179 274.923 8.22928Z" fill="#37474F"/>
<path d="M207.866 133.107L227.128 134.761L227.207 160.278C214.943 167.355 204.975 161.674 204.93 147.587C205.01 142.621 206.006 137.712 207.866 133.107Z" fill="black"/>
<path d="M238.21 106.216C244.837 106.824 249.304 112.483 249.338 121.912C249.338 136.01 239.471 153.19 227.207 160.278L227.128 134.738L238.109 106.363L238.21 106.216Z" fill="black"/>
<path d="M227.061 109.254C230.369 107.144 234.245 106.1 238.166 106.261L238.11 106.407L227.128 134.761L207.866 133.107C211.737 123.329 218.847 114.002 227.061 109.254Z" fill="black"/>
<g opacity="0.2">
<path d="M227.061 109.254C230.369 107.144 234.245 106.1 238.166 106.261L238.11 106.407L227.128 134.761L207.866 133.107C211.737 123.329 218.847 114.002 227.061 109.254Z" fill="white"/>
</g>
<path d="M207.866 133.107L227.128 134.761L227.207 160.278C214.943 167.355 204.975 161.674 204.93 147.587C205.01 142.621 206.006 137.712 207.866 133.107Z" fill="black"/>
<g opacity="0.1">
<path d="M238.21 106.216C244.837 106.824 249.304 112.483 249.338 121.912C249.338 136.01 239.471 153.19 227.207 160.278L227.128 134.738L238.109 106.363L238.21 106.216Z" fill="black"/>
</g>
<path d="M210.33 67.6471C211.984 66.702 213.312 67.4671 213.323 69.3573C213.267 70.3876 212.969 71.3901 212.453 72.2835C211.937 73.177 211.217 73.936 210.353 74.4991C208.699 75.4554 207.371 74.6904 207.36 72.8002C207.417 71.7686 207.715 70.7647 208.231 69.8697C208.747 68.9746 209.466 68.2132 210.33 67.6471Z" fill="black"/>
<path d="M210.364 79.4496C212.018 78.4933 213.345 79.2584 213.357 81.1486C213.301 82.1804 213.003 83.1845 212.487 84.0798C211.971 84.975 211.251 85.7361 210.386 86.3016C208.732 87.2467 207.405 86.4817 207.394 84.5914C207.449 83.5612 207.747 82.5586 208.264 81.6652C208.78 80.7718 209.499 80.0127 210.364 79.4496Z" fill="black"/>
<path d="M210.398 91.2634C212.04 90.307 213.379 91.0721 213.39 92.9623C213.334 93.9939 213.035 94.9977 212.519 95.8928C212.003 96.7879 211.284 97.5492 210.42 98.1153C208.766 99.0605 207.438 98.2954 207.427 96.4052C207.483 95.3749 207.781 94.3723 208.297 93.4789C208.813 92.5855 209.533 91.8264 210.398 91.2634Z" fill="black"/>
<path d="M210.431 103.077C212.074 102.121 213.413 102.886 213.424 104.776C213.368 105.808 213.07 106.812 212.554 107.707C212.038 108.602 211.319 109.364 210.454 109.929C208.8 110.874 207.472 110.12 207.461 108.219C207.517 107.189 207.815 106.186 208.331 105.293C208.847 104.399 209.567 103.64 210.431 103.077Z" fill="black"/>
<path d="M227.117 59.4111L227.128 63.3491L217.328 69.0084L217.317 65.0818L227.117 59.4111Z" fill="#E0E0E0"/>
<path d="M240.213 51.8503L240.225 55.7883L230.425 61.4476L230.414 57.5097L240.213 51.8503Z" fill="#E0E0E0"/>
<path d="M244.027 85.1315L244.039 89.0694L229.93 97.2153L229.918 93.2774L244.027 85.1315Z" fill="#E0E0E0"/>
<path d="M235.387 78.3018L235.398 82.2284L217.396 92.6246L217.385 88.6866L235.387 78.3018Z" fill="#E0E0E0"/>
<path d="M229.75 69.7285L229.761 73.6552L217.362 80.8222L217.351 76.8843L229.75 69.7285Z" fill="#E0E0E0"/>
<path d="M227.218 94.83L227.23 98.7679L217.43 104.427L217.418 100.501L227.218 94.83Z" fill="#E0E0E0"/>
<path d="M119.094 220.675V224.399L108.855 230.317L108.844 226.593L119.094 220.675Z" fill="#E0E0E0"/>
<path d="M123.775 203.089V206.802L108.811 215.443L108.799 211.73L123.775 203.089Z" fill="#E0E0E0"/>
<path d="M141.877 200.074L141.889 203.787L108.833 222.88L108.821 219.167L141.877 200.074Z" fill="#E0E0E0"/>
<path d="M195.737 161.539L195.748 165.251L165.167 182.905L165.156 179.192L195.737 161.539Z" fill="#E0E0E0"/>
<path d="M149.798 202.943L149.81 206.667L124.314 221.384L124.303 217.671L149.798 202.943Z" fill="#E0E0E0"/>
<path d="M136.454 188.316V192.041L108.788 208.017L108.776 204.293L136.454 188.316Z" fill="#E0E0E0"/>
<path d="M195.76 168.964L195.771 172.688L182.146 180.542L182.134 176.829L195.76 168.964Z" fill="#E0E0E0"/>
<path d="M195.782 176.401L195.794 180.114L177.229 190.837L177.218 187.113L195.782 176.401Z" fill="#E0E0E0"/>
<path d="M192.542 148.183L192.553 150.118L108.844 198.465V196.53L192.542 148.183Z" fill="#395A65"/>
<path d="M138.592 122.238L138.795 174.826L126.846 181.723L126.644 129.135L138.592 122.238Z" fill="black"/>
<path d="M138.592 102.087V122.238L126.644 129.135V108.984L138.592 102.087Z" fill="#E0E0E0"/>
<path d="M156.538 127.661L156.707 164.475L144.769 171.383L144.601 134.558L156.538 127.661Z" fill="black"/>
<path d="M156.538 91.6908V127.661L144.601 134.558V98.5878L156.538 91.6908Z" fill="#E0E0E0"/>
<path d="M174.382 94.6836L174.63 154.135L162.681 161.032L162.445 101.581L174.382 94.6836Z" fill="black"/>
<path d="M174.382 81.6772V94.6837L162.445 101.581V88.5742L174.382 81.6772Z" fill="#E0E0E0"/>
<path d="M192.26 71.0786L192.553 143.795L180.604 150.681L180.312 77.9756L192.26 71.0786Z" fill="black"/>
<path d="M120.759 163.17L120.871 185.177L108.923 192.074L108.81 170.067L120.759 163.17Z" fill="black"/>
<path d="M120.759 113.214V163.17L108.81 170.067V120.111L120.759 113.214Z" fill="#E0E0E0"/>
<path d="M189.763 190.117C189.322 189.236 188.657 188.487 187.836 187.944C187.014 187.401 186.065 187.084 185.082 187.022C184.874 187.031 184.669 187.073 184.475 187.146L44.6107 267.908C43.9003 268.31 43.3278 268.918 42.9681 269.651C42.6943 270.204 42.5518 270.812 42.5518 271.429V396.318C42.5791 396.927 42.7493 397.522 43.0486 398.053C43.3479 398.585 43.768 399.039 44.2749 399.378C44.7819 399.718 45.3615 399.933 45.9671 400.007C46.5726 400.082 47.1871 400.013 47.7611 399.806C47.8163 399.79 47.8692 399.767 47.9186 399.738L187.783 318.932C188.405 318.578 188.922 318.066 189.281 317.447C189.641 316.829 189.83 316.126 189.83 315.41V190.555C189.837 190.406 189.814 190.257 189.763 190.117Z" fill="black"/>
<path opacity="0.2" d="M42.5631 271.429V396.318C42.5904 396.927 42.7606 397.522 43.0599 398.053C43.3592 398.585 43.7793 399.039 44.2862 399.378C44.7932 399.718 45.3728 399.933 45.9784 400.007C46.5839 400.082 47.1984 400.012 47.7724 399.806C47.6204 399.859 47.4578 399.876 47.2981 399.854C47.1384 399.832 46.9861 399.773 46.8541 399.68C46.722 399.588 46.614 399.465 46.5388 399.323C46.4637 399.18 46.4237 399.022 46.4222 398.86V273.972C46.4213 273.17 46.6603 272.386 47.1085 271.722L42.9681 269.651C42.6982 270.205 42.5596 270.813 42.5631 271.429Z" fill="white"/>
<path opacity="0.4" d="M185.082 187.022C184.875 187.031 184.67 187.073 184.475 187.146L44.6109 267.908C43.9005 268.31 43.328 268.918 42.9683 269.651L47.12 271.722C47.4668 271.193 47.9332 270.754 48.4814 270.439L188.357 189.712C188.477 189.644 188.61 189.602 188.747 189.587C188.884 189.573 189.023 189.586 189.154 189.628C189.286 189.669 189.408 189.736 189.513 189.826C189.617 189.916 189.702 190.026 189.763 190.15C189.326 189.264 188.664 188.508 187.842 187.959C187.02 187.41 186.069 187.087 185.082 187.022Z" fill="white"/>
<path opacity="0.3" d="M189.763 190.117C189.322 189.236 188.657 188.487 187.836 187.944C187.014 187.401 186.065 187.084 185.082 187.022C184.874 187.031 184.669 187.073 184.475 187.146L44.6107 267.908C43.9003 268.31 43.3278 268.918 42.9681 269.651C42.6943 270.204 42.5518 270.812 42.5518 271.429V396.318C42.5791 396.927 42.7493 397.522 43.0486 398.053C43.3479 398.585 43.768 399.039 44.2749 399.378C44.7819 399.718 45.3615 399.933 45.9671 400.007C46.5726 400.082 47.1871 400.013 47.7611 399.806C47.8163 399.79 47.8692 399.767 47.9186 399.738L187.783 318.932C188.405 318.578 188.922 318.066 189.281 317.447C189.641 316.829 189.83 316.126 189.83 315.41V190.555C189.837 190.406 189.814 190.257 189.763 190.117Z" fill="white"/>
<path opacity="0.4" d="M181.178 207.264C180.842 206.59 180.334 206.018 179.706 205.603C179.078 205.188 178.352 204.946 177.6 204.901C177.443 204.908 177.287 204.938 177.139 204.991L55.2207 275.221C54.7458 275.491 54.3509 275.882 54.0762 276.355C53.8015 276.827 53.6568 277.364 53.6567 277.91V366.964C53.6786 367.425 53.8076 367.874 54.0335 368.277C54.2595 368.679 54.5761 369.024 54.9583 369.282C55.3405 369.541 55.7778 369.707 56.2354 369.768C56.693 369.828 57.1584 369.781 57.5947 369.63L57.7184 369.574L179.637 299.31C180.112 299.04 180.506 298.649 180.781 298.176C181.056 297.704 181.201 297.167 181.201 296.621V207.601C181.217 207.488 181.209 207.373 181.178 207.264Z" fill="white"/>
<path d="M79.017 319.596L79.0958 350.435L72.7726 354.092L72.7164 331.342L72.6938 323.241L79.017 319.596Z" fill="black"/>
<path d="M72.7163 331.342L72.7725 354.092L66.4493 357.748L66.3818 334.998L72.7163 331.342Z" fill="#455A64"/>
<path d="M91.6523 306.927L91.7535 343.133L85.4304 346.79L85.3291 310.583L91.6523 306.927Z" fill="#455A64"/>
<path d="M110.622 294.967L110.645 300.277L110.735 332.175L104.411 335.831L104.299 298.612L110.622 294.967Z" fill="#455A64"/>
<path d="M116.967 296.621L117.057 328.529L110.734 332.174L110.644 300.277L116.967 296.621Z" fill="black"/>
<path d="M173.797 228.359L173.989 295.653L167.665 299.31L167.542 255.25L167.474 232.005L173.797 228.359Z" fill="black"/>
<path d="M167.541 255.25L167.665 299.31L161.342 302.955L161.218 258.907L167.541 255.25Z" fill="#455A64"/>
<path d="M148.539 258.445L148.685 310.268L142.362 313.914L142.215 262.091L148.539 258.445Z" fill="#455A64"/>
<path d="M154.85 247.16L155.008 306.612L148.684 310.269L148.538 258.445L148.516 250.817L154.85 247.16Z" fill="black"/>
<path d="M179.276 295.529V296.812L61.1836 364.983V363.7L179.276 295.529Z" fill="#455A64"/>
<path d="M135.914 273.972L136.038 317.57L129.704 321.216L129.603 281.848L129.591 277.629L135.914 273.972Z" fill="black"/>
<g opacity="0.4">
<path d="M54.6021 383.154V386.124L62.7929 381.399V378.417L54.6021 383.154Z" fill="white"/>
<path d="M81.0087 361.957L54.5796 377.213L54.5908 380.184L81.02 364.927L81.0087 361.957Z" fill="white"/>
<path d="M153.512 320.316L127.083 335.572L127.094 338.543L153.523 323.275L153.512 320.316Z" fill="white"/>
<path d="M91.5059 361.844L91.5171 364.814L105.097 356.972L105.086 354.002L91.5059 361.844Z" fill="white"/>
<path d="M155.784 319.112L155.795 322.093L169.376 314.251L169.364 311.27L155.784 319.112Z" fill="white"/>
<path d="M110.656 350.975L110.667 353.957L134.34 340.377L134.328 337.406L110.656 350.975Z" fill="white"/>
<path d="M85.1831 359.549V362.519L109.036 348.747L109.024 345.777L85.1831 359.549Z" fill="white"/>
<path d="M66.9561 376.009L66.9673 378.991L87.3433 367.222V364.241L66.9561 376.009Z" fill="white"/>
<path d="M124.078 337.092L113.187 343.37L113.198 346.34L124.089 340.051L124.078 337.092Z" fill="white"/>
</g>
<path d="M317.7 99.3418C317.257 98.4584 316.589 97.7073 315.764 97.1641C314.938 96.621 313.984 96.3049 312.997 96.2477C312.787 96.2525 312.578 96.2905 312.379 96.3602L224.304 147.148C223.598 147.553 223.029 148.161 222.673 148.892C222.399 149.445 222.256 150.053 222.256 150.67V275.558C222.283 276.169 222.453 276.765 222.753 277.298C223.053 277.831 223.475 278.285 223.983 278.625C224.491 278.965 225.073 279.18 225.68 279.253C226.287 279.326 226.902 279.255 227.477 279.046L227.646 278.979L315.72 228.157C316.342 227.803 316.859 227.291 317.219 226.672C317.579 226.054 317.768 225.351 317.768 224.635V99.7806C317.777 99.6312 317.754 99.4815 317.7 99.3418Z" fill="black"/>
<path opacity="0.2" d="M222.279 150.67V275.558C222.306 276.169 222.476 276.765 222.776 277.298C223.076 277.831 223.497 278.285 224.005 278.625C224.514 278.965 225.095 279.18 225.702 279.253C226.309 279.326 226.925 279.255 227.499 279.046C227.347 279.1 227.185 279.117 227.025 279.095C226.865 279.073 226.713 279.014 226.581 278.921C226.449 278.829 226.341 278.706 226.266 278.563C226.191 278.421 226.151 278.262 226.149 278.101V153.213C226.148 152.411 226.387 151.627 226.836 150.962L222.684 148.892C222.414 149.446 222.275 150.054 222.279 150.67Z" fill="white"/>
<path opacity="0.4" d="M312.998 96.2477C312.787 96.2525 312.578 96.2905 312.379 96.3602L224.304 147.148C223.598 147.553 223.03 148.161 222.673 148.892L226.825 150.962C227.171 150.434 227.638 149.995 228.186 149.68L316.272 98.8917C316.393 98.8245 316.526 98.7828 316.664 98.7691C316.802 98.7555 316.941 98.7702 317.072 98.8123C317.204 98.8545 317.326 98.9232 317.43 99.0143C317.534 99.1054 317.619 99.2168 317.678 99.3418C317.237 98.4615 316.573 97.7125 315.751 97.1696C314.93 96.6266 313.98 96.3087 312.998 96.2477Z" fill="white"/>
<path opacity="0.3" d="M317.7 99.3305C317.256 98.4492 316.587 97.7004 315.762 97.1593C314.936 96.6182 313.983 96.3038 312.997 96.2477C312.787 96.2525 312.578 96.2905 312.379 96.3602L224.304 147.148C223.598 147.553 223.029 148.161 222.673 148.892C222.399 149.445 222.256 150.053 222.256 150.67V275.558C222.283 276.169 222.453 276.765 222.753 277.298C223.053 277.831 223.475 278.285 223.983 278.625C224.491 278.965 225.073 279.18 225.68 279.253C226.287 279.326 226.902 279.255 227.477 279.046L227.646 278.979L315.72 228.157C316.342 227.803 316.859 227.291 317.219 226.672C317.579 226.054 317.768 225.351 317.768 224.635V99.7806C317.776 99.6275 317.753 99.4744 317.7 99.3305Z" fill="white"/>
<path opacity="0.4" d="M234.79 155.845L309.172 112.967V199.838L234.79 242.761V155.845Z" fill="white"/>
<g opacity="0.4">
<path d="M247.549 248.781L247.56 251.954L234.734 259.357V256.173L247.549 248.781Z" fill="white"/>
<path d="M263.053 246.204L263.064 249.377L234.756 265.725L234.745 262.541L263.053 246.204Z" fill="white"/>
<path d="M309.161 213.204L309.172 216.377L282.99 231.499L282.979 228.315L309.161 213.204Z" fill="white"/>
<path d="M281.156 222.993V226.177L262.873 236.742L262.862 233.558L281.156 222.993Z" fill="white"/>
<path d="M278.523 230.891V234.075L252.027 249.377L252.016 246.204L278.523 230.891Z" fill="white"/>
<path d="M258.407 236.134V239.318L234.723 253L234.711 249.805L258.407 236.134Z" fill="white"/>
<path d="M291.125 230.205L291.136 233.389L267.441 247.059V243.875L291.125 230.205Z" fill="white"/>
</g>
<path d="M259.588 205.587L262.333 213.778L259.768 224.568L254.333 227.707L259.588 205.587Z" fill="black"/>
<path opacity="0.2" d="M259.588 205.587L262.333 213.778L259.768 224.568L254.333 227.707L259.588 205.587Z" fill="black"/>
<path d="M262.333 213.778L264.955 221.575L259.768 224.568L262.333 213.778Z" fill="black"/>
<g opacity="0.3">
<path d="M262.333 213.778L264.955 221.575L259.768 224.568L262.333 213.778Z" fill="black"/>
</g>
<path d="M265.843 199.016L272.043 217.479L264.955 221.575L262.333 213.778L265.843 199.016Z" fill="black"/>
<g opacity="0.2">
<path d="M265.843 199.016L272.043 217.479L264.955 221.575L262.333 213.778L265.843 199.016Z" fill="black"/>
</g>
<path d="M263.098 190.837L265.844 199.016L262.333 213.778L259.588 205.587L263.098 190.837Z" fill="black"/>
<path d="M250.924 179.81L259.588 205.587L254.333 227.707L237.187 237.608L250.924 179.81Z" fill="black"/>
<path d="M286.197 169.11L297.493 202.785L275.115 215.713L286.197 169.11Z" fill="black"/>
<path opacity="0.2" d="M286.197 169.11L297.493 202.785L275.115 215.713L286.197 169.11Z" fill="black"/>
<path d="M278.445 146.034L286.197 169.11L275.115 215.713L272.043 217.479L265.844 199.016L278.445 146.034Z" fill="black"/>
<path d="M291.609 146.304L308.452 196.462L297.494 202.785L286.197 169.111L291.609 146.304Z" fill="black"/>
<path opacity="0.1" d="M291.609 146.304L286.197 169.11L278.445 146.034L265.843 199.016L263.098 190.837L259.588 205.587L250.924 179.81L237.187 237.608L254.333 227.707L259.768 224.568L264.955 221.575L272.043 217.479L275.114 215.713L297.493 202.785L308.452 196.462L291.609 146.304Z" fill="black"/>
<path d="M115.167 141.984C114.726 141.104 114.062 140.354 113.241 139.812C112.419 139.269 111.47 138.951 110.487 138.89C110.276 138.899 110.067 138.941 109.868 139.013L12.3651 195.528C11.7496 195.888 11.2388 196.402 10.8835 197.019C10.5283 197.637 10.3408 198.337 10.3398 199.05V261.438C10.3666 262.049 10.5368 262.645 10.8368 263.178C11.1368 263.71 11.558 264.165 12.0664 264.505C12.5748 264.844 13.1561 265.059 13.7631 265.133C14.3701 265.206 14.9859 265.135 15.5604 264.926L15.7292 264.858L113.244 208.298C113.867 207.946 114.385 207.435 114.745 206.816C115.105 206.197 115.294 205.493 115.291 204.777V142.456C115.291 142.291 115.248 142.128 115.167 141.984Z" fill="black"/>
<path opacity="0.2" d="M10.3396 199.05V261.438C10.3663 262.049 10.5366 262.645 10.8365 263.178C11.1365 263.71 11.5577 264.165 12.0661 264.505C12.5745 264.844 13.1558 265.059 13.7628 265.133C14.3698 265.206 14.9856 265.135 15.5601 264.926C15.4082 264.98 15.2456 264.996 15.0858 264.975C14.9261 264.953 14.7739 264.893 14.6419 264.801C14.5098 264.708 14.4017 264.586 14.3266 264.443C14.2515 264.3 14.2115 264.142 14.21 263.981V201.581C14.209 200.78 14.4481 199.996 14.8963 199.331L10.7446 197.261C10.4719 197.818 10.3332 198.43 10.3396 199.05Z" fill="white"/>
<path opacity="0.4" d="M110.475 138.89C110.264 138.899 110.055 138.941 109.857 139.013L12.3648 195.528C11.6559 195.93 11.0866 196.538 10.7334 197.272L14.8401 199.342C15.184 198.812 15.651 198.371 16.2015 198.06L113.716 141.545C113.836 141.477 113.969 141.435 114.106 141.421C114.243 141.406 114.382 141.42 114.514 141.461C114.645 141.502 114.767 141.57 114.872 141.659C114.977 141.749 115.062 141.86 115.122 141.984C114.684 141.108 114.025 140.362 113.21 139.82C112.395 139.277 111.452 138.956 110.475 138.89Z" fill="white"/>
<path opacity="0.3" d="M115.167 141.984C114.726 141.104 114.062 140.354 113.241 139.812C112.419 139.269 111.47 138.951 110.487 138.89C110.276 138.899 110.067 138.941 109.868 139.013L12.3651 195.528C11.7496 195.888 11.2388 196.402 10.8835 197.019C10.5283 197.637 10.3408 198.337 10.3398 199.05V261.438C10.3666 262.049 10.5368 262.645 10.8368 263.178C11.1368 263.71 11.558 264.165 12.0664 264.505C12.5748 264.844 13.1561 265.059 13.7631 265.133C14.3701 265.206 14.9859 265.135 15.5604 264.926L15.7292 264.858L113.244 208.298C113.867 207.946 114.385 207.435 114.745 206.816C115.105 206.197 115.294 205.493 115.291 204.777V142.456C115.291 142.291 115.248 142.128 115.167 141.984Z" fill="white"/>
<path d="M104.681 158.827L104.692 164.317L23.1323 211.404L23.1211 205.913L23.1323 211.404L88.952 173.408L88.9295 167.918L104.681 158.827Z" fill="#F5F5F5"/>
<path opacity="0.4" d="M95.6126 190.859L95.6351 196.361L23.211 238.171L23.1997 232.669L95.6126 190.859Z" fill="white"/>
<path d="M104.782 194.493L104.794 199.995L23.2334 247.081L23.2222 241.58L23.2334 247.081L68.5871 220.9L68.5646 215.409L104.782 194.493Z" fill="#F5F5F5"/>
<path d="M68.5646 215.409L68.5871 220.9L23.2334 247.081L23.2222 241.58L68.5646 215.409Z" fill="black"/>
<path d="M104.749 185.582L104.771 191.084L23.211 238.171L23.1997 232.669L23.211 238.171L95.6351 196.361L95.6126 190.859L104.749 185.582Z" fill="#F5F5F5"/>
<path d="M104.726 176.66L104.749 182.151L23.1885 229.237L23.166 223.747L23.1885 229.237L74.7866 199.444L74.7641 193.953L104.726 176.66Z" fill="#F5F5F5"/>
<path d="M74.7641 193.953L74.7866 199.444L23.1885 229.237L23.166 223.747L74.7641 193.953Z" fill="black"/>
<path d="M104.704 167.738L104.715 173.228L23.1661 220.326L23.1436 214.824L23.1661 220.326L53.5556 202.774L53.5331 197.284L104.704 167.738Z" fill="#F5F5F5"/>
<path d="M53.5331 197.284L53.5556 202.774L23.1661 220.326L23.1436 214.824L53.5331 197.284Z" fill="black"/>
<path d="M88.9295 167.918L88.952 173.409L23.1323 211.404L23.1211 205.913L88.9295 167.918Z" fill="black"/>
<path opacity="0.4" d="M95.6126 190.859L95.6351 196.361L23.211 238.171L23.1997 232.669L95.6126 190.859Z" fill="white"/>
<path opacity="0.4" d="M68.5646 215.409L68.5871 220.9L23.2334 247.081L23.2222 241.58L68.5646 215.409Z" fill="white"/>
<path opacity="0.4" d="M74.7641 193.953L74.7866 199.444L23.1885 229.237L23.166 223.747L74.7641 193.953Z" fill="white"/>
<path opacity="0.4" d="M53.5331 197.284L53.5556 202.774L23.1661 220.326L23.1436 214.824L53.5331 197.284Z" fill="white"/>
<g opacity="0.4">
<path d="M88.9295 167.918L88.952 173.409L23.1323 211.404L23.1211 205.913L88.9295 167.918Z" fill="white"/>
</g>
<path d="M172.008 190.128V193.852L155.019 203.663L155.008 199.939L172.008 190.128Z" fill="#E0E0E0"/>
<path d="M176.925 179.844L176.936 183.557L147.109 200.783L147.098 197.059L176.925 179.844Z" fill="#E0E0E0"/>
<path d="M163.019 172.981L163.03 176.694L141.675 189.025L141.664 185.301L163.019 172.981Z" fill="#E0E0E0"/>
<path d="M159.947 182.196L159.959 185.92L128.995 203.787L128.984 200.074L159.947 182.196Z" fill="#E0E0E0"/>
<path d="M129.603 281.848L129.704 321.216L123.381 324.872L123.268 285.504L129.603 281.848Z" fill="#455A64"/>
<path d="M97.9418 290.522L98.0769 339.488L91.7537 343.133L91.6524 306.927L91.6187 294.168L97.9418 290.522Z" fill="black"/>
<path d="M172.2 211.73L168.971 220.067L167.834 218.481L116.349 282.489L95.5451 280.711L66.2019 316.535L65.2905 315.185L95.5563 278.225L116.337 280.003L166.889 217.165L165.696 215.488L172.2 211.73Z" fill="#455A64"/>
<path d="M413.46 354.902C413.693 355.502 414.108 356.013 414.648 356.364C415.187 356.715 415.823 356.888 416.465 356.858C417.108 356.828 417.725 356.597 418.23 356.198C418.734 355.798 419.1 355.251 419.277 354.632C419.673 353.502 419.852 352.307 419.806 351.11C419.884 347.15 419.806 343.178 419.524 339.218C416.794 339.793 414.011 340.083 411.221 340.084C411.637 343.741 412.065 347.409 412.492 351.065C412.559 352.395 412.888 353.699 413.46 354.902Z" fill="#FFA8A7"/>
<path d="M422.135 349.198C421.111 345.89 419.986 342.515 420.222 339.072L419.536 339.229C419.794 343.19 419.896 347.161 419.817 351.122C419.863 352.319 419.684 353.513 419.288 354.643C419.112 355.262 418.745 355.81 418.241 356.209C417.737 356.609 417.119 356.84 416.477 356.869C415.834 356.899 415.198 356.726 414.659 356.376C414.12 356.025 413.704 355.513 413.471 354.913C412.899 353.711 412.571 352.407 412.504 351.077C412.076 347.42 411.649 343.752 411.232 340.096H410.355C411.097 344.202 410.557 348.41 410.355 352.585C410.152 356.759 410.141 361.09 411.93 364.86C412.343 365.88 413.053 366.754 413.966 367.369C414.466 367.64 415.017 367.807 415.583 367.859C416.15 367.912 416.722 367.848 417.263 367.672C418.34 367.308 419.318 366.7 420.121 365.895C421.951 364.15 423.17 361.862 423.597 359.369C424.104 355.971 423.147 352.494 422.135 349.198Z" fill="#455A64"/>
<path d="M378.851 346.036L379.537 350.12C381.237 349.434 382.719 348.298 383.824 346.835C383.903 343.696 383.824 340.467 383.824 338.892C382.958 340.804 381.068 342.087 379.897 343.853C379.456 344.533 379.104 345.266 378.851 346.036Z" fill="#37474F"/>
<path d="M377.805 349.682L379.538 350.12L378.851 346.036C378.424 347.229 378.142 348.455 377.805 349.682Z" fill="#263238"/>
<path d="M384.004 334.358C383.662 333.275 383.21 332.231 382.654 331.241C382.61 332.922 382.091 334.556 381.158 335.955C380.033 337.834 378.424 339.454 377.31 341.367C375.937 343.696 375.228 346.43 373.439 348.444C372.557 349.424 371.457 350.184 370.228 350.662C368.999 351.141 367.675 351.325 366.362 351.201C365.386 351.177 364.458 350.773 363.775 350.076C363.506 349.718 363.357 349.285 363.347 348.838C362.465 349.786 361.489 350.642 360.433 351.392C359.252 352.213 357.834 353.08 357.643 354.508C357.61 355.106 357.754 355.699 358.056 356.215C358.358 356.731 358.805 357.147 359.342 357.411C360.422 357.919 361.602 358.184 362.796 358.188C365.346 358.411 367.916 358.19 370.39 357.535C372.88 356.857 375.037 355.292 376.455 353.136C377.053 352.076 377.508 350.941 377.805 349.76C378.142 348.534 378.424 347.285 378.851 346.115C379.129 345.341 379.507 344.607 379.976 343.932C381.102 342.166 383.037 340.883 383.903 338.971C383.903 338.869 384.004 338.768 384.038 338.667C384.498 337.265 384.486 335.752 384.004 334.358Z" fill="#455A64"/>
<path d="M366.362 351.201C367.675 351.325 368.999 351.141 370.228 350.662C371.457 350.184 372.557 349.424 373.439 348.444C375.228 346.43 375.937 343.696 377.31 341.367C378.435 339.454 379.987 337.834 381.158 335.955C382.091 334.557 382.61 332.922 382.654 331.241L382.238 330.442C378.705 331.072 374.846 331.297 371.448 332.445C370.399 336.011 369.067 339.487 367.465 342.841C366.38 345.013 364.994 347.021 363.347 348.804C363.356 349.251 363.506 349.684 363.774 350.042C364.452 350.752 365.381 351.168 366.362 351.201Z" fill="#FFA8A7"/>
<path d="M376.005 203.922L375.431 212.923C368.68 240.758 370.683 282.354 370.683 282.354L370.897 333.063C371.852 333.695 372.924 334.129 374.05 334.34C375.176 334.551 376.332 334.535 377.452 334.293C378.571 334.051 379.631 333.587 380.569 332.93C381.506 332.272 382.304 331.434 382.913 330.464C384.038 317.998 389.855 298.398 388.122 283.085C390.44 271.024 392.184 253.832 392.184 253.832L397.866 283.513L409.691 340.804C414.911 343.055 419.547 341.502 421.055 339.465C419.839 307.872 420.357 292.683 415.485 278.067C416.993 238.868 417.454 221.159 407.902 207.691L408.026 202.605L376.005 203.922Z" fill="#37474F"/>
<path opacity="0.2" d="M390.845 247.217C387.312 246.58 383.988 245.094 381.158 242.885C381.701 244.457 382.637 245.863 383.878 246.97C385.119 248.077 386.623 248.848 388.246 249.208L391.228 261.585L392.128 253.934L390.845 247.217Z" fill="black"/>
<path d="M385.253 173.173L380.528 173.083C378.43 173.084 376.378 173.688 374.614 174.823C372.851 175.958 371.451 177.576 370.582 179.484L361.817 198.713C353.851 200.963 348.315 205.205 341.025 205.745C339.607 205.745 334.611 203.258 332.654 202.257C332.558 202.206 332.452 202.177 332.343 202.174C332.235 202.17 332.127 202.191 332.028 202.236C331.929 202.28 331.842 202.347 331.773 202.431C331.704 202.514 331.655 202.613 331.63 202.718C331.537 203.067 331.551 203.435 331.67 203.776C331.788 204.117 332.005 204.414 332.294 204.631L334.623 206.386C329.931 207.376 326.252 204.665 324.632 206.769C323.011 208.873 324.148 212.192 329.2 213.936C334.251 215.68 340.698 214.78 347.078 213.328C353.457 211.877 367.656 207.703 367.656 207.703C379.988 195.709 385.253 173.173 385.253 173.173Z" fill="#FFA8A7"/>
<path d="M385.253 173.172C375.363 171.642 371.651 176.064 370.008 179.541C368.365 183.017 361.581 198.206 361.581 198.206C357.234 199.616 353.045 201.471 349.081 203.742C352.647 207.849 351.702 211.292 350.926 212.394C356.242 211.764 361.506 210.753 366.677 209.368C367.982 208.988 369.152 208.247 370.053 207.23C382.665 192.795 385.433 174.433 385.253 173.172Z" fill="#455A64"/>
<path opacity="0.2" d="M385.253 173.172C375.363 171.642 371.651 176.064 370.008 179.541C368.365 183.017 361.581 198.206 361.581 198.206C357.234 199.616 353.045 201.471 349.081 203.742C352.647 207.849 351.702 211.292 350.926 212.394C356.242 211.764 361.506 210.753 366.677 209.368C367.982 208.988 369.152 208.247 370.053 207.23C382.665 192.795 385.433 174.433 385.253 173.172Z" fill="white"/>
<path d="M387.717 172.767L384.342 173.015C383.684 173.064 383.045 173.262 382.474 173.594C381.903 173.925 381.415 174.381 381.045 174.928L373.169 186.64C372.008 188.358 371.441 190.408 371.555 192.479C371.669 194.549 372.457 196.525 373.799 198.105C374.3 198.693 374.671 199.379 374.89 200.119C375.109 200.86 375.171 201.638 375.071 202.403L371.02 233.366C386.569 244.91 410.4 240.196 417.432 236.427C417.302 227.654 414.923 219.062 410.523 211.472C409.584 209.83 408.98 208.017 408.746 206.14C408.512 204.263 408.654 202.358 409.162 200.535L411.412 192.491L404.661 173.364L387.717 172.767Z" fill="#455A64"/>
<path opacity="0.3" d="M387.717 172.767L384.342 173.015C383.684 173.064 383.045 173.262 382.474 173.594C381.903 173.925 381.415 174.381 381.045 174.928L373.169 186.64C372.008 188.358 371.441 190.408 371.555 192.479C371.669 194.549 372.457 196.525 373.799 198.105C374.3 198.693 374.671 199.379 374.89 200.119C375.109 200.86 375.171 201.638 375.071 202.403L371.02 233.366C386.569 244.91 410.4 240.196 417.432 236.427C417.302 227.654 414.923 219.062 410.523 211.472C409.584 209.83 408.98 208.017 408.746 206.14C408.512 204.263 408.654 202.358 409.162 200.535L411.412 192.491L404.661 173.364L387.717 172.767Z" fill="white"/>
<path d="M377.535 154.169C375.761 152.366 374.661 150.008 374.42 147.491C374.178 144.973 374.809 142.449 376.207 140.341C375.457 140.045 374.823 139.512 374.402 138.824C373.98 138.136 373.793 137.33 373.869 136.527C373.945 135.723 374.28 134.967 374.824 134.37C375.367 133.774 376.09 133.37 376.882 133.219C378.242 133.149 379.602 133.344 380.888 133.793C383.165 134.204 385.497 134.204 387.773 133.793C390.024 133.467 392.33 132.972 394.637 132.803C396.932 132.562 399.252 132.894 401.387 133.771C402.455 134.22 403.406 134.908 404.167 135.781C404.927 136.655 405.478 137.692 405.775 138.811C407.553 138.327 409.668 139.475 410.805 140.915C411.889 142.418 412.469 144.226 412.459 146.079C412.537 147.913 412.279 149.747 412.189 151.581C412.019 153.417 412.253 155.268 412.875 157.004C413.707 158.996 415.35 160.616 415.879 162.697C416.121 163.663 416.107 164.674 415.839 165.632C415.571 166.59 415.058 167.462 414.35 168.161C413.643 168.861 412.765 169.364 411.804 169.621C410.843 169.878 409.832 169.881 408.869 169.628C409.27 168.163 409.452 166.646 409.41 165.128C409.23 167.142 407.159 168.728 405.303 169.403C403.345 169.963 401.298 170.143 399.272 169.932L392.139 169.651L383.881 169.347C382.398 169.386 380.923 169.134 379.538 168.604C378.384 167.977 377.417 167.055 376.735 165.932C376.053 164.81 375.681 163.527 375.656 162.214C375.697 159.428 376.338 156.685 377.535 154.169Z" fill="#263238"/>
<path d="M387.717 165.758V180.542L399.621 171.586V160.672L387.717 165.758Z" fill="#FFA8A7"/>
<path d="M399.632 160.672C397.798 166.107 391.149 170.236 387.729 171.057V165.758L399.632 160.672Z" fill="#F28F8F"/>
<path d="M398.192 152.043C398.033 152.986 397.992 153.946 398.068 154.9C398.168 155.623 398.5 156.294 399.014 156.813C399.263 157.058 399.57 157.237 399.905 157.335C400.241 157.433 400.595 157.447 400.938 157.376C400.723 156.424 400.892 155.425 401.406 154.596C401.92 153.766 402.739 153.172 403.688 152.941C404.636 152.709 405.637 152.859 406.475 153.358C407.314 153.857 407.923 154.666 408.172 155.609C408.334 156.274 408.349 156.966 408.214 157.636C408.08 158.307 407.801 158.94 407.396 159.491C406.572 160.587 405.505 161.477 404.279 162.09C403.578 162.322 402.818 162.301 402.131 162.029C401.444 161.758 400.874 161.254 400.521 160.605C396.887 165.207 390.564 168.661 384.646 168.166C383.024 168.073 381.462 167.519 380.145 166.568C377.895 164.835 377.738 162.225 377.456 159.637C377.038 156.363 377.064 153.048 377.535 149.781C378.141 145.229 380.342 141.039 383.746 137.956C385.782 147.722 394.761 151.323 398.192 152.043Z" fill="#FFA8A7"/>
<path d="M385.861 150.929L381.799 155.924L385.58 157.229L385.861 150.929Z" fill="#F28F8F"/>
<path d="M389.034 159.66L385.883 160.661C386.086 161.033 386.404 161.329 386.79 161.503C387.176 161.678 387.608 161.722 388.021 161.629C388.392 161.468 388.695 161.185 388.88 160.825C389.065 160.466 389.119 160.054 389.034 159.66Z" fill="#F28F8F"/>
<path opacity="0.3" d="M389.034 159.66L385.883 160.661C386.086 161.033 386.404 161.329 386.79 161.503C387.176 161.678 387.608 161.722 388.021 161.629C388.392 161.468 388.695 161.185 388.88 160.825C389.065 160.466 389.119 160.054 389.034 159.66Z" fill="black"/>
<path d="M386.986 161.584C387.324 161.684 387.683 161.684 388.021 161.584C388.312 161.469 388.563 161.272 388.744 161.016C388.924 160.76 389.024 160.456 389.034 160.144C388.58 160.072 388.117 160.175 387.737 160.432C387.357 160.689 387.089 161.08 386.986 161.527V161.584Z" fill="#F28F8F"/>
<path d="M391.441 151.964C391.441 152.262 391.323 152.548 391.112 152.759C390.901 152.97 390.614 153.089 390.316 153.089C390.168 153.082 390.023 153.047 389.889 152.984C389.755 152.921 389.635 152.833 389.535 152.724C389.436 152.615 389.358 152.487 389.308 152.348C389.257 152.209 389.235 152.061 389.242 151.913C389.248 151.766 389.284 151.621 389.347 151.487C389.409 151.353 389.498 151.232 389.607 151.133C389.716 151.033 389.844 150.955 389.983 150.905C390.122 150.855 390.27 150.832 390.417 150.839C390.698 150.864 390.959 150.994 391.148 151.202C391.338 151.41 391.442 151.682 391.441 151.964Z" fill="#263238"/>
<path d="M382.013 151.176C382.013 151.475 381.894 151.761 381.683 151.972C381.472 152.183 381.186 152.301 380.888 152.301C380.735 152.302 380.584 152.271 380.444 152.211C380.303 152.151 380.177 152.063 380.072 151.952C379.966 151.842 379.885 151.711 379.832 151.568C379.778 151.425 379.755 151.272 379.763 151.12C379.77 150.972 379.806 150.827 379.869 150.693C379.933 150.56 380.022 150.44 380.132 150.34C380.241 150.241 380.37 150.165 380.509 150.115C380.648 150.065 380.796 150.044 380.944 150.051C381.233 150.066 381.504 150.19 381.703 150.4C381.902 150.609 382.013 150.887 382.013 151.176Z" fill="#263238"/>
<path d="M381.124 146.653L378.547 148.262C378.455 147.948 378.461 147.612 378.563 147.301C378.666 146.99 378.86 146.717 379.121 146.518C379.434 146.352 379.788 146.276 380.142 146.3C380.496 146.324 380.836 146.446 381.124 146.653Z" fill="#263238"/>
<path d="M390.766 146.957L393.185 148.802C393.307 148.497 393.332 148.162 393.258 147.842C393.183 147.523 393.013 147.233 392.769 147.013C392.473 146.82 392.129 146.712 391.776 146.702C391.422 146.692 391.073 146.78 390.766 146.957Z" fill="#263238"/>
<path d="M387.717 171.586C385.788 173.67 384.183 176.033 382.958 178.595C382.822 178.917 382.779 179.269 382.833 179.614C382.886 179.958 383.034 180.281 383.261 180.546C383.487 180.811 383.783 181.008 384.115 181.115C384.447 181.221 384.802 181.233 385.141 181.149L387.717 180.542V171.586Z" fill="#E0E0E0"/>
<path d="M387.717 180.542L399.621 171.541C399.823 177.167 397.089 182.14 395.39 184.671C395.239 184.9 395.039 185.092 394.806 185.235C394.572 185.378 394.31 185.469 394.037 185.5C393.765 185.531 393.489 185.502 393.229 185.415C392.969 185.328 392.732 185.186 392.533 184.997L387.717 180.542Z" fill="#E0E0E0"/>
<path d="M404.538 173.341C403.413 183.996 407.159 189.228 416.914 207.736C416.914 207.736 414.664 221.361 410.647 229.035C406.664 230.655 404.662 233.411 402.366 234.593C402.275 234.639 402.194 234.703 402.129 234.781C402.063 234.86 402.014 234.95 401.984 235.048C401.955 235.146 401.946 235.249 401.957 235.351C401.969 235.452 402.001 235.55 402.051 235.639C402.985 237.124 405.427 235.988 407.677 234.694C404.819 239.329 404.009 240.095 402.569 241.535C401.129 242.975 402.119 245.326 406.046 245.326C409.972 245.326 412.177 242.266 412.898 241.22C413.618 240.173 418.523 230.351 418.523 230.351L427.389 212.529C428.004 211.29 428.344 209.932 428.385 208.55C428.425 207.167 428.166 205.791 427.625 204.518L417.499 180.666C416.572 178.494 415.027 176.642 413.057 175.34C411.087 174.038 408.778 173.343 406.417 173.341H404.538Z" fill="#FFA8A7"/>
<path d="M404.538 173.341C400.994 185.391 414.788 204.62 416.52 207.702C415.395 210.301 413.82 220.866 413.82 220.866C419.446 221.553 421.448 224.478 421.448 224.478L427.288 214.127C428.205 212.499 428.733 210.681 428.831 208.815C428.929 206.949 428.593 205.085 427.85 203.371C425.049 196.879 420.481 186.291 418.174 180.868C414.698 172.666 407.576 173.262 404.538 173.341Z" fill="#455A64"/>
<path opacity="0.2" d="M404.538 173.341C400.994 185.391 414.788 204.62 416.52 207.702C415.395 210.301 413.82 220.866 413.82 220.866C419.446 221.553 421.448 224.478 421.448 224.478L427.288 214.127C428.205 212.499 428.733 210.681 428.831 208.815C428.929 206.949 428.593 205.085 427.85 203.371C425.049 196.879 420.481 186.291 418.174 180.868C414.698 172.666 407.576 173.262 404.538 173.341Z" fill="white"/>
<path d="M330.651 248.499L327.647 254.125L330.314 255.936C330.471 253.517 330.494 250.896 330.651 248.499Z" fill="#BF706F"/>
<path d="M355.752 270.383C362.008 265.387 367.184 274.759 370.975 285.212C373.226 291.557 375.633 297.746 377.13 301.638C377.613 302.888 377.77 304.24 377.585 305.567C377.399 306.894 376.879 308.152 376.072 309.222L364.922 324.04L359.949 313.283L366.115 303.922L359.837 292.435L355.752 270.383Z" fill="black"/>
<path d="M295.795 320.147C292.442 321.794 288.829 322.848 285.117 323.263C281.393 323.676 277.629 323.024 274.26 321.384C270.867 319.653 268.284 316.666 267.059 313.059C267.584 312.476 268.296 312.094 269.072 311.979C269.848 311.864 270.64 312.023 271.312 312.429C274.57 314.24 278.409 314.697 282.001 313.7C280.873 312.546 279.863 311.284 278.985 309.931C278.547 309.256 278.153 308.378 278.592 307.68C278.793 307.434 279.066 307.257 279.372 307.175C279.679 307.092 280.004 307.108 280.302 307.219C280.89 307.459 281.428 307.806 281.888 308.243C284.602 310.435 287.806 311.937 291.227 312.62C292.644 314.994 294.4 317.784 295.795 320.147Z" fill="#D18786"/>
<path d="M315.147 465.04C316.074 465.757 317.245 466.084 318.41 465.951C321.899 465.946 325.37 465.461 328.727 464.511C330.634 464.017 332.463 463.26 334.161 462.261C336.117 461.032 337.755 459.359 338.943 457.378C338.499 455.202 338.239 452.993 338.167 450.773C335.309 450.773 332.35 450.773 329.492 450.773V455.431C325.147 458.327 320.325 460.433 315.248 461.653C315.009 461.865 314.817 462.124 314.686 462.415C314.554 462.706 314.486 463.022 314.486 463.341C314.486 463.66 314.554 463.976 314.686 464.267C314.817 464.558 315.009 464.818 315.248 465.029L315.147 465.04Z" fill="#D18786"/>
<path d="M339.618 460.18C339.359 459.246 339.134 458.301 338.943 457.355C337.755 459.336 336.117 461.009 334.161 462.238C332.463 463.237 330.634 463.995 328.727 464.489C325.37 465.439 321.898 465.923 318.41 465.929C317.245 466.062 316.074 465.735 315.147 465.018C314.907 464.806 314.716 464.547 314.584 464.256C314.453 463.965 314.385 463.649 314.385 463.33C314.385 463.011 314.453 462.695 314.584 462.404C314.716 462.113 314.907 461.853 315.147 461.642L314.022 461.923C312.643 462.107 311.309 462.538 310.084 463.195C309.476 463.536 308.989 464.056 308.689 464.684C308.389 465.313 308.29 466.019 308.407 466.705C308.651 467.289 309.018 467.813 309.484 468.241C309.951 468.668 310.505 468.989 311.108 469.181C315.558 471.141 320.573 471.405 325.205 469.923C328.052 468.989 330.831 467.392 333.801 467.482C335.511 467.482 337.39 468.089 338.831 467.155C339.334 466.775 339.737 466.276 340.002 465.703C340.267 465.13 340.386 464.5 340.349 463.87C340.272 462.613 340.026 461.371 339.618 460.18Z" fill="black"/>
<path d="M350.386 432.254C349.677 432.331 349.013 432.637 348.495 433.127C347.976 433.616 347.633 434.262 347.517 434.966C347.427 436.327 348.484 437.463 349.463 438.42L353.21 442.076C354.177 443.185 355.407 444.032 356.788 444.54C357.51 444.715 358.262 444.725 358.989 444.569C359.715 444.413 360.397 444.096 360.984 443.64C361.683 443.098 362.252 442.406 362.65 441.615C362.526 440.771 362.424 439.916 362.267 439.072C362.146 437.986 361.76 436.947 361.142 436.046C359.949 434.561 358.014 434.358 356.259 434.189C354.976 433.955 353.797 433.33 352.883 432.4C352.067 432.196 351.22 432.147 350.386 432.254Z" fill="#D18786"/>
<path d="M362.65 441.615C362.252 442.406 361.683 443.098 360.984 443.64C360.397 444.096 359.715 444.413 358.989 444.569C358.262 444.725 357.51 444.715 356.788 444.541C355.407 444.032 354.177 443.185 353.21 442.077L349.463 438.42C348.484 437.464 347.427 436.327 347.517 434.966C347.633 434.262 347.977 433.617 348.495 433.127C349.013 432.637 349.677 432.331 350.386 432.254C351.228 432.144 352.083 432.194 352.906 432.4L352.524 432.13C351.564 431.455 350.539 430.878 349.463 430.409C348.32 429.819 347.006 429.647 345.75 429.925C345.005 430.212 344.363 430.716 343.907 431.372C343.452 432.028 343.204 432.806 343.196 433.604C343.212 435.212 343.78 436.765 344.805 438.004C345.841 439.214 346.97 440.343 348.181 441.379C349.703 442.888 351.106 444.513 352.377 446.239C353.27 447.56 354.283 448.796 355.404 449.93C356.544 451.075 358.086 451.729 359.702 451.753C360.37 451.739 361.021 451.541 361.585 451.182C362.148 450.823 362.602 450.316 362.897 449.716C363.172 448.914 363.268 448.061 363.178 447.218C363.097 445.343 362.92 443.473 362.65 441.615Z" fill="black"/>
<path d="M323.822 331.308C321.189 364.556 323.158 399.187 323.158 399.187C323.158 399.187 327.76 436.316 328.423 451.955C332.17 455.657 339.371 451.955 339.371 451.955C341.43 424.795 346.864 414.342 340.935 397.432L345.177 358.48L346.864 389.747L353.277 438.499C357.182 441.323 362.222 438.499 362.222 438.499C364.304 414.601 369.187 403.744 362.222 384.313C370.559 345.631 367.848 330.937 366.723 327.033L323.822 331.308Z" fill="black"/>
<path opacity="0.4" d="M323.822 331.308C321.189 364.556 323.158 399.187 323.158 399.187C323.158 399.187 327.76 436.316 328.423 451.955C332.17 455.657 339.371 451.955 339.371 451.955C341.43 424.795 346.864 414.342 340.935 397.432L345.177 358.48L346.864 389.747L353.277 438.499C357.182 441.323 362.222 438.499 362.222 438.499C364.304 414.601 369.187 403.744 362.222 384.313C370.559 345.631 367.848 330.937 366.723 327.033L323.822 331.308Z" fill="black"/>
<path opacity="0.1" d="M323.822 331.308C321.189 364.556 323.158 399.187 323.158 399.187C323.158 399.187 327.76 436.316 328.423 451.955C332.17 455.657 339.371 451.955 339.371 451.955C341.43 424.795 346.864 414.342 340.935 397.432L345.177 358.48L346.864 389.747L353.277 438.499C357.182 441.323 362.222 438.499 362.222 438.499C364.304 414.601 369.187 403.744 362.222 384.313C370.559 345.631 367.848 330.937 366.723 327.033L323.822 331.308Z" fill="white"/>
<path opacity="0.2" d="M355.752 270.383C362.008 265.387 367.184 274.759 370.975 285.212C373.226 291.557 375.633 297.746 377.13 301.638C377.613 302.888 377.77 304.24 377.585 305.567C377.399 306.894 376.879 308.152 376.072 309.222L364.922 324.04L359.949 313.283L366.115 303.922L359.837 292.435L355.752 270.383Z" fill="white"/>
<path d="M335.005 273.533C340.631 271.8 356.889 268.245 361.018 271.969C364.619 275.221 366.959 286.427 362.143 300.817C360.724 304.922 360.929 309.415 362.717 313.374C364.825 317.912 366.472 322.65 367.634 327.517C354.549 340.849 331.506 338.768 322.787 333.142C322.901 322.475 323.819 311.831 325.532 301.301L335.005 273.533Z" fill="black"/>
<path opacity="0.4" d="M335.005 273.533C340.631 271.8 356.889 268.245 361.018 271.969C364.619 275.221 366.959 286.427 362.143 300.817C360.724 304.922 360.929 309.415 362.717 313.374C364.825 317.912 366.472 322.65 367.634 327.517C354.549 340.849 331.506 338.768 322.787 333.142C322.901 322.475 323.819 311.831 325.532 301.301L335.005 273.533Z" fill="white"/>
<path opacity="0.1" d="M335.005 273.533C340.631 271.8 356.889 268.245 361.018 271.969C364.619 275.221 366.959 286.427 362.143 300.817C360.724 304.922 360.929 309.415 362.717 313.374C364.825 317.912 366.472 322.65 367.634 327.517C354.549 340.849 331.506 338.768 322.787 333.142C322.901 322.475 323.819 311.831 325.532 301.301L335.005 273.533Z" fill="white"/>
<path d="M331.101 244.077C329.587 243.189 328.353 241.893 327.539 240.338C326.725 238.782 326.365 237.029 326.499 235.279C326.702 233.494 327.326 231.783 328.32 230.287C329.313 228.79 330.648 227.551 332.215 226.672C333.795 225.818 335.532 225.293 337.32 225.128C339.109 224.964 340.913 225.164 342.622 225.715C345.637 226.66 348.315 228.584 351.409 229.203C354.098 229.743 357.035 229.282 359.533 230.328C362.717 231.633 364.573 235.02 365.383 238.373C366.526 243.107 366.108 248.084 364.191 252.561C361.7 257.556 357.861 261.753 353.108 264.678C348.821 269.798 341.193 266.456 337.964 262.113C334.735 257.77 331.101 244.077 331.101 244.077Z" fill="#7A4140"/>
<path d="M333.048 240.342C331.157 243.251 329.998 246.575 329.672 250.029C329.348 253.467 329.299 256.924 329.526 260.369C329.446 261.711 329.775 263.045 330.471 264.195C331.009 264.775 331.67 265.227 332.407 265.517C333.143 265.807 333.935 265.928 334.724 265.871C336.299 265.871 337.739 265.871 339.45 265.815L339.798 272.959C345.424 276.087 351.77 273.904 353.412 271.677L353.131 264.678C344.366 266.332 339.63 263.328 338.808 257.928C339.697 258.094 340.611 258.062 341.487 257.834C342.362 257.607 343.176 257.189 343.871 256.611C344.492 255.987 344.965 255.231 345.253 254.4C345.541 253.568 345.638 252.682 345.536 251.807C345.457 251.022 345.139 250.28 344.625 249.681C344.162 249.224 343.577 248.911 342.94 248.78C342.303 248.648 341.642 248.703 341.036 248.938C339.825 249.41 338.823 250.3 338.212 251.447C337.606 252.591 337.163 253.814 336.896 255.081C336.382 254.664 336.006 254.101 335.817 253.467C335.628 252.833 335.636 252.156 335.838 251.526C336.074 250.884 336.547 250.266 336.445 249.579C336.344 248.893 335.545 248.342 335.185 247.655C334.893 247.052 334.845 246.359 335.05 245.72C335.258 245.095 335.541 244.498 335.894 243.942C335.109 242.622 334.152 241.411 333.048 240.342Z" fill="#D18786"/>
<path d="M366.801 260.774C363.685 257.533 361.299 253.662 359.803 249.422C358.312 245.157 358.256 240.523 359.645 236.224C360.432 233.804 361.892 231.658 363.853 230.036C364.834 229.233 365.974 228.647 367.197 228.316C368.421 227.984 369.701 227.915 370.953 228.112C374.902 228.832 377.703 232.612 378.446 236.595C379.189 240.578 378.153 244.595 376.871 248.398C375.273 253.146 371.605 258.996 372.235 265.702C370.255 264.256 368.434 262.604 366.801 260.774Z" fill="#995E5D"/>
<path d="M335.005 273.533C324.699 269.033 323.506 278.855 317.847 289.285C314.382 296.035 310.106 302.482 310.106 302.482C304.154 306.255 297.721 309.207 290.979 311.258C288.729 317.176 293.938 322.993 293.938 322.993L316.069 313.34C319.825 311.701 322.989 308.953 325.138 305.464C333.149 292.57 338.988 283.412 335.005 273.533Z" fill="black"/>
<path opacity="0.2" d="M335.005 273.533C324.699 269.033 323.506 278.855 317.847 289.285C314.382 296.035 310.106 302.482 310.106 302.482C304.154 306.255 297.721 309.207 290.979 311.258C288.729 317.176 293.938 322.993 293.938 322.993L316.069 313.34C319.825 311.701 322.989 308.953 325.138 305.464C333.149 292.57 338.988 283.412 335.005 273.533Z" fill="white"/>
<path opacity="0.3" d="M359.488 342.211C355.861 345.361 351.218 347.095 346.414 347.094L345.176 358.48L346.301 379.362L348.552 349.164C350.768 348.863 352.893 348.085 354.781 346.885C356.669 345.685 358.274 344.09 359.488 342.211Z" fill="black"/>
<path d="M153.107 300.761L150.451 306.387L156.797 313.374L156.336 330.059L135.87 312.282C134.951 311.485 134.321 310.407 134.075 309.216C133.829 308.025 133.981 306.785 134.509 305.689L140.753 292.705L153.107 300.761Z" fill="#995E5D"/>
<path d="M146.795 311.36C148.403 310.018 149.658 308.303 150.452 306.364L152.038 308.108C150.782 309.835 148.9 311.002 146.795 311.36Z" fill="#7A4140"/>
<path d="M153.613 302.111C145.49 301.403 139.943 292.975 139.943 292.975C147.222 278.079 153.568 261.472 166.271 265.466L153.613 302.111Z" fill="black"/>
<path opacity="0.4" d="M153.613 302.111C145.49 301.403 139.943 292.975 139.943 292.975C147.222 278.079 153.568 261.472 166.271 265.466L153.613 302.111Z" fill="black"/>
<path d="M185.353 477.27C186.118 479.689 188.728 481.073 191.305 481.276C193.881 481.478 196.323 480.758 198.821 480.308C204.446 479.296 209.802 480.308 215.371 480.173C217.2 480.184 219.023 479.984 220.806 479.577C222.606 479.168 224.234 478.208 225.464 476.832C226.167 476 226.629 474.993 226.802 473.917C226.906 474.72 226.84 475.534 226.609 476.309C226.379 477.085 225.988 477.803 225.464 478.418C224.227 479.785 222.601 480.739 220.806 481.152C219.024 481.564 217.2 481.765 215.371 481.748C209.802 481.883 204.413 480.871 198.821 481.883C196.323 482.345 193.825 483.008 191.305 482.851C188.785 482.693 186.118 481.265 185.353 478.846C185.115 478.009 185.05 477.132 185.162 476.269C185.186 476.609 185.251 476.945 185.353 477.27Z" fill="#263238"/>
<path d="M185.499 472.635C185.837 470.947 186.185 469.259 186.523 467.561C186.649 466.655 186.943 465.781 187.389 464.984C187.612 464.584 187.939 464.253 188.335 464.025C188.731 463.797 189.182 463.681 189.639 463.69C192.7 463.285 197.009 462.171 199.552 463.926C203.573 466.673 208.366 468.064 213.233 467.898C215.765 467.797 218.296 467.279 220.805 467.594C223.314 467.909 225.925 469.293 226.678 471.712C226.895 472.442 226.937 473.213 226.802 473.962C226.629 475.038 226.166 476.045 225.463 476.877C224.233 478.253 222.605 479.213 220.805 479.622C219.023 480.029 217.199 480.229 215.371 480.218C209.802 480.342 204.412 479.341 198.82 480.353C196.323 480.803 193.825 481.478 191.305 481.321C188.784 481.163 186.118 479.734 185.353 477.315C185.255 477.008 185.19 476.691 185.161 476.37C185.074 475.115 185.188 473.854 185.499 472.635Z" fill="#455A64"/>
<path d="M200.294 458.616L200.508 465.232C200.533 465.909 200.293 466.57 199.84 467.074C199.386 467.578 198.754 467.886 198.078 467.932C195.859 468.096 193.631 468.073 191.417 467.864C190.525 467.775 189.696 467.369 189.077 466.721C188.458 466.074 188.091 465.226 188.041 464.332L187.783 459.449L200.294 458.616Z" fill="#FFA8A7"/>
<path opacity="0.4" d="M200.294 458.616L200.508 465.232C200.533 465.909 200.293 466.57 199.84 467.074C199.386 467.578 198.754 467.886 198.078 467.932C195.859 468.096 193.631 468.073 191.417 467.864C190.525 467.775 189.696 467.369 189.077 466.721C188.458 466.074 188.091 465.226 188.041 464.332L187.783 459.449L200.294 458.616Z" fill="black"/>
<path d="M157.112 455.083C157.136 456.061 157.445 457.011 158.001 457.817C158.784 458.771 159.896 459.397 161.117 459.572C162.576 459.823 164.077 459.657 165.446 459.094C166.815 458.53 167.998 457.593 168.858 456.388C169.691 455.184 170.163 453.766 170.951 452.529C172.144 450.882 173.613 449.455 175.294 448.31C176.979 447.167 178.459 445.749 179.671 444.113C180.253 443.312 180.633 442.382 180.78 441.403C180.927 440.424 180.836 439.424 180.514 438.487C180.669 438.712 180.805 438.949 180.919 439.196C181.291 440.176 181.413 441.233 181.276 442.271C181.138 443.31 180.745 444.298 180.132 445.148C178.887 446.832 177.365 448.293 175.631 449.469C173.915 450.651 172.418 452.125 171.21 453.823C170.4 455.094 169.916 456.557 169.072 457.794C168.203 459.03 167.002 459.994 165.609 460.575C164.215 461.156 162.685 461.331 161.196 461.08C159.944 460.899 158.807 460.252 158.012 459.268C157.299 458.139 156.975 456.807 157.089 455.477C157.089 455.364 157.101 455.24 157.112 455.083Z" fill="#263238"/>
<path d="M159.115 446.791C161.129 443.258 165.269 440.693 168.476 438.206C170.226 436.686 172.379 435.705 174.675 435.382C175.823 435.247 176.984 435.456 178.012 435.983C179.04 436.51 179.888 437.331 180.447 438.341C180.465 438.403 180.487 438.463 180.515 438.521C180.836 439.458 180.927 440.458 180.78 441.437C180.634 442.417 180.253 443.346 179.671 444.147C178.459 445.783 176.979 447.201 175.294 448.344C173.614 449.489 172.144 450.916 170.951 452.563C170.164 453.801 169.691 455.218 168.859 456.422C167.998 457.627 166.815 458.564 165.446 459.128C164.077 459.691 162.577 459.857 161.118 459.606C159.896 459.431 158.784 458.805 158.001 457.851C157.446 457.045 157.137 456.095 157.112 455.117C157.095 454.802 157.095 454.487 157.112 454.172C157.155 451.583 157.843 449.046 159.115 446.791Z" fill="#455A64"/>
<path d="M167.857 443.73V449.739C166.382 450.432 164.76 450.757 163.131 450.684C161.502 450.612 159.915 450.144 158.507 449.322L157.945 443.922L167.857 443.73Z" fill="#FFA8A7"/>
<path opacity="0.4" d="M167.857 443.73V449.739C166.382 450.432 164.76 450.757 163.131 450.684C161.502 450.612 159.915 450.144 158.507 449.322L157.945 443.922L167.857 443.73Z" fill="black"/>
<path d="M156.336 334.684C154.536 340.084 155.098 368.437 156.144 393.089C154.423 405.083 154.479 431.062 156.741 449.851C156.741 449.851 163.008 453.305 171.727 450.144L177.038 393.134L178.264 363.824C178.264 363.824 180.515 389.826 183.046 406.5C182.124 418.741 184.171 442.155 185.949 467.122C185.949 467.122 195.591 472.747 205.166 466.582C208.541 411.383 203.073 355.487 201.971 337.384L156.336 334.684Z" fill="#37474F"/>
<path opacity="0.3" d="M177.522 381.669L178.523 357.771C172.346 357.771 166.619 353.158 162.254 348.77C166.439 356.23 174.608 359.605 174.608 359.605L177.522 381.669Z" fill="black"/>
<path d="M202.904 292.098V338.892C175.35 350.436 157.494 340.017 155.075 334.583C156.336 315.534 151.835 293.246 152.184 283.783C152.533 274.321 153.692 263.644 168.374 265.781L183.98 267.3L191.856 269.224L202.904 292.098Z" fill="black"/>
<path opacity="0.3" d="M202.904 292.098V338.892C175.35 350.436 157.494 340.017 155.075 334.583C156.336 315.534 151.835 293.246 152.184 283.783C152.533 274.321 153.692 263.644 168.374 265.781L183.98 267.3L191.856 269.224L202.904 292.098Z" fill="black"/>
<path d="M217.531 289.51L222.797 294.978L235.364 278.27C233.667 273.828 232.628 269.162 232.282 264.42C232.272 264.218 232.304 264.016 232.375 263.826C232.447 263.637 232.555 263.464 232.695 263.318C232.835 263.172 233.003 263.055 233.189 262.976C233.375 262.897 233.576 262.856 233.778 262.856C234.059 262.856 234.335 262.936 234.572 263.088C234.81 263.239 234.999 263.455 235.117 263.711L237.457 268.617C237.792 268.505 238.097 268.318 238.348 268.07C238.6 267.822 238.791 267.521 238.908 267.188L239.37 265.894C239.675 265.026 239.831 264.113 239.831 263.193V259.964C239.836 259.516 239.957 259.076 240.183 258.688C240.408 258.299 240.73 257.976 241.118 257.75C241.505 257.523 241.945 257.401 242.394 257.395C242.843 257.388 243.285 257.498 243.679 257.714C245.146 258.502 246.442 259.573 247.493 260.864C248.501 262.096 249.05 263.639 249.046 265.23V269.595C249.047 270.719 248.853 271.835 248.472 272.892L246.222 279.148C246.012 279.719 245.748 280.269 245.434 280.79L229.176 308.052C228.593 309.035 227.799 309.876 226.853 310.516C225.906 311.156 224.829 311.578 223.7 311.752C222.57 311.926 221.416 311.848 220.321 311.524C219.225 311.199 218.215 310.636 217.362 309.875L207 300.671L217.531 289.51Z" fill="#995E5D"/>
<path d="M226.015 301.695C225.497 299.22 224.393 296.905 222.797 294.944L224.248 293.021C225.34 295.079 226.881 299.017 226.015 301.695Z" fill="#995E5D"/>
<path d="M226.015 301.695C225.497 299.22 224.393 296.905 222.797 294.944L224.248 293.021C225.34 295.079 226.881 299.017 226.015 301.695Z" fill="#7A4140"/>
<path d="M218.837 289.544L204.03 274.985C200.736 271.744 196.457 269.693 191.867 269.156H191.609C185.342 282.883 193.623 289.577 193.623 289.577L207.383 302.224C212.579 299.484 216.637 294.991 218.837 289.544Z" fill="black"/>
<path opacity="0.4" d="M218.837 289.544L204.03 274.985C200.736 271.744 196.457 269.693 191.867 269.156H191.609C185.342 282.883 193.623 289.577 193.623 289.577L207.383 302.224C212.579 299.484 216.637 294.991 218.837 289.544Z" fill="black"/>
<path d="M191.485 235.122C191.769 234.789 191.95 234.381 192.006 233.948C192.062 233.514 191.99 233.074 191.8 232.68C192.188 232.798 192.598 232.829 193 232.773C193.402 232.717 193.787 232.574 194.129 232.354C194.465 232.15 194.737 231.857 194.916 231.508C195.095 231.158 195.173 230.765 195.141 230.374C195.102 229.981 194.933 229.613 194.663 229.326C194.392 229.039 194.034 228.85 193.645 228.787C194.37 228.621 195.005 228.187 195.423 227.572C195.867 226.979 196.068 226.238 195.985 225.502C195.855 224.826 195.544 224.199 195.084 223.687C194.624 223.176 194.033 222.8 193.375 222.599C192.051 222.22 190.659 222.143 189.302 222.374C189.52 221.634 189.467 220.841 189.154 220.136C188.841 219.431 188.287 218.86 187.592 218.526C186.968 218.31 186.299 218.252 185.647 218.358C184.995 218.464 184.38 218.73 183.856 219.134C182.817 219.948 181.923 220.934 181.212 222.048C179.726 221.242 178.081 220.77 176.393 220.664C174.705 220.559 173.014 220.823 171.439 221.437C169.863 222.052 168.441 223.003 167.27 224.224C166.1 225.445 165.21 226.906 164.662 228.506C163.425 228.914 162.307 229.619 161.405 230.558C160.503 231.497 159.844 232.643 159.486 233.895C158.872 236.41 159.045 239.053 159.981 241.467C160.903 243.864 162.088 246.15 163.514 248.286L165.472 251.38C166.293 252.673 168.386 255.88 169.196 257.185C171.028 258.034 173.044 258.412 175.059 258.287C177.075 258.161 179.027 257.535 180.74 256.465C184.096 254.235 186.685 251.025 188.154 247.273C189.669 243.344 190.785 239.273 191.485 235.122Z" fill="#263238"/>
<path d="M174.113 258.502C172.364 258.531 170.633 258.145 169.061 257.377L167.227 254.519C166.496 253.394 165.753 252.268 165.337 251.571L165.236 251.425L163.357 248.376C161.919 246.232 160.727 243.933 159.801 241.524C158.876 239.071 158.719 236.394 159.351 233.85C159.709 232.581 160.37 231.418 161.278 230.461C162.185 229.505 163.312 228.783 164.561 228.36C165.156 226.769 166.073 225.317 167.254 224.096C168.434 222.874 169.854 221.909 171.424 221.26C173.001 220.669 174.685 220.413 176.366 220.51C178.048 220.607 179.691 221.054 181.19 221.823C181.89 220.738 182.769 219.779 183.789 218.987C184.337 218.567 184.98 218.289 185.662 218.179C186.343 218.069 187.041 218.13 187.693 218.357C188.385 218.695 188.946 219.253 189.288 219.943C189.63 220.633 189.734 221.416 189.583 222.171C190.881 221.974 192.206 222.062 193.465 222.43C194.156 222.638 194.776 223.033 195.256 223.571C195.736 224.109 196.059 224.77 196.188 225.479C196.243 225.875 196.219 226.278 196.117 226.665C196.014 227.051 195.836 227.413 195.592 227.73C195.253 228.208 194.801 228.595 194.275 228.855C194.577 229.003 194.837 229.223 195.033 229.496C195.229 229.769 195.355 230.086 195.4 230.419C195.428 230.847 195.338 231.275 195.139 231.656C194.941 232.037 194.642 232.356 194.275 232.579C193.637 232.974 192.878 233.126 192.137 233.006C192.273 233.386 192.303 233.796 192.226 234.192C192.149 234.587 191.967 234.955 191.699 235.257C190.987 239.403 189.856 243.467 188.323 247.385C186.848 251.178 184.234 254.421 180.841 256.668C178.812 257.891 176.482 258.526 174.113 258.502ZM169.264 257.05C171.064 257.88 173.043 258.247 175.021 258.119C177 257.992 178.915 257.373 180.594 256.319C183.909 254.095 186.47 250.917 187.941 247.205C189.469 243.289 190.6 239.23 191.316 235.088V235.032C191.582 234.727 191.751 234.351 191.801 233.95C191.851 233.549 191.78 233.142 191.597 232.781L191.417 232.399L191.822 232.534C192.185 232.643 192.567 232.672 192.941 232.62C193.316 232.567 193.675 232.434 193.994 232.23C194.303 232.042 194.553 231.772 194.718 231.451C194.883 231.129 194.956 230.768 194.928 230.407C194.885 230.056 194.731 229.728 194.488 229.471C194.245 229.213 193.926 229.041 193.578 228.978L192.284 228.832L193.566 228.641C194.244 228.491 194.839 228.089 195.232 227.516C195.444 227.242 195.6 226.93 195.691 226.595C195.781 226.261 195.805 225.913 195.76 225.569C195.638 224.927 195.341 224.332 194.903 223.847C194.464 223.363 193.901 223.009 193.274 222.824C191.975 222.458 190.61 222.385 189.28 222.61H188.998L189.1 222.34C189.291 221.641 189.234 220.896 188.939 220.234C188.643 219.571 188.128 219.031 187.479 218.706C186.882 218.506 186.244 218.455 185.622 218.559C185 218.663 184.413 218.918 183.913 219.302C182.887 220.105 182.005 221.075 181.303 222.171L181.224 222.295L181.089 222.228C179.621 221.454 178.006 221 176.351 220.893C174.695 220.786 173.035 221.03 171.48 221.609C169.939 222.24 168.547 223.187 167.394 224.388C166.241 225.589 165.353 227.019 164.786 228.585V228.675H164.696C163.491 229.08 162.403 229.77 161.523 230.687C160.644 231.604 159.999 232.72 159.644 233.94C159.032 236.418 159.185 239.022 160.083 241.411C161.008 243.785 162.193 246.049 163.616 248.162C164.223 249.141 164.842 250.12 165.461 251.098L165.562 251.256L167.452 254.192C168.161 255.318 168.859 256.398 169.264 257.05Z" fill="#272525"/>
<path d="M193.251 243.144L195.726 247.431L193.285 248.331C193.364 246.602 193.352 244.871 193.251 243.144Z" fill="#7A4140"/>
<path d="M191.485 235.122C192.397 237.715 192.993 240.408 193.263 243.144C193.353 244.871 193.353 246.603 193.263 248.331C193.156 250.763 192.874 253.184 192.419 255.576C192.251 256.887 191.76 258.136 190.99 259.21C189.963 260.31 188.544 260.96 187.041 261.022C185.551 261.076 184.06 260.932 182.608 260.594V267.626C177.275 268.887 172.864 269.438 168.679 266.22L169.118 257.219C171.686 257.569 174.3 257.155 176.633 256.026C180.312 254.035 181.348 250.862 180.83 249.084C180.503 249.518 180.055 249.846 179.543 250.026C179.03 250.206 178.476 250.231 177.95 250.097C177.443 249.961 176.969 249.723 176.557 249.398C176.145 249.073 175.804 248.668 175.553 248.207C175.067 247.276 174.765 246.259 174.664 245.214C174.4 243.951 174.591 242.636 175.204 241.501C175.676 240.871 176.327 240.4 177.073 240.148C177.818 239.897 178.622 239.878 179.379 240.095C180.894 240.571 182.16 241.626 182.9 243.031C183.134 243.468 183.341 243.919 183.519 244.381C183.585 244.558 183.709 244.707 183.871 244.804C184.032 244.901 184.222 244.94 184.409 244.915C184.596 244.891 184.768 244.803 184.899 244.667C185.03 244.531 185.11 244.355 185.128 244.168C185.322 242.15 184.956 240.118 184.07 238.294C184.682 238.597 185.357 238.751 186.039 238.744C186.4 238.746 186.756 238.668 187.082 238.516C187.409 238.365 187.698 238.143 187.93 237.867C188.152 237.586 188.279 237.241 188.291 236.882C188.303 236.524 188.2 236.171 187.997 235.875C189.786 236.731 191.485 235.122 191.485 235.122Z" fill="#995E5D"/>
</svg>
