<svg width="400" height="388" viewBox="0 0 400 388" fill="none" xmlns="http://www.w3.org/2000/svg">
<path d="M49.9367 318.345H19.7573V328.833H49.9367V318.345Z" fill="#EBEBEB"/>
<path d="M33.0944 331.57H2.91504V342.058H33.0944V331.57Z" fill="#EBEBEB"/>
<path d="M119.471 121.805H89.2915V132.292H119.471V121.805Z" fill="#EBEBEB"/>
<path d="M102.638 135.029H72.4585V145.517H102.638V135.029Z" fill="#EBEBEB"/>
<path d="M85.8708 121.805H55.6914V132.292H85.8708V121.805Z" fill="#EBEBEB"/>
<path d="M397.055 331.57H366.876V342.058H397.055V331.57Z" fill="#EBEBEB"/>
<path d="M380.222 1.46216H350.043V11.95H380.222V1.46216Z" fill="#EBEBEB"/>
<path d="M397.055 14.6867H366.876V25.1745H397.055V14.6867Z" fill="#EBEBEB"/>
<path d="M33.0944 1.46216H2.91504V11.95H33.0944V1.46216Z" fill="#EBEBEB"/>
<path d="M136.463 71.3527H0V77.2104H136.463V71.3527Z" fill="#EBEBEB"/>
<path d="M19.8417 100.276H14.5275L12.3906 77.2104H19.8417V100.276Z" fill="#EBEBEB"/>
<path d="M116.622 100.276H121.936L124.073 77.2104H116.622V100.276Z" fill="#EBEBEB"/>
<path d="M12.3906 77.2104H19.8324V85.1489H13.1217L12.3906 77.2104Z" fill="#DBDBDB"/>
<path d="M124.063 77.2104L123.332 85.1489H116.622V77.2104H124.063Z" fill="#DBDBDB"/>
<path d="M39.4206 40.0392C34.0314 47.3404 28.4079 55.8225 27.0396 64.9794C27.0396 65.1199 27.2457 65.1668 27.2739 64.9794C27.8948 62.4794 28.6935 60.0269 29.6638 57.6407C33.2066 56.7035 36.6838 55.8693 38.5489 52.3453C40.4141 48.8212 40.2079 44.0131 39.8423 40.0673C39.8236 39.908 39.5331 39.8986 39.4206 40.0392Z" fill="#EBEBEB"/>
<path d="M29.7107 57.6219C32.0889 52.0523 35.2893 46.871 39.205 42.2511C39.205 42.2511 39.2706 42.2511 39.205 42.2511C36.7376 45.4374 34.5696 48.8447 32.7286 52.4296C34.5188 50.6207 36.4776 48.9993 38.1646 47.0685C38.1646 47.0685 38.249 47.0685 38.2209 47.1248C36.6012 49.2864 34.6934 51.2163 32.5505 52.8607C31.9694 53.9479 31.379 55.0351 30.7791 56.113L31.229 55.888C31.065 55.9786 30.896 56.06 30.7229 56.1317C30.4417 56.6472 30.1606 57.1627 29.87 57.6782C29.8231 57.8375 29.6638 57.7344 29.7107 57.6219Z" fill="#A6A6A6"/>
<path d="M31.5195 55.7287C32.9676 54.8993 34.3495 53.9593 35.6527 52.917C35.6527 52.917 35.7465 52.917 35.709 52.917C34.4437 54.0098 33.0568 54.9533 31.5757 55.7287C31.5101 55.8599 31.4539 55.7662 31.5195 55.7287Z" fill="#A6A6A6"/>
<path d="M26.4492 64.8951C26.4557 64.916 26.4688 64.9344 26.4865 64.9474C26.5042 64.9604 26.5256 64.9674 26.5476 64.9674C26.5696 64.9674 26.591 64.9604 26.6087 64.9474C26.6264 64.9344 26.6395 64.916 26.646 64.8951C26.646 61.8771 26.646 58.8498 26.646 55.8225C27.4145 54.2573 29.0735 53.395 30.2263 52.1485C31.0566 51.234 31.7798 50.2278 32.382 49.1493C33.7722 46.5742 34.6206 43.7419 34.875 40.8266C35.1937 37.6024 33.9378 26.9553 32.6163 27.3208C31.904 27.5083 29.6264 32.785 29.0172 34.5283C28.0349 37.4063 27.3165 40.3677 26.8709 43.3759C25.9067 50.5091 25.7652 57.7295 26.4492 64.8951Z" fill="#EBEBEB"/>
<path d="M26.4209 51.9236C26.725 48.088 27.352 44.2849 28.2954 40.5548C28.9956 36.5845 30.3211 32.7504 32.2225 29.1953C32.2225 29.1297 32.3537 29.1953 32.3256 29.2516C30.9554 32.019 29.8961 34.9297 29.167 37.9305C29.2982 37.7149 29.467 37.5087 29.6075 37.3025C29.7481 37.0963 29.795 37.3025 29.7481 37.3869C29.5648 37.7204 29.3482 38.0344 29.1014 38.3241C28.3985 41.1358 27.8924 44.0882 27.4519 46.9936L27.5362 46.8624C27.5362 46.8624 27.5925 46.8624 27.5362 46.8624C27.48 46.8624 27.4238 47.0499 27.3675 47.153C27.152 48.6245 26.9458 50.0959 26.7396 51.558C29.4291 49.4222 31.5425 46.6483 32.8879 43.4883C31.7639 46.8855 29.5916 49.8388 26.6833 51.9236L26.5146 53.1045C26.5146 53.1795 26.374 53.1607 26.374 53.1045C26.374 52.7483 26.374 52.4016 26.374 52.0548C26.366 52.0437 26.3607 52.0308 26.3588 52.0172C26.3568 52.0036 26.3582 51.9897 26.3628 51.9768C26.3674 51.9639 26.3751 51.9523 26.3853 51.943C26.3954 51.9337 26.4076 51.927 26.4209 51.9236Z" fill="#A6A6A6"/>
<path d="M27.6675 46.3469C29.7189 43.436 31.5097 40.3499 33.0192 37.1244C33.0192 37.1244 33.1035 37.1244 33.0848 37.1244C31.8861 40.5138 30.0823 43.6577 27.7612 46.4031C27.7514 46.4078 27.7407 46.4099 27.7299 46.4094C27.7191 46.4089 27.7085 46.4057 27.6993 46.4001C27.69 46.3946 27.6822 46.3868 27.6767 46.3775C27.6711 46.3682 27.668 46.3577 27.6675 46.3469Z" fill="#A6A6A6"/>
<path d="M24.9681 57.1627C24.9318 59.1649 24.6963 61.1586 24.2652 63.1142C24.2652 63.3204 24.3308 63.536 24.3589 63.7609C24.9724 61.6017 25.3279 59.3774 25.418 57.1346C25.4382 57.104 25.4489 57.0681 25.4489 57.0315C25.4489 56.9948 25.4382 56.959 25.418 56.9284C25.5015 53.9194 25.2691 50.91 24.7244 47.9496C23.7872 42.4011 21.7534 37.0775 17.8825 32.9536C17.8512 32.9264 17.814 32.9067 17.7739 32.896C17.7337 32.8854 17.6917 32.8841 17.651 32.8922C17.6102 32.9004 17.5719 32.9178 17.5389 32.943C17.506 32.9683 17.4792 33.0008 17.4608 33.038C15.8956 37.0119 16.4392 41.745 17.7701 45.7002C18.4911 47.8453 19.5237 49.8727 20.8349 51.7173C22.2032 53.5543 23.8903 55.1289 24.9681 57.1627Z" fill="#EBEBEB"/>
<path d="M18.3795 34.7813C22.2085 40.8032 24.4644 47.69 24.9402 54.8103C24.9402 54.9321 24.7434 54.9603 24.7247 54.8103C24.6403 54.1823 24.5372 53.5544 24.4341 52.9358C22.829 51.5425 21.4169 49.9413 20.2353 48.1746C20.2353 48.1746 20.2353 48.109 20.2915 48.1746C21.5488 49.7193 22.8978 51.1872 24.331 52.5703C24.0686 51.0144 23.7593 49.4867 23.3938 47.9778L23.1032 47.6404C23.0376 47.5654 23.1501 47.4529 23.2157 47.5279L23.3001 47.631C22.7985 45.5674 22.1726 43.5361 21.4256 41.5482C20.4082 40.5178 19.5177 39.3693 18.7732 38.1273C18.7732 38.1273 18.7732 38.0711 18.7732 38.1273C19.2978 38.907 19.8641 39.6579 20.4696 40.3767C20.7133 40.6579 20.9851 40.9297 21.2381 41.2015C20.3954 39.0459 19.3929 36.9563 18.2389 34.95C18.164 34.7719 18.3233 34.697 18.3795 34.7813Z" fill="#A6A6A6"/>
<path d="M19.1009 42.12C20.2912 43.7133 21.6408 45.2316 22.7374 46.8812C22.7449 46.8911 22.7481 46.9036 22.7463 46.9159C22.7446 46.9282 22.738 46.9393 22.728 46.9468C22.7181 46.9543 22.7056 46.9575 22.6933 46.9557C22.681 46.954 22.6699 46.9474 22.6624 46.9374C21.256 45.5052 20.0343 43.9025 19.0259 42.1668C19.0072 42.1106 19.1009 42.0731 19.1009 42.12Z" fill="#A6A6A6"/>
<path d="M22.9251 47.2373L22.972 47.2935C22.972 47.2935 22.972 47.3779 22.9157 47.3498V47.2935C22.9157 47.2935 22.8501 47.2373 22.9251 47.2373Z" fill="#A6A6A6"/>
<path d="M12.0719 44.7162C12.5051 48.0411 13.8442 51.1829 15.9427 53.7981C16.8156 54.8202 17.8911 55.65 19.1013 56.2349C20.4603 56.9004 21.913 57.6783 23.2908 58.2313C23.9431 59.9317 24.4234 61.6931 24.7248 63.4892C24.7248 63.3393 24.8185 63.1799 24.856 63.03C23.975 55.2789 18.9607 48.662 12.5405 44.4256C12.4913 44.3993 12.436 44.3864 12.3802 44.3882C12.3243 44.39 12.27 44.4065 12.2225 44.4359C12.1751 44.4653 12.1362 44.5067 12.1097 44.5559C12.0833 44.6051 12.0703 44.6604 12.0719 44.7162Z" fill="#EBEBEB"/>
<path d="M14.2928 47.0029C14.2862 46.9931 14.2828 46.9814 14.2832 46.9696C14.2836 46.9577 14.2878 46.9463 14.295 46.937C14.3023 46.9276 14.3124 46.9208 14.3237 46.9175C14.3351 46.9142 14.3472 46.9146 14.3584 46.9186C17.88 49.5369 20.6871 52.9983 22.5218 56.9846C22.5297 57.0053 22.5301 57.0281 22.5227 57.0491C22.5154 57.07 22.5009 57.0876 22.4818 57.0989C22.4627 57.1101 22.4402 57.1142 22.4184 57.1104C22.3965 57.1067 22.3767 57.0953 22.3625 57.0783C22.0719 56.5535 21.7627 56.0474 21.4252 55.5506C19.9332 55.1518 18.5744 54.3624 17.4888 53.2637C17.4888 53.2637 17.4888 53.1981 17.4888 53.2637C18.0587 53.7722 18.6881 54.2096 19.3633 54.5665C19.9631 54.8664 20.6005 55.0539 21.2378 55.2976C20.6942 54.4353 20.1318 53.6105 19.5414 52.8139C17.9616 52.2115 16.4802 51.3776 15.1457 50.3395C15.0988 50.3395 15.1457 50.2364 15.1457 50.2645C16.4694 51.0651 17.8333 51.7971 19.2321 52.4577C18.3446 51.2741 17.3803 50.1501 16.3454 49.093C15.8486 48.8306 15.3519 48.5588 14.8645 48.2776C14.8645 48.2776 14.8645 48.1932 14.8645 48.2026C15.2628 48.3462 15.6432 48.5348 15.9986 48.7649C15.5206 48.1745 14.9301 47.5653 14.2928 47.0029Z" fill="#A6A6A6"/>
<path d="M14.4146 49.6741C14.5012 49.7258 14.5828 49.7854 14.6583 49.8522C14.5691 49.8146 14.4843 49.7675 14.4053 49.7116C14.4053 49.7116 14.4146 49.646 14.4146 49.6741Z" fill="#A6A6A6"/>
<path d="M32.7664 71.3434H19.5605L20.2072 62.6926L20.4603 59.8715H31.7448L31.9978 62.6926L32.7664 71.3434Z" fill="#DBDBDB"/>
<path d="M31.9976 62.6926H20.207L20.4601 59.8715H31.7445L31.9976 62.6926Z" fill="#C7C7C7"/>
<path d="M32.6445 57.5563H19.5605V60.4524H32.6445V57.5563Z" fill="#DBDBDB"/>
<path d="M75.6543 71.3246V31.9508H65.7382V71.3246H75.6543Z" fill="#C7C7C7"/>
<path d="M75.6543 34.172V29.8419H65.7382V34.172H75.6543Z" fill="#DBDBDB"/>
<path d="M75.6543 41.3139V39.7112H65.7382V41.3139H75.6543Z" fill="#DBDBDB"/>
<path d="M75.6543 66.1603V61.8303H65.7382V66.1603H75.6543Z" fill="#DBDBDB"/>
<path d="M82.5811 71.3245V25.3901H75.6548V71.3245H82.5811Z" fill="#DBDBDB"/>
<path d="M81.1748 47.3779V29.7108H77.0134V47.3779H81.1748Z" fill="#EBEBEB"/>
<path d="M131.935 66.3456L99.2681 34.0526L94.3987 38.9783L127.066 71.2713L131.935 66.3456Z" fill="#C7C7C7"/>
<path d="M123.31 59.7367L110.746 47.3163L107.821 50.2757L120.385 62.6961L123.31 59.7367Z" fill="#DBDBDB"/>
<path d="M94.3433 71.3339V36.4402H82.5714V71.3339H94.3433Z" fill="#A6A6A6"/>
<path d="M94.3433 67.6318V64.3795H82.5714V67.6318H94.3433Z" fill="#C7C7C7"/>
<path d="M94.3525 62.252V60.9867H82.5807V62.252H94.3525Z" fill="#C7C7C7"/>
<path d="M52.8726 71.3499L65.8037 41.2229L58.3366 38.0178L45.4054 68.1448L52.8726 71.3499Z" fill="#A6A6A6"/>
<path d="M54.2412 68.1524L55.4463 65.3447L47.9791 62.1397L46.774 64.9474L54.2412 68.1524Z" fill="#C7C7C7"/>
<path d="M61.9287 50.2263L63.1343 47.4188L55.6677 44.2125L54.4621 47.02L61.9287 50.2263Z" fill="#C7C7C7"/>
<path d="M60.6283 53.2368L61.0942 52.1517L53.6276 48.9454L53.1617 50.0305L60.6283 53.2368Z" fill="#C7C7C7"/>
<path d="M277.5 246.627V386.146H361.852V246.627H277.5ZM354.186 334.653H285.157V298.335H354.186V334.653ZM354.186 289.666H285.157V253.366H354.186V289.666Z" fill="#DBDBDB"/>
<path d="M399.98 246.627H361.843V386.146H399.98V246.627Z" fill="#EBEBEB"/>
<path d="M301.559 253.366H285.157V289.684H301.559V253.366Z" fill="#EBEBEB"/>
<path d="M354.42 377.626H285.354V342.526H354.42V377.626ZM285.823 377.158H353.951V342.995H285.823V377.158Z" fill="#EBEBEB"/>
<path d="M326.696 352.499H313.069V357.475H326.696V352.499Z" fill="#EBEBEB"/>
<path d="M301.559 298.335H285.157V334.654H301.559V298.335Z" fill="#EBEBEB"/>
<path d="M344.748 334.653V301.166H333.21V334.653H344.748Z" fill="#A6A6A6"/>
<path d="M344.738 329.274V322.047H333.201V329.274H344.738Z" fill="#DBDBDB"/>
<path d="M344.738 316.237V311.953H333.201V316.237H344.738Z" fill="#DBDBDB"/>
<path d="M334.447 261.661H305.28V289.684H334.447V261.661Z" fill="#EBEBEB"/>
<path d="M345.535 261.661H334.447V289.684H345.535V261.661Z" fill="#C7C7C7"/>
<path d="M305.28 275.672H334.447L311.672 276.394L305.28 275.672Z" fill="#C7C7C7"/>
<path d="M334.447 286.301H305.28L328.055 287.023L334.447 286.301Z" fill="#C7C7C7"/>
<path d="M305.28 267.837H323.753L307.333 268.428L305.28 267.837Z" fill="#C7C7C7"/>
<path d="M334.447 282.177H315.974L332.395 282.767L334.447 282.177Z" fill="#C7C7C7"/>
<path d="M312.281 264.725H333.116L329.639 265.072L312.281 264.725Z" fill="#C7C7C7"/>
<path d="M308.12 278.681H328.955L325.478 279.028L308.12 278.681Z" fill="#C7C7C7"/>
<path d="M320.932 270.508H334.447L336.865 271.455L320.932 270.508Z" fill="#EBEBEB"/>
<path d="M301.559 270.508H315.074L317.492 271.455L301.559 270.508Z" fill="#EBEBEB"/>
<path d="M318.908 283.105H305.383L302.975 284.052L318.908 283.105Z" fill="#EBEBEB"/>
<path d="M334.447 279.909H345.301L347.719 280.846L334.447 279.909Z" fill="#C7C7C7"/>
<path d="M338.234 275.672H346.65L345.535 274.904L338.234 275.672Z" fill="#C7C7C7"/>
<path d="M354.176 298.935H344.738V334.653H354.176V298.935Z" fill="#EBEBEB"/>
<path d="M349.462 305.983C349.073 305.983 348.692 305.868 348.368 305.651C348.045 305.435 347.792 305.128 347.643 304.768C347.495 304.408 347.456 304.013 347.531 303.631C347.607 303.249 347.795 302.898 348.07 302.623C348.345 302.348 348.696 302.16 349.078 302.084C349.46 302.009 349.855 302.047 350.215 302.196C350.575 302.345 350.882 302.598 351.098 302.921C351.315 303.245 351.43 303.626 351.43 304.015C351.43 304.537 351.223 305.037 350.854 305.407C350.485 305.776 349.984 305.983 349.462 305.983Z" fill="white"/>
<path d="M349.462 305.139C349.239 305.139 349.022 305.074 348.837 304.95C348.652 304.826 348.508 304.651 348.423 304.445C348.338 304.24 348.315 304.014 348.359 303.795C348.402 303.577 348.509 303.377 348.667 303.219C348.824 303.062 349.024 302.955 349.242 302.912C349.461 302.868 349.687 302.891 349.892 302.976C350.098 303.061 350.273 303.205 350.397 303.39C350.521 303.575 350.587 303.792 350.587 304.015C350.587 304.313 350.468 304.599 350.257 304.81C350.046 305.021 349.76 305.139 349.462 305.139Z" fill="#A6A6A6"/>
<path d="M354.186 329.021V320.332H344.747V329.021H354.186Z" fill="white"/>
<path d="M333.201 327.287H297.482V334.71H333.201V327.287Z" fill="#C7C7C7"/>
<path d="M326.152 330.998C326.151 330.608 326.264 330.227 326.48 329.902C326.695 329.577 327.001 329.324 327.361 329.173C327.72 329.023 328.116 328.982 328.499 329.057C328.881 329.132 329.233 329.319 329.509 329.594C329.785 329.869 329.974 330.219 330.05 330.601C330.127 330.983 330.089 331.38 329.94 331.74C329.791 332.1 329.539 332.408 329.215 332.625C328.891 332.841 328.51 332.957 328.121 332.957C327.6 332.957 327.101 332.751 326.732 332.384C326.363 332.017 326.155 331.519 326.152 330.998Z" fill="white"/>
<path d="M326.996 330.998C326.996 330.776 327.062 330.558 327.186 330.373C327.309 330.188 327.485 330.044 327.69 329.959C327.896 329.874 328.122 329.852 328.34 329.895C328.558 329.938 328.759 330.046 328.916 330.203C329.073 330.36 329.18 330.561 329.224 330.779C329.267 330.997 329.245 331.223 329.16 331.429C329.075 331.634 328.931 331.81 328.746 331.933C328.561 332.057 328.343 332.123 328.121 332.123C327.822 332.123 327.536 332.004 327.326 331.793C327.115 331.583 326.996 331.296 326.996 330.998Z" fill="#A6A6A6"/>
<path d="M303.106 334.7H311.794V327.277H303.106V334.7Z" fill="white"/>
<path d="M398.864 320.407C389.876 332.591 380.513 346.697 378.245 361.955C378.245 362.19 378.592 362.265 378.639 362.03C379.677 357.881 381.005 353.81 382.612 349.846C388.526 348.215 394.319 346.884 397.421 341.017C400.589 334.991 400.186 327.137 399.586 320.567C399.52 320.192 399.042 320.173 398.864 320.407Z" fill="black"/>
<path d="M382.688 349.706C386.727 340.642 391.901 331.551 398.49 324.1C398.49 324.1 398.602 324.1 398.565 324.175C394.253 329.48 390.973 335.253 387.777 341.13C390.748 338.112 394.01 335.403 396.831 332.207C396.887 332.142 396.971 332.207 396.915 332.292C394.103 335.656 391.067 339.302 387.421 341.786C386.437 343.585 385.452 345.404 384.459 347.212C384.703 347.072 384.956 346.95 385.199 346.828L385.246 346.894C384.965 347.034 384.693 347.184 384.403 347.306L382.978 349.865C382.866 350.062 382.603 349.893 382.688 349.706Z" fill="#263238"/>
<path d="M385.687 346.538C388.104 345.189 390.411 343.65 392.585 341.936C392.641 341.889 392.735 341.936 392.669 342.02C390.562 343.839 388.254 345.411 385.79 346.706C385.768 346.712 385.746 346.711 385.725 346.702C385.704 346.694 385.687 346.68 385.675 346.661C385.664 346.642 385.659 346.619 385.661 346.597C385.663 346.575 385.672 346.554 385.687 346.538Z" fill="#263238"/>
<path d="M377.186 359.687C377.186 359.875 377.523 359.875 377.514 359.687C377.514 354.654 377.514 349.612 377.598 344.56C378.882 341.964 381.647 340.521 383.569 338.44C384.951 336.922 386.152 335.248 387.149 333.454C389.464 329.164 390.88 324.447 391.31 319.592C391.844 314.212 389.801 296.47 387.561 297.098C386.39 297.417 382.584 306.208 381.582 309.104C379.941 313.896 378.743 318.827 378.001 323.838C376.136 335.647 376.286 347.784 377.186 359.687Z" fill="black"/>
<path d="M377.13 338.009C377.401 331.645 378.835 325.225 380.176 319.058C381.619 312.413 383.306 306.161 386.736 300.238C386.749 300.215 386.77 300.199 386.794 300.192C386.819 300.185 386.845 300.188 386.868 300.2C386.89 300.213 386.906 300.233 386.913 300.258C386.92 300.283 386.917 300.309 386.905 300.331C384.628 304.942 382.865 309.788 381.647 314.784C381.872 314.428 382.153 314.09 382.387 313.743C382.481 313.612 382.706 313.743 382.612 313.875C382.308 314.413 381.95 314.918 381.544 315.384C381.537 315.387 381.529 315.389 381.521 315.389C381.512 315.389 381.504 315.387 381.497 315.384C380.326 320.135 379.473 324.99 378.751 329.836C378.809 329.778 378.862 329.715 378.91 329.649C378.91 329.649 379.013 329.649 378.985 329.705C378.957 329.761 378.798 330.033 378.704 330.192C378.339 332.648 378.001 335.103 377.654 337.54C382.041 333.791 385.78 329.386 387.889 323.95C387.889 323.95 387.936 323.95 387.889 323.95C385.827 329.574 382.566 334.597 377.579 338.009C377.486 338.665 377.392 339.321 377.308 339.977C377.308 340.108 377.064 340.071 377.064 339.977C377.064 339.405 377.064 338.824 377.12 338.243C377.101 338.229 377.086 338.211 377.076 338.191C377.066 338.17 377.061 338.147 377.062 338.123C377.063 338.1 377.069 338.078 377.081 338.058C377.093 338.038 377.11 338.021 377.13 338.009Z" fill="#263238"/>
<path d="M379.21 328.796C382.635 323.947 385.621 318.803 388.133 313.425C388.133 313.369 388.273 313.425 388.245 313.472C386.243 319.115 383.24 324.35 379.379 328.927C379.304 329.011 379.145 328.899 379.21 328.796Z" fill="#263238"/>
<path d="M383.69 312.197C385.078 309.741 386.502 307.351 387.842 304.858C387.842 304.783 387.974 304.858 387.946 304.915C386.878 307.525 385.523 310.008 383.906 312.319C383.784 312.478 383.578 312.338 383.69 312.197Z" fill="#263238"/>
<path d="M373.784 345.151C373.718 348.483 373.326 351.801 372.612 355.057C372.668 355.413 372.715 355.77 372.771 356.144C373.794 352.547 374.389 348.841 374.543 345.104C374.572 345.052 374.588 344.994 374.588 344.935C374.588 344.876 374.572 344.818 374.543 344.766C374.685 339.759 374.314 334.749 373.437 329.817C371.881 320.576 368.479 311.719 362.04 304.793C361.987 304.747 361.923 304.714 361.855 304.697C361.787 304.679 361.716 304.678 361.647 304.692C361.578 304.707 361.514 304.737 361.458 304.78C361.403 304.824 361.358 304.879 361.328 304.943C358.722 311.55 359.631 319.432 361.843 326.031C363.049 329.601 364.77 332.976 366.951 336.05C369.172 339.133 371.994 341.758 373.784 345.151Z" fill="black"/>
<path d="M362.809 307.867C368.91 317.774 373.118 329.527 373.681 341.223C373.681 341.43 373.343 341.486 373.315 341.28C373.165 340.221 373.006 339.18 372.837 338.14C370.182 335.796 367.852 333.107 365.911 330.145C365.911 330.098 365.958 330.033 365.995 330.08C368.092 332.65 370.339 335.094 372.725 337.399C372.284 334.813 371.787 332.273 371.159 329.761C370.991 329.573 370.831 329.377 370.672 329.189C370.513 329.002 370.747 328.889 370.85 329.011L371 329.17C370.14 325.733 369.076 322.35 367.813 319.039C366.258 317.164 364.514 315.58 363.39 313.35L363.465 313.303C364.402 314.578 365.255 315.862 366.276 317.052C366.689 317.52 367.148 317.989 367.57 318.42C366.163 314.831 364.493 311.351 362.574 308.007C362.565 307.977 362.566 307.945 362.577 307.916C362.588 307.886 362.609 307.861 362.636 307.845C362.663 307.829 362.695 307.822 362.726 307.826C362.757 307.83 362.786 307.844 362.809 307.867Z" fill="#263238"/>
<path d="M364.008 320.089C365.976 322.741 368.226 325.281 370.063 328.027C370.11 328.102 369.997 328.186 369.932 328.121C367.592 325.727 365.555 323.054 363.868 320.164C363.858 320.079 364.008 319.976 364.008 320.089Z" fill="#263238"/>
<path d="M370.372 328.636L370.457 328.721C370.513 328.777 370.457 328.871 370.372 328.814L370.288 328.73C370.222 328.674 370.316 328.58 370.372 328.636Z" fill="#263238"/>
<path d="M353.239 326.912C353.963 332.447 356.193 337.676 359.687 342.03C361.125 343.737 362.903 345.125 364.908 346.107C367.176 347.222 369.538 348.515 371.881 349.434C372.994 352.265 373.82 355.201 374.346 358.197C374.421 357.944 374.496 357.682 374.58 357.419C373.071 344.523 364.72 333.491 354.036 326.406C353.952 326.354 353.855 326.327 353.757 326.328C353.659 326.328 353.562 326.357 353.479 326.41C353.396 326.462 353.33 326.537 353.287 326.626C353.245 326.715 353.228 326.814 353.239 326.912Z" fill="black"/>
<path d="M356.932 330.726C356.857 330.661 356.932 330.53 357.045 330.586C362.914 334.95 367.594 340.719 370.653 347.363C370.728 347.541 370.494 347.691 370.391 347.512C369.894 346.65 369.388 345.797 368.873 344.973C366.436 344.513 364.13 342.798 362.312 341.167C362.265 341.12 362.312 341.055 362.387 341.092C363.32 341.941 364.356 342.668 365.47 343.257C366.464 343.763 367.542 344.082 368.573 344.485C367.635 343.051 366.698 341.673 365.761 340.343C363.128 339.341 360.658 337.954 358.432 336.228C358.366 336.172 358.432 336.059 358.507 336.106C360.712 337.435 362.983 338.652 365.311 339.752C363.825 337.781 362.219 335.903 360.503 334.129C359.678 333.697 358.835 333.257 358.038 332.788C357.972 332.788 358.038 332.638 358.038 332.667C358.698 332.902 359.328 333.217 359.912 333.604C358.994 332.629 358 331.664 356.932 330.726Z" fill="#263238"/>
<path d="M357.166 335.188C357.307 335.276 357.441 335.373 357.569 335.478C357.616 335.478 357.569 335.563 357.522 335.544C357.371 335.477 357.226 335.396 357.091 335.3C357.016 335.253 357.091 335.131 357.166 335.188Z" fill="#263238"/>
<path d="M391.245 386.146H361.974L364.336 359.49L364.861 353.614H388.367L388.883 359.49L391.245 386.146Z" fill="#455A64"/>
<path d="M388.883 359.49H364.336L364.861 353.614H388.367L388.883 359.49Z" fill="#263238"/>
<path d="M389.764 349.499H363.455V355.32H389.764V349.499Z" fill="#455A64"/>
<path d="M124.41 284.679C120.258 287.135 116.069 289.516 111.87 291.877C107.671 294.239 103.435 296.564 99.2265 298.879C95.0183 301.194 90.7913 303.471 86.4893 305.721L80.0879 309.076C77.9416 310.163 75.8047 311.288 73.6396 312.356C75.711 311.119 77.8104 309.929 79.8911 308.71L86.18 305.149C90.3789 302.787 94.6152 300.463 98.8235 298.148C103.032 295.833 107.259 293.565 111.561 291.315C115.863 289.066 120.099 286.835 124.41 284.679Z" fill="#DBDBDB"/>
<path d="M77.2104 284.679C81.2219 286.554 85.1958 288.578 89.151 290.584C93.1062 292.59 97.0426 294.661 100.998 296.695C104.953 298.729 108.843 300.847 112.741 302.974L118.59 306.171C120.521 307.267 122.47 308.336 124.391 309.451C122.376 308.514 120.399 307.511 118.393 306.536L112.442 303.546C108.486 301.541 104.55 299.469 100.604 297.435C96.6583 295.402 92.7594 293.283 88.8604 291.156C84.9615 289.028 81.0813 286.891 77.2104 284.679Z" fill="#DBDBDB"/>
<path d="M172.322 284.679C168.18 287.135 163.99 289.516 159.791 291.877C155.592 294.239 151.356 296.564 147.138 298.879C142.921 301.194 138.703 303.471 134.401 305.721L128 309.076C125.854 310.163 123.717 311.288 121.561 312.356C123.632 311.119 125.722 309.929 127.803 308.71L134.092 305.149C138.291 302.787 142.527 300.463 146.745 298.148C150.962 295.833 155.18 293.565 159.482 291.315C163.784 289.066 168.011 286.835 172.322 284.679Z" fill="#DBDBDB"/>
<path d="M125.141 284.679C129.153 286.554 133.126 288.578 137.091 290.584C141.056 292.59 144.983 294.661 148.928 296.695C152.874 298.729 156.783 300.847 160.682 302.974L166.521 306.171C168.461 307.267 170.401 308.336 172.322 309.451C170.316 308.514 168.329 307.511 166.333 306.536L160.382 303.546C156.417 301.541 152.49 299.469 148.544 297.435C144.598 295.402 140.69 293.283 136.791 291.156C132.892 289.028 128.993 286.891 125.141 284.679Z" fill="#DBDBDB"/>
<path d="M163.568 278.044L166.099 293.274L183.297 386.146H186.072L173.569 293.274L171.722 278.044H163.568Z" fill="#DBDBDB"/>
<path d="M171.722 278.044H163.568L166.099 293.274H173.569L171.722 278.044Z" fill="#C7C7C7"/>
<path d="M109.555 386.146H112.329L129.527 293.274L132.067 278.044H123.913L122.067 293.274L109.555 386.146Z" fill="#DBDBDB"/>
<path d="M123.914 278.044L122.067 293.274H129.528L132.068 278.044H123.914Z" fill="#C7C7C7"/>
<path d="M57.9688 386.146H60.743L77.9415 293.274L80.4814 278.044H72.3274L70.481 293.274L57.9688 386.146Z" fill="#DBDBDB"/>
<path d="M70.481 293.274H77.9414L80.4814 278.044H72.3273L70.481 293.274Z" fill="#C7C7C7"/>
<path d="M62.3643 285.195H188.386V271.924H141.215L125.357 169.857H67.1723L62.3643 285.195Z" fill="#DBDBDB"/>
<path d="M62.3643 285.195H69.2343L73.7143 169.857H67.1723L62.3643 285.195Z" fill="#C7C7C7"/>
<path d="M47.7715 328.224H25.2588V332.179H47.7715V328.224Z" fill="#455A64"/>
<path d="M59.9838 386.146H57.547L37.7242 293.583L36.5901 288.307L33.0286 271.689L31.7071 265.494L26.7115 242.241L24.9683 234.096H33.6284L35.0437 242.241L35.9715 247.583L36.5901 251.145L40.1423 271.689L41.2951 278.297L59.9838 386.146Z" fill="#455A64"/>
<path d="M33.6284 234.096L35.0437 242.241H26.7115L24.9683 234.096H33.6284Z" fill="#263238"/>
<path d="M41.2951 278.297L37.7242 293.583L36.5901 288.306L33.0286 271.689L31.707 265.494L35.9715 247.583L36.5901 251.145L40.1423 271.689L41.2951 278.297Z" fill="#263238"/>
<path d="M48.2025 234.096L46.4592 242.241L40.1421 271.689L36.59 288.307L15.6238 386.146H13.1963L33.0284 271.689L36.59 251.145L38.1271 242.241L39.5423 234.096H48.2025Z" fill="#455A64"/>
<path d="M48.2024 234.096L46.4591 242.241H38.127L39.5422 234.096H48.2024Z" fill="#263238"/>
<path d="M249.758 328.224H227.245V332.179H249.758V328.224Z" fill="#455A64"/>
<path d="M261.97 386.146H259.533L239.71 293.583L238.576 288.307L235.014 271.689L233.693 265.494L228.697 242.241L226.954 234.096H235.614L237.03 242.241L237.957 247.583L238.576 251.145L242.128 271.689L243.281 278.297L261.97 386.146Z" fill="#455A64"/>
<path d="M235.614 234.096L237.03 242.241H228.697L226.954 234.096H235.614Z" fill="#263238"/>
<path d="M243.281 278.297L239.71 293.583L238.576 288.306L235.015 271.689L233.693 265.494L237.958 247.583L238.576 251.145L242.129 271.689L243.281 278.297Z" fill="#263238"/>
<path d="M250.189 234.096L248.446 242.241L242.128 271.689L238.576 288.307L217.61 386.146H215.183L235.015 271.689L238.576 251.145L240.113 242.241L241.529 234.096H250.189Z" fill="#455A64"/>
<path d="M250.189 234.096L248.445 242.241H240.113L241.529 234.096H250.189Z" fill="#263238"/>
<path d="M267.059 228.145H8.10742V234.096H267.059V228.145Z" fill="#455A64"/>
<path d="M275.166 216.776H0V228.145H275.166V216.776Z" fill="#37474F"/>
<path d="M22.2504 216.214H62.627L62.627 177.421H22.2504L22.2504 216.214Z" fill="#EBEBEB"/>
<path d="M6.90776 216.214H22.2505L22.2505 177.421H6.90776L6.90776 216.214Z" fill="#C7C7C7"/>
<path d="M62.6271 196.812H22.2505L53.7795 197.815L62.6271 196.812Z" fill="#C7C7C7"/>
<path d="M22.2505 211.527H62.6271L31.0981 212.53L22.2505 211.527Z" fill="#C7C7C7"/>
<path d="M62.6273 185.969H37.0498L59.7874 186.784L62.6273 185.969Z" fill="#C7C7C7"/>
<path d="M22.2505 205.82H47.828L25.0903 206.635L22.2505 205.82Z" fill="#C7C7C7"/>
<path d="M52.9451 181.657H24.0967L28.9048 182.145L52.9451 181.657Z" fill="#C7C7C7"/>
<path d="M58.6999 200.974H29.8608L34.6689 201.461L58.6999 200.974Z" fill="#C7C7C7"/>
<path d="M40.9675 189.671H22.2507L18.9141 190.974L40.9675 189.671Z" fill="#EBEBEB"/>
<path d="M67.7819 189.671H49.0651L45.7285 190.974L67.7819 189.671Z" fill="#DBDBDB"/>
<path d="M43.7695 207.104H62.477L65.823 208.406L43.7695 207.104Z" fill="#DBDBDB"/>
<path d="M22.2504 202.68H7.22635L3.88037 203.983L22.2504 202.68Z" fill="#C7C7C7"/>
<path d="M17.0114 196.813H5.35205L6.90788 195.754L17.0114 196.813Z" fill="#C7C7C7"/>
<path d="M393.925 19.8884H187.871V293.574H393.925V19.8884Z" fill="black"/>
<g opacity="0.1">
<path d="M393.925 19.8884H187.871V293.574H393.925V19.8884Z" fill="#020100"/>
</g>
<path d="M388.32 19.8884H182.267V293.574H388.32V19.8884Z" fill="black"/>
<path d="M376.603 30.8128L194.717 33.1303L197.858 279.691L379.744 277.373L376.603 30.8128Z" fill="#EBEBEB"/>
<path d="M196.193 30.0453L190.857 276.568L372.715 280.504L378.051 33.9817L196.193 30.0453Z" fill="#DBDBDB"/>
<path d="M375.386 31.9694H193.485V278.55H375.386V31.9694Z" fill="white"/>
<path d="M233.872 106.677C229.017 106.799 219.597 106.987 214.742 107.043C214.639 101.419 214.667 93.556 214.621 87.895V87.4264H215.089C220.778 87.4826 228.623 87.4264 234.237 87.5389C234.172 92.4032 234.003 101.822 233.872 106.677ZM233.872 106.677C233.75 101.991 233.581 92.6187 233.516 87.9325L233.872 88.2887C228.445 88.3543 220.6 88.373 215.127 88.4011L215.595 87.9325C215.595 93.4716 215.548 101.251 215.483 106.677L215.127 106.321C219.813 106.378 229.232 106.565 233.872 106.677Z" fill="#C7C7C7"/>
<path d="M243.853 91.1098C257.621 90.4724 271.502 90.4724 285.27 91.1098C271.492 91.7565 257.621 91.7471 243.853 91.1098Z" fill="#C7C7C7"/>
<path d="M243.853 95.6367C279.168 95.0087 318.43 95.0275 353.773 95.6367C318.42 96.2365 279.178 96.2553 243.853 95.6367Z" fill="#C7C7C7"/>
<path d="M216.476 96.3115C217.17 96.8926 217.826 97.4924 218.482 98.1016C219.138 98.7109 219.766 99.3388 220.356 99.9761C221.622 101.223 222.84 102.507 224.04 103.809L221.893 103.95C223.598 100.38 225.552 96.9349 227.742 93.6403C228.829 92.0033 229.985 90.4037 231.21 88.8416C232.445 87.2635 233.786 85.7699 235.221 84.371C234.647 86.2902 233.946 88.1689 233.122 89.9945C232.325 91.8033 231.444 93.5747 230.497 95.2993C228.608 98.7581 226.485 102.084 224.143 105.253L222.962 106.827L222.025 105.393C221.031 103.922 220.056 102.441 219.119 100.932C218.669 100.164 218.182 99.4138 217.751 98.6359C217.32 97.858 216.86 97.1175 216.476 96.3115Z" fill="#263238"/>
<path d="M233.872 141.899C229.017 142.021 219.597 142.208 214.742 142.265C214.639 136.641 214.667 128.787 214.621 123.117V122.648H215.089C220.778 122.704 228.623 122.648 234.237 122.77C234.172 127.634 234.003 137.044 233.872 141.899ZM233.872 141.899C233.75 137.213 233.581 127.84 233.516 123.154L233.872 123.52C228.445 123.585 220.6 123.595 215.127 123.623L215.595 123.154C215.595 128.693 215.548 136.482 215.483 141.899L215.127 141.543C219.813 141.599 229.232 141.787 233.872 141.899Z" fill="#C7C7C7"/>
<path d="M243.853 126.303C257.621 125.666 271.502 125.657 285.27 126.303C271.492 126.941 257.621 126.941 243.853 126.303Z" fill="#C7C7C7"/>
<path d="M243.853 130.821C279.168 130.202 318.43 130.212 353.773 130.821C318.42 131.43 279.178 131.449 243.853 130.821Z" fill="#C7C7C7"/>
<path d="M216.476 131.496C217.17 132.077 217.826 132.677 218.482 133.286C219.138 133.895 219.766 134.523 220.356 135.16C221.622 136.416 222.84 137.7 224.04 139.003L221.893 139.134C223.602 135.584 225.556 132.158 227.742 128.881C228.829 127.244 229.985 125.644 231.21 124.082C232.443 122.502 233.783 121.008 235.221 119.611C234.648 121.531 233.946 123.409 233.122 125.235C232.325 127.053 231.444 128.815 230.497 130.549C228.608 134.005 226.485 137.327 224.143 140.493L222.962 142.077L222.025 140.634C221.031 139.172 220.056 137.691 219.119 136.173C218.669 135.404 218.182 134.654 217.751 133.876C217.32 133.098 216.86 132.302 216.476 131.496Z" fill="#263238"/>
<path d="M233.872 177.055C229.017 177.177 219.597 177.365 214.742 177.421C214.639 171.797 214.667 163.934 214.621 158.273V157.832H215.089C220.778 157.889 228.623 157.832 234.237 157.945C234.172 162.809 234.003 172.219 233.872 177.083V177.055ZM233.872 177.055C233.75 172.369 233.581 162.997 233.516 158.31L233.872 158.667C228.445 158.732 220.6 158.751 215.127 158.779L215.595 158.31C215.595 163.85 215.548 171.629 215.483 177.055L215.127 176.699C219.813 176.755 229.232 176.943 233.872 177.055Z" fill="#C7C7C7"/>
<path d="M243.853 161.488C257.621 160.85 271.502 160.85 285.27 161.488C271.492 162.125 257.621 162.125 243.853 161.488Z" fill="#C7C7C7"/>
<path d="M243.853 166.015C279.168 165.387 318.43 165.405 353.773 166.015C318.42 166.614 279.178 166.633 243.853 166.015Z" fill="#C7C7C7"/>
<path d="M233.872 212.24C229.017 212.361 219.597 212.549 214.742 212.605C214.639 206.982 214.667 199.127 214.621 193.457V192.989H215.089C220.778 193.045 228.623 192.989 234.237 193.11C234.172 197.965 234.003 207.385 233.872 212.24ZM233.872 212.24C233.75 207.553 233.581 198.181 233.516 193.495L233.872 193.86C228.445 193.926 220.6 193.935 215.127 193.963L215.595 193.495C215.595 199.034 215.548 206.822 215.483 212.24L215.127 211.883C219.813 211.94 229.232 212.127 233.872 212.24Z" fill="#C7C7C7"/>
<path d="M243.853 196.681C257.621 196.035 271.502 196.035 285.27 196.681C271.492 197.319 257.621 197.319 243.853 196.681Z" fill="#C7C7C7"/>
<path d="M243.853 201.199C279.168 200.58 318.43 200.59 353.773 201.199C318.42 201.808 279.178 201.827 243.853 201.199Z" fill="#C7C7C7"/>
<path d="M233.872 247.433C229.017 247.555 219.597 247.733 214.742 247.799C214.639 242.175 214.667 234.312 214.621 228.651V228.182H215.089C220.778 228.238 228.623 228.182 234.237 228.295C234.172 233.159 234.003 242.569 233.872 247.433ZM233.872 247.433C233.75 242.747 233.581 233.328 233.516 228.688L233.872 229.044C228.445 229.11 220.6 229.129 215.127 229.157L215.595 228.688C215.595 234.227 215.548 242.007 215.483 247.433L215.127 247.077C219.813 247.133 229.232 247.321 233.872 247.433Z" fill="#C7C7C7"/>
<path d="M243.853 231.875C257.621 231.238 271.502 231.238 285.27 231.875C271.492 232.512 257.621 232.512 243.853 231.875Z" fill="#C7C7C7"/>
<path d="M243.853 236.392C279.168 235.765 318.43 235.783 353.773 236.392C318.42 236.992 279.178 237.011 243.853 236.392Z" fill="#C7C7C7"/>
<path d="M267.331 58.1843H264.81V66.6195C264.81 66.8507 264.718 67.0724 264.555 67.2358C264.391 67.3993 264.169 67.4911 263.938 67.4911C263.707 67.4911 263.485 67.3993 263.322 67.2358C263.158 67.0724 263.067 66.8507 263.067 66.6195V58.1843H260.555C260.323 58.1818 260.101 58.0879 259.938 57.923C259.775 57.758 259.683 57.5353 259.683 57.3033C259.682 57.1885 259.704 57.0746 259.747 56.9682C259.79 56.8619 259.854 56.7653 259.936 56.6841C260.017 56.6029 260.113 56.5388 260.22 56.4954C260.326 56.4521 260.44 56.4304 260.555 56.4316H267.331C267.446 56.4304 267.56 56.4521 267.666 56.4954C267.772 56.5388 267.869 56.6029 267.95 56.6841C268.031 56.7653 268.096 56.8619 268.139 56.9682C268.182 57.0746 268.204 57.1885 268.203 57.3033C268.19 57.5311 268.094 57.7462 267.933 57.9084C267.773 58.0706 267.559 58.1687 267.331 58.1843Z" fill="black"/>
<path d="M274.97 64.9137H271.118L270.34 66.9757C270.274 67.1401 270.16 67.2808 270.013 67.3794C269.866 67.4781 269.692 67.5301 269.515 67.5287C269.413 67.5283 269.312 67.5125 269.215 67.4818C269.001 67.3902 268.829 67.2225 268.732 67.0112C268.635 66.7999 268.62 66.5601 268.69 66.3383L272.196 56.9659C272.269 56.8029 272.387 56.6642 272.537 56.5662C272.686 56.4683 272.861 56.4151 273.039 56.4129C273.218 56.4151 273.392 56.4683 273.542 56.5662C273.691 56.6642 273.809 56.8029 273.883 56.9659L277.388 66.3383C277.458 66.5601 277.443 66.7999 277.346 67.0112C277.249 67.2225 277.077 67.3902 276.863 67.4818C276.766 67.5125 276.665 67.5283 276.563 67.5287C276.387 67.5308 276.215 67.479 276.069 67.3801C275.923 67.2812 275.811 67.1401 275.748 66.9757L274.97 64.9137ZM274.323 63.1705L273.039 59.7589L271.755 63.1705H274.323Z" fill="black"/>
<path d="M278.934 64.7731C279.003 64.6894 279.088 64.62 279.183 64.569C279.279 64.5179 279.384 64.4863 279.492 64.4759C279.6 64.4654 279.709 64.4764 279.813 64.5081C279.916 64.5398 280.013 64.5916 280.096 64.6607C280.946 65.3851 282.009 65.8128 283.124 65.8791C283.832 65.8956 284.527 65.6891 285.111 65.2886C285.306 65.168 285.47 65.0019 285.587 64.8044C285.705 64.607 285.773 64.384 285.785 64.1546C285.79 63.9727 285.741 63.7936 285.645 63.6391C285.522 63.4492 285.359 63.2892 285.167 63.1704C284.496 62.7935 283.762 62.5395 283.002 62.4206C282.297 62.3036 281.61 62.0957 280.959 61.8021C280.358 61.5381 279.844 61.1091 279.478 60.5649C279.239 60.1727 279.116 59.7212 279.122 59.2621C279.137 58.8043 279.26 58.3564 279.479 57.9544C279.699 57.5524 280.01 57.2074 280.387 56.9471C281.194 56.3921 282.154 56.1007 283.133 56.113C284.387 56.1768 285.592 56.6178 286.592 57.3783C286.768 57.4998 286.89 57.6859 286.93 57.8964C286.97 58.1069 286.926 58.3248 286.807 58.503C286.751 58.5946 286.677 58.6739 286.589 58.7361C286.501 58.7983 286.402 58.8421 286.297 58.8649C286.192 58.8877 286.083 58.8889 285.977 58.8686C285.872 58.8483 285.772 58.8068 285.682 58.7466C284.958 58.1525 284.068 57.7958 283.133 57.725C282.497 57.7159 281.875 57.906 281.352 58.2686C281.179 58.3732 281.034 58.5182 280.93 58.6913C280.825 58.8644 280.764 59.0603 280.752 59.2621C280.741 59.4202 280.781 59.5777 280.865 59.712C280.976 59.8765 281.12 60.0168 281.287 60.1244C281.899 60.4786 282.574 60.7139 283.274 60.818C284.029 60.9497 284.766 61.1731 285.467 61.4834C286.108 61.7671 286.657 62.225 287.051 62.8049C287.301 63.2108 287.434 63.6779 287.435 64.1546C287.419 64.6434 287.287 65.1213 287.049 65.5485C286.811 65.9757 286.474 66.3397 286.067 66.6101C285.213 67.226 284.186 67.5543 283.133 67.5474C281.643 67.4805 280.216 66.9237 279.075 65.9634C278.987 65.8948 278.914 65.8095 278.859 65.7124C278.804 65.6153 278.769 65.5083 278.756 65.3976C278.743 65.2869 278.752 65.1748 278.783 65.0676C278.813 64.9604 278.865 64.8603 278.934 64.7731Z" fill="black"/>
<path d="M289.863 66.657V57.3783C289.863 57.1471 289.955 56.9254 290.118 56.762C290.282 56.5985 290.503 56.5067 290.734 56.5067C290.966 56.5067 291.187 56.5985 291.351 56.762C291.514 56.9254 291.606 57.1471 291.606 57.3783V61.9333L296.742 56.7785C296.823 56.6957 296.919 56.6299 297.025 56.585C297.131 56.5401 297.245 56.5169 297.361 56.5169C297.476 56.5169 297.59 56.5401 297.697 56.585C297.803 56.6299 297.899 56.6957 297.979 56.7785C298.142 56.9433 298.233 57.1655 298.233 57.397C298.233 57.6286 298.142 57.8508 297.979 58.0156L294.493 61.4834L298.017 66.1041C298.091 66.1914 298.147 66.2929 298.181 66.4025C298.215 66.5121 298.226 66.6275 298.213 66.7415C298.201 66.8556 298.166 66.9659 298.109 67.0658C298.053 67.1657 297.977 67.253 297.886 67.3225C297.734 67.4578 297.536 67.5314 297.333 67.5287C297.208 67.526 297.086 67.4961 296.974 67.441C296.862 67.386 296.764 67.3071 296.686 67.21L293.256 62.7206L291.606 64.4076V66.657C291.606 66.8882 291.514 67.1099 291.351 67.2734C291.187 67.4368 290.966 67.5287 290.734 67.5287C290.503 67.5287 290.282 67.4368 290.118 67.2734C289.955 67.1099 289.863 66.8882 289.863 66.657Z" fill="black"/>
<path d="M300.697 64.7731C300.764 64.6886 300.848 64.6184 300.943 64.5668C301.038 64.5151 301.142 64.4831 301.25 64.4726C301.357 64.4622 301.466 64.4734 301.569 64.5057C301.672 64.538 301.768 64.5907 301.85 64.6607C302.701 65.3839 303.763 65.8115 304.877 65.8791C305.585 65.8956 306.28 65.6891 306.864 65.2886C307.062 65.1697 307.228 65.0042 307.347 64.8066C307.467 64.6089 307.536 64.3851 307.549 64.1546C307.553 63.9713 307.501 63.7911 307.399 63.6391C307.277 63.4514 307.118 63.2916 306.93 63.1704C306.256 62.792 305.519 62.5381 304.756 62.4206C304.051 62.3036 303.364 62.0957 302.712 61.8021C302.113 61.5402 301.602 61.1105 301.241 60.5649C300.995 60.1754 300.868 59.7227 300.875 59.2621C300.891 58.8043 301.013 58.3564 301.233 57.9544C301.453 57.5524 301.764 57.2074 302.141 56.9471C302.948 56.3921 303.907 56.1007 304.887 56.113C306.141 56.175 307.347 56.6162 308.345 57.3783C308.527 57.5025 308.651 57.6938 308.692 57.91C308.732 58.1262 308.685 58.3496 308.561 58.5311C308.436 58.7125 308.245 58.8372 308.029 58.8776C307.813 58.918 307.589 58.8709 307.408 58.7466C306.683 58.1525 305.793 57.7958 304.859 57.725C304.223 57.7159 303.6 57.906 303.078 58.2686C302.906 58.375 302.763 58.5204 302.658 58.6932C302.554 58.8659 302.492 59.0609 302.478 59.2621C302.472 59.4198 302.511 59.5759 302.59 59.712C302.706 59.8765 302.852 60.0166 303.022 60.1244C303.631 60.4787 304.302 60.714 304.999 60.818C305.751 60.951 306.485 61.1744 307.183 61.4834C307.824 61.7671 308.373 62.225 308.767 62.8049C309.021 63.2089 309.154 63.6772 309.151 64.1546C309.136 64.6434 309.003 65.1213 308.765 65.5485C308.527 65.9757 308.19 66.3397 307.783 66.6101C306.93 67.2272 305.902 67.5556 304.849 67.5474C303.36 67.4764 301.935 66.9201 300.791 65.9634C300.705 65.8922 300.635 65.8046 300.584 65.7058C300.533 65.607 300.502 65.499 300.493 65.388C300.485 65.2771 300.498 65.1656 300.533 65.06C300.568 64.9544 300.624 64.8569 300.697 64.7731Z" fill="black"/>
<path d="M327.99 14.8929H238.642V42.1293H327.99V14.8929Z" fill="#C7C7C7"/>
<path d="M310.632 0H255.185L252.729 14.8929H313.912L310.632 0ZM283.311 10.6846C282.664 10.6846 282.032 10.4928 281.494 10.1334C280.956 9.77393 280.537 9.26307 280.289 8.66538C280.042 8.06768 279.977 7.41 280.103 6.77549C280.229 6.14098 280.541 5.55814 280.998 5.10069C281.456 4.64323 282.039 4.3317 282.673 4.20548C283.308 4.07927 283.965 4.14405 284.563 4.39162C285.161 4.6392 285.672 5.05845 286.031 5.59636C286.391 6.13427 286.582 6.76668 286.582 7.41362C286.584 7.84352 286.5 8.26943 286.336 8.66684C286.172 9.06426 285.931 9.42534 285.627 9.72932C285.323 10.0333 284.962 10.2742 284.565 10.4381C284.167 10.6021 283.741 10.6859 283.311 10.6846Z" fill="#C7C7C7"/>
<path d="M313.912 14.8928H252.729L253.282 11.5656H313.172L313.912 14.8928Z" fill="#A6A6A6"/>
<path d="M0 386.146C128.122 385.574 271.858 385.565 399.98 386.146C271.858 386.727 128.122 386.718 0 386.146Z" fill="#263238"/>
<path d="M190.317 386.136C188.03 386.886 122.667 386.052 120.202 384.431C119.265 383.84 118.824 374.308 118.627 362.78V362.415C118.58 360.043 118.552 357.588 118.543 355.113C118.543 354.767 118.543 354.429 118.543 354.092L121.701 320.182L165.424 320.604L161.122 354.195L161.066 355.526L160.803 362.48V363.192C160.803 363.192 185.678 374.702 188.199 376.764C190.72 378.826 192.614 385.415 190.317 386.136Z" fill="#AD6359"/>
<path d="M190.317 386.136C188.03 386.886 122.667 386.052 120.202 384.431C119.265 383.84 118.824 374.308 118.627 362.78V362.415C118.58 360.043 118.552 357.588 118.543 355.114C118.543 354.767 118.543 354.429 118.543 354.092L161.122 354.195L161.066 355.526L160.803 362.48V363.193C160.803 363.193 185.678 374.702 188.199 376.764C190.72 378.826 192.614 385.415 190.317 386.136Z" fill="#EBEBEB"/>
<path d="M190.327 386.136C189.146 386.521 171.394 386.483 154.036 386.136C150.54 386.061 147.073 385.986 143.727 385.893C131.346 385.555 121.12 385.049 120.174 384.431C119.227 383.812 118.796 374.571 118.608 363.258C118.608 363.099 118.608 362.939 118.608 362.78C118.608 362.621 118.608 362.527 118.608 362.405H118.655L160.775 362.48V363.192C160.775 363.192 185.659 374.702 188.18 376.754C190.701 378.807 192.613 385.405 190.327 386.136Z" fill="black"/>
<path d="M189.614 383.596C178.602 383.184 134.139 382.565 123.22 382.997C123.126 382.997 123.126 383.062 123.22 383.072C134.129 383.718 178.592 384.009 189.614 383.774C189.849 383.774 189.849 383.606 189.614 383.596Z" fill="#263238"/>
<path d="M165.49 362.658C161.169 361.796 155.855 362.396 152.499 365.47C152.368 365.592 152.499 365.77 152.687 365.732C156.844 364.448 161.127 363.613 165.461 363.239C165.538 363.243 165.614 363.216 165.671 363.164C165.728 363.112 165.762 363.04 165.766 362.963C165.77 362.886 165.743 362.81 165.691 362.753C165.639 362.696 165.567 362.662 165.49 362.658Z" fill="#263238"/>
<path d="M168.592 364.589C164.271 363.727 158.957 364.317 155.611 367.401C155.48 367.523 155.611 367.71 155.789 367.663C159.949 366.378 164.235 365.542 168.573 365.17C168.65 365.173 168.725 365.144 168.781 365.092C168.837 365.039 168.87 364.966 168.873 364.889C168.875 364.812 168.847 364.737 168.794 364.681C168.742 364.624 168.669 364.591 168.592 364.589Z" fill="#263238"/>
<path d="M171.704 366.51C167.374 365.648 162.069 366.248 158.713 369.322C158.582 369.444 158.713 369.622 158.891 369.585C163.051 368.296 167.337 367.46 171.676 367.092C171.753 367.095 171.828 367.068 171.885 367.016C171.942 366.965 171.976 366.892 171.98 366.815C171.984 366.738 171.957 366.663 171.905 366.606C171.853 366.548 171.781 366.514 171.704 366.51Z" fill="#263238"/>
<path d="M154.065 386.136C150.569 386.061 147.101 385.986 143.755 385.893C131.374 385.555 121.149 385.049 120.202 384.431C119.255 383.812 118.824 374.571 118.637 363.258C118.637 363.099 118.637 362.939 118.637 362.78C118.637 362.621 118.637 362.527 118.637 362.405H118.684C124.448 366.454 144.786 379.96 154.065 386.136Z" fill="#263238"/>
<path d="M163.315 362.63H116.246C116.246 362.63 125.694 252.682 125.328 250.76C124.86 248.305 122.076 237.18 118.374 222.643C117.212 218.088 115.956 213.214 114.625 208.153C111.11 194.479 107.24 179.53 103.865 166.521C98.7949 147.035 94.8491 136.997 94.8491 136.997H134.738C134.738 136.997 167.542 230.891 168.845 250.292C169.998 267.219 163.315 362.63 163.315 362.63Z" fill="#263238"/>
<path d="M161.225 354.598C154.036 354.448 156.108 354.392 148.919 354.317C145.395 354.317 122.273 354.092 118.983 354.636C118.918 354.636 118.918 354.767 118.983 354.786C122.273 355.329 145.395 355.123 148.919 355.085C156.108 355.01 154.036 354.954 161.225 354.804C161.252 354.804 161.279 354.793 161.298 354.774C161.317 354.755 161.328 354.728 161.328 354.701C161.328 354.674 161.317 354.648 161.298 354.628C161.279 354.609 161.252 354.598 161.225 354.598Z" fill="#37474F"/>
<path d="M134.186 244.059C132.639 237.255 130.334 230.591 128.318 223.908C124.238 210.337 120.13 196.775 115.994 183.222C113.932 176.446 104.362 151.084 103.416 147.71C103.032 146.342 102.825 147.092 103.322 148.835C104.316 152.349 120.661 202.623 124.804 216.401C126.878 223.312 128.956 230.216 131.036 237.114C132.087 240.4 132.938 243.745 133.586 247.133C134.14 250.679 134.279 254.277 133.998 257.855C133.548 265.053 132.714 272.252 132.058 279.412L130.062 300.969C128.737 315.302 127.425 329.633 126.125 343.96C125.966 345.779 125.807 347.587 125.666 349.406C125.666 350.015 126.538 349.968 126.603 349.406C128.15 335.234 129.34 321.016 130.662 306.827C131.983 292.637 133.305 278.587 134.617 264.463C134.954 260.92 135.329 257.368 135.329 253.806C135.311 250.525 134.928 247.256 134.186 244.059Z" fill="#37474F"/>
<path d="M130.249 136.997C127.437 158.423 122.217 193.504 118.374 222.652C109.367 187.337 94.8867 137.007 94.8867 137.007L130.249 136.997Z" fill="#37474F"/>
<path d="M141.646 386.783C139.35 387.533 73.9863 386.933 71.5213 385.33C70.5841 384.74 70.0967 375.208 69.8624 363.68V363.314C69.8062 360.943 69.7687 358.497 69.7499 356.013C69.7499 355.676 69.7499 355.329 69.7499 354.992C69.5906 338.346 70.7903 321.082 70.7903 321.082L113.51 321.354L112.32 354.945V356.276L112.076 363.23V363.942C112.076 363.942 136.988 375.367 139.528 377.411C142.068 379.454 143.933 386.043 141.646 386.783Z" fill="#AD6359"/>
<path d="M141.646 386.783C139.35 387.533 73.9864 386.933 71.5214 385.33C70.5841 384.74 70.0968 375.208 69.8625 363.68V363.314C69.8062 360.943 69.7687 358.497 69.75 356.013C69.75 355.676 69.75 355.329 69.75 354.992L112.32 354.945V356.276L112.076 363.23V363.942C112.076 363.942 136.988 375.367 139.528 377.411C142.068 379.454 143.933 386.043 141.646 386.783Z" fill="#EBEBEB"/>
<path d="M141.646 386.783C139.35 387.533 73.9862 386.933 71.5212 385.33C70.584 384.74 70.0966 375.208 69.8623 363.68V363.314L112.038 363.23V363.942C112.038 363.942 136.95 375.367 139.49 377.411C142.03 379.454 143.933 386.043 141.646 386.783Z" fill="black"/>
<path d="M140.943 384.243C129.93 383.868 85.4672 383.418 74.5483 383.887C74.4546 383.887 74.4546 383.953 74.5483 383.953C85.4579 384.562 129.921 384.655 140.943 384.421C141.158 384.412 141.158 384.252 140.943 384.243Z" fill="#263238"/>
<path d="M116.724 363.389C112.394 362.546 107.09 363.164 103.744 366.201C103.622 366.323 103.79 366.501 103.931 366.464C108.085 365.158 112.368 364.306 116.706 363.924C116.763 363.907 116.813 363.873 116.85 363.826C116.886 363.78 116.907 363.723 116.909 363.663C116.911 363.604 116.894 363.546 116.861 363.496C116.828 363.447 116.78 363.41 116.724 363.389Z" fill="#263238"/>
<path d="M119.836 365.311C115.506 364.458 110.201 365.076 106.855 368.122C106.734 368.244 106.902 368.422 107.043 368.385C111.2 367.104 115.483 366.272 119.818 365.901C119.896 365.904 119.972 365.875 120.029 365.821C120.086 365.768 120.12 365.694 120.122 365.615C120.125 365.537 120.096 365.461 120.042 365.404C119.989 365.347 119.915 365.313 119.836 365.311Z" fill="#263238"/>
<path d="M122.948 367.223C118.618 366.37 113.313 366.988 109.977 370.034C109.845 370.147 109.977 370.334 110.155 370.287C114.311 368.998 118.594 368.156 122.929 367.776C122.966 367.777 123.002 367.771 123.036 367.758C123.07 367.745 123.101 367.726 123.128 367.701C123.154 367.677 123.176 367.647 123.191 367.614C123.206 367.581 123.214 367.545 123.215 367.509C123.216 367.472 123.21 367.436 123.198 367.402C123.185 367.368 123.166 367.337 123.141 367.31C123.116 367.284 123.086 367.262 123.053 367.247C123.02 367.232 122.984 367.224 122.948 367.223Z" fill="#263238"/>
<path d="M134.504 136.997C133.684 146.848 131.917 156.597 129.227 166.108C128.88 167.355 128.496 168.583 128.084 169.764C128.084 169.764 124.56 171.413 117.605 175.678C117.605 175.678 117.155 191.039 116.668 208.163C116.162 227.311 115.637 248.67 115.731 253.197C116.134 270.143 113.631 363.324 113.631 363.324L66.5723 363.53C66.5723 363.53 75.0075 259.496 75.0075 253.254C74.9138 243.272 77.2756 199.174 79.0939 167.027C80.2092 147.213 81.1277 137.035 81.1277 137.035L134.504 136.997Z" fill="#263238"/>
<path d="M112.066 354.954C104.878 354.842 106.94 354.767 99.751 354.739C96.2364 354.739 73.1145 354.617 69.8248 355.179C69.7498 355.179 69.7591 355.31 69.8248 355.32C73.1145 355.854 96.2364 355.545 99.7604 355.498C106.949 355.395 104.878 355.348 112.066 355.17C112.09 355.163 112.11 355.149 112.125 355.129C112.139 355.11 112.147 355.086 112.147 355.062C112.147 355.038 112.139 355.014 112.125 354.995C112.11 354.975 112.09 354.961 112.066 354.954Z" fill="#37474F"/>
<path d="M85.1208 143.83C84.2586 170.073 83.3494 191.245 82.1779 217.498C81.0063 243.75 79.4224 270.152 77.2292 296.423C76.0014 311.1 74.8486 331.748 73.2646 346.397C73.2646 346.491 73.4052 346.528 73.4146 346.397C76.8356 320.351 78.7382 288.147 80.4252 261.932C82.1123 235.718 83.237 209.447 84.1273 183.204C84.6241 168.358 85.0084 158.601 85.4489 143.755C85.4582 143.596 85.1302 143.614 85.1208 143.83Z" fill="#37474F"/>
<path d="M86.9296 160.888C88.0918 160.588 89.3289 160.494 90.5099 160.307C91.4471 160.157 92.3844 159.988 93.3216 159.782C95.1321 159.456 96.8478 158.732 98.3452 157.664C100.688 155.789 103.388 146.539 103.716 145.948C104.278 144.926 104.447 145.817 104.447 145.948C104.447 147.026 101.982 155.161 101.026 156.68C99.2825 159.491 96.1521 160.578 93.0311 160.972C92.1407 161.085 91.2409 161.15 90.3411 161.197C89.2063 161.3 88.0644 161.3 86.9296 161.197C86.895 161.189 86.8644 161.169 86.8424 161.141C86.8205 161.113 86.8086 161.078 86.8086 161.042C86.8086 161.007 86.8205 160.972 86.8424 160.944C86.8644 160.916 86.895 160.896 86.9296 160.888Z" fill="#37474F"/>
<path d="M127.934 170.017C123.353 171.68 118.925 173.737 114.7 176.165C114.668 176.184 114.645 176.214 114.634 176.249C114.623 176.284 114.625 176.322 114.64 176.355C114.655 176.389 114.682 176.415 114.715 176.43C114.749 176.446 114.787 176.448 114.822 176.437C119.283 174.562 123.838 172.688 128.196 170.523C128.249 170.481 128.285 170.422 128.299 170.356C128.313 170.29 128.304 170.222 128.273 170.162C128.242 170.102 128.191 170.055 128.13 170.028C128.068 170.002 127.999 169.998 127.934 170.017Z" fill="#37474F"/>
<path d="M129.274 139.406C129.274 139.256 128.993 139.219 128.993 139.406C128.995 144.386 128.745 149.363 128.243 154.318C128.037 156.623 126.191 169.314 122.198 168.376C121.533 168.226 121.195 167.561 121.092 166.558C121.105 165.242 121.282 163.932 121.617 162.659C122.057 159.997 122.414 157.326 122.648 154.646C123.107 149.639 123.051 144.598 122.479 139.603C122.472 139.575 122.455 139.551 122.432 139.533C122.409 139.516 122.381 139.506 122.353 139.506C122.324 139.506 122.296 139.516 122.273 139.533C122.25 139.551 122.234 139.575 122.226 139.603C122.346 146.544 121.938 153.484 121.008 160.363C120.511 163.662 118.843 168.639 122.301 169.154C125.76 169.67 128.103 161.328 128.534 159.051C129.63 152.562 129.879 145.959 129.274 139.406Z" fill="#37474F"/>
<path d="M122.31 168.733C121.936 169.587 121.623 170.467 121.373 171.366C121.119 172.06 120.992 172.793 120.998 173.531C120.998 173.672 121.204 173.681 121.279 173.587C121.697 172.936 122.013 172.225 122.217 171.479C122.517 170.663 122.835 169.857 123.154 169.032C123.194 168.921 123.187 168.798 123.136 168.69C123.085 168.583 122.994 168.501 122.882 168.461C122.77 168.421 122.647 168.427 122.54 168.478C122.433 168.529 122.35 168.621 122.31 168.733Z" fill="#37474F"/>
<path d="M126.659 86.1329C125.282 107.109 126.247 128.543 128.937 132.424C133.108 138.45 160.485 151.337 169.698 153.69C172.716 154.458 179.548 134.401 177.533 131.749C175.518 129.096 145.667 117.456 144.177 116.078C143.38 115.338 139.05 98.0922 135.395 86.3954C132.002 75.5233 127.081 79.7597 126.659 86.1329Z" fill="#AD6359"/>
<path d="M159.322 150.99L168.301 125.741C168.301 125.741 147.401 116.369 144.926 114.963C143.877 114.382 138.412 93.0686 135.554 83.8273C133.679 77.754 127.934 74.7361 125.769 86.8265C124.504 93.9028 123.435 128.14 128 133.82C131.646 138.347 159.322 150.99 159.322 150.99Z" fill="#455A64"/>
<path d="M155.18 147.635C155.536 145.761 158.292 138.216 159.004 136.388C159.716 134.561 162.753 127.147 163.531 125.235C163.531 125.132 163.737 125.16 163.69 125.235C162.997 127.109 160.485 134.776 159.791 136.641C159.098 138.506 156.267 146.014 155.274 147.673C155.271 147.679 155.267 147.684 155.263 147.689C155.258 147.694 155.253 147.698 155.247 147.7C155.241 147.703 155.234 147.704 155.227 147.704C155.221 147.704 155.214 147.703 155.208 147.701C155.202 147.698 155.196 147.695 155.191 147.69C155.187 147.685 155.183 147.68 155.18 147.674C155.178 147.668 155.176 147.661 155.176 147.654C155.176 147.648 155.177 147.641 155.18 147.635Z" fill="#263238"/>
<path opacity="0.1" d="M150.531 146.829C142.096 142.724 130.305 136.669 128.037 133.83C123.473 128.14 124.532 93.9028 125.807 86.8266C126.894 80.7157 128.909 78.4757 130.868 78.5226L150.531 146.829Z" fill="#020100"/>
<path d="M79.2911 136.847C79.3942 137.016 136.566 143.989 137.194 143.511C137.429 143.333 138.844 92.2344 132.845 78.6631C130.371 73.0396 120.333 70.0966 114.728 76.0388C87.3327 105.037 79.1599 136.622 79.2911 136.847Z" fill="#EBEBEB"/>
<path d="M87.8415 158.517L96.5205 182.985L215.619 140.74L206.94 116.272L87.8415 158.517Z" fill="black"/>
<path opacity="0.2" d="M87.8415 158.517L96.5205 182.985L215.619 140.74L206.94 116.272L87.8415 158.517Z" fill="#020100"/>
<g opacity="0.1">
<path d="M205.154 122.348C169.707 135.226 129.837 149.369 94.1934 161.713C129.64 148.835 169.511 134.692 205.154 122.348Z" fill="black"/>
<path d="M206.879 127.203C171.432 140.072 131.571 154.215 95.9556 166.549C131.402 153.671 171.273 139.537 206.916 127.184L206.879 127.203Z" fill="black"/>
<path d="M208.593 132.049C173.147 144.926 133.276 159.07 97.6328 171.413C133.079 158.535 172.959 144.392 208.593 132.049Z" fill="black"/>
<path d="M210.3 136.904C174.853 149.781 134.982 163.925 99.3389 176.268C134.786 163.39 174.656 149.257 210.3 136.904Z" fill="black"/>
</g>
<path d="M86.7233 186.784C86.7233 186.784 72.1304 193.804 67.2098 179.933C62.2893 166.061 78.0444 162.312 78.0444 162.312L86.7233 186.784Z" fill="#FF9ABB"/>
<path d="M77.3779 159.93L87.5107 188.497L94.4448 186.037L84.312 157.47L77.3779 159.93Z" fill="#A6A6A6"/>
<path d="M85.0283 157.206L95.1611 185.772L102.095 183.313L91.9624 154.746L85.0283 157.206Z" fill="#A6A6A6"/>
<path d="M206.907 116.247L227.779 119.208L234.668 120.146L229.982 125.291L215.651 140.746L211.218 139.528C211.218 139.528 213.87 135.92 213.908 135.845L209.475 134.626C209.475 134.626 212.136 131.018 212.174 130.943L207.759 129.781C207.759 129.781 210.402 126.116 210.431 126.032L206.026 124.869C206.026 124.869 208.659 121.205 208.697 121.12L204.282 119.958C204.282 119.958 206.878 116.322 206.907 116.247Z" fill="black"/>
<path opacity="0.8" d="M206.907 116.247L227.779 119.208L234.668 120.146L229.982 125.291L215.651 140.746L211.218 139.528C211.218 139.528 213.87 135.92 213.908 135.845L209.475 134.626C209.475 134.626 212.136 131.018 212.174 130.943L207.759 129.781C207.759 129.781 210.402 126.116 210.431 126.032L206.026 124.869C206.026 124.869 208.659 121.205 208.697 121.12L204.282 119.958C204.282 119.958 206.878 116.322 206.907 116.247Z" fill="white"/>
<path d="M227.779 119.208L234.668 120.164L229.934 125.291L227.779 119.208Z" fill="#263238"/>
<path d="M109.751 79.4223C96.8453 90.9036 79.3282 112.048 80.1155 117.475C82.0837 131.055 92.1591 148.16 97.4358 154.486C100.51 158.179 120.792 142.893 118.215 139.49C114.166 134.101 104.521 117.109 103.425 114.897C102.834 113.716 111.785 97.5206 116.659 86.4236C121.964 74.3518 116.05 73.8363 109.751 79.4223Z" fill="#AD6359"/>
<path d="M125.01 150.147C124.279 148.657 125.057 148.272 127.7 149.538C130.343 150.803 139.753 158.123 142.03 154.627C144.308 151.131 130.886 141.018 126.303 139.228C121.72 137.438 113.763 136.154 113.763 136.154C115.956 138.638 120.755 145.198 125.01 150.147Z" fill="#AD6359"/>
<path d="M97.2954 154.383C103.791 161.169 111.467 170.026 121.664 172.903C122.79 173.256 124.003 173.217 125.104 172.791C129.659 174.169 131.664 172.425 131.664 172.425C136.294 172.425 138.113 170.354 138.113 170.354C138.113 170.354 143.464 171.9 144.945 168.817C146.613 165.368 138.759 163.859 134.945 160.382C126.209 152.434 116.012 138.684 113.725 136.144L97.2954 154.383Z" fill="#AD6359"/>
<path d="M119.949 158.489C122.479 160.857 125.169 163.049 127.999 165.049C131.225 167.031 134.593 168.773 138.075 170.26C138.089 170.262 138.103 170.267 138.115 170.274C138.127 170.282 138.137 170.293 138.145 170.305C138.152 170.317 138.157 170.331 138.158 170.345C138.159 170.36 138.157 170.374 138.152 170.387C138.147 170.401 138.139 170.413 138.128 170.423C138.117 170.432 138.105 170.439 138.091 170.444C138.077 170.448 138.063 170.448 138.048 170.446C138.034 170.443 138.021 170.438 138.009 170.429C130.99 168.234 124.707 164.156 119.845 158.638C119.733 158.479 119.817 158.376 119.949 158.489Z" fill="#263238"/>
<path d="M114.391 163.072C117.062 165.152 121.776 168.789 131.721 172.322C131.721 172.322 131.721 172.397 131.721 172.388C125.175 170.999 119.145 167.816 114.307 163.193C114.129 163.053 114.213 162.931 114.391 163.072Z" fill="#263238"/>
<path d="M111.438 165.583C116.125 168.957 119.489 170.495 125.103 172.763C125.103 172.763 125.103 172.838 125.103 172.819C118.458 170.944 116.265 169.464 111.326 165.724C111.139 165.602 111.26 165.452 111.438 165.583Z" fill="#263238"/>
<path d="M91.9435 153.727L117.793 136.023L104.671 114.963C109.179 106.068 117.577 88.4854 119.77 81.8685C122.348 74.1081 117.896 73.1615 111.279 78.2882C96.2829 90.0038 76.91 112.601 76.0197 117.287C74.745 123.988 91.9435 153.727 91.9435 153.727Z" fill="#455A64"/>
<path d="M92.2531 147.316C93.6402 145.929 100.248 141.234 101.907 140.081C103.566 138.928 110.342 134.523 112.095 133.352C112.188 133.286 112.301 133.398 112.207 133.464C110.539 134.654 104.062 139.603 102.413 140.765C100.763 141.927 94.0807 146.585 92.3093 147.401C92.2531 147.438 92.2062 147.363 92.2531 147.316Z" fill="#263238"/>
<path d="M115.056 93.5747C112.469 99.9667 108.936 106.546 106.031 112.807C105.824 113.257 105.178 114.682 105.093 114.906C107.999 120.061 111.654 125.61 114.7 130.746L117.83 135.948L117.118 136.398L117.784 135.873V135.938L114.344 130.924C111.082 125.994 107.465 120.614 104.493 115.563C104.372 115.291 104.203 115.15 104.222 114.775C104.456 113.941 104.77 113.131 105.159 112.357C108.064 106.265 111.87 99.4512 115.028 93.5091L115.056 93.5747Z" fill="#263238"/>
<path d="M115.244 94.8213C114.734 95.8193 114.003 96.6879 113.107 97.3612C113.768 96.4725 114.481 95.6243 115.244 94.8213Z" fill="#263238"/>
<path d="M169.201 145.189C170.766 142.377 173.194 145.826 173.194 145.826C173.194 145.826 170.907 140.006 173.644 137.728C176.381 135.451 179.07 139.828 179.267 140.128C179.145 139.818 177.187 134.411 180.204 132.405C183.222 130.399 185.359 135.104 185.491 135.413C185.491 135.095 185.284 130.727 187.899 129.79C192.398 128.065 193.982 140.381 197.037 142.818L204.095 141.046C202.683 142.273 201.654 143.88 201.133 145.676C200.308 148.254 199.774 149.969 198.584 151.169C198.066 151.725 197.382 152.099 196.634 152.236C195.886 152.373 195.114 152.265 194.432 151.928C194.432 151.928 195.116 155.283 192.81 156.933C191.63 157.776 189.221 156.633 189.221 156.633C189.221 156.633 189.652 159.341 187.515 160.682C185.809 161.759 183.663 160.447 183.663 160.447C183.663 160.447 182.876 163.259 180.776 163.775C176.559 164.824 165.846 151.215 169.201 145.189Z" fill="#AD6359"/>
<path d="M198.715 142.621L203.945 141.065H204.563C211.546 140.943 217.272 147.813 212.502 149.341C208.875 150.503 203.879 146.389 200.318 148.123L198.715 142.621Z" fill="#AD6359"/>
<path d="M183.279 160.251C183.279 160.251 183.279 160.363 183.222 160.326C178.414 156.582 174.861 151.462 173.035 145.648C172.988 145.461 173.269 145.292 173.363 145.489C175.932 150.866 179.273 155.839 183.279 160.251Z" fill="#263238"/>
<path d="M189.239 156.689C189.239 156.736 189.239 156.811 189.146 156.764C184.413 153.015 180.129 146.829 179.033 140.081C179.033 139.847 179.192 139.603 179.258 139.865C180.307 144.299 185.415 152.603 189.239 156.689Z" fill="#263238"/>
<path d="M185.565 134.917C186.868 141.346 190.102 146.717 194.216 151.787C194.272 151.853 194.169 151.918 194.113 151.881C191.433 150.006 189.146 146.482 187.552 143.624C186.063 140.995 185.288 138.022 185.303 135.001C185.34 134.842 185.537 134.786 185.565 134.917Z" fill="#263238"/>
<path d="M122.601 72.0462C119.789 73.1803 120.024 76.8917 121.945 81.4749C123.866 86.058 126.866 89.2915 129.949 89.0478C133.033 88.8042 134.185 84.446 134.467 81.9435C134.682 79.9753 133.961 76.0014 130.568 74.0613C127.175 72.1212 124.204 71.3995 122.601 72.0462Z" fill="#455A64"/>
<path d="M129.171 87.2952C125.797 86.7797 121.889 79.2724 121.345 74.6236C121.345 74.3049 122.817 71.7088 124.513 68.4659C125.525 66.4977 126.613 64.2858 127.456 62.1863L139.303 70.6684C137.501 72.975 135.987 75.493 134.795 78.1664C134.68 78.4544 134.592 78.7525 134.532 79.0568C134.536 79.1067 134.536 79.1568 134.532 79.2067C134.101 80.9781 132.433 87.7919 129.171 87.2952Z" fill="#AD6359"/>
<path d="M134.532 79.1036C134.532 79.1036 134.532 79.188 134.532 79.2442C134.061 79.126 133.6 78.9693 133.155 78.7756C125.657 75.5421 127.587 65.5136 128.3 62.7581L131.252 64.8762L139.341 70.6778C137.537 72.9835 136.023 75.5016 134.832 78.1758C134.702 78.4742 134.601 78.7851 134.532 79.1036Z" fill="#263238"/>
<path d="M129.799 47.4528C127.175 52.0078 126.519 66.7413 129.274 70.6965C133.267 76.4231 141.458 78.7568 146.707 73.5832C151.824 68.569 152.33 49.346 149.116 45.5877C144.354 40.0579 133.66 40.7327 129.799 47.4528Z" fill="#AD6359"/>
<path d="M141.608 59.8338C141.608 59.8338 141.533 59.8338 141.533 59.9182C141.533 60.9116 141.327 62.0457 140.409 62.3269C140.409 62.3269 140.409 62.3925 140.409 62.3831C141.524 62.2894 141.758 60.7804 141.608 59.8338Z" fill="#263238"/>
<path d="M140.774 58.756C139.19 58.5498 138.9 61.7458 140.381 61.9333C141.862 62.1207 142.115 58.9247 140.774 58.756Z" fill="#263238"/>
<path d="M147.242 60.1525C147.242 60.1525 147.317 60.1525 147.307 60.2462C147.195 61.2303 147.223 62.3831 148.085 62.7861C148.085 62.7861 148.085 62.8517 148.085 62.8424C146.998 62.5893 146.97 61.0616 147.242 60.1525Z" fill="#263238"/>
<path d="M148.216 59.1965C149.819 59.1965 149.659 62.4206 148.216 62.4019C146.773 62.3831 146.876 59.1777 148.216 59.1965Z" fill="#263238"/>
<path d="M139.425 56.2535C139.862 56.2109 140.297 56.1452 140.728 56.0567C141.195 56.0554 141.65 55.9006 142.021 55.6162C142.111 55.496 142.16 55.3496 142.16 55.1991C142.16 55.0487 142.111 54.9023 142.021 54.7821C141.817 54.5635 141.558 54.4025 141.272 54.3154C140.986 54.2282 140.682 54.2178 140.39 54.2853C139.778 54.3375 139.207 54.6147 138.788 55.0632C138.691 55.1737 138.631 55.3108 138.614 55.4565C138.597 55.6021 138.626 55.7494 138.695 55.8786C138.764 56.0079 138.871 56.113 139.001 56.1799C139.132 56.2469 139.279 56.2726 139.425 56.2535Z" fill="#263238"/>
<path d="M149.819 56.6566C149.399 56.531 148.986 56.3839 148.581 56.2161C148.123 56.1182 147.709 55.8749 147.4 55.5225C147.334 55.3969 147.308 55.2535 147.326 55.1124C147.345 54.9713 147.407 54.8395 147.504 54.7353C147.747 54.5608 148.031 54.4534 148.329 54.4238C148.627 54.3942 148.927 54.4434 149.2 54.5665C149.789 54.738 150.293 55.1221 150.615 55.6444C150.672 55.7654 150.693 55.8996 150.678 56.0322C150.663 56.1648 150.611 56.2906 150.528 56.3955C150.446 56.5004 150.336 56.5803 150.21 56.6264C150.085 56.6725 149.949 56.683 149.819 56.6566Z" fill="#263238"/>
<path d="M126.135 57.247C125.985 55.888 125.385 44.3505 126.003 42.8884C126.622 41.4263 127.99 42.3729 128.028 42.2979C128.065 42.223 128.318 40.9671 129.171 40.6203C129.46 40.5534 129.76 40.5464 130.051 40.5996C130.343 40.6528 130.621 40.7651 130.868 40.9296C130.868 40.9296 131.327 39.6362 132.217 39.4112C132.513 39.3716 132.814 39.4086 133.091 39.5185C133.369 39.6284 133.613 39.8077 133.801 40.0392C133.936 39.6976 134.153 39.3942 134.432 39.1557C134.712 38.9172 135.045 38.7507 135.404 38.6708C135.717 38.6356 136.033 38.7024 136.304 38.8611C136.576 39.0198 136.79 39.2621 136.913 39.5518C136.913 39.5518 137.485 38.3428 138.394 38.2397C139.303 38.1366 139.912 39.1769 139.912 39.1769C140.091 38.88 140.346 38.6365 140.651 38.4717C140.956 38.3069 141.3 38.2268 141.646 38.2397C141.974 38.3163 142.272 38.4893 142.5 38.7365C142.729 38.9837 142.879 39.2938 142.93 39.6268C143.146 39.3515 143.422 39.1292 143.737 38.9765C144.053 38.8239 144.398 38.745 144.748 38.7458C145.751 38.877 145.892 40.1798 145.892 40.1798C145.892 40.1798 146.473 39.1394 147.401 39.3644C148.329 39.5893 148.338 40.9389 148.338 40.9389C148.338 40.9389 149.181 39.6268 150.109 40.3485C151.206 41.2107 151.281 49.7209 151.047 53.2825C151.047 53.2825 150.653 50.6488 149.641 50.6113C148.628 50.5738 147.944 52.7576 146.107 52.0734C144.27 51.3892 141.833 49.2617 139.115 49.3742C136.397 49.4866 134.214 52.1859 132.63 56.0849C130.877 60.4805 126.491 60.4618 126.135 57.247Z" fill="#263238"/>
<path d="M138.9 64.4076C138.136 64.2371 137.435 63.8556 136.878 63.3065C136.32 62.7573 135.928 62.0627 135.745 61.3016C135.563 60.5405 135.598 59.7435 135.846 59.0014C136.095 58.2592 136.547 57.6017 137.15 57.1036C137.754 56.6055 138.485 56.2869 139.261 56.1841C140.037 56.0812 140.826 56.1982 141.539 56.5218C142.251 56.8454 142.859 57.3625 143.292 58.0143C143.725 58.6661 143.967 59.4265 143.989 60.2088C144.003 60.8438 143.874 61.4738 143.609 62.0514C143.345 62.629 142.953 63.1391 142.463 63.5433C141.973 63.9475 141.398 64.2353 140.781 64.3851C140.164 64.5348 139.52 64.5425 138.9 64.4076ZM140.605 56.7878C140.297 56.7235 139.983 56.6952 139.668 56.7035C138.75 56.7408 137.881 57.126 137.237 57.7808C136.592 58.4356 136.221 59.3111 136.199 60.2295C136.176 61.1479 136.504 62.0404 137.115 62.7261C137.727 63.4118 138.576 63.8391 139.491 63.9215C140.406 64.0038 141.318 63.735 142.042 63.1695C142.766 62.6041 143.248 61.7843 143.39 60.8767C143.532 59.969 143.323 59.0414 142.806 58.282C142.289 57.5227 141.502 56.9885 140.605 56.7878Z" fill="black"/>
<path d="M148.441 65.3543C146.885 64.9981 145.826 63.0861 146.051 60.9117C146.141 59.874 146.554 58.8905 147.232 58.1C147.515 57.7553 147.876 57.483 148.285 57.3053C148.694 57.1277 149.139 57.0499 149.585 57.0784C150.025 57.139 150.444 57.3053 150.807 57.5632C151.169 57.8211 151.464 58.1628 151.665 58.5592C152.167 59.4737 152.371 60.5225 152.246 61.5584C152.003 63.8547 150.419 65.5698 148.713 65.3918L148.441 65.3543ZM149.734 57.6688H149.528C149.171 57.6488 148.814 57.715 148.488 57.8618C148.162 58.0086 147.876 58.2317 147.654 58.5124C147.051 59.2115 146.686 60.0849 146.613 61.0054C146.398 62.9924 147.373 64.7544 148.769 64.8763C150.166 64.9981 151.478 63.5266 151.693 61.5397C151.799 60.6216 151.623 59.6931 151.187 58.8779C151.044 58.5852 150.841 58.3261 150.59 58.1177C150.34 57.9093 150.048 57.7563 149.734 57.6688Z" fill="black"/>
<path d="M143.801 60.6773L143.492 60.2087C144.176 59.7494 145.704 59.1871 146.613 60.3774L146.163 60.7148C145.357 59.6463 143.867 60.6305 143.801 60.6773Z" fill="black"/>
<path d="M125.16 59.8151L124.701 59.5058C124.841 59.2903 126.135 57.3783 127.391 57.3033C128.646 57.2283 135.948 58.7092 136.266 58.7748L136.154 59.3277C134.036 58.8966 128.337 57.8094 127.428 57.8656C126.519 57.9219 125.507 59.2903 125.16 59.8151Z" fill="black"/>
<path d="M130.174 59.6745C130.174 59.6745 127.915 54.4166 125.591 55.1195C123.267 55.8224 124.298 62.9924 126.528 64.417C126.805 64.6197 127.12 64.7641 127.454 64.8415C127.788 64.9189 128.134 64.9276 128.471 64.8671C128.809 64.8067 129.13 64.6783 129.417 64.4897C129.703 64.3012 129.948 64.0564 130.137 63.7703L130.174 59.6745Z" fill="#AD6359"/>
<path d="M125.947 57.172C125.947 57.172 125.891 57.172 125.947 57.2282C127.521 58.2873 128.093 60.04 128.384 61.8489C128.321 61.6554 128.217 61.4779 128.078 61.3289C127.94 61.1799 127.771 61.0629 127.582 60.9861C127.394 60.9093 127.191 60.8746 126.988 60.8844C126.785 60.8942 126.586 60.9483 126.406 61.0428C126.35 61.0428 126.406 61.1459 126.406 61.1459C126.728 61.1109 127.052 61.177 127.334 61.3349C127.616 61.4928 127.842 61.7347 127.981 62.0269C128.208 62.5157 128.381 63.028 128.496 63.5547C128.552 63.7327 128.843 63.7046 128.824 63.5547V63.5078C129.302 61.2959 128.243 57.8749 125.947 57.172Z" fill="#263238"/>
</svg>
